  0
SECTION
  2
HEADER
  9
$ACADVER
  1
AC1014
  9
$HANDSEED
  5
FFFF
  9
$MEASUREMENT
 70
     1
  0
ENDSEC
  0
SECTION
  2
TABLES
  0
TABLE
  2
VPORT
  5
8
330
0
100
AcDbSymbolTable
 70
     4
  0
VPORT
  5
2E
330
8
100
AcDbSymbolTableRecord
100
AcDbViewportTableRecord
  2
*ACTIVE
 70
     0
 10
0.0
 20
0.0
 11
1.0
 21
1.0
 12
210.0
 22
148.5
 13
0.0
 23
0.0
 14
10.0
 24
10.0
 15
10.0
 25
10.0
 16
0.0
 26
0.0
 36
1.0
 17
0.0
 27
0.0
 37
0.0
 40
341.0
 41
1.24
 42
50.0
 43
0.0
 44
0.0
 50
0.0
 51
0.0
 71
     0
 72
   100
 73
     1
 74
     3
 75
     0
 76
     0
 77
     0
 78
     0
  0
ENDTAB
  0
TABLE
  2
LTYPE
  5
5
330
0
100
AcDbSymbolTable
 70
     1
  0
LTYPE
  5
14
330
5
100
AcDbSymbolTableRecord
100
AcDbLinetypeTableRecord
  2
BYBLOCK
 70
     0
  3

 72
    65
 73
     0
 40
0.0
  0
LTYPE
  5
15
330
5
100
AcDbSymbolTableRecord
100
AcDbLinetypeTableRecord
  2
BYLAYER
 70
     0
  3

 72
    65
 73
     0
 40
0.0
  0
LTYPE
  5
16
330
5
100
AcDbSymbolTableRecord
100
AcDbLinetypeTableRecord
  2
CONTINUOUS
 70
     0
  3
Solid line
 72
    65
 73
     0
 40
0.0
  0
ENDTAB
  0
TABLE
  2
LAYER
  5
2
100
AcDbSymbolTable
 70
2
  0
LAYER
  5
50
100
AcDbSymbolTableRecord
100
AcDbLayerTableRecord
  2
0
 70
0
  6
CONTINUOUS
  0
LAYER
  5
51
100
AcDbSymbolTableRecord
100
AcDbLayerTableRecord
  2
Layer_1
 70
0
  6
CONTINUOUS
  0
ENDTAB
  0
TABLE
  2
STYLE
  5
3
330
0
100
AcDbSymbolTable
 70
     1
  0
STYLE
  5
11
330
3
100
AcDbSymbolTableRecord
100
AcDbTextStyleTableRecord
  2
STANDARD
 70
     0
 40
0.0
 41
1.0
 50
0.0
 71
     0
 42
2.5
  3
txt
  4

  0
ENDTAB
  0
TABLE
  2
VIEW
  5
6
330
0
100
AcDbSymbolTable
 70
     0
  0
ENDTAB
  0
TABLE
  2
UCS
  5
7
330
0
100
AcDbSymbolTable
 70
     0
  0
ENDTAB
  0
TABLE
  2
APPID
  5
9
330
0
100
AcDbSymbolTable
 70
     2
  0
APPID
  5
12
330
9
100
AcDbSymbolTableRecord
100
AcDbRegAppTableRecord
  2
ACAD
 70
     0
  0
ENDTAB
  0
TABLE
  2
DIMSTYLE
  5
A
330
0
100
AcDbSymbolTable
 70
     1
  0
DIMSTYLE
105
27
330
A
100
AcDbSymbolTableRecord
100
AcDbDimStyleTableRecord
  2
ISO-25
 70
     0
  3

  4

  5

  6

  7

 40
1.0
 41
2.5
 42
0.625
 43
3.75
 44
1.25
 45
0.0
 46
0.0
 47
0.0
 48
0.0
140
2.5
141
2.5
142
0.0
143
0.03937007874016
144
1.0
145
0.0
146
1.0
147
0.625
 71
     0
 72
     0
 73
     0
 74
     0
 75
     0
 76
     0
 77
     1
 78
     8
170
     0
171
     3
172
     1
173
     0
174
     0
175
     0
176
     0
177
     0
178
     0
270
     2
271
     2
272
     2
273
     2
274
     3
340
11
275
     0
280
     0
281
     0
282
     0
283
     0
284
     8
285
     0
286
     0
287
     3
288
     0
  0
ENDTAB
  0
TABLE
  2
BLOCK_RECORD
  5
1
330
0
100
AcDbSymbolTable
 70
     1
  0
BLOCK_RECORD
  5
1F
330
1
100
AcDbSymbolTableRecord
100
AcDbBlockTableRecord
  2
*MODEL_SPACE
  0
BLOCK_RECORD
  5
1B
330
1
100
AcDbSymbolTableRecord
100
AcDbBlockTableRecord
  2
*PAPER_SPACE
  0
ENDTAB
  0
ENDSEC
  0
SECTION
  2
BLOCKS
  0
BLOCK
  5
20
330
1F
100
AcDbEntity
  8
0
100
AcDbBlockBegin
  2
*MODEL_SPACE
 70
     0
 10
0.0
 20
0.0
 30
0.0
  3
*MODEL_SPACE
  1

  0
ENDBLK
  5
21
330
1F
100
AcDbEntity
  8
0
100
AcDbBlockEnd
  0
BLOCK
  5
1C
330
1B
100
AcDbEntity
 67
     1
  8
0
100
AcDbBlockBegin
  2
*PAPER_SPACE
  1

  0
ENDBLK
  5
1D
330
1B
100
AcDbEntity
 67
     1
  8
0
100
AcDbBlockEnd
  0
ENDSEC
  0
SECTION
  2
ENTITIES
  0
LWPOLYLINE
  5
100
100
AcDbEntity
  8
Layer_1
 62
7
100
AcDbPolyline
 90
2
 70
0
 10
149.279001
 20
897.417546
 30
0.0
 10
168.932397
 20
897.417546
 30
0.0
  0
LWPOLYLINE
  5
101
100
AcDbEntity
  8
Layer_1
 62
7
100
AcDbPolyline
 90
2
 70
0
 10
168.932397
 20
901.117558
 30
0.0
 10
168.932397
 20
897.417546
 30
0.0
  0
LWPOLYLINE
  5
102
100
AcDbEntity
  8
Layer_1
 62
7
100
AcDbPolyline
 90
5
 70
0
 10
168.932397
 20
901.117558
 30
0.0
 10
188.585585
 20
901.117558
 30
0.0
 10
188.585585
 20
897.417546
 30
0.0
 10
198.672075
 20
897.417546
 30
0.0
 10
198.672075
 20
794.817217
 30
0.0
  0
LWPOLYLINE
  5
103
100
AcDbEntity
  8
Layer_1
 62
7
100
AcDbPolyline
 90
2
 70
0
 10
188.585585
 20
794.817217
 30
0.0
 10
198.672075
 20
794.817217
 30
0.0
  0
LWPOLYLINE
  5
104
100
AcDbEntity
  8
Layer_1
 62
7
100
AcDbPolyline
 90
2
 70
0
 10
188.585585
 20
791.117206
 30
0.0
 10
188.585585
 20
794.817217
 30
0.0
  0
LWPOLYLINE
  5
105
100
AcDbEntity
  8
Layer_1
 62
7
100
AcDbPolyline
 90
3
 70
0
 10
188.585585
 20
791.117206
 30
0.0
 10
168.932397
 20
791.117206
 30
0.0
 10
168.932397
 20
794.817217
 30
0.0
  0
LWPOLYLINE
  5
106
100
AcDbEntity
  8
Layer_1
 62
7
100
AcDbPolyline
 90
2
 70
0
 10
149.279001
 20
794.817217
 30
0.0
 10
168.932397
 20
794.817217
 30
0.0
  0
LWPOLYLINE
  5
107
100
AcDbEntity
  8
Layer_1
 62
7
100
AcDbPolyline
 90
2
 70
0
 10
149.279001
 20
791.117206
 30
0.0
 10
149.279001
 20
794.817217
 30
0.0
  0
LWPOLYLINE
  5
108
100
AcDbEntity
  8
Layer_1
 62
7
100
AcDbPolyline
 90
3
 70
0
 10
149.279001
 20
791.117206
 30
0.0
 10
129.625605
 20
791.117206
 30
0.0
 10
129.625605
 20
794.817217
 30
0.0
  0
LWPOLYLINE
  5
109
100
AcDbEntity
  8
Layer_1
 62
7
100
AcDbPolyline
 90
2
 70
0
 10
128.672268
 20
794.817217
 30
0.0
 10
129.625605
 20
794.817217
 30
0.0
  0
LWPOLYLINE
  5
10a
100
AcDbEntity
  8
Layer_1
 62
7
100
AcDbPolyline
 90
2
 70
0
 10
128.672268
 20
897.417546
 30
0.0
 10
128.672268
 20
794.817217
 30
0.0
  0
LWPOLYLINE
  5
10b
100
AcDbEntity
  8
Layer_1
 62
7
100
AcDbPolyline
 90
2
 70
0
 10
128.672268
 20
897.417546
 30
0.0
 10
129.625605
 20
897.417546
 30
0.0
  0
LWPOLYLINE
  5
10c
100
AcDbEntity
  8
Layer_1
 62
7
100
AcDbPolyline
 90
2
 70
0
 10
129.625605
 20
901.117558
 30
0.0
 10
129.625605
 20
897.417546
 30
0.0
  0
LWPOLYLINE
  5
10d
100
AcDbEntity
  8
Layer_1
 62
7
100
AcDbPolyline
 90
3
 70
0
 10
129.625605
 20
901.117558
 30
0.0
 10
149.279001
 20
901.117558
 30
0.0
 10
149.279001
 20
897.417546
 30
0.0
  0
LWPOLYLINE
  5
10e
100
AcDbEntity
  8
Layer_1
 62
7
100
AcDbPolyline
 90
3
 70
0
 10
222.372151
 20
887.417514
 30
0.0
 10
292.372375
 20
887.417514
 30
0.0
 10
292.372375
 20
804.817249
 30
0.0
  0
LWPOLYLINE
  5
10f
100
AcDbEntity
  8
Layer_1
 62
7
100
AcDbPolyline
 90
2
 70
0
 10
222.372151
 20
804.817249
 30
0.0
 10
292.372375
 20
804.817249
 30
0.0
  0
SPLINE
  5
110
100
AcDbEntity
  8
Layer_1
 62
7
100
AcDbSpline
 70
8
 71
3
 72
8
 73
4
 74
0
 40
0
 40
0
 40
0
 40
0
 40
1
 40
1
 40
1
 40
1
 10
269.872720
 20
768.866718
 30
0.0
 10
269.872720
 20
773.332552
 30
0.0
 10
267.490226
 20
777.459153
 30
0.0
 10
263.622700
 20
779.692070
 30
0.0
  0
SPLINE
  5
111
100
AcDbEntity
  8
Layer_1
 62
7
100
AcDbSpline
 70
8
 71
3
 72
8
 73
4
 74
0
 40
0
 40
0
 40
0
 40
0
 40
1
 40
1
 40
1
 40
1
 10
263.622700
 20
779.692070
 30
0.0
 10
259.755174
 20
781.924987
 30
0.0
 10
254.990186
 20
781.924987
 30
0.0
 10
251.122660
 20
779.692070
 30
0.0
  0
SPLINE
  5
112
100
AcDbEntity
  8
Layer_1
 62
7
100
AcDbSpline
 70
8
 71
3
 72
8
 73
4
 74
0
 40
0
 40
0
 40
0
 40
0
 40
1
 40
1
 40
1
 40
1
 10
251.122660
 20
779.692070
 30
0.0
 10
247.255134
 20
777.459153
 30
0.0
 10
244.872640
 20
773.332552
 30
0.0
 10
244.872640
 20
768.866718
 30
0.0
  0
SPLINE
  5
113
100
AcDbEntity
  8
Layer_1
 62
7
100
AcDbSpline
 70
8
 71
3
 72
8
 73
4
 74
0
 40
0
 40
0
 40
0
 40
0
 40
1
 40
1
 40
1
 40
1
 10
244.872640
 20
768.866718
 30
0.0
 10
244.872640
 20
764.400883
 30
0.0
 10
247.255134
 20
760.274282
 30
0.0
 10
251.122660
 20
758.041365
 30
0.0
  0
SPLINE
  5
114
100
AcDbEntity
  8
Layer_1
 62
7
100
AcDbSpline
 70
8
 71
3
 72
8
 73
4
 74
0
 40
0
 40
0
 40
0
 40
0
 40
1
 40
1
 40
1
 40
1
 10
251.122660
 20
758.041365
 30
0.0
 10
254.990186
 20
755.808448
 30
0.0
 10
259.755174
 20
755.808448
 30
0.0
 10
263.622700
 20
758.041365
 30
0.0
  0
SPLINE
  5
115
100
AcDbEntity
  8
Layer_1
 62
7
100
AcDbSpline
 70
8
 71
3
 72
8
 73
4
 74
0
 40
0
 40
0
 40
0
 40
0
 40
1
 40
1
 40
1
 40
1
 10
263.622700
 20
758.041365
 30
0.0
 10
267.490226
 20
760.274282
 30
0.0
 10
269.872720
 20
764.400883
 30
0.0
 10
269.872720
 20
768.866718
 30
0.0
  0
LWPOLYLINE
  5
116
100
AcDbEntity
  8
Layer_1
 62
7
100
AcDbPolyline
 90
2
 70
0
 10
222.372151
 20
887.417514
 30
0.0
 10
222.372151
 20
804.817249
 30
0.0
  0
LWPOLYLINE
  5
117
100
AcDbEntity
  8
Layer_1
 62
7
100
AcDbPolyline
 90
1
 70
1
 10
269.872720
 20
768.866718
 30
0.0
  0
LWPOLYLINE
  5
118
100
AcDbEntity
  8
Layer_1
 62
7
100
AcDbPolyline
 90
3
 70
0
 10
109.972208
 20
827.783990
 30
0.0
 10
109.972208
 20
840.005904
 30
0.0
 10
113.672220
 20
840.005904
 30
0.0
  0
LWPOLYLINE
  5
119
100
AcDbEntity
  8
Layer_1
 62
7
100
AcDbPolyline
 90
2
 70
0
 10
113.672220
 20
827.783990
 30
0.0
 10
113.672220
 20
840.005904
 30
0.0
  0
LWPOLYLINE
  5
11a
100
AcDbEntity
  8
Layer_1
 62
7
100
AcDbPolyline
 90
2
 70
0
 10
109.972208
 20
827.783990
 30
0.0
 10
113.672220
 20
827.783990
 30
0.0
  0
LWPOLYLINE
  5
11b
100
AcDbEntity
  8
Layer_1
 62
7
100
AcDbPolyline
 90
3
 70
0
 10
109.972208
 20
852.227818
 30
0.0
 10
109.972208
 20
864.450774
 30
0.0
 10
113.672220
 20
864.450774
 30
0.0
  0
LWPOLYLINE
  5
11c
100
AcDbEntity
  8
Layer_1
 62
7
100
AcDbPolyline
 90
2
 70
0
 10
113.672220
 20
852.227818
 30
0.0
 10
113.672220
 20
864.450774
 30
0.0
  0
LWPOLYLINE
  5
11d
100
AcDbEntity
  8
Layer_1
 62
7
100
AcDbPolyline
 90
2
 70
0
 10
109.972208
 20
852.227818
 30
0.0
 10
113.672220
 20
852.227818
 30
0.0
  0
LWPOLYLINE
  5
11e
100
AcDbEntity
  8
Layer_1
 62
7
100
AcDbPolyline
 90
3
 70
0
 10
109.972208
 20
876.672688
 30
0.0
 10
109.972208
 20
888.894602
 30
0.0
 10
113.672220
 20
888.894602
 30
0.0
  0
LWPOLYLINE
  5
11f
100
AcDbEntity
  8
Layer_1
 62
7
100
AcDbPolyline
 90
2
 70
0
 10
113.672220
 20
876.672688
 30
0.0
 10
113.672220
 20
888.894602
 30
0.0
  0
LWPOLYLINE
  5
120
100
AcDbEntity
  8
Layer_1
 62
7
100
AcDbPolyline
 90
2
 70
0
 10
109.972208
 20
876.672688
 30
0.0
 10
113.672220
 20
876.672688
 30
0.0
  0
LWPOLYLINE
  5
121
100
AcDbEntity
  8
Layer_1
 62
7
100
AcDbPolyline
 90
3
 70
0
 10
109.972208
 20
803.339120
 30
0.0
 10
109.972208
 20
815.561034
 30
0.0
 10
113.672220
 20
815.561034
 30
0.0
  0
LWPOLYLINE
  5
122
100
AcDbEntity
  8
Layer_1
 62
7
100
AcDbPolyline
 90
2
 70
0
 10
113.672220
 20
803.339120
 30
0.0
 10
113.672220
 20
815.561034
 30
0.0
  0
LWPOLYLINE
  5
123
100
AcDbEntity
  8
Layer_1
 62
7
100
AcDbPolyline
 90
2
 70
0
 10
109.972208
 20
803.339120
 30
0.0
 10
113.672220
 20
803.339120
 30
0.0
  0
LWPOLYLINE
  5
124
100
AcDbEntity
  8
Layer_1
 62
7
100
AcDbPolyline
 90
3
 70
0
 10
213.672123
 20
829.017327
 30
0.0
 10
213.672123
 20
840.417363
 30
0.0
 10
217.372135
 20
840.417363
 30
0.0
  0
LWPOLYLINE
  5
125
100
AcDbEntity
  8
Layer_1
 62
7
100
AcDbPolyline
 90
2
 70
0
 10
217.372135
 20
829.017327
 30
0.0
 10
217.372135
 20
840.417363
 30
0.0
  0
LWPOLYLINE
  5
126
100
AcDbEntity
  8
Layer_1
 62
7
100
AcDbPolyline
 90
2
 70
0
 10
213.672123
 20
829.017327
 30
0.0
 10
217.372135
 20
829.017327
 30
0.0
  0
LWPOLYLINE
  5
127
100
AcDbEntity
  8
Layer_1
 62
7
100
AcDbPolyline
 90
3
 70
0
 10
213.672123
 20
851.817400
 30
0.0
 10
213.672123
 20
863.217436
 30
0.0
 10
217.372135
 20
863.217436
 30
0.0
  0
LWPOLYLINE
  5
128
100
AcDbEntity
  8
Layer_1
 62
7
100
AcDbPolyline
 90
2
 70
0
 10
217.372135
 20
851.817400
 30
0.0
 10
217.372135
 20
863.217436
 30
0.0
  0
LWPOLYLINE
  5
129
100
AcDbEntity
  8
Layer_1
 62
7
100
AcDbPolyline
 90
2
 70
0
 10
213.672123
 20
851.817400
 30
0.0
 10
217.372135
 20
851.817400
 30
0.0
  0
LWPOLYLINE
  5
12a
100
AcDbEntity
  8
Layer_1
 62
7
100
AcDbPolyline
 90
3
 70
0
 10
213.672123
 20
874.617473
 30
0.0
 10
213.672123
 20
886.017509
 30
0.0
 10
217.372135
 20
886.017509
 30
0.0
  0
LWPOLYLINE
  5
12b
100
AcDbEntity
  8
Layer_1
 62
7
100
AcDbPolyline
 90
2
 70
0
 10
217.372135
 20
874.617473
 30
0.0
 10
217.372135
 20
886.017509
 30
0.0
  0
LWPOLYLINE
  5
12c
100
AcDbEntity
  8
Layer_1
 62
7
100
AcDbPolyline
 90
2
 70
0
 10
213.672123
 20
874.617473
 30
0.0
 10
217.372135
 20
874.617473
 30
0.0
  0
LWPOLYLINE
  5
12d
100
AcDbEntity
  8
Layer_1
 62
7
100
AcDbPolyline
 90
3
 70
0
 10
213.672123
 20
806.217254
 30
0.0
 10
213.672123
 20
817.617290
 30
0.0
 10
217.372135
 20
817.617290
 30
0.0
  0
LWPOLYLINE
  5
12e
100
AcDbEntity
  8
Layer_1
 62
7
100
AcDbPolyline
 90
2
 70
0
 10
217.372135
 20
806.217254
 30
0.0
 10
217.372135
 20
817.617290
 30
0.0
  0
LWPOLYLINE
  5
12f
100
AcDbEntity
  8
Layer_1
 62
7
100
AcDbPolyline
 90
2
 70
0
 10
213.672123
 20
806.217254
 30
0.0
 10
217.372135
 20
806.217254
 30
0.0
  0
LWPOLYLINE
  5
130
100
AcDbEntity
  8
Layer_1
 62
7
100
AcDbPolyline
 90
3
 70
0
 10
404.772735
 20
864.450774
 30
0.0
 10
404.772735
 20
852.227818
 30
0.0
 10
401.072723
 20
852.227818
 30
0.0
  0
LWPOLYLINE
  5
131
100
AcDbEntity
  8
Layer_1
 62
7
100
AcDbPolyline
 90
2
 70
0
 10
401.072723
 20
864.450774
 30
0.0
 10
401.072723
 20
852.227818
 30
0.0
  0
LWPOLYLINE
  5
132
100
AcDbEntity
  8
Layer_1
 62
7
100
AcDbPolyline
 90
2
 70
0
 10
404.772735
 20
864.450774
 30
0.0
 10
401.072723
 20
864.450774
 30
0.0
  0
LWPOLYLINE
  5
133
100
AcDbEntity
  8
Layer_1
 62
7
100
AcDbPolyline
 90
3
 70
0
 10
404.772735
 20
840.005904
 30
0.0
 10
404.772735
 20
827.783990
 30
0.0
 10
401.072723
 20
827.783990
 30
0.0
  0
LWPOLYLINE
  5
134
100
AcDbEntity
  8
Layer_1
 62
7
100
AcDbPolyline
 90
2
 70
0
 10
401.072723
 20
840.005904
 30
0.0
 10
401.072723
 20
827.783990
 30
0.0
  0
LWPOLYLINE
  5
135
100
AcDbEntity
  8
Layer_1
 62
7
100
AcDbPolyline
 90
2
 70
0
 10
404.772735
 20
840.005904
 30
0.0
 10
401.072723
 20
840.005904
 30
0.0
  0
LWPOLYLINE
  5
136
100
AcDbEntity
  8
Layer_1
 62
7
100
AcDbPolyline
 90
3
 70
0
 10
404.772735
 20
815.561034
 30
0.0
 10
404.772735
 20
803.339120
 30
0.0
 10
401.072723
 20
803.339120
 30
0.0
  0
LWPOLYLINE
  5
137
100
AcDbEntity
  8
Layer_1
 62
7
100
AcDbPolyline
 90
2
 70
0
 10
401.072723
 20
815.561034
 30
0.0
 10
401.072723
 20
803.339120
 30
0.0
  0
LWPOLYLINE
  5
138
100
AcDbEntity
  8
Layer_1
 62
7
100
AcDbPolyline
 90
2
 70
0
 10
404.772735
 20
815.561034
 30
0.0
 10
401.072723
 20
815.561034
 30
0.0
  0
LWPOLYLINE
  5
139
100
AcDbEntity
  8
Layer_1
 62
7
100
AcDbPolyline
 90
3
 70
0
 10
404.772735
 20
888.894602
 30
0.0
 10
404.772735
 20
876.672688
 30
0.0
 10
401.072723
 20
876.672688
 30
0.0
  0
LWPOLYLINE
  5
13a
100
AcDbEntity
  8
Layer_1
 62
7
100
AcDbPolyline
 90
2
 70
0
 10
401.072723
 20
888.894602
 30
0.0
 10
401.072723
 20
876.672688
 30
0.0
  0
LWPOLYLINE
  5
13b
100
AcDbEntity
  8
Layer_1
 62
7
100
AcDbPolyline
 90
2
 70
0
 10
404.772735
 20
888.894602
 30
0.0
 10
401.072723
 20
888.894602
 30
0.0
  0
LWPOLYLINE
  5
13c
100
AcDbEntity
  8
Layer_1
 62
7
100
AcDbPolyline
 90
3
 70
0
 10
297.372391
 20
829.017327
 30
0.0
 10
297.372391
 20
840.417363
 30
0.0
 10
301.072403
 20
840.417363
 30
0.0
  0
LWPOLYLINE
  5
13d
100
AcDbEntity
  8
Layer_1
 62
7
100
AcDbPolyline
 90
2
 70
0
 10
301.072403
 20
829.017327
 30
0.0
 10
301.072403
 20
840.417363
 30
0.0
  0
LWPOLYLINE
  5
13e
100
AcDbEntity
  8
Layer_1
 62
7
100
AcDbPolyline
 90
2
 70
0
 10
297.372391
 20
829.017327
 30
0.0
 10
301.072403
 20
829.017327
 30
0.0
  0
LWPOLYLINE
  5
13f
100
AcDbEntity
  8
Layer_1
 62
7
100
AcDbPolyline
 90
3
 70
0
 10
297.372391
 20
851.817400
 30
0.0
 10
297.372391
 20
863.217436
 30
0.0
 10
301.072403
 20
863.217436
 30
0.0
  0
LWPOLYLINE
  5
140
100
AcDbEntity
  8
Layer_1
 62
7
100
AcDbPolyline
 90
2
 70
0
 10
301.072403
 20
851.817400
 30
0.0
 10
301.072403
 20
863.217436
 30
0.0
  0
LWPOLYLINE
  5
141
100
AcDbEntity
  8
Layer_1
 62
7
100
AcDbPolyline
 90
2
 70
0
 10
297.372391
 20
851.817400
 30
0.0
 10
301.072403
 20
851.817400
 30
0.0
  0
LWPOLYLINE
  5
142
100
AcDbEntity
  8
Layer_1
 62
7
100
AcDbPolyline
 90
3
 70
0
 10
297.372391
 20
874.617473
 30
0.0
 10
297.372391
 20
886.017509
 30
0.0
 10
301.072403
 20
886.017509
 30
0.0
  0
LWPOLYLINE
  5
143
100
AcDbEntity
  8
Layer_1
 62
7
100
AcDbPolyline
 90
2
 70
0
 10
301.072403
 20
874.617473
 30
0.0
 10
301.072403
 20
886.017509
 30
0.0
  0
LWPOLYLINE
  5
144
100
AcDbEntity
  8
Layer_1
 62
7
100
AcDbPolyline
 90
2
 70
0
 10
297.372391
 20
874.617473
 30
0.0
 10
301.072403
 20
874.617473
 30
0.0
  0
LWPOLYLINE
  5
145
100
AcDbEntity
  8
Layer_1
 62
7
100
AcDbPolyline
 90
3
 70
0
 10
297.372391
 20
806.217254
 30
0.0
 10
297.372391
 20
817.617290
 30
0.0
 10
301.072403
 20
817.617290
 30
0.0
  0
LWPOLYLINE
  5
146
100
AcDbEntity
  8
Layer_1
 62
7
100
AcDbPolyline
 90
2
 70
0
 10
301.072403
 20
806.217254
 30
0.0
 10
301.072403
 20
817.617290
 30
0.0
  0
LWPOLYLINE
  5
147
100
AcDbEntity
  8
Layer_1
 62
7
100
AcDbPolyline
 90
2
 70
0
 10
297.372391
 20
806.217254
 30
0.0
 10
301.072403
 20
806.217254
 30
0.0
  0
LWPOLYLINE
  5
148
100
AcDbEntity
  8
Layer_1
 62
7
100
AcDbPolyline
 90
3
 70
0
 10
306.505754
 20
791.117206
 30
0.0
 10
286.852566
 20
791.117206
 30
0.0
 10
286.852566
 20
794.817217
 30
0.0
  0
LWPOLYLINE
  5
149
100
AcDbEntity
  8
Layer_1
 62
7
100
AcDbPolyline
 90
2
 70
0
 10
306.505754
 20
794.817217
 30
0.0
 10
286.852566
 20
794.817217
 30
0.0
  0
LWPOLYLINE
  5
14a
100
AcDbEntity
  8
Layer_1
 62
7
100
AcDbPolyline
 90
2
 70
0
 10
306.505754
 20
791.117206
 30
0.0
 10
306.505754
 20
794.817217
 30
0.0
  0
LWPOLYLINE
  5
14b
100
AcDbEntity
  8
Layer_1
 62
7
100
AcDbPolyline
 90
3
 70
0
 10
267.199378
 20
791.117206
 30
0.0
 10
247.546190
 20
791.117206
 30
0.0
 10
247.546190
 20
794.817217
 30
0.0
  0
LWPOLYLINE
  5
14c
100
AcDbEntity
  8
Layer_1
 62
7
100
AcDbPolyline
 90
2
 70
0
 10
267.199378
 20
794.817217
 30
0.0
 10
247.546190
 20
794.817217
 30
0.0
  0
LWPOLYLINE
  5
14d
100
AcDbEntity
  8
Layer_1
 62
7
100
AcDbPolyline
 90
2
 70
0
 10
267.199378
 20
791.117206
 30
0.0
 10
267.199378
 20
794.817217
 30
0.0
  0
LWPOLYLINE
  5
14e
100
AcDbEntity
  8
Layer_1
 62
7
100
AcDbPolyline
 90
3
 70
0
 10
227.893002
 20
791.117206
 30
0.0
 10
208.238773
 20
791.117206
 30
0.0
 10
208.238773
 20
794.817217
 30
0.0
  0
LWPOLYLINE
  5
14f
100
AcDbEntity
  8
Layer_1
 62
7
100
AcDbPolyline
 90
2
 70
0
 10
227.893002
 20
794.817217
 30
0.0
 10
208.238773
 20
794.817217
 30
0.0
  0
LWPOLYLINE
  5
150
100
AcDbEntity
  8
Layer_1
 62
7
100
AcDbPolyline
 90
2
 70
0
 10
227.893002
 20
791.117206
 30
0.0
 10
227.893002
 20
794.817217
 30
0.0
  0
LWPOLYLINE
  5
151
100
AcDbEntity
  8
Layer_1
 62
7
100
AcDbPolyline
 90
3
 70
0
 10
208.238773
 20
901.117558
 30
0.0
 10
227.893002
 20
901.117558
 30
0.0
 10
227.893002
 20
897.417546
 30
0.0
  0
LWPOLYLINE
  5
152
100
AcDbEntity
  8
Layer_1
 62
7
100
AcDbPolyline
 90
2
 70
0
 10
208.238773
 20
897.417546
 30
0.0
 10
227.893002
 20
897.417546
 30
0.0
  0
LWPOLYLINE
  5
153
100
AcDbEntity
  8
Layer_1
 62
7
100
AcDbPolyline
 90
2
 70
0
 10
208.238773
 20
901.117558
 30
0.0
 10
208.238773
 20
897.417546
 30
0.0
  0
LWPOLYLINE
  5
154
100
AcDbEntity
  8
Layer_1
 62
7
100
AcDbPolyline
 90
3
 70
0
 10
247.546190
 20
901.117558
 30
0.0
 10
267.199378
 20
901.117558
 30
0.0
 10
267.199378
 20
897.417546
 30
0.0
  0
LWPOLYLINE
  5
155
100
AcDbEntity
  8
Layer_1
 62
7
100
AcDbPolyline
 90
2
 70
0
 10
247.546190
 20
897.417546
 30
0.0
 10
267.199378
 20
897.417546
 30
0.0
  0
LWPOLYLINE
  5
156
100
AcDbEntity
  8
Layer_1
 62
7
100
AcDbPolyline
 90
2
 70
0
 10
247.546190
 20
901.117558
 30
0.0
 10
247.546190
 20
897.417546
 30
0.0
  0
LWPOLYLINE
  5
157
100
AcDbEntity
  8
Layer_1
 62
7
100
AcDbPolyline
 90
3
 70
0
 10
286.852566
 20
901.117558
 30
0.0
 10
306.505754
 20
901.117558
 30
0.0
 10
306.505754
 20
897.417546
 30
0.0
  0
LWPOLYLINE
  5
158
100
AcDbEntity
  8
Layer_1
 62
7
100
AcDbPolyline
 90
2
 70
0
 10
286.852566
 20
897.417546
 30
0.0
 10
306.505754
 20
897.417546
 30
0.0
  0
LWPOLYLINE
  5
159
100
AcDbEntity
  8
Layer_1
 62
7
100
AcDbPolyline
 90
2
 70
0
 10
286.852566
 20
901.117558
 30
0.0
 10
286.852566
 20
897.417546
 30
0.0
  0
LWPOLYLINE
  5
15a
100
AcDbEntity
  8
Layer_1
 62
7
100
AcDbPolyline
 90
3
 70
0
 10
395.531039
 20
923.317629
 30
0.0
 10
413.951931
 20
923.317629
 30
0.0
 10
413.951931
 20
919.617617
 30
0.0
  0
LWPOLYLINE
  5
15b
100
AcDbEntity
  8
Layer_1
 62
7
100
AcDbPolyline
 90
2
 70
0
 10
395.531039
 20
919.617617
 30
0.0
 10
413.951931
 20
919.617617
 30
0.0
  0
LWPOLYLINE
  5
15c
100
AcDbEntity
  8
Layer_1
 62
7
100
AcDbPolyline
 90
2
 70
0
 10
395.531039
 20
923.317629
 30
0.0
 10
395.531039
 20
919.617617
 30
0.0
  0
LWPOLYLINE
  5
15d
100
AcDbEntity
  8
Layer_1
 62
7
100
AcDbPolyline
 90
3
 70
0
 10
358.689254
 20
923.317629
 30
0.0
 10
377.110146
 20
923.317629
 30
0.0
 10
377.110146
 20
919.617617
 30
0.0
  0
LWPOLYLINE
  5
15e
100
AcDbEntity
  8
Layer_1
 62
7
100
AcDbPolyline
 90
2
 70
0
 10
358.689254
 20
919.617617
 30
0.0
 10
377.110146
 20
919.617617
 30
0.0
  0
LWPOLYLINE
  5
15f
100
AcDbEntity
  8
Layer_1
 62
7
100
AcDbPolyline
 90
2
 70
0
 10
358.689254
 20
923.317629
 30
0.0
 10
358.689254
 20
919.617617
 30
0.0
  0
LWPOLYLINE
  5
160
100
AcDbEntity
  8
Layer_1
 62
7
100
AcDbPolyline
 90
3
 70
0
 10
321.846428
 20
923.317629
 30
0.0
 10
340.267320
 20
923.317629
 30
0.0
 10
340.267320
 20
919.617617
 30
0.0
  0
LWPOLYLINE
  5
161
100
AcDbEntity
  8
Layer_1
 62
7
100
AcDbPolyline
 90
2
 70
0
 10
321.846428
 20
919.617617
 30
0.0
 10
340.267320
 20
919.617617
 30
0.0
  0
LWPOLYLINE
  5
162
100
AcDbEntity
  8
Layer_1
 62
7
100
AcDbPolyline
 90
2
 70
0
 10
321.846428
 20
923.317629
 30
0.0
 10
321.846428
 20
919.617617
 30
0.0
  0
LWPOLYLINE
  5
163
100
AcDbEntity
  8
Layer_1
 62
7
100
AcDbPolyline
 90
3
 70
0
 10
285.004643
 20
923.317629
 30
0.0
 10
303.425536
 20
923.317629
 30
0.0
 10
303.425536
 20
919.617617
 30
0.0
  0
LWPOLYLINE
  5
164
100
AcDbEntity
  8
Layer_1
 62
7
100
AcDbPolyline
 90
2
 70
0
 10
285.004643
 20
919.617617
 30
0.0
 10
303.425536
 20
919.617617
 30
0.0
  0
LWPOLYLINE
  5
165
100
AcDbEntity
  8
Layer_1
 62
7
100
AcDbPolyline
 90
2
 70
0
 10
285.004643
 20
923.317629
 30
0.0
 10
285.004643
 20
919.617617
 30
0.0
  0
LWPOLYLINE
  5
166
100
AcDbEntity
  8
Layer_1
 62
7
100
AcDbPolyline
 90
3
 70
0
 10
248.161817
 20
923.317629
 30
0.0
 10
266.583751
 20
923.317629
 30
0.0
 10
266.583751
 20
919.617617
 30
0.0
  0
LWPOLYLINE
  5
167
100
AcDbEntity
  8
Layer_1
 62
7
100
AcDbPolyline
 90
2
 70
0
 10
248.161817
 20
919.617617
 30
0.0
 10
266.583751
 20
919.617617
 30
0.0
  0
LWPOLYLINE
  5
168
100
AcDbEntity
  8
Layer_1
 62
7
100
AcDbPolyline
 90
2
 70
0
 10
248.161817
 20
923.317629
 30
0.0
 10
248.161817
 20
919.617617
 30
0.0
  0
LWPOLYLINE
  5
169
100
AcDbEntity
  8
Layer_1
 62
7
100
AcDbPolyline
 90
3
 70
0
 10
211.320033
 20
923.317629
 30
0.0
 10
229.740925
 20
923.317629
 30
0.0
 10
229.740925
 20
919.617617
 30
0.0
  0
LWPOLYLINE
  5
16a
100
AcDbEntity
  8
Layer_1
 62
7
100
AcDbPolyline
 90
2
 70
0
 10
211.320033
 20
919.617617
 30
0.0
 10
229.740925
 20
919.617617
 30
0.0
  0
LWPOLYLINE
  5
16b
100
AcDbEntity
  8
Layer_1
 62
7
100
AcDbPolyline
 90
2
 70
0
 10
211.320033
 20
923.317629
 30
0.0
 10
211.320033
 20
919.617617
 30
0.0
  0
LWPOLYLINE
  5
16c
100
AcDbEntity
  8
Layer_1
 62
7
100
AcDbPolyline
 90
3
 70
0
 10
174.477727
 20
923.317629
 30
0.0
 10
192.899140
 20
923.317629
 30
0.0
 10
192.899140
 20
919.617617
 30
0.0
  0
LWPOLYLINE
  5
16d
100
AcDbEntity
  8
Layer_1
 62
7
100
AcDbPolyline
 90
2
 70
0
 10
174.477727
 20
919.617617
 30
0.0
 10
192.899140
 20
919.617617
 30
0.0
  0
LWPOLYLINE
  5
16e
100
AcDbEntity
  8
Layer_1
 62
7
100
AcDbPolyline
 90
2
 70
0
 10
174.477727
 20
923.317629
 30
0.0
 10
174.477727
 20
919.617617
 30
0.0
  0
LWPOLYLINE
  5
16f
100
AcDbEntity
  8
Layer_1
 62
7
100
AcDbPolyline
 90
3
 70
0
 10
137.635422
 20
923.317629
 30
0.0
 10
156.056522
 20
923.317629
 30
0.0
 10
156.056522
 20
919.617617
 30
0.0
  0
LWPOLYLINE
  5
170
100
AcDbEntity
  8
Layer_1
 62
7
100
AcDbPolyline
 90
2
 70
0
 10
137.635422
 20
919.617617
 30
0.0
 10
156.056522
 20
919.617617
 30
0.0
  0
LWPOLYLINE
  5
171
100
AcDbEntity
  8
Layer_1
 62
7
100
AcDbPolyline
 90
2
 70
0
 10
137.635422
 20
923.317629
 30
0.0
 10
137.635422
 20
919.617617
 30
0.0
  0
LWPOLYLINE
  5
172
100
AcDbEntity
  8
Layer_1
 62
7
100
AcDbPolyline
 90
3
 70
0
 10
100.793221
 20
923.317629
 30
0.0
 10
119.214321
 20
923.317629
 30
0.0
 10
119.214321
 20
919.617617
 30
0.0
  0
LWPOLYLINE
  5
173
100
AcDbEntity
  8
Layer_1
 62
7
100
AcDbPolyline
 90
2
 70
0
 10
100.793221
 20
919.617617
 30
0.0
 10
119.214321
 20
919.617617
 30
0.0
  0
LWPOLYLINE
  5
174
100
AcDbEntity
  8
Layer_1
 62
7
100
AcDbPolyline
 90
2
 70
0
 10
100.793221
 20
923.317629
 30
0.0
 10
100.793221
 20
919.617617
 30
0.0
  0
LWPOLYLINE
  5
175
100
AcDbEntity
  8
Layer_1
 62
7
100
AcDbPolyline
 90
2
 70
0
 10
345.813171
 20
897.417546
 30
0.0
 10
365.466359
 20
897.417546
 30
0.0
  0
LWPOLYLINE
  5
176
100
AcDbEntity
  8
Layer_1
 62
7
100
AcDbPolyline
 90
2
 70
0
 10
365.466359
 20
901.117558
 30
0.0
 10
365.466359
 20
897.417546
 30
0.0
  0
LWPOLYLINE
  5
177
100
AcDbEntity
  8
Layer_1
 62
7
100
AcDbPolyline
 90
5
 70
0
 10
365.466359
 20
901.117558
 30
0.0
 10
385.119547
 20
901.117558
 30
0.0
 10
385.119547
 20
897.417546
 30
0.0
 10
386.072675
 20
897.417546
 30
0.0
 10
386.072675
 20
794.817217
 30
0.0
  0
LWPOLYLINE
  5
178
100
AcDbEntity
  8
Layer_1
 62
7
100
AcDbPolyline
 90
2
 70
0
 10
385.119547
 20
794.817217
 30
0.0
 10
386.072675
 20
794.817217
 30
0.0
  0
LWPOLYLINE
  5
179
100
AcDbEntity
  8
Layer_1
 62
7
100
AcDbPolyline
 90
2
 70
0
 10
385.119547
 20
791.117206
 30
0.0
 10
385.119547
 20
794.817217
 30
0.0
  0
LWPOLYLINE
  5
17a
100
AcDbEntity
  8
Layer_1
 62
7
100
AcDbPolyline
 90
3
 70
0
 10
385.119547
 20
791.117206
 30
0.0
 10
365.466359
 20
791.117206
 30
0.0
 10
365.466359
 20
794.817217
 30
0.0
  0
LWPOLYLINE
  5
17b
100
AcDbEntity
  8
Layer_1
 62
7
100
AcDbPolyline
 90
2
 70
0
 10
345.813171
 20
794.817217
 30
0.0
 10
365.466359
 20
794.817217
 30
0.0
  0
LWPOLYLINE
  5
17c
100
AcDbEntity
  8
Layer_1
 62
7
100
AcDbPolyline
 90
2
 70
0
 10
345.813171
 20
791.117206
 30
0.0
 10
345.813171
 20
794.817217
 30
0.0
  0
LWPOLYLINE
  5
17d
100
AcDbEntity
  8
Layer_1
 62
7
100
AcDbPolyline
 90
3
 70
0
 10
345.813171
 20
791.117206
 30
0.0
 10
326.159983
 20
791.117206
 30
0.0
 10
326.159983
 20
794.817217
 30
0.0
  0
LWPOLYLINE
  5
17e
100
AcDbEntity
  8
Layer_1
 62
7
100
AcDbPolyline
 90
2
 70
0
 10
316.072451
 20
794.817217
 30
0.0
 10
326.159983
 20
794.817217
 30
0.0
  0
LWPOLYLINE
  5
17f
100
AcDbEntity
  8
Layer_1
 62
7
100
AcDbPolyline
 90
2
 70
0
 10
316.072451
 20
897.417546
 30
0.0
 10
316.072451
 20
794.817217
 30
0.0
  0
LWPOLYLINE
  5
180
100
AcDbEntity
  8
Layer_1
 62
7
100
AcDbPolyline
 90
2
 70
0
 10
316.072451
 20
897.417546
 30
0.0
 10
326.159983
 20
897.417546
 30
0.0
  0
LWPOLYLINE
  5
181
100
AcDbEntity
  8
Layer_1
 62
7
100
AcDbPolyline
 90
2
 70
0
 10
326.159983
 20
901.117558
 30
0.0
 10
326.159983
 20
897.417546
 30
0.0
  0
LWPOLYLINE
  5
182
100
AcDbEntity
  8
Layer_1
 62
7
100
AcDbPolyline
 90
3
 70
0
 10
326.159983
 20
901.117558
 30
0.0
 10
345.813171
 20
901.117558
 30
0.0
 10
345.813171
 20
897.417546
 30
0.0
  0
LWPOLYLINE
  5
183
100
AcDbEntity
  8
Layer_1
 62
7
100
AcDbPolyline
 90
2
 70
0
 10
82.372120
 20
897.571713
 30
0.0
 10
82.372120
 20
930.817653
 30
0.0
  0
LWPOLYLINE
  5
184
100
AcDbEntity
  8
Layer_1
 62
7
100
AcDbPolyline
 90
3
 70
0
 10
82.372120
 20
897.571713
 30
0.0
 10
78.672108
 20
897.571713
 30
0.0
 10
78.672108
 20
882.925833
 30
0.0
  0
LWPOLYLINE
  5
185
100
AcDbEntity
  8
Layer_1
 62
7
100
AcDbPolyline
 90
2
 70
0
 10
82.372120
 20
882.925833
 30
0.0
 10
78.672108
 20
882.925833
 30
0.0
  0
LWPOLYLINE
  5
186
100
AcDbEntity
  8
Layer_1
 62
7
100
AcDbPolyline
 90
2
 70
0
 10
82.372120
 20
868.280994
 30
0.0
 10
82.372120
 20
882.925833
 30
0.0
  0
LWPOLYLINE
  5
187
100
AcDbEntity
  8
Layer_1
 62
7
100
AcDbPolyline
 90
3
 70
0
 10
82.372120
 20
868.280994
 30
0.0
 10
78.672108
 20
868.280994
 30
0.0
 10
78.672108
 20
853.635114
 30
0.0
  0
LWPOLYLINE
  5
188
100
AcDbEntity
  8
Layer_1
 62
7
100
AcDbPolyline
 90
2
 70
0
 10
82.372120
 20
853.635114
 30
0.0
 10
78.672108
 20
853.635114
 30
0.0
  0
LWPOLYLINE
  5
189
100
AcDbEntity
  8
Layer_1
 62
7
100
AcDbPolyline
 90
2
 70
0
 10
82.372120
 20
838.989234
 30
0.0
 10
82.372120
 20
853.635114
 30
0.0
  0
LWPOLYLINE
  5
18a
100
AcDbEntity
  8
Layer_1
 62
7
100
AcDbPolyline
 90
3
 70
0
 10
82.372120
 20
838.989234
 30
0.0
 10
78.672108
 20
838.989234
 30
0.0
 10
78.672108
 20
824.344395
 30
0.0
  0
LWPOLYLINE
  5
18b
100
AcDbEntity
  8
Layer_1
 62
7
100
AcDbPolyline
 90
2
 70
0
 10
82.372120
 20
824.344395
 30
0.0
 10
78.672108
 20
824.344395
 30
0.0
  0
LWPOLYLINE
  5
18c
100
AcDbEntity
  8
Layer_1
 62
7
100
AcDbPolyline
 90
2
 70
0
 10
82.372120
 20
809.698515
 30
0.0
 10
82.372120
 20
824.344395
 30
0.0
  0
LWPOLYLINE
  5
18d
100
AcDbEntity
  8
Layer_1
 62
7
100
AcDbPolyline
 90
3
 70
0
 10
82.372120
 20
809.698515
 30
0.0
 10
78.672108
 20
809.698515
 30
0.0
 10
78.672108
 20
795.053676
 30
0.0
  0
LWPOLYLINE
  5
18e
100
AcDbEntity
  8
Layer_1
 62
7
100
AcDbPolyline
 90
2
 70
0
 10
82.372120
 20
795.053676
 30
0.0
 10
78.672108
 20
795.053676
 30
0.0
  0
LWPOLYLINE
  5
18f
100
AcDbEntity
  8
Layer_1
 62
7
100
AcDbPolyline
 90
2
 70
0
 10
82.372120
 20
780.407796
 30
0.0
 10
82.372120
 20
795.053676
 30
0.0
  0
LWPOLYLINE
  5
190
100
AcDbEntity
  8
Layer_1
 62
7
100
AcDbPolyline
 90
3
 70
0
 10
82.372120
 20
780.407796
 30
0.0
 10
78.672108
 20
780.407796
 30
0.0
 10
78.672108
 20
765.761916
 30
0.0
  0
LWPOLYLINE
  5
191
100
AcDbEntity
  8
Layer_1
 62
7
100
AcDbPolyline
 90
2
 70
0
 10
82.372120
 20
765.761916
 30
0.0
 10
78.672108
 20
765.761916
 30
0.0
  0
LWPOLYLINE
  5
192
100
AcDbEntity
  8
Layer_1
 62
7
100
AcDbPolyline
 90
2
 70
0
 10
82.372120
 20
751.117078
 30
0.0
 10
82.372120
 20
765.761916
 30
0.0
  0
LWPOLYLINE
  5
193
100
AcDbEntity
  8
Layer_1
 62
7
100
AcDbPolyline
 90
2
 70
0
 10
97.482689
 20
751.117078
 30
0.0
 10
82.372120
 20
751.117078
 30
0.0
  0
LWPOLYLINE
  5
194
100
AcDbEntity
  8
Layer_1
 62
7
100
AcDbPolyline
 90
3
 70
0
 10
97.482689
 20
751.117078
 30
0.0
 10
97.482689
 20
747.417066
 30
0.0
 10
116.293270
 20
747.417066
 30
0.0
  0
LWPOLYLINE
  5
195
100
AcDbEntity
  8
Layer_1
 62
7
100
AcDbPolyline
 90
2
 70
0
 10
116.293270
 20
751.117078
 30
0.0
 10
116.293270
 20
747.417066
 30
0.0
  0
LWPOLYLINE
  5
196
100
AcDbEntity
  8
Layer_1
 62
7
100
AcDbPolyline
 90
2
 70
0
 10
135.103851
 20
751.117078
 30
0.0
 10
116.293270
 20
751.117078
 30
0.0
  0
LWPOLYLINE
  5
197
100
AcDbEntity
  8
Layer_1
 62
7
100
AcDbPolyline
 90
3
 70
0
 10
135.103851
 20
751.117078
 30
0.0
 10
135.103851
 20
747.417066
 30
0.0
 10
153.914432
 20
747.417066
 30
0.0
  0
LWPOLYLINE
  5
198
100
AcDbEntity
  8
Layer_1
 62
7
100
AcDbPolyline
 90
2
 70
0
 10
153.914432
 20
751.117078
 30
0.0
 10
153.914432
 20
747.417066
 30
0.0
  0
LWPOLYLINE
  5
199
100
AcDbEntity
  8
Layer_1
 62
7
100
AcDbPolyline
 90
2
 70
0
 10
172.725013
 20
751.117078
 30
0.0
 10
153.914432
 20
751.117078
 30
0.0
  0
LWPOLYLINE
  5
19a
100
AcDbEntity
  8
Layer_1
 62
7
100
AcDbPolyline
 90
3
 70
0
 10
172.725013
 20
751.117078
 30
0.0
 10
172.725013
 20
747.417066
 30
0.0
 10
191.535594
 20
747.417066
 30
0.0
  0
LWPOLYLINE
  5
19b
100
AcDbEntity
  8
Layer_1
 62
7
100
AcDbPolyline
 90
2
 70
0
 10
191.535594
 20
751.117078
 30
0.0
 10
191.535594
 20
747.417066
 30
0.0
  0
LWPOLYLINE
  5
19c
100
AcDbEntity
  8
Layer_1
 62
7
100
AcDbPolyline
 90
2
 70
0
 10
210.346071
 20
751.117078
 30
0.0
 10
191.535594
 20
751.117078
 30
0.0
  0
LWPOLYLINE
  5
19d
100
AcDbEntity
  8
Layer_1
 62
7
100
AcDbPolyline
 90
3
 70
0
 10
210.346071
 20
751.117078
 30
0.0
 10
210.346071
 20
747.417066
 30
0.0
 10
229.156548
 20
747.417066
 30
0.0
  0
LWPOLYLINE
  5
19e
100
AcDbEntity
  8
Layer_1
 62
7
100
AcDbPolyline
 90
2
 70
0
 10
229.156548
 20
751.117078
 30
0.0
 10
229.156548
 20
747.417066
 30
0.0
  0
LWPOLYLINE
  5
19f
100
AcDbEntity
  8
Layer_1
 62
7
100
AcDbPolyline
 90
2
 70
0
 10
247.967025
 20
751.117078
 30
0.0
 10
229.156548
 20
751.117078
 30
0.0
  0
LWPOLYLINE
  5
1a0
100
AcDbEntity
  8
Layer_1
 62
7
100
AcDbPolyline
 90
3
 70
0
 10
247.967025
 20
751.117078
 30
0.0
 10
247.967025
 20
747.417066
 30
0.0
 10
266.777502
 20
747.417066
 30
0.0
  0
LWPOLYLINE
  5
1a1
100
AcDbEntity
  8
Layer_1
 62
7
100
AcDbPolyline
 90
2
 70
0
 10
266.777502
 20
751.117078
 30
0.0
 10
266.777502
 20
747.417066
 30
0.0
  0
LWPOLYLINE
  5
1a2
100
AcDbEntity
  8
Layer_1
 62
7
100
AcDbPolyline
 90
2
 70
0
 10
285.589020
 20
751.117078
 30
0.0
 10
266.777502
 20
751.117078
 30
0.0
  0
LWPOLYLINE
  5
1a3
100
AcDbEntity
  8
Layer_1
 62
7
100
AcDbPolyline
 90
3
 70
0
 10
285.589020
 20
751.117078
 30
0.0
 10
285.589020
 20
747.417066
 30
0.0
 10
304.399497
 20
747.417066
 30
0.0
  0
LWPOLYLINE
  5
1a4
100
AcDbEntity
  8
Layer_1
 62
7
100
AcDbPolyline
 90
2
 70
0
 10
304.399497
 20
751.117078
 30
0.0
 10
304.399497
 20
747.417066
 30
0.0
  0
LWPOLYLINE
  5
1a5
100
AcDbEntity
  8
Layer_1
 62
7
100
AcDbPolyline
 90
2
 70
0
 10
323.209974
 20
751.117078
 30
0.0
 10
304.399497
 20
751.117078
 30
0.0
  0
LWPOLYLINE
  5
1a6
100
AcDbEntity
  8
Layer_1
 62
7
100
AcDbPolyline
 90
3
 70
0
 10
323.209974
 20
751.117078
 30
0.0
 10
323.209974
 20
747.417066
 30
0.0
 10
342.020451
 20
747.417066
 30
0.0
  0
LWPOLYLINE
  5
1a7
100
AcDbEntity
  8
Layer_1
 62
7
100
AcDbPolyline
 90
2
 70
0
 10
342.020451
 20
751.117078
 30
0.0
 10
342.020451
 20
747.417066
 30
0.0
  0
LWPOLYLINE
  5
1a8
100
AcDbEntity
  8
Layer_1
 62
7
100
AcDbPolyline
 90
2
 70
0
 10
360.830928
 20
751.117078
 30
0.0
 10
342.020451
 20
751.117078
 30
0.0
  0
LWPOLYLINE
  5
1a9
100
AcDbEntity
  8
Layer_1
 62
7
100
AcDbPolyline
 90
3
 70
0
 10
360.830928
 20
751.117078
 30
0.0
 10
360.830928
 20
747.417066
 30
0.0
 10
379.641405
 20
747.417066
 30
0.0
  0
LWPOLYLINE
  5
1aa
100
AcDbEntity
  8
Layer_1
 62
7
100
AcDbPolyline
 90
2
 70
0
 10
379.641405
 20
751.117078
 30
0.0
 10
379.641405
 20
747.417066
 30
0.0
  0
LWPOLYLINE
  5
1ab
100
AcDbEntity
  8
Layer_1
 62
7
100
AcDbPolyline
 90
2
 70
0
 10
398.451881
 20
751.117078
 30
0.0
 10
379.641405
 20
751.117078
 30
0.0
  0
LWPOLYLINE
  5
1ac
100
AcDbEntity
  8
Layer_1
 62
7
100
AcDbPolyline
 90
3
 70
0
 10
398.451881
 20
751.117078
 30
0.0
 10
398.451881
 20
747.417066
 30
0.0
 10
417.262358
 20
747.417066
 30
0.0
  0
LWPOLYLINE
  5
1ad
100
AcDbEntity
  8
Layer_1
 62
7
100
AcDbPolyline
 90
2
 70
0
 10
417.262358
 20
751.117078
 30
0.0
 10
417.262358
 20
747.417066
 30
0.0
  0
LWPOLYLINE
  5
1ae
100
AcDbEntity
  8
Layer_1
 62
7
100
AcDbPolyline
 90
2
 70
0
 10
432.372823
 20
751.117078
 30
0.0
 10
417.262358
 20
751.117078
 30
0.0
  0
LWPOLYLINE
  5
1af
100
AcDbEntity
  8
Layer_1
 62
7
100
AcDbPolyline
 90
2
 70
0
 10
432.372823
 20
751.117078
 30
0.0
 10
432.372823
 20
767.453588
 30
0.0
  0
LWPOLYLINE
  5
1b0
100
AcDbEntity
  8
Layer_1
 62
7
100
AcDbPolyline
 90
2
 70
0
 10
436.072835
 20
767.453588
 30
0.0
 10
432.372823
 20
767.453588
 30
0.0
  0
LWPOLYLINE
  5
1b1
100
AcDbEntity
  8
Layer_1
 62
7
100
AcDbPolyline
 90
4
 70
0
 10
436.072835
 20
767.453588
 30
0.0
 10
436.072835
 20
783.789057
 30
0.0
 10
432.372823
 20
783.789057
 30
0.0
 10
432.372823
 20
800.125568
 30
0.0
  0
LWPOLYLINE
  5
1b2
100
AcDbEntity
  8
Layer_1
 62
7
100
AcDbPolyline
 90
2
 70
0
 10
436.072835
 20
800.125568
 30
0.0
 10
432.372823
 20
800.125568
 30
0.0
  0
LWPOLYLINE
  5
1b3
100
AcDbEntity
  8
Layer_1
 62
7
100
AcDbPolyline
 90
4
 70
0
 10
436.072835
 20
800.125568
 30
0.0
 10
436.072835
 20
816.462078
 30
0.0
 10
432.372823
 20
816.462078
 30
0.0
 10
432.372823
 20
832.798589
 30
0.0
  0
LWPOLYLINE
  5
1b4
100
AcDbEntity
  8
Layer_1
 62
7
100
AcDbPolyline
 90
2
 70
0
 10
436.072835
 20
832.798589
 30
0.0
 10
432.372823
 20
832.798589
 30
0.0
  0
LWPOLYLINE
  5
1b5
100
AcDbEntity
  8
Layer_1
 62
7
100
AcDbPolyline
 90
4
 70
0
 10
436.072835
 20
832.798589
 30
0.0
 10
436.072835
 20
849.135100
 30
0.0
 10
432.372823
 20
849.135100
 30
0.0
 10
432.372823
 20
865.471610
 30
0.0
  0
LWPOLYLINE
  5
1b6
100
AcDbEntity
  8
Layer_1
 62
7
100
AcDbPolyline
 90
2
 70
0
 10
436.072835
 20
865.471610
 30
0.0
 10
432.372823
 20
865.471610
 30
0.0
  0
LWPOLYLINE
  5
1b7
100
AcDbEntity
  8
Layer_1
 62
7
100
AcDbPolyline
 90
4
 70
0
 10
436.072835
 20
865.471610
 30
0.0
 10
436.072835
 20
881.808121
 30
0.0
 10
432.372823
 20
881.808121
 30
0.0
 10
432.372823
 20
898.144631
 30
0.0
  0
LWPOLYLINE
  5
1b8
100
AcDbEntity
  8
Layer_1
 62
7
100
AcDbPolyline
 90
2
 70
0
 10
436.072835
 20
898.144631
 30
0.0
 10
432.372823
 20
898.144631
 30
0.0
  0
LWPOLYLINE
  5
1b9
100
AcDbEntity
  8
Layer_1
 62
7
100
AcDbPolyline
 90
4
 70
0
 10
436.072835
 20
898.144631
 30
0.0
 10
436.072835
 20
914.481142
 30
0.0
 10
432.372823
 20
914.481142
 30
0.0
 10
432.372823
 20
930.817653
 30
0.0
  0
LWPOLYLINE
  5
1ba
100
AcDbEntity
  8
Layer_1
 62
7
100
AcDbPolyline
 90
2
 70
0
 10
413.951931
 20
930.817653
 30
0.0
 10
432.372823
 20
930.817653
 30
0.0
  0
LWPOLYLINE
  5
1bb
100
AcDbEntity
  8
Layer_1
 62
7
100
AcDbPolyline
 90
2
 70
0
 10
413.951931
 20
930.817653
 30
0.0
 10
413.951931
 20
927.117641
 30
0.0
  0
LWPOLYLINE
  5
1bc
100
AcDbEntity
  8
Layer_1
 62
7
100
AcDbPolyline
 90
2
 70
0
 10
395.531039
 20
927.117641
 30
0.0
 10
413.951931
 20
927.117641
 30
0.0
  0
LWPOLYLINE
  5
1bd
100
AcDbEntity
  8
Layer_1
 62
7
100
AcDbPolyline
 90
2
 70
0
 10
395.531039
 20
930.817653
 30
0.0
 10
395.531039
 20
927.117641
 30
0.0
  0
LWPOLYLINE
  5
1be
100
AcDbEntity
  8
Layer_1
 62
7
100
AcDbPolyline
 90
2
 70
0
 10
377.110146
 20
930.817653
 30
0.0
 10
395.531039
 20
930.817653
 30
0.0
  0
LWPOLYLINE
  5
1bf
100
AcDbEntity
  8
Layer_1
 62
7
100
AcDbPolyline
 90
2
 70
0
 10
377.110146
 20
930.817653
 30
0.0
 10
377.110146
 20
927.117641
 30
0.0
  0
LWPOLYLINE
  5
1c0
100
AcDbEntity
  8
Layer_1
 62
7
100
AcDbPolyline
 90
2
 70
0
 10
358.689254
 20
927.117641
 30
0.0
 10
377.110146
 20
927.117641
 30
0.0
  0
LWPOLYLINE
  5
1c1
100
AcDbEntity
  8
Layer_1
 62
7
100
AcDbPolyline
 90
2
 70
0
 10
358.689254
 20
930.817653
 30
0.0
 10
358.689254
 20
927.117641
 30
0.0
  0
LWPOLYLINE
  5
1c2
100
AcDbEntity
  8
Layer_1
 62
7
100
AcDbPolyline
 90
2
 70
0
 10
340.267320
 20
930.817653
 30
0.0
 10
358.689254
 20
930.817653
 30
0.0
  0
LWPOLYLINE
  5
1c3
100
AcDbEntity
  8
Layer_1
 62
7
100
AcDbPolyline
 90
2
 70
0
 10
340.267320
 20
930.817653
 30
0.0
 10
340.267320
 20
927.117641
 30
0.0
  0
LWPOLYLINE
  5
1c4
100
AcDbEntity
  8
Layer_1
 62
7
100
AcDbPolyline
 90
2
 70
0
 10
321.846428
 20
927.117641
 30
0.0
 10
340.267320
 20
927.117641
 30
0.0
  0
LWPOLYLINE
  5
1c5
100
AcDbEntity
  8
Layer_1
 62
7
100
AcDbPolyline
 90
2
 70
0
 10
321.846428
 20
930.817653
 30
0.0
 10
321.846428
 20
927.117641
 30
0.0
  0
LWPOLYLINE
  5
1c6
100
AcDbEntity
  8
Layer_1
 62
7
100
AcDbPolyline
 90
2
 70
0
 10
303.425536
 20
930.817653
 30
0.0
 10
321.846428
 20
930.817653
 30
0.0
  0
LWPOLYLINE
  5
1c7
100
AcDbEntity
  8
Layer_1
 62
7
100
AcDbPolyline
 90
2
 70
0
 10
303.425536
 20
930.817653
 30
0.0
 10
303.425536
 20
927.117641
 30
0.0
  0
LWPOLYLINE
  5
1c8
100
AcDbEntity
  8
Layer_1
 62
7
100
AcDbPolyline
 90
2
 70
0
 10
285.004643
 20
927.117641
 30
0.0
 10
303.425536
 20
927.117641
 30
0.0
  0
LWPOLYLINE
  5
1c9
100
AcDbEntity
  8
Layer_1
 62
7
100
AcDbPolyline
 90
2
 70
0
 10
285.004643
 20
930.817653
 30
0.0
 10
285.004643
 20
927.117641
 30
0.0
  0
LWPOLYLINE
  5
1ca
100
AcDbEntity
  8
Layer_1
 62
7
100
AcDbPolyline
 90
2
 70
0
 10
266.583751
 20
930.817653
 30
0.0
 10
285.004643
 20
930.817653
 30
0.0
  0
LWPOLYLINE
  5
1cb
100
AcDbEntity
  8
Layer_1
 62
7
100
AcDbPolyline
 90
2
 70
0
 10
266.583751
 20
930.817653
 30
0.0
 10
266.583751
 20
927.117641
 30
0.0
  0
LWPOLYLINE
  5
1cc
100
AcDbEntity
  8
Layer_1
 62
7
100
AcDbPolyline
 90
2
 70
0
 10
248.161817
 20
927.117641
 30
0.0
 10
266.583751
 20
927.117641
 30
0.0
  0
LWPOLYLINE
  5
1cd
100
AcDbEntity
  8
Layer_1
 62
7
100
AcDbPolyline
 90
2
 70
0
 10
248.161817
 20
930.817653
 30
0.0
 10
248.161817
 20
927.117641
 30
0.0
  0
LWPOLYLINE
  5
1ce
100
AcDbEntity
  8
Layer_1
 62
7
100
AcDbPolyline
 90
2
 70
0
 10
229.740925
 20
930.817653
 30
0.0
 10
248.161817
 20
930.817653
 30
0.0
  0
LWPOLYLINE
  5
1cf
100
AcDbEntity
  8
Layer_1
 62
7
100
AcDbPolyline
 90
2
 70
0
 10
229.740925
 20
930.817653
 30
0.0
 10
229.740925
 20
927.117641
 30
0.0
  0
LWPOLYLINE
  5
1d0
100
AcDbEntity
  8
Layer_1
 62
7
100
AcDbPolyline
 90
2
 70
0
 10
211.320033
 20
927.117641
 30
0.0
 10
229.740925
 20
927.117641
 30
0.0
  0
LWPOLYLINE
  5
1d1
100
AcDbEntity
  8
Layer_1
 62
7
100
AcDbPolyline
 90
2
 70
0
 10
211.320033
 20
930.817653
 30
0.0
 10
211.320033
 20
927.117641
 30
0.0
  0
LWPOLYLINE
  5
1d2
100
AcDbEntity
  8
Layer_1
 62
7
100
AcDbPolyline
 90
2
 70
0
 10
192.899140
 20
930.817653
 30
0.0
 10
211.320033
 20
930.817653
 30
0.0
  0
LWPOLYLINE
  5
1d3
100
AcDbEntity
  8
Layer_1
 62
7
100
AcDbPolyline
 90
2
 70
0
 10
192.899140
 20
930.817653
 30
0.0
 10
192.899140
 20
927.117641
 30
0.0
  0
LWPOLYLINE
  5
1d4
100
AcDbEntity
  8
Layer_1
 62
7
100
AcDbPolyline
 90
2
 70
0
 10
174.477727
 20
927.117641
 30
0.0
 10
192.899140
 20
927.117641
 30
0.0
  0
LWPOLYLINE
  5
1d5
100
AcDbEntity
  8
Layer_1
 62
7
100
AcDbPolyline
 90
2
 70
0
 10
174.477727
 20
930.817653
 30
0.0
 10
174.477727
 20
927.117641
 30
0.0
  0
LWPOLYLINE
  5
1d6
100
AcDbEntity
  8
Layer_1
 62
7
100
AcDbPolyline
 90
2
 70
0
 10
156.056522
 20
930.817653
 30
0.0
 10
174.477727
 20
930.817653
 30
0.0
  0
LWPOLYLINE
  5
1d7
100
AcDbEntity
  8
Layer_1
 62
7
100
AcDbPolyline
 90
2
 70
0
 10
156.056522
 20
930.817653
 30
0.0
 10
156.056522
 20
927.117641
 30
0.0
  0
LWPOLYLINE
  5
1d8
100
AcDbEntity
  8
Layer_1
 62
7
100
AcDbPolyline
 90
2
 70
0
 10
137.635422
 20
927.117641
 30
0.0
 10
156.056522
 20
927.117641
 30
0.0
  0
LWPOLYLINE
  5
1d9
100
AcDbEntity
  8
Layer_1
 62
7
100
AcDbPolyline
 90
2
 70
0
 10
137.635422
 20
930.817653
 30
0.0
 10
137.635422
 20
927.117641
 30
0.0
  0
LWPOLYLINE
  5
1da
100
AcDbEntity
  8
Layer_1
 62
7
100
AcDbPolyline
 90
2
 70
0
 10
119.214321
 20
930.817653
 30
0.0
 10
137.635422
 20
930.817653
 30
0.0
  0
LWPOLYLINE
  5
1db
100
AcDbEntity
  8
Layer_1
 62
7
100
AcDbPolyline
 90
2
 70
0
 10
119.214321
 20
930.817653
 30
0.0
 10
119.214321
 20
927.117641
 30
0.0
  0
LWPOLYLINE
  5
1dc
100
AcDbEntity
  8
Layer_1
 62
7
100
AcDbPolyline
 90
2
 70
0
 10
100.793221
 20
927.117641
 30
0.0
 10
119.214321
 20
927.117641
 30
0.0
  0
LWPOLYLINE
  5
1dd
100
AcDbEntity
  8
Layer_1
 62
7
100
AcDbPolyline
 90
2
 70
0
 10
100.793221
 20
930.817653
 30
0.0
 10
100.793221
 20
927.117641
 30
0.0
  0
LWPOLYLINE
  5
1de
100
AcDbEntity
  8
Layer_1
 62
7
100
AcDbPolyline
 90
2
 70
0
 10
82.372120
 20
930.817653
 30
0.0
 10
100.793221
 20
930.817653
 30
0.0
  0
LWPOLYLINE
  5
1df
100
AcDbEntity
  8
Layer_1
 62
7
100
AcDbPolyline
 90
2
 70
0
 10
749.758259
 20
897.253326
 30
0.0
 10
730.105071
 20
897.253326
 30
0.0
  0
LWPOLYLINE
  5
1e0
100
AcDbEntity
  8
Layer_1
 62
7
100
AcDbPolyline
 90
2
 70
0
 10
749.758259
 20
900.953338
 30
0.0
 10
749.758259
 20
897.253326
 30
0.0
  0
LWPOLYLINE
  5
1e1
100
AcDbEntity
  8
Layer_1
 62
7
100
AcDbPolyline
 90
2
 70
0
 10
769.411447
 20
900.953338
 30
0.0
 10
749.758259
 20
900.953338
 30
0.0
  0
LWPOLYLINE
  5
1e2
100
AcDbEntity
  8
Layer_1
 62
7
100
AcDbPolyline
 90
2
 70
0
 10
769.411447
 20
900.953338
 30
0.0
 10
769.411447
 20
897.253326
 30
0.0
  0
LWPOLYLINE
  5
1e3
100
AcDbEntity
  8
Layer_1
 62
7
100
AcDbPolyline
 90
2
 70
0
 10
770.364575
 20
897.253326
 30
0.0
 10
769.411447
 20
897.253326
 30
0.0
  0
LWPOLYLINE
  5
1e4
100
AcDbEntity
  8
Layer_1
 62
7
100
AcDbPolyline
 90
3
 70
0
 10
770.364575
 20
897.253326
 30
0.0
 10
770.364575
 20
794.653206
 30
0.0
 10
769.411447
 20
794.653206
 30
0.0
  0
LWPOLYLINE
  5
1e5
100
AcDbEntity
  8
Layer_1
 62
7
100
AcDbPolyline
 90
2
 70
0
 10
769.411447
 20
790.953194
 30
0.0
 10
769.411447
 20
794.653206
 30
0.0
  0
LWPOLYLINE
  5
1e6
100
AcDbEntity
  8
Layer_1
 62
7
100
AcDbPolyline
 90
2
 70
0
 10
749.758259
 20
790.953194
 30
0.0
 10
769.411447
 20
790.953194
 30
0.0
  0
LWPOLYLINE
  5
1e7
100
AcDbEntity
  8
Layer_1
 62
7
100
AcDbPolyline
 90
3
 70
0
 10
749.758259
 20
790.953194
 30
0.0
 10
749.758259
 20
794.653206
 30
0.0
 10
730.105071
 20
794.653206
 30
0.0
  0
LWPOLYLINE
  5
1e8
100
AcDbEntity
  8
Layer_1
 62
7
100
AcDbPolyline
 90
2
 70
0
 10
730.105071
 20
790.953194
 30
0.0
 10
730.105071
 20
794.653206
 30
0.0
  0
LWPOLYLINE
  5
1e9
100
AcDbEntity
  8
Layer_1
 62
7
100
AcDbPolyline
 90
2
 70
0
 10
710.451883
 20
790.953194
 30
0.0
 10
730.105071
 20
790.953194
 30
0.0
  0
LWPOLYLINE
  5
1ea
100
AcDbEntity
  8
Layer_1
 62
7
100
AcDbPolyline
 90
3
 70
0
 10
710.451883
 20
790.953194
 30
0.0
 10
710.451883
 20
794.653206
 30
0.0
 10
700.364351
 20
794.653206
 30
0.0
  0
LWPOLYLINE
  5
1eb
100
AcDbEntity
  8
Layer_1
 62
7
100
AcDbPolyline
 90
2
 70
0
 10
700.364351
 20
897.253326
 30
0.0
 10
700.364351
 20
794.653206
 30
0.0
  0
LWPOLYLINE
  5
1ec
100
AcDbEntity
  8
Layer_1
 62
7
100
AcDbPolyline
 90
2
 70
0
 10
710.451883
 20
897.253326
 30
0.0
 10
700.364351
 20
897.253326
 30
0.0
  0
LWPOLYLINE
  5
1ed
100
AcDbEntity
  8
Layer_1
 62
7
100
AcDbPolyline
 90
2
 70
0
 10
710.451883
 20
900.953338
 30
0.0
 10
710.451883
 20
897.253326
 30
0.0
  0
LWPOLYLINE
  5
1ee
100
AcDbEntity
  8
Layer_1
 62
7
100
AcDbPolyline
 90
2
 70
0
 10
730.105071
 20
900.953338
 30
0.0
 10
710.451883
 20
900.953338
 30
0.0
  0
LWPOLYLINE
  5
1ef
100
AcDbEntity
  8
Layer_1
 62
7
100
AcDbPolyline
 90
2
 70
0
 10
730.105071
 20
900.953338
 30
0.0
 10
730.105071
 20
897.253326
 30
0.0
  0
LWPOLYLINE
  5
1f0
100
AcDbEntity
  8
Layer_1
 62
7
100
AcDbPolyline
 90
2
 70
0
 10
676.664275
 20
887.253294
 30
0.0
 10
606.664051
 20
887.253294
 30
0.0
  0
LWPOLYLINE
  5
1f1
100
AcDbEntity
  8
Layer_1
 62
7
100
AcDbPolyline
 90
3
 70
0
 10
676.664275
 20
887.253294
 30
0.0
 10
676.664275
 20
804.653238
 30
0.0
 10
606.664051
 20
804.653238
 30
0.0
  0
SPLINE
  5
1f2
100
AcDbEntity
  8
Layer_1
 62
7
100
AcDbSpline
 70
8
 71
3
 72
8
 73
4
 74
0
 40
0
 40
0
 40
0
 40
0
 40
1
 40
1
 40
1
 40
1
 10
654.164620
 20
768.703126
 30
0.0
 10
654.164620
 20
773.168960
 30
0.0
 10
651.782126
 20
777.295561
 30
0.0
 10
647.914600
 20
779.528478
 30
0.0
  0
SPLINE
  5
1f3
100
AcDbEntity
  8
Layer_1
 62
7
100
AcDbSpline
 70
8
 71
3
 72
8
 73
4
 74
0
 40
0
 40
0
 40
0
 40
0
 40
1
 40
1
 40
1
 40
1
 10
647.914600
 20
779.528478
 30
0.0
 10
644.047074
 20
781.761395
 30
0.0
 10
639.282086
 20
781.761395
 30
0.0
 10
635.414560
 20
779.528478
 30
0.0
  0
SPLINE
  5
1f4
100
AcDbEntity
  8
Layer_1
 62
7
100
AcDbSpline
 70
8
 71
3
 72
8
 73
4
 74
0
 40
0
 40
0
 40
0
 40
0
 40
1
 40
1
 40
1
 40
1
 10
635.414560
 20
779.528478
 30
0.0
 10
631.547034
 20
777.295561
 30
0.0
 10
629.164540
 20
773.168960
 30
0.0
 10
629.164540
 20
768.703126
 30
0.0
  0
SPLINE
  5
1f5
100
AcDbEntity
  8
Layer_1
 62
7
100
AcDbSpline
 70
8
 71
3
 72
8
 73
4
 74
0
 40
0
 40
0
 40
0
 40
0
 40
1
 40
1
 40
1
 40
1
 10
629.164540
 20
768.703126
 30
0.0
 10
629.164540
 20
764.237292
 30
0.0
 10
631.547034
 20
760.110690
 30
0.0
 10
635.414560
 20
757.877773
 30
0.0
  0
SPLINE
  5
1f6
100
AcDbEntity
  8
Layer_1
 62
7
100
AcDbSpline
 70
8
 71
3
 72
8
 73
4
 74
0
 40
0
 40
0
 40
0
 40
0
 40
1
 40
1
 40
1
 40
1
 10
635.414560
 20
757.877773
 30
0.0
 10
639.282086
 20
755.644856
 30
0.0
 10
644.047074
 20
755.644856
 30
0.0
 10
647.914600
 20
757.877773
 30
0.0
  0
SPLINE
  5
1f7
100
AcDbEntity
  8
Layer_1
 62
7
100
AcDbSpline
 70
8
 71
3
 72
8
 73
4
 74
0
 40
0
 40
0
 40
0
 40
0
 40
1
 40
1
 40
1
 40
1
 10
647.914600
 20
757.877773
 30
0.0
 10
651.782126
 20
760.110690
 30
0.0
 10
654.164620
 20
764.237292
 30
0.0
 10
654.164620
 20
768.703126
 30
0.0
  0
LWPOLYLINE
  5
1f8
100
AcDbEntity
  8
Layer_1
 62
7
100
AcDbPolyline
 90
2
 70
0
 10
606.664051
 20
887.253294
 30
0.0
 10
606.664051
 20
804.653238
 30
0.0
  0
LWPOLYLINE
  5
1f9
100
AcDbEntity
  8
Layer_1
 62
7
100
AcDbPolyline
 90
1
 70
1
 10
654.164620
 20
768.703126
 30
0.0
  0
LWPOLYLINE
  5
1fa
100
AcDbEntity
  8
Layer_1
 62
7
100
AcDbPolyline
 90
2
 70
0
 10
789.064635
 20
827.619978
 30
0.0
 10
789.064635
 20
839.842204
 30
0.0
  0
LWPOLYLINE
  5
1fb
100
AcDbEntity
  8
Layer_1
 62
7
100
AcDbPolyline
 90
3
 70
0
 10
789.064635
 20
827.619978
 30
0.0
 10
785.364623
 20
827.619978
 30
0.0
 10
785.364623
 20
839.842204
 30
0.0
  0
LWPOLYLINE
  5
1fc
100
AcDbEntity
  8
Layer_1
 62
7
100
AcDbPolyline
 90
2
 70
0
 10
789.064635
 20
839.842204
 30
0.0
 10
785.364623
 20
839.842204
 30
0.0
  0
LWPOLYLINE
  5
1fd
100
AcDbEntity
  8
Layer_1
 62
7
100
AcDbPolyline
 90
2
 70
0
 10
789.064635
 20
852.064535
 30
0.0
 10
789.064635
 20
864.286554
 30
0.0
  0
LWPOLYLINE
  5
1fe
100
AcDbEntity
  8
Layer_1
 62
7
100
AcDbPolyline
 90
3
 70
0
 10
789.064635
 20
852.064535
 30
0.0
 10
785.364623
 20
852.064535
 30
0.0
 10
785.364623
 20
864.286554
 30
0.0
  0
LWPOLYLINE
  5
1ff
100
AcDbEntity
  8
Layer_1
 62
7
100
AcDbPolyline
 90
2
 70
0
 10
789.064635
 20
864.286554
 30
0.0
 10
785.364623
 20
864.286554
 30
0.0
  0
LWPOLYLINE
  5
200
100
AcDbEntity
  8
Layer_1
 62
7
100
AcDbPolyline
 90
2
 70
0
 10
789.064635
 20
876.509509
 30
0.0
 10
789.064635
 20
888.731423
 30
0.0
  0
LWPOLYLINE
  5
201
100
AcDbEntity
  8
Layer_1
 62
7
100
AcDbPolyline
 90
3
 70
0
 10
789.064635
 20
876.509509
 30
0.0
 10
785.364623
 20
876.509509
 30
0.0
 10
785.364623
 20
888.731423
 30
0.0
  0
LWPOLYLINE
  5
202
100
AcDbEntity
  8
Layer_1
 62
7
100
AcDbPolyline
 90
2
 70
0
 10
789.064635
 20
888.731423
 30
0.0
 10
785.364623
 20
888.731423
 30
0.0
  0
LWPOLYLINE
  5
203
100
AcDbEntity
  8
Layer_1
 62
7
100
AcDbPolyline
 90
2
 70
0
 10
789.064635
 20
803.175420
 30
0.0
 10
789.064635
 20
815.397751
 30
0.0
  0
LWPOLYLINE
  5
204
100
AcDbEntity
  8
Layer_1
 62
7
100
AcDbPolyline
 90
3
 70
0
 10
789.064635
 20
803.175420
 30
0.0
 10
785.364623
 20
803.175420
 30
0.0
 10
785.364623
 20
815.397751
 30
0.0
  0
LWPOLYLINE
  5
205
100
AcDbEntity
  8
Layer_1
 62
7
100
AcDbPolyline
 90
2
 70
0
 10
789.064635
 20
815.397751
 30
0.0
 10
785.364623
 20
815.397751
 30
0.0
  0
LWPOLYLINE
  5
206
100
AcDbEntity
  8
Layer_1
 62
7
100
AcDbPolyline
 90
2
 70
0
 10
685.364303
 20
828.853315
 30
0.0
 10
685.364303
 20
840.253352
 30
0.0
  0
LWPOLYLINE
  5
207
100
AcDbEntity
  8
Layer_1
 62
7
100
AcDbPolyline
 90
3
 70
0
 10
685.364303
 20
828.853315
 30
0.0
 10
681.664291
 20
828.853315
 30
0.0
 10
681.664291
 20
840.253352
 30
0.0
  0
LWPOLYLINE
  5
208
100
AcDbEntity
  8
Layer_1
 62
7
100
AcDbPolyline
 90
2
 70
0
 10
685.364303
 20
840.253352
 30
0.0
 10
681.664291
 20
840.253352
 30
0.0
  0
LWPOLYLINE
  5
209
100
AcDbEntity
  8
Layer_1
 62
7
100
AcDbPolyline
 90
2
 70
0
 10
685.364303
 20
851.653388
 30
0.0
 10
685.364303
 20
863.053216
 30
0.0
  0
LWPOLYLINE
  5
20a
100
AcDbEntity
  8
Layer_1
 62
7
100
AcDbPolyline
 90
3
 70
0
 10
685.364303
 20
851.653388
 30
0.0
 10
681.664291
 20
851.653388
 30
0.0
 10
681.664291
 20
863.053216
 30
0.0
  0
LWPOLYLINE
  5
20b
100
AcDbEntity
  8
Layer_1
 62
7
100
AcDbPolyline
 90
2
 70
0
 10
685.364303
 20
863.053216
 30
0.0
 10
681.664291
 20
863.053216
 30
0.0
  0
LWPOLYLINE
  5
20c
100
AcDbEntity
  8
Layer_1
 62
7
100
AcDbPolyline
 90
2
 70
0
 10
685.364303
 20
874.453253
 30
0.0
 10
685.364303
 20
885.853289
 30
0.0
  0
LWPOLYLINE
  5
20d
100
AcDbEntity
  8
Layer_1
 62
7
100
AcDbPolyline
 90
3
 70
0
 10
685.364303
 20
874.453253
 30
0.0
 10
681.664291
 20
874.453253
 30
0.0
 10
681.664291
 20
885.853289
 30
0.0
  0
LWPOLYLINE
  5
20e
100
AcDbEntity
  8
Layer_1
 62
7
100
AcDbPolyline
 90
2
 70
0
 10
685.364303
 20
885.853289
 30
0.0
 10
681.664291
 20
885.853289
 30
0.0
  0
LWPOLYLINE
  5
20f
100
AcDbEntity
  8
Layer_1
 62
7
100
AcDbPolyline
 90
2
 70
0
 10
685.364303
 20
806.053242
 30
0.0
 10
685.364303
 20
817.453279
 30
0.0
  0
LWPOLYLINE
  5
210
100
AcDbEntity
  8
Layer_1
 62
7
100
AcDbPolyline
 90
3
 70
0
 10
685.364303
 20
806.053242
 30
0.0
 10
681.664291
 20
806.053242
 30
0.0
 10
681.664291
 20
817.453279
 30
0.0
  0
LWPOLYLINE
  5
211
100
AcDbEntity
  8
Layer_1
 62
7
100
AcDbPolyline
 90
2
 70
0
 10
685.364303
 20
817.453279
 30
0.0
 10
681.664291
 20
817.453279
 30
0.0
  0
LWPOLYLINE
  5
212
100
AcDbEntity
  8
Layer_1
 62
7
100
AcDbPolyline
 90
2
 70
0
 10
494.264108
 20
864.286554
 30
0.0
 10
494.264108
 20
852.064535
 30
0.0
  0
LWPOLYLINE
  5
213
100
AcDbEntity
  8
Layer_1
 62
7
100
AcDbPolyline
 90
3
 70
0
 10
494.264108
 20
864.286554
 30
0.0
 10
497.964120
 20
864.286554
 30
0.0
 10
497.964120
 20
852.064535
 30
0.0
  0
LWPOLYLINE
  5
214
100
AcDbEntity
  8
Layer_1
 62
7
100
AcDbPolyline
 90
2
 70
0
 10
494.264108
 20
852.064535
 30
0.0
 10
497.964120
 20
852.064535
 30
0.0
  0
LWPOLYLINE
  5
215
100
AcDbEntity
  8
Layer_1
 62
7
100
AcDbPolyline
 90
2
 70
0
 10
494.264108
 20
839.842204
 30
0.0
 10
494.264108
 20
827.619978
 30
0.0
  0
LWPOLYLINE
  5
216
100
AcDbEntity
  8
Layer_1
 62
7
100
AcDbPolyline
 90
3
 70
0
 10
494.264108
 20
839.842204
 30
0.0
 10
497.964120
 20
839.842204
 30
0.0
 10
497.964120
 20
827.619978
 30
0.0
  0
LWPOLYLINE
  5
217
100
AcDbEntity
  8
Layer_1
 62
7
100
AcDbPolyline
 90
2
 70
0
 10
494.264108
 20
827.619978
 30
0.0
 10
497.964120
 20
827.619978
 30
0.0
  0
LWPOLYLINE
  5
218
100
AcDbEntity
  8
Layer_1
 62
7
100
AcDbPolyline
 90
2
 70
0
 10
494.264108
 20
815.397751
 30
0.0
 10
494.264108
 20
803.175420
 30
0.0
  0
LWPOLYLINE
  5
219
100
AcDbEntity
  8
Layer_1
 62
7
100
AcDbPolyline
 90
3
 70
0
 10
494.264108
 20
815.397751
 30
0.0
 10
497.964120
 20
815.397751
 30
0.0
 10
497.964120
 20
803.175420
 30
0.0
  0
LWPOLYLINE
  5
21a
100
AcDbEntity
  8
Layer_1
 62
7
100
AcDbPolyline
 90
2
 70
0
 10
494.264108
 20
803.175420
 30
0.0
 10
497.964120
 20
803.175420
 30
0.0
  0
LWPOLYLINE
  5
21b
100
AcDbEntity
  8
Layer_1
 62
7
100
AcDbPolyline
 90
2
 70
0
 10
494.264108
 20
888.731423
 30
0.0
 10
494.264108
 20
876.509509
 30
0.0
  0
LWPOLYLINE
  5
21c
100
AcDbEntity
  8
Layer_1
 62
7
100
AcDbPolyline
 90
3
 70
0
 10
494.264108
 20
888.731423
 30
0.0
 10
497.964120
 20
888.731423
 30
0.0
 10
497.964120
 20
876.509509
 30
0.0
  0
LWPOLYLINE
  5
21d
100
AcDbEntity
  8
Layer_1
 62
7
100
AcDbPolyline
 90
2
 70
0
 10
494.264108
 20
876.509509
 30
0.0
 10
497.964120
 20
876.509509
 30
0.0
  0
LWPOLYLINE
  5
21e
100
AcDbEntity
  8
Layer_1
 62
7
100
AcDbPolyline
 90
2
 70
0
 10
601.664035
 20
828.853315
 30
0.0
 10
601.664035
 20
840.253352
 30
0.0
  0
LWPOLYLINE
  5
21f
100
AcDbEntity
  8
Layer_1
 62
7
100
AcDbPolyline
 90
3
 70
0
 10
601.664035
 20
828.853315
 30
0.0
 10
597.964023
 20
828.853315
 30
0.0
 10
597.964023
 20
840.253352
 30
0.0
  0
LWPOLYLINE
  5
220
100
AcDbEntity
  8
Layer_1
 62
7
100
AcDbPolyline
 90
2
 70
0
 10
601.664035
 20
840.253352
 30
0.0
 10
597.964023
 20
840.253352
 30
0.0
  0
LWPOLYLINE
  5
221
100
AcDbEntity
  8
Layer_1
 62
7
100
AcDbPolyline
 90
2
 70
0
 10
601.664035
 20
851.653388
 30
0.0
 10
601.664035
 20
863.053216
 30
0.0
  0
LWPOLYLINE
  5
222
100
AcDbEntity
  8
Layer_1
 62
7
100
AcDbPolyline
 90
3
 70
0
 10
601.664035
 20
851.653388
 30
0.0
 10
597.964023
 20
851.653388
 30
0.0
 10
597.964023
 20
863.053216
 30
0.0
  0
LWPOLYLINE
  5
223
100
AcDbEntity
  8
Layer_1
 62
7
100
AcDbPolyline
 90
2
 70
0
 10
601.664035
 20
863.053216
 30
0.0
 10
597.964023
 20
863.053216
 30
0.0
  0
LWPOLYLINE
  5
224
100
AcDbEntity
  8
Layer_1
 62
7
100
AcDbPolyline
 90
2
 70
0
 10
601.664035
 20
874.453253
 30
0.0
 10
601.664035
 20
885.853289
 30
0.0
  0
LWPOLYLINE
  5
225
100
AcDbEntity
  8
Layer_1
 62
7
100
AcDbPolyline
 90
3
 70
0
 10
601.664035
 20
874.453253
 30
0.0
 10
597.964023
 20
874.453253
 30
0.0
 10
597.964023
 20
885.853289
 30
0.0
  0
LWPOLYLINE
  5
226
100
AcDbEntity
  8
Layer_1
 62
7
100
AcDbPolyline
 90
2
 70
0
 10
601.664035
 20
885.853289
 30
0.0
 10
597.964023
 20
885.853289
 30
0.0
  0
LWPOLYLINE
  5
227
100
AcDbEntity
  8
Layer_1
 62
7
100
AcDbPolyline
 90
2
 70
0
 10
601.664035
 20
806.053242
 30
0.0
 10
601.664035
 20
817.453279
 30
0.0
  0
LWPOLYLINE
  5
228
100
AcDbEntity
  8
Layer_1
 62
7
100
AcDbPolyline
 90
3
 70
0
 10
601.664035
 20
806.053242
 30
0.0
 10
597.964023
 20
806.053242
 30
0.0
 10
597.964023
 20
817.453279
 30
0.0
  0
LWPOLYLINE
  5
229
100
AcDbEntity
  8
Layer_1
 62
7
100
AcDbPolyline
 90
2
 70
0
 10
601.664035
 20
817.453279
 30
0.0
 10
597.964023
 20
817.453279
 30
0.0
  0
LWPOLYLINE
  5
22a
100
AcDbEntity
  8
Layer_1
 62
7
100
AcDbPolyline
 90
2
 70
0
 10
592.530673
 20
790.953194
 30
0.0
 10
612.184902
 20
790.953194
 30
0.0
  0
LWPOLYLINE
  5
22b
100
AcDbEntity
  8
Layer_1
 62
7
100
AcDbPolyline
 90
3
 70
0
 10
592.530673
 20
790.953194
 30
0.0
 10
592.530673
 20
794.653206
 30
0.0
 10
612.184902
 20
794.653206
 30
0.0
  0
LWPOLYLINE
  5
22c
100
AcDbEntity
  8
Layer_1
 62
7
100
AcDbPolyline
 90
2
 70
0
 10
612.184902
 20
790.953194
 30
0.0
 10
612.184902
 20
794.653206
 30
0.0
  0
LWPOLYLINE
  5
22d
100
AcDbEntity
  8
Layer_1
 62
7
100
AcDbPolyline
 90
2
 70
0
 10
631.838090
 20
790.953194
 30
0.0
 10
651.491278
 20
790.953194
 30
0.0
  0
LWPOLYLINE
  5
22e
100
AcDbEntity
  8
Layer_1
 62
7
100
AcDbPolyline
 90
3
 70
0
 10
631.838090
 20
790.953194
 30
0.0
 10
631.838090
 20
794.653206
 30
0.0
 10
651.491278
 20
794.653206
 30
0.0
  0
LWPOLYLINE
  5
22f
100
AcDbEntity
  8
Layer_1
 62
7
100
AcDbPolyline
 90
2
 70
0
 10
651.491278
 20
790.953194
 30
0.0
 10
651.491278
 20
794.653206
 30
0.0
  0
LWPOLYLINE
  5
230
100
AcDbEntity
  8
Layer_1
 62
7
100
AcDbPolyline
 90
2
 70
0
 10
671.144466
 20
790.953194
 30
0.0
 10
690.797654
 20
790.953194
 30
0.0
  0
LWPOLYLINE
  5
231
100
AcDbEntity
  8
Layer_1
 62
7
100
AcDbPolyline
 90
3
 70
0
 10
671.144466
 20
790.953194
 30
0.0
 10
671.144466
 20
794.653206
 30
0.0
 10
690.797654
 20
794.653206
 30
0.0
  0
LWPOLYLINE
  5
232
100
AcDbEntity
  8
Layer_1
 62
7
100
AcDbPolyline
 90
2
 70
0
 10
690.797654
 20
790.953194
 30
0.0
 10
690.797654
 20
794.653206
 30
0.0
  0
LWPOLYLINE
  5
233
100
AcDbEntity
  8
Layer_1
 62
7
100
AcDbPolyline
 90
2
 70
0
 10
690.797654
 20
900.953338
 30
0.0
 10
671.144466
 20
900.953338
 30
0.0
  0
LWPOLYLINE
  5
234
100
AcDbEntity
  8
Layer_1
 62
7
100
AcDbPolyline
 90
3
 70
0
 10
690.797654
 20
900.953338
 30
0.0
 10
690.797654
 20
897.253326
 30
0.0
 10
671.144466
 20
897.253326
 30
0.0
  0
LWPOLYLINE
  5
235
100
AcDbEntity
  8
Layer_1
 62
7
100
AcDbPolyline
 90
2
 70
0
 10
671.144466
 20
900.953338
 30
0.0
 10
671.144466
 20
897.253326
 30
0.0
  0
LWPOLYLINE
  5
236
100
AcDbEntity
  8
Layer_1
 62
7
100
AcDbPolyline
 90
2
 70
0
 10
651.491278
 20
900.953338
 30
0.0
 10
631.838090
 20
900.953338
 30
0.0
  0
LWPOLYLINE
  5
237
100
AcDbEntity
  8
Layer_1
 62
7
100
AcDbPolyline
 90
3
 70
0
 10
651.491278
 20
900.953338
 30
0.0
 10
651.491278
 20
897.253326
 30
0.0
 10
631.838090
 20
897.253326
 30
0.0
  0
LWPOLYLINE
  5
238
100
AcDbEntity
  8
Layer_1
 62
7
100
AcDbPolyline
 90
2
 70
0
 10
631.838090
 20
900.953338
 30
0.0
 10
631.838090
 20
897.253326
 30
0.0
  0
LWPOLYLINE
  5
239
100
AcDbEntity
  8
Layer_1
 62
7
100
AcDbPolyline
 90
2
 70
0
 10
612.184902
 20
900.953338
 30
0.0
 10
592.530673
 20
900.953338
 30
0.0
  0
LWPOLYLINE
  5
23a
100
AcDbEntity
  8
Layer_1
 62
7
100
AcDbPolyline
 90
3
 70
0
 10
612.184902
 20
900.953338
 30
0.0
 10
612.184902
 20
897.253326
 30
0.0
 10
592.530673
 20
897.253326
 30
0.0
  0
LWPOLYLINE
  5
23b
100
AcDbEntity
  8
Layer_1
 62
7
100
AcDbPolyline
 90
2
 70
0
 10
592.530673
 20
900.953338
 30
0.0
 10
592.530673
 20
897.253326
 30
0.0
  0
LWPOLYLINE
  5
23c
100
AcDbEntity
  8
Layer_1
 62
7
100
AcDbPolyline
 90
2
 70
0
 10
503.506221
 20
923.153409
 30
0.0
 10
485.085121
 20
923.153409
 30
0.0
  0
LWPOLYLINE
  5
23d
100
AcDbEntity
  8
Layer_1
 62
7
100
AcDbPolyline
 90
3
 70
0
 10
503.506221
 20
923.153409
 30
0.0
 10
503.506221
 20
919.453397
 30
0.0
 10
485.085121
 20
919.453397
 30
0.0
  0
LWPOLYLINE
  5
23e
100
AcDbEntity
  8
Layer_1
 62
7
100
AcDbPolyline
 90
2
 70
0
 10
485.085121
 20
923.153409
 30
0.0
 10
485.085121
 20
919.453397
 30
0.0
  0
LWPOLYLINE
  5
23f
100
AcDbEntity
  8
Layer_1
 62
7
100
AcDbPolyline
 90
2
 70
0
 10
540.348422
 20
923.153409
 30
0.0
 10
521.927322
 20
923.153409
 30
0.0
  0
LWPOLYLINE
  5
240
100
AcDbEntity
  8
Layer_1
 62
7
100
AcDbPolyline
 90
3
 70
0
 10
540.348422
 20
923.153409
 30
0.0
 10
540.348422
 20
919.453397
 30
0.0
 10
521.927322
 20
919.453397
 30
0.0
  0
LWPOLYLINE
  5
241
100
AcDbEntity
  8
Layer_1
 62
7
100
AcDbPolyline
 90
2
 70
0
 10
521.927322
 20
923.153409
 30
0.0
 10
521.927322
 20
919.453397
 30
0.0
  0
LWPOLYLINE
  5
242
100
AcDbEntity
  8
Layer_1
 62
7
100
AcDbPolyline
 90
2
 70
0
 10
577.191040
 20
923.153409
 30
0.0
 10
558.769627
 20
923.153409
 30
0.0
  0
LWPOLYLINE
  5
243
100
AcDbEntity
  8
Layer_1
 62
7
100
AcDbPolyline
 90
3
 70
0
 10
577.191040
 20
923.153409
 30
0.0
 10
577.191040
 20
919.453397
 30
0.0
 10
558.769627
 20
919.453397
 30
0.0
  0
LWPOLYLINE
  5
244
100
AcDbEntity
  8
Layer_1
 62
7
100
AcDbPolyline
 90
2
 70
0
 10
558.769627
 20
923.153409
 30
0.0
 10
558.769627
 20
919.453397
 30
0.0
  0
LWPOLYLINE
  5
245
100
AcDbEntity
  8
Layer_1
 62
7
100
AcDbPolyline
 90
2
 70
0
 10
614.032825
 20
923.153409
 30
0.0
 10
595.611933
 20
923.153409
 30
0.0
  0
LWPOLYLINE
  5
246
100
AcDbEntity
  8
Layer_1
 62
7
100
AcDbPolyline
 90
3
 70
0
 10
614.032825
 20
923.153409
 30
0.0
 10
614.032825
 20
919.453397
 30
0.0
 10
595.611933
 20
919.453397
 30
0.0
  0
LWPOLYLINE
  5
247
100
AcDbEntity
  8
Layer_1
 62
7
100
AcDbPolyline
 90
2
 70
0
 10
595.611933
 20
923.153409
 30
0.0
 10
595.611933
 20
919.453397
 30
0.0
  0
LWPOLYLINE
  5
248
100
AcDbEntity
  8
Layer_1
 62
7
100
AcDbPolyline
 90
2
 70
0
 10
650.875651
 20
923.153409
 30
0.0
 10
632.453717
 20
923.153409
 30
0.0
  0
LWPOLYLINE
  5
249
100
AcDbEntity
  8
Layer_1
 62
7
100
AcDbPolyline
 90
3
 70
0
 10
650.875651
 20
923.153409
 30
0.0
 10
650.875651
 20
919.453397
 30
0.0
 10
632.453717
 20
919.453397
 30
0.0
  0
LWPOLYLINE
  5
24a
100
AcDbEntity
  8
Layer_1
 62
7
100
AcDbPolyline
 90
2
 70
0
 10
632.453717
 20
923.153409
 30
0.0
 10
632.453717
 20
919.453397
 30
0.0
  0
LWPOLYLINE
  5
24b
100
AcDbEntity
  8
Layer_1
 62
7
100
AcDbPolyline
 90
2
 70
0
 10
687.717436
 20
923.153409
 30
0.0
 10
669.296543
 20
923.153409
 30
0.0
  0
LWPOLYLINE
  5
24c
100
AcDbEntity
  8
Layer_1
 62
7
100
AcDbPolyline
 90
3
 70
0
 10
687.717436
 20
923.153409
 30
0.0
 10
687.717436
 20
919.453397
 30
0.0
 10
669.296543
 20
919.453397
 30
0.0
  0
LWPOLYLINE
  5
24d
100
AcDbEntity
  8
Layer_1
 62
7
100
AcDbPolyline
 90
2
 70
0
 10
669.296543
 20
923.153409
 30
0.0
 10
669.296543
 20
919.453397
 30
0.0
  0
LWPOLYLINE
  5
24e
100
AcDbEntity
  8
Layer_1
 62
7
100
AcDbPolyline
 90
2
 70
0
 10
724.559220
 20
923.153409
 30
0.0
 10
706.138328
 20
923.153409
 30
0.0
  0
LWPOLYLINE
  5
24f
100
AcDbEntity
  8
Layer_1
 62
7
100
AcDbPolyline
 90
3
 70
0
 10
724.559220
 20
923.153409
 30
0.0
 10
724.559220
 20
919.453397
 30
0.0
 10
706.138328
 20
919.453397
 30
0.0
  0
LWPOLYLINE
  5
250
100
AcDbEntity
  8
Layer_1
 62
7
100
AcDbPolyline
 90
2
 70
0
 10
706.138328
 20
923.153409
 30
0.0
 10
706.138328
 20
919.453397
 30
0.0
  0
LWPOLYLINE
  5
251
100
AcDbEntity
  8
Layer_1
 62
7
100
AcDbPolyline
 90
2
 70
0
 10
761.402046
 20
923.153409
 30
0.0
 10
742.981154
 20
923.153409
 30
0.0
  0
LWPOLYLINE
  5
252
100
AcDbEntity
  8
Layer_1
 62
7
100
AcDbPolyline
 90
3
 70
0
 10
761.402046
 20
923.153409
 30
0.0
 10
761.402046
 20
919.453397
 30
0.0
 10
742.981154
 20
919.453397
 30
0.0
  0
LWPOLYLINE
  5
253
100
AcDbEntity
  8
Layer_1
 62
7
100
AcDbPolyline
 90
2
 70
0
 10
742.981154
 20
923.153409
 30
0.0
 10
742.981154
 20
919.453397
 30
0.0
  0
LWPOLYLINE
  5
254
100
AcDbEntity
  8
Layer_1
 62
7
100
AcDbPolyline
 90
2
 70
0
 10
798.243831
 20
923.153409
 30
0.0
 10
779.822939
 20
923.153409
 30
0.0
  0
LWPOLYLINE
  5
255
100
AcDbEntity
  8
Layer_1
 62
7
100
AcDbPolyline
 90
3
 70
0
 10
798.243831
 20
923.153409
 30
0.0
 10
798.243831
 20
919.453397
 30
0.0
 10
779.822939
 20
919.453397
 30
0.0
  0
LWPOLYLINE
  5
256
100
AcDbEntity
  8
Layer_1
 62
7
100
AcDbPolyline
 90
2
 70
0
 10
779.822939
 20
923.153409
 30
0.0
 10
779.822939
 20
919.453397
 30
0.0
  0
LWPOLYLINE
  5
257
100
AcDbEntity
  8
Layer_1
 62
7
100
AcDbPolyline
 90
2
 70
0
 10
553.224297
 20
897.253326
 30
0.0
 10
533.570901
 20
897.253326
 30
0.0
  0
LWPOLYLINE
  5
258
100
AcDbEntity
  8
Layer_1
 62
7
100
AcDbPolyline
 90
2
 70
0
 10
553.224297
 20
900.953338
 30
0.0
 10
553.224297
 20
897.253326
 30
0.0
  0
LWPOLYLINE
  5
259
100
AcDbEntity
  8
Layer_1
 62
7
100
AcDbPolyline
 90
2
 70
0
 10
572.877485
 20
900.953338
 30
0.0
 10
553.224297
 20
900.953338
 30
0.0
  0
LWPOLYLINE
  5
25a
100
AcDbEntity
  8
Layer_1
 62
7
100
AcDbPolyline
 90
2
 70
0
 10
572.877485
 20
900.953338
 30
0.0
 10
572.877485
 20
897.253326
 30
0.0
  0
LWPOLYLINE
  5
25b
100
AcDbEntity
  8
Layer_1
 62
7
100
AcDbPolyline
 90
2
 70
0
 10
582.963975
 20
897.253326
 30
0.0
 10
572.877485
 20
897.253326
 30
0.0
  0
LWPOLYLINE
  5
25c
100
AcDbEntity
  8
Layer_1
 62
7
100
AcDbPolyline
 90
3
 70
0
 10
582.963975
 20
897.253326
 30
0.0
 10
582.963975
 20
794.653206
 30
0.0
 10
572.877485
 20
794.653206
 30
0.0
  0
LWPOLYLINE
  5
25d
100
AcDbEntity
  8
Layer_1
 62
7
100
AcDbPolyline
 90
2
 70
0
 10
572.877485
 20
790.953194
 30
0.0
 10
572.877485
 20
794.653206
 30
0.0
  0
LWPOLYLINE
  5
25e
100
AcDbEntity
  8
Layer_1
 62
7
100
AcDbPolyline
 90
2
 70
0
 10
553.224297
 20
790.953194
 30
0.0
 10
572.877485
 20
790.953194
 30
0.0
  0
LWPOLYLINE
  5
25f
100
AcDbEntity
  8
Layer_1
 62
7
100
AcDbPolyline
 90
3
 70
0
 10
553.224297
 20
790.953194
 30
0.0
 10
553.224297
 20
794.653206
 30
0.0
 10
533.570901
 20
794.653206
 30
0.0
  0
LWPOLYLINE
  5
260
100
AcDbEntity
  8
Layer_1
 62
7
100
AcDbPolyline
 90
2
 70
0
 10
533.570901
 20
790.953194
 30
0.0
 10
533.570901
 20
794.653206
 30
0.0
  0
LWPOLYLINE
  5
261
100
AcDbEntity
  8
Layer_1
 62
7
100
AcDbPolyline
 90
2
 70
0
 10
513.917505
 20
790.953194
 30
0.0
 10
533.570901
 20
790.953194
 30
0.0
  0
LWPOLYLINE
  5
262
100
AcDbEntity
  8
Layer_1
 62
7
100
AcDbPolyline
 90
3
 70
0
 10
513.917505
 20
790.953194
 30
0.0
 10
513.917505
 20
794.653206
 30
0.0
 10
512.964168
 20
794.653206
 30
0.0
  0
LWPOLYLINE
  5
263
100
AcDbEntity
  8
Layer_1
 62
7
100
AcDbPolyline
 90
2
 70
0
 10
512.964168
 20
897.253326
 30
0.0
 10
512.964168
 20
794.653206
 30
0.0
  0
LWPOLYLINE
  5
264
100
AcDbEntity
  8
Layer_1
 62
7
100
AcDbPolyline
 90
2
 70
0
 10
513.917505
 20
897.253326
 30
0.0
 10
512.964168
 20
897.253326
 30
0.0
  0
LWPOLYLINE
  5
265
100
AcDbEntity
  8
Layer_1
 62
7
100
AcDbPolyline
 90
2
 70
0
 10
513.917505
 20
900.953338
 30
0.0
 10
513.917505
 20
897.253326
 30
0.0
  0
LWPOLYLINE
  5
266
100
AcDbEntity
  8
Layer_1
 62
7
100
AcDbPolyline
 90
2
 70
0
 10
533.570901
 20
900.953338
 30
0.0
 10
513.917505
 20
900.953338
 30
0.0
  0
LWPOLYLINE
  5
267
100
AcDbEntity
  8
Layer_1
 62
7
100
AcDbPolyline
 90
2
 70
0
 10
533.570901
 20
900.953338
 30
0.0
 10
533.570901
 20
897.253326
 30
0.0
  0
LWPOLYLINE
  5
268
100
AcDbEntity
  8
Layer_1
 62
7
100
AcDbPolyline
 90
2
 70
0
 10
816.664723
 20
897.408535
 30
0.0
 10
820.364735
 20
897.408535
 30
0.0
  0
LWPOLYLINE
  5
269
100
AcDbEntity
  8
Layer_1
 62
7
100
AcDbPolyline
 90
5
 70
0
 10
816.664723
 20
897.408535
 30
0.0
 10
816.664723
 20
930.653433
 30
0.0
 10
798.243831
 20
930.653433
 30
0.0
 10
798.243831
 20
926.953421
 30
0.0
 10
779.822939
 20
926.953421
 30
0.0
  0
LWPOLYLINE
  5
26a
100
AcDbEntity
  8
Layer_1
 62
7
100
AcDbPolyline
 90
2
 70
0
 10
779.822939
 20
930.653433
 30
0.0
 10
779.822939
 20
926.953421
 30
0.0
  0
LWPOLYLINE
  5
26b
100
AcDbEntity
  8
Layer_1
 62
7
100
AcDbPolyline
 90
4
 70
0
 10
779.822939
 20
930.653433
 30
0.0
 10
761.402046
 20
930.653433
 30
0.0
 10
761.402046
 20
926.953421
 30
0.0
 10
742.981154
 20
926.953421
 30
0.0
  0
LWPOLYLINE
  5
26c
100
AcDbEntity
  8
Layer_1
 62
7
100
AcDbPolyline
 90
2
 70
0
 10
742.981154
 20
930.653433
 30
0.0
 10
742.981154
 20
926.953421
 30
0.0
  0
LWPOLYLINE
  5
26d
100
AcDbEntity
  8
Layer_1
 62
7
100
AcDbPolyline
 90
4
 70
0
 10
742.981154
 20
930.653433
 30
0.0
 10
724.559220
 20
930.653433
 30
0.0
 10
724.559220
 20
926.953421
 30
0.0
 10
706.138328
 20
926.953421
 30
0.0
  0
LWPOLYLINE
  5
26e
100
AcDbEntity
  8
Layer_1
 62
7
100
AcDbPolyline
 90
2
 70
0
 10
706.138328
 20
930.653433
 30
0.0
 10
706.138328
 20
926.953421
 30
0.0
  0
LWPOLYLINE
  5
26f
100
AcDbEntity
  8
Layer_1
 62
7
100
AcDbPolyline
 90
4
 70
0
 10
706.138328
 20
930.653433
 30
0.0
 10
687.717436
 20
930.653433
 30
0.0
 10
687.717436
 20
926.953421
 30
0.0
 10
669.296543
 20
926.953421
 30
0.0
  0
LWPOLYLINE
  5
270
100
AcDbEntity
  8
Layer_1
 62
7
100
AcDbPolyline
 90
2
 70
0
 10
669.296543
 20
930.653433
 30
0.0
 10
669.296543
 20
926.953421
 30
0.0
  0
LWPOLYLINE
  5
271
100
AcDbEntity
  8
Layer_1
 62
7
100
AcDbPolyline
 90
4
 70
0
 10
669.296543
 20
930.653433
 30
0.0
 10
650.875651
 20
930.653433
 30
0.0
 10
650.875651
 20
926.953421
 30
0.0
 10
632.453717
 20
926.953421
 30
0.0
  0
LWPOLYLINE
  5
272
100
AcDbEntity
  8
Layer_1
 62
7
100
AcDbPolyline
 90
2
 70
0
 10
632.453717
 20
930.653433
 30
0.0
 10
632.453717
 20
926.953421
 30
0.0
  0
LWPOLYLINE
  5
273
100
AcDbEntity
  8
Layer_1
 62
7
100
AcDbPolyline
 90
4
 70
0
 10
632.453717
 20
930.653433
 30
0.0
 10
614.032825
 20
930.653433
 30
0.0
 10
614.032825
 20
926.953421
 30
0.0
 10
595.611933
 20
926.953421
 30
0.0
  0
LWPOLYLINE
  5
274
100
AcDbEntity
  8
Layer_1
 62
7
100
AcDbPolyline
 90
2
 70
0
 10
595.611933
 20
930.653433
 30
0.0
 10
595.611933
 20
926.953421
 30
0.0
  0
LWPOLYLINE
  5
275
100
AcDbEntity
  8
Layer_1
 62
7
100
AcDbPolyline
 90
4
 70
0
 10
595.611933
 20
930.653433
 30
0.0
 10
577.191040
 20
930.653433
 30
0.0
 10
577.191040
 20
926.953421
 30
0.0
 10
558.769627
 20
926.953421
 30
0.0
  0
LWPOLYLINE
  5
276
100
AcDbEntity
  8
Layer_1
 62
7
100
AcDbPolyline
 90
2
 70
0
 10
558.769627
 20
930.653433
 30
0.0
 10
558.769627
 20
926.953421
 30
0.0
  0
LWPOLYLINE
  5
277
100
AcDbEntity
  8
Layer_1
 62
7
100
AcDbPolyline
 90
4
 70
0
 10
558.769627
 20
930.653433
 30
0.0
 10
540.348422
 20
930.653433
 30
0.0
 10
540.348422
 20
926.953421
 30
0.0
 10
521.927322
 20
926.953421
 30
0.0
  0
LWPOLYLINE
  5
278
100
AcDbEntity
  8
Layer_1
 62
7
100
AcDbPolyline
 90
2
 70
0
 10
521.927322
 20
930.653433
 30
0.0
 10
521.927322
 20
926.953421
 30
0.0
  0
LWPOLYLINE
  5
279
100
AcDbEntity
  8
Layer_1
 62
7
100
AcDbPolyline
 90
4
 70
0
 10
521.927322
 20
930.653433
 30
0.0
 10
503.506221
 20
930.653433
 30
0.0
 10
503.506221
 20
926.953421
 30
0.0
 10
485.085121
 20
926.953421
 30
0.0
  0
LWPOLYLINE
  5
27a
100
AcDbEntity
  8
Layer_1
 62
7
100
AcDbPolyline
 90
2
 70
0
 10
485.085121
 20
930.653433
 30
0.0
 10
485.085121
 20
926.953421
 30
0.0
  0
LWPOLYLINE
  5
27b
100
AcDbEntity
  8
Layer_1
 62
7
100
AcDbPolyline
 90
3
 70
0
 10
485.085121
 20
930.653433
 30
0.0
 10
466.664020
 20
930.653433
 30
0.0
 10
466.664020
 20
914.316922
 30
0.0
  0
LWPOLYLINE
  5
27c
100
AcDbEntity
  8
Layer_1
 62
7
100
AcDbPolyline
 90
2
 70
0
 10
462.964008
 20
914.316922
 30
0.0
 10
466.664020
 20
914.316922
 30
0.0
  0
LWPOLYLINE
  5
27d
100
AcDbEntity
  8
Layer_1
 62
7
100
AcDbPolyline
 90
2
 70
0
 10
462.964008
 20
897.980411
 30
0.0
 10
462.964008
 20
914.316922
 30
0.0
  0
LWPOLYLINE
  5
27e
100
AcDbEntity
  8
Layer_1
 62
7
100
AcDbPolyline
 90
3
 70
0
 10
462.964008
 20
897.980411
 30
0.0
 10
466.664020
 20
897.980411
 30
0.0
 10
466.664020
 20
881.643901
 30
0.0
  0
LWPOLYLINE
  5
27f
100
AcDbEntity
  8
Layer_1
 62
7
100
AcDbPolyline
 90
2
 70
0
 10
462.964008
 20
881.643901
 30
0.0
 10
466.664020
 20
881.643901
 30
0.0
  0
LWPOLYLINE
  5
280
100
AcDbEntity
  8
Layer_1
 62
7
100
AcDbPolyline
 90
2
 70
0
 10
462.964008
 20
865.308432
 30
0.0
 10
462.964008
 20
881.643901
 30
0.0
  0
LWPOLYLINE
  5
281
100
AcDbEntity
  8
Layer_1
 62
7
100
AcDbPolyline
 90
3
 70
0
 10
462.964008
 20
865.308432
 30
0.0
 10
466.664020
 20
865.308432
 30
0.0
 10
466.664020
 20
848.971609
 30
0.0
  0
LWPOLYLINE
  5
282
100
AcDbEntity
  8
Layer_1
 62
7
100
AcDbPolyline
 90
2
 70
0
 10
462.964008
 20
848.971609
 30
0.0
 10
466.664020
 20
848.971609
 30
0.0
  0
LWPOLYLINE
  5
283
100
AcDbEntity
  8
Layer_1
 62
7
100
AcDbPolyline
 90
2
 70
0
 10
462.964008
 20
832.635098
 30
0.0
 10
462.964008
 20
848.971609
 30
0.0
  0
LWPOLYLINE
  5
284
100
AcDbEntity
  8
Layer_1
 62
7
100
AcDbPolyline
 90
3
 70
0
 10
462.964008
 20
832.635098
 30
0.0
 10
466.664020
 20
832.635098
 30
0.0
 10
466.664020
 20
816.298692
 30
0.0
  0
LWPOLYLINE
  5
285
100
AcDbEntity
  8
Layer_1
 62
7
100
AcDbPolyline
 90
2
 70
0
 10
462.964008
 20
816.298692
 30
0.0
 10
466.664020
 20
816.298692
 30
0.0
  0
LWPOLYLINE
  5
286
100
AcDbEntity
  8
Layer_1
 62
7
100
AcDbPolyline
 90
2
 70
0
 10
462.964008
 20
799.962285
 30
0.0
 10
462.964008
 20
816.298692
 30
0.0
  0
LWPOLYLINE
  5
287
100
AcDbEntity
  8
Layer_1
 62
7
100
AcDbPolyline
 90
3
 70
0
 10
462.964008
 20
799.962285
 30
0.0
 10
466.664020
 20
799.962285
 30
0.0
 10
466.664020
 20
783.625879
 30
0.0
  0
LWPOLYLINE
  5
288
100
AcDbEntity
  8
Layer_1
 62
7
100
AcDbPolyline
 90
2
 70
0
 10
462.964008
 20
783.625879
 30
0.0
 10
466.664020
 20
783.625879
 30
0.0
  0
LWPOLYLINE
  5
289
100
AcDbEntity
  8
Layer_1
 62
7
100
AcDbPolyline
 90
2
 70
0
 10
462.964008
 20
767.289472
 30
0.0
 10
462.964008
 20
783.625879
 30
0.0
  0
LWPOLYLINE
  5
28a
100
AcDbEntity
  8
Layer_1
 62
7
100
AcDbPolyline
 90
3
 70
0
 10
462.964008
 20
767.289472
 30
0.0
 10
466.664020
 20
767.289472
 30
0.0
 10
466.664020
 20
750.953066
 30
0.0
  0
LWPOLYLINE
  5
28b
100
AcDbEntity
  8
Layer_1
 62
7
100
AcDbPolyline
 90
2
 70
0
 10
481.774589
 20
750.953066
 30
0.0
 10
466.664020
 20
750.953066
 30
0.0
  0
LWPOLYLINE
  5
28c
100
AcDbEntity
  8
Layer_1
 62
7
100
AcDbPolyline
 90
2
 70
0
 10
481.774589
 20
750.953066
 30
0.0
 10
481.774589
 20
747.253054
 30
0.0
  0
LWPOLYLINE
  5
28d
100
AcDbEntity
  8
Layer_1
 62
7
100
AcDbPolyline
 90
2
 70
0
 10
500.585170
 20
747.253054
 30
0.0
 10
481.774589
 20
747.253054
 30
0.0
  0
LWPOLYLINE
  5
28e
100
AcDbEntity
  8
Layer_1
 62
7
100
AcDbPolyline
 90
2
 70
0
 10
500.585170
 20
750.953066
 30
0.0
 10
500.585170
 20
747.253054
 30
0.0
  0
LWPOLYLINE
  5
28f
100
AcDbEntity
  8
Layer_1
 62
7
100
AcDbPolyline
 90
2
 70
0
 10
519.395751
 20
750.953066
 30
0.0
 10
500.585170
 20
750.953066
 30
0.0
  0
LWPOLYLINE
  5
290
100
AcDbEntity
  8
Layer_1
 62
7
100
AcDbPolyline
 90
2
 70
0
 10
519.395751
 20
750.953066
 30
0.0
 10
519.395751
 20
747.253054
 30
0.0
  0
LWPOLYLINE
  5
291
100
AcDbEntity
  8
Layer_1
 62
7
100
AcDbPolyline
 90
2
 70
0
 10
538.206332
 20
747.253054
 30
0.0
 10
519.395751
 20
747.253054
 30
0.0
  0
LWPOLYLINE
  5
292
100
AcDbEntity
  8
Layer_1
 62
7
100
AcDbPolyline
 90
2
 70
0
 10
538.206332
 20
750.953066
 30
0.0
 10
538.206332
 20
747.253054
 30
0.0
  0
LWPOLYLINE
  5
293
100
AcDbEntity
  8
Layer_1
 62
7
100
AcDbPolyline
 90
2
 70
0
 10
557.016913
 20
750.953066
 30
0.0
 10
538.206332
 20
750.953066
 30
0.0
  0
LWPOLYLINE
  5
294
100
AcDbEntity
  8
Layer_1
 62
7
100
AcDbPolyline
 90
2
 70
0
 10
557.016913
 20
750.953066
 30
0.0
 10
557.016913
 20
747.253054
 30
0.0
  0
LWPOLYLINE
  5
295
100
AcDbEntity
  8
Layer_1
 62
7
100
AcDbPolyline
 90
2
 70
0
 10
575.827494
 20
747.253054
 30
0.0
 10
557.016913
 20
747.253054
 30
0.0
  0
LWPOLYLINE
  5
296
100
AcDbEntity
  8
Layer_1
 62
7
100
AcDbPolyline
 90
2
 70
0
 10
575.827494
 20
750.953066
 30
0.0
 10
575.827494
 20
747.253054
 30
0.0
  0
LWPOLYLINE
  5
297
100
AcDbEntity
  8
Layer_1
 62
7
100
AcDbPolyline
 90
2
 70
0
 10
594.637971
 20
750.953066
 30
0.0
 10
575.827494
 20
750.953066
 30
0.0
  0
LWPOLYLINE
  5
298
100
AcDbEntity
  8
Layer_1
 62
7
100
AcDbPolyline
 90
2
 70
0
 10
594.637971
 20
750.953066
 30
0.0
 10
594.637971
 20
747.253054
 30
0.0
  0
LWPOLYLINE
  5
299
100
AcDbEntity
  8
Layer_1
 62
7
100
AcDbPolyline
 90
2
 70
0
 10
613.448448
 20
747.253054
 30
0.0
 10
594.637971
 20
747.253054
 30
0.0
  0
LWPOLYLINE
  5
29a
100
AcDbEntity
  8
Layer_1
 62
7
100
AcDbPolyline
 90
2
 70
0
 10
613.448448
 20
750.953066
 30
0.0
 10
613.448448
 20
747.253054
 30
0.0
  0
LWPOLYLINE
  5
29b
100
AcDbEntity
  8
Layer_1
 62
7
100
AcDbPolyline
 90
2
 70
0
 10
632.258925
 20
750.953066
 30
0.0
 10
613.448448
 20
750.953066
 30
0.0
  0
LWPOLYLINE
  5
29c
100
AcDbEntity
  8
Layer_1
 62
7
100
AcDbPolyline
 90
2
 70
0
 10
632.258925
 20
750.953066
 30
0.0
 10
632.258925
 20
747.253054
 30
0.0
  0
LWPOLYLINE
  5
29d
100
AcDbEntity
  8
Layer_1
 62
7
100
AcDbPolyline
 90
2
 70
0
 10
651.069402
 20
747.253054
 30
0.0
 10
632.258925
 20
747.253054
 30
0.0
  0
LWPOLYLINE
  5
29e
100
AcDbEntity
  8
Layer_1
 62
7
100
AcDbPolyline
 90
2
 70
0
 10
651.069402
 20
750.953066
 30
0.0
 10
651.069402
 20
747.253054
 30
0.0
  0
LWPOLYLINE
  5
29f
100
AcDbEntity
  8
Layer_1
 62
7
100
AcDbPolyline
 90
2
 70
0
 10
669.880920
 20
750.953066
 30
0.0
 10
651.069402
 20
750.953066
 30
0.0
  0
LWPOLYLINE
  5
2a0
100
AcDbEntity
  8
Layer_1
 62
7
100
AcDbPolyline
 90
2
 70
0
 10
669.880920
 20
750.953066
 30
0.0
 10
669.880920
 20
747.253054
 30
0.0
  0
LWPOLYLINE
  5
2a1
100
AcDbEntity
  8
Layer_1
 62
7
100
AcDbPolyline
 90
2
 70
0
 10
688.691397
 20
747.253054
 30
0.0
 10
669.880920
 20
747.253054
 30
0.0
  0
LWPOLYLINE
  5
2a2
100
AcDbEntity
  8
Layer_1
 62
7
100
AcDbPolyline
 90
2
 70
0
 10
688.691397
 20
750.953066
 30
0.0
 10
688.691397
 20
747.253054
 30
0.0
  0
LWPOLYLINE
  5
2a3
100
AcDbEntity
  8
Layer_1
 62
7
100
AcDbPolyline
 90
2
 70
0
 10
707.501874
 20
750.953066
 30
0.0
 10
688.691397
 20
750.953066
 30
0.0
  0
LWPOLYLINE
  5
2a4
100
AcDbEntity
  8
Layer_1
 62
7
100
AcDbPolyline
 90
2
 70
0
 10
707.501874
 20
750.953066
 30
0.0
 10
707.501874
 20
747.253054
 30
0.0
  0
LWPOLYLINE
  5
2a5
100
AcDbEntity
  8
Layer_1
 62
7
100
AcDbPolyline
 90
2
 70
0
 10
726.312351
 20
747.253054
 30
0.0
 10
707.501874
 20
747.253054
 30
0.0
  0
LWPOLYLINE
  5
2a6
100
AcDbEntity
  8
Layer_1
 62
7
100
AcDbPolyline
 90
2
 70
0
 10
726.312351
 20
750.953066
 30
0.0
 10
726.312351
 20
747.253054
 30
0.0
  0
LWPOLYLINE
  5
2a7
100
AcDbEntity
  8
Layer_1
 62
7
100
AcDbPolyline
 90
2
 70
0
 10
745.122828
 20
750.953066
 30
0.0
 10
726.312351
 20
750.953066
 30
0.0
  0
LWPOLYLINE
  5
2a8
100
AcDbEntity
  8
Layer_1
 62
7
100
AcDbPolyline
 90
2
 70
0
 10
745.122828
 20
750.953066
 30
0.0
 10
745.122828
 20
747.253054
 30
0.0
  0
LWPOLYLINE
  5
2a9
100
AcDbEntity
  8
Layer_1
 62
7
100
AcDbPolyline
 90
2
 70
0
 10
763.933305
 20
747.253054
 30
0.0
 10
745.122828
 20
747.253054
 30
0.0
  0
LWPOLYLINE
  5
2aa
100
AcDbEntity
  8
Layer_1
 62
7
100
AcDbPolyline
 90
2
 70
0
 10
763.933305
 20
750.953066
 30
0.0
 10
763.933305
 20
747.253054
 30
0.0
  0
LWPOLYLINE
  5
2ab
100
AcDbEntity
  8
Layer_1
 62
7
100
AcDbPolyline
 90
2
 70
0
 10
782.743781
 20
750.953066
 30
0.0
 10
763.933305
 20
750.953066
 30
0.0
  0
LWPOLYLINE
  5
2ac
100
AcDbEntity
  8
Layer_1
 62
7
100
AcDbPolyline
 90
2
 70
0
 10
782.743781
 20
750.953066
 30
0.0
 10
782.743781
 20
747.253054
 30
0.0
  0
LWPOLYLINE
  5
2ad
100
AcDbEntity
  8
Layer_1
 62
7
100
AcDbPolyline
 90
2
 70
0
 10
801.554258
 20
747.253054
 30
0.0
 10
782.743781
 20
747.253054
 30
0.0
  0
LWPOLYLINE
  5
2ae
100
AcDbEntity
  8
Layer_1
 62
7
100
AcDbPolyline
 90
2
 70
0
 10
801.554258
 20
750.953066
 30
0.0
 10
801.554258
 20
747.253054
 30
0.0
  0
LWPOLYLINE
  5
2af
100
AcDbEntity
  8
Layer_1
 62
7
100
AcDbPolyline
 90
2
 70
0
 10
816.664723
 20
750.953066
 30
0.0
 10
801.554258
 20
750.953066
 30
0.0
  0
LWPOLYLINE
  5
2b0
100
AcDbEntity
  8
Layer_1
 62
7
100
AcDbPolyline
 90
2
 70
0
 10
816.664723
 20
765.598571
 30
0.0
 10
816.664723
 20
750.953066
 30
0.0
  0
LWPOLYLINE
  5
2b1
100
AcDbEntity
  8
Layer_1
 62
7
100
AcDbPolyline
 90
2
 70
0
 10
816.664723
 20
765.598571
 30
0.0
 10
820.364735
 20
765.598571
 30
0.0
  0
LWPOLYLINE
  5
2b2
100
AcDbEntity
  8
Layer_1
 62
7
100
AcDbPolyline
 90
2
 70
0
 10
820.364735
 20
780.244097
 30
0.0
 10
820.364735
 20
765.598571
 30
0.0
  0
LWPOLYLINE
  5
2b3
100
AcDbEntity
  8
Layer_1
 62
7
100
AcDbPolyline
 90
2
 70
0
 10
816.664723
 20
780.244097
 30
0.0
 10
820.364735
 20
780.244097
 30
0.0
  0
LWPOLYLINE
  5
2b4
100
AcDbEntity
  8
Layer_1
 62
7
100
AcDbPolyline
 90
2
 70
0
 10
816.664723
 20
794.889561
 30
0.0
 10
816.664723
 20
780.244097
 30
0.0
  0
LWPOLYLINE
  5
2b5
100
AcDbEntity
  8
Layer_1
 62
7
100
AcDbPolyline
 90
2
 70
0
 10
816.664723
 20
794.889561
 30
0.0
 10
820.364735
 20
794.889561
 30
0.0
  0
LWPOLYLINE
  5
2b6
100
AcDbEntity
  8
Layer_1
 62
7
100
AcDbPolyline
 90
2
 70
0
 10
820.364735
 20
809.535024
 30
0.0
 10
820.364735
 20
794.889561
 30
0.0
  0
LWPOLYLINE
  5
2b7
100
AcDbEntity
  8
Layer_1
 62
7
100
AcDbPolyline
 90
2
 70
0
 10
816.664723
 20
809.535024
 30
0.0
 10
820.364735
 20
809.535024
 30
0.0
  0
LWPOLYLINE
  5
2b8
100
AcDbEntity
  8
Layer_1
 62
7
100
AcDbPolyline
 90
2
 70
0
 10
816.664723
 20
824.180592
 30
0.0
 10
816.664723
 20
809.535024
 30
0.0
  0
LWPOLYLINE
  5
2b9
100
AcDbEntity
  8
Layer_1
 62
7
100
AcDbPolyline
 90
2
 70
0
 10
816.664723
 20
824.180592
 30
0.0
 10
820.364735
 20
824.180592
 30
0.0
  0
LWPOLYLINE
  5
2ba
100
AcDbEntity
  8
Layer_1
 62
7
100
AcDbPolyline
 90
2
 70
0
 10
820.364735
 20
838.826055
 30
0.0
 10
820.364735
 20
824.180592
 30
0.0
  0
LWPOLYLINE
  5
2bb
100
AcDbEntity
  8
Layer_1
 62
7
100
AcDbPolyline
 90
2
 70
0
 10
816.664723
 20
838.826055
 30
0.0
 10
820.364735
 20
838.826055
 30
0.0
  0
LWPOLYLINE
  5
2bc
100
AcDbEntity
  8
Layer_1
 62
7
100
AcDbPolyline
 90
2
 70
0
 10
816.664723
 20
853.471623
 30
0.0
 10
816.664723
 20
838.826055
 30
0.0
  0
LWPOLYLINE
  5
2bd
100
AcDbEntity
  8
Layer_1
 62
7
100
AcDbPolyline
 90
2
 70
0
 10
816.664723
 20
853.471623
 30
0.0
 10
820.364735
 20
853.471623
 30
0.0
  0
LWPOLYLINE
  5
2be
100
AcDbEntity
  8
Layer_1
 62
7
100
AcDbPolyline
 90
2
 70
0
 10
820.364735
 20
868.116774
 30
0.0
 10
820.364735
 20
853.471623
 30
0.0
  0
LWPOLYLINE
  5
2bf
100
AcDbEntity
  8
Layer_1
 62
7
100
AcDbPolyline
 90
2
 70
0
 10
816.664723
 20
868.116774
 30
0.0
 10
820.364735
 20
868.116774
 30
0.0
  0
LWPOLYLINE
  5
2c0
100
AcDbEntity
  8
Layer_1
 62
7
100
AcDbPolyline
 90
2
 70
0
 10
816.664723
 20
882.762654
 30
0.0
 10
816.664723
 20
868.116774
 30
0.0
  0
LWPOLYLINE
  5
2c1
100
AcDbEntity
  8
Layer_1
 62
7
100
AcDbPolyline
 90
2
 70
0
 10
816.664723
 20
882.762654
 30
0.0
 10
820.364735
 20
882.762654
 30
0.0
  0
LWPOLYLINE
  5
2c2
100
AcDbEntity
  8
Layer_1
 62
7
100
AcDbPolyline
 90
2
 70
0
 10
820.364735
 20
897.408535
 30
0.0
 10
820.364735
 20
882.762654
 30
0.0
  0
LWPOLYLINE
  5
2c3
100
AcDbEntity
  8
Layer_1
 62
7
100
AcDbPolyline
 90
2
 70
0
 10
816.380488
 20
718.951418
 30
0.0
 10
816.380488
 20
608.951066
 30
0.0
  0
LWPOLYLINE
  5
2c4
100
AcDbEntity
  8
Layer_1
 62
7
100
AcDbPolyline
 90
3
 70
0
 10
816.380488
 20
718.951418
 30
0.0
 10
466.379368
 20
718.951418
 30
0.0
 10
466.379368
 20
608.951066
 30
0.0
  0
SPLINE
  5
2c5
100
AcDbEntity
  8
Layer_1
 62
7
100
AcDbSpline
 70
8
 71
3
 72
8
 73
4
 74
0
 40
0
 40
0
 40
0
 40
0
 40
1
 40
1
 40
1
 40
1
 10
747.417205
 20
679.563583
 30
0.0
 10
741.359228
 20
679.710361
 30
0.0
 10
735.369466
 20
678.258817
 30
0.0
 10
730.050754
 20
675.355039
 30
0.0
  0
SPLINE
  5
2c6
100
AcDbEntity
  8
Layer_1
 62
7
100
AcDbSpline
 70
8
 71
3
 72
8
 73
4
 74
0
 40
0
 40
0
 40
0
 40
0
 40
1
 40
1
 40
1
 40
1
 10
747.417205
 20
679.563583
 30
0.0
 10
745.660353
 20
683.601341
 30
0.0
 10
743.125766
 20
687.253723
 30
0.0
 10
739.958025
 20
690.312389
 30
0.0
  0
SPLINE
  5
2c7
100
AcDbEntity
  8
Layer_1
 62
7
100
AcDbSpline
 70
8
 71
3
 72
8
 73
4
 74
0
 40
0
 40
0
 40
0
 40
0
 40
1
 40
1
 40
1
 40
1
 10
745.663397
 20
651.608806
 30
0.0
 10
751.799008
 20
656.721656
 30
0.0
 10
754.830955
 20
664.659542
 30
0.0
 10
753.666211
 20
672.560828
 30
0.0
  0
SPLINE
  5
2c8
100
AcDbEntity
  8
Layer_1
 62
7
100
AcDbSpline
 70
8
 71
3
 72
8
 73
4
 74
0
 40
0
 40
0
 40
0
 40
0
 40
1
 40
1
 40
1
 40
1
 10
753.666211
 20
672.560828
 30
0.0
 10
752.501466
 20
680.462114
 30
0.0
 10
747.307981
 20
687.187473
 30
0.0
 10
739.958025
 20
690.312389
 30
0.0
  0
SPLINE
  5
2c9
100
AcDbEntity
  8
Layer_1
 62
7
100
AcDbSpline
 70
8
 71
3
 72
8
 73
4
 74
0
 40
0
 40
0
 40
0
 40
0
 40
1
 40
1
 40
1
 40
1
 10
740.266797
 20
634.510460
 30
0.0
 10
743.434858
 20
639.683739
 30
0.0
 10
745.287699
 20
645.554198
 30
0.0
 10
745.663397
 20
651.608806
 30
0.0
  0
SPLINE
  5
2ca
100
AcDbEntity
  8
Layer_1
 62
7
100
AcDbSpline
 70
8
 71
3
 72
8
 73
4
 74
0
 40
0
 40
0
 40
0
 40
0
 40
1
 40
1
 40
1
 40
1
 10
740.266797
 20
634.510460
 30
0.0
 10
744.683073
 20
633.259872
 30
0.0
 10
749.397079
 20
633.587001
 30
0.0
 10
753.598287
 20
635.435598
 30
0.0
  0
SPLINE
  5
2cb
100
AcDbEntity
  8
Layer_1
 62
7
100
AcDbSpline
 70
8
 71
3
 72
8
 73
4
 74
0
 40
0
 40
0
 40
0
 40
0
 40
1
 40
1
 40
1
 40
1
 10
717.015535
 20
649.964103
 30
0.0
 10
718.215292
 20
641.944290
 30
0.0
 10
723.590632
 20
635.168163
 30
0.0
 10
731.127111
 20
632.175119
 30
0.0
  0
SPLINE
  5
2cc
100
AcDbEntity
  8
Layer_1
 62
7
100
AcDbSpline
 70
8
 71
3
 72
8
 73
4
 74
0
 40
0
 40
0
 40
0
 40
0
 40
1
 40
1
 40
1
 40
1
 10
731.127111
 20
632.175119
 30
0.0
 10
738.663589
 20
629.182076
 30
0.0
 10
747.223243
 20
630.424048
 30
0.0
 10
753.598287
 20
635.435598
 30
0.0
  0
SPLINE
  5
2cd
100
AcDbEntity
  8
Layer_1
 62
7
100
AcDbSpline
 70
8
 71
3
 72
8
 73
4
 74
0
 40
0
 40
0
 40
0
 40
0
 40
1
 40
1
 40
1
 40
1
 10
704.649704
 20
662.950801
 30
0.0
 10
707.465629
 20
657.543203
 30
0.0
 10
711.752257
 20
653.041352
 30
0.0
 10
717.015535
 20
649.964103
 30
0.0
  0
SPLINE
  5
2ce
100
AcDbEntity
  8
Layer_1
 62
7
100
AcDbSpline
 70
8
 71
3
 72
8
 73
4
 74
0
 40
0
 40
0
 40
0
 40
0
 40
1
 40
1
 40
1
 40
1
 10
704.649704
 20
662.950801
 30
0.0
 10
701.596794
 20
659.681811
 30
0.0
 10
699.619784
 20
655.555235
 30
0.0
 10
698.985300
 20
651.127597
 30
0.0
  0
SPLINE
  5
2cf
100
AcDbEntity
  8
Layer_1
 62
7
100
AcDbSpline
 70
8
 71
3
 72
8
 73
4
 74
0
 40
0
 40
0
 40
0
 40
0
 40
1
 40
1
 40
1
 40
1
 10
730.050754
 20
675.355039
 30
0.0
 10
722.525384
 20
678.142593
 30
0.0
 10
714.093259
 20
676.835393
 30
0.0
 10
707.765121
 20
671.900180
 30
0.0
  0
SPLINE
  5
2d0
100
AcDbEntity
  8
Layer_1
 62
7
100
AcDbSpline
 70
8
 71
3
 72
8
 73
4
 74
0
 40
0
 40
0
 40
0
 40
0
 40
1
 40
1
 40
1
 40
1
 10
707.765121
 20
671.900180
 30
0.0
 10
701.436982
 20
666.964968
 30
0.0
 10
698.114997
 20
659.105330
 30
0.0
 10
698.985300
 20
651.127597
 30
0.0
  0
LWPOLYLINE
  5
2d1
100
AcDbEntity
  8
Layer_1
 62
7
100
AcDbPolyline
 90
2
 70
0
 10
816.380488
 20
608.951066
 30
0.0
 10
466.379368
 20
608.951066
 30
0.0
  0
LWPOLYLINE
  5
2d2
100
AcDbEntity
  8
Layer_1
 62
7
100
AcDbPolyline
 90
2
 70
0
 10
612.398586
 20
629.939675
 30
0.0
 10
620.798612
 20
623.345903
 30
0.0
  0
LWPOLYLINE
  5
2d3
100
AcDbEntity
  8
Layer_1
 62
7
100
AcDbPolyline
 90
2
 70
0
 10
622.363201
 20
642.469923
 30
0.0
 10
612.398586
 20
629.939675
 30
0.0
  0
LWPOLYLINE
  5
2d4
100
AcDbEntity
  8
Layer_1
 62
7
100
AcDbPolyline
 90
2
 70
0
 10
610.212120
 20
657.528304
 30
0.0
 10
622.363201
 20
642.469923
 30
0.0
  0
LWPOLYLINE
  5
2d5
100
AcDbEntity
  8
Layer_1
 62
7
100
AcDbPolyline
 90
2
 70
0
 10
622.337159
 20
672.973146
 30
0.0
 10
610.212120
 20
657.528304
 30
0.0
  0
LWPOLYLINE
  5
2d6
100
AcDbEntity
  8
Layer_1
 62
7
100
AcDbPolyline
 90
2
 70
0
 10
612.380877
 20
685.312768
 30
0.0
 10
622.337159
 20
672.973146
 30
0.0
  0
LWPOLYLINE
  5
2d7
100
AcDbEntity
  8
Layer_1
 62
7
100
AcDbPolyline
 90
2
 70
0
 10
620.798612
 20
691.890914
 30
0.0
 10
612.380877
 20
685.312768
 30
0.0
  0
LWPOLYLINE
  5
2d8
100
AcDbEntity
  8
Layer_1
 62
7
100
AcDbPolyline
 90
2
 70
0
 10
629.072597
 20
681.302339
 30
0.0
 10
620.798612
 20
691.890914
 30
0.0
  0
LWPOLYLINE
  5
2d9
100
AcDbEntity
  8
Layer_1
 62
7
100
AcDbPolyline
 90
2
 70
0
 10
641.294511
 20
696.870097
 30
0.0
 10
629.072597
 20
681.302339
 30
0.0
  0
LWPOLYLINE
  5
2da
100
AcDbEntity
  8
Layer_1
 62
7
100
AcDbPolyline
 90
2
 70
0
 10
653.856010
 20
681.302339
 30
0.0
 10
641.294511
 20
696.870097
 30
0.0
  0
LWPOLYLINE
  5
2db
100
AcDbEntity
  8
Layer_1
 62
7
100
AcDbPolyline
 90
2
 70
0
 10
662.168536
 20
691.890914
 30
0.0
 10
653.856010
 20
681.302339
 30
0.0
  0
LWPOLYLINE
  5
2dc
100
AcDbEntity
  8
Layer_1
 62
7
100
AcDbPolyline
 90
2
 70
0
 10
670.547730
 20
685.312768
 30
0.0
 10
662.168536
 20
691.890914
 30
0.0
  0
LWPOLYLINE
  5
2dd
100
AcDbEntity
  8
Layer_1
 62
7
100
AcDbPolyline
 90
2
 70
0
 10
660.256030
 20
672.761687
 30
0.0
 10
670.547730
 20
685.312768
 30
0.0
  0
LWPOLYLINE
  5
2de
100
AcDbEntity
  8
Layer_1
 62
7
100
AcDbPolyline
 90
2
 70
0
 10
672.546695
 20
657.528304
 30
0.0
 10
660.256030
 20
672.761687
 30
0.0
  0
LWPOLYLINE
  5
2df
100
AcDbEntity
  8
Layer_1
 62
7
100
AcDbPolyline
 90
2
 70
0
 10
660.704990
 20
642.443881
 30
0.0
 10
672.546695
 20
657.528304
 30
0.0
  0
LWPOLYLINE
  5
2e0
100
AcDbEntity
  8
Layer_1
 62
7
100
AcDbPolyline
 90
2
 70
0
 10
670.547730
 20
629.944883
 30
0.0
 10
660.704990
 20
642.443881
 30
0.0
  0
LWPOLYLINE
  5
2e1
100
AcDbEntity
  8
Layer_1
 62
7
100
AcDbPolyline
 90
2
 70
0
 10
662.168536
 20
623.345903
 30
0.0
 10
670.547730
 20
629.944883
 30
0.0
  0
LWPOLYLINE
  5
2e2
100
AcDbEntity
  8
Layer_1
 62
7
100
AcDbPolyline
 90
2
 70
0
 10
653.846635
 20
633.912604
 30
0.0
 10
662.168536
 20
623.345903
 30
0.0
  0
LWPOLYLINE
  5
2e3
100
AcDbEntity
  8
Layer_1
 62
7
100
AcDbPolyline
 90
2
 70
0
 10
641.294511
 20
618.792764
 30
0.0
 10
653.846635
 20
633.912604
 30
0.0
  0
LWPOLYLINE
  5
2e4
100
AcDbEntity
  8
Layer_1
 62
7
100
AcDbPolyline
 90
2
 70
0
 10
629.094472
 20
633.912604
 30
0.0
 10
641.294511
 20
618.792764
 30
0.0
  0
SPLINE
  5
2e5
100
AcDbEntity
  8
Layer_1
 62
7
100
AcDbSpline
 70
8
 71
3
 72
8
 73
4
 74
0
 40
0
 40
0
 40
0
 40
0
 40
1
 40
1
 40
1
 40
1
 10
576.250762
 20
635.081691
 30
0.0
 10
567.541648
 20
637.289522
 30
0.0
 10
558.301905
 20
635.196467
 30
0.0
 10
551.394422
 20
629.451048
 30
0.0
  0
SPLINE
  5
2e6
100
AcDbEntity
  8
Layer_1
 62
7
100
AcDbSpline
 70
8
 71
3
 72
8
 73
4
 74
0
 40
0
 40
0
 40
0
 40
0
 40
1
 40
1
 40
1
 40
1
 10
551.394422
 20
629.451048
 30
0.0
 10
544.630569
 20
635.160654
 30
0.0
 10
535.528022
 20
637.257207
 30
0.0
 10
526.948020
 20
635.081691
 30
0.0
  0
LWPOLYLINE
  5
2e7
100
AcDbEntity
  8
Layer_1
 62
7
100
AcDbPolyline
 90
2
 70
0
 10
620.798612
 20
623.345903
 30
0.0
 10
629.094472
 20
633.912604
 30
0.0
  0
SPLINE
  5
2e8
100
AcDbEntity
  8
Layer_1
 62
7
100
AcDbSpline
 70
8
 71
3
 72
8
 73
4
 74
0
 40
0
 40
0
 40
0
 40
0
 40
1
 40
1
 40
1
 40
1
 10
528.835589
 20
654.050668
 30
0.0
 10
532.659214
 20
650.152848
 30
0.0
 10
538.850325
 20
649.887788
 30
0.0
 10
542.993103
 20
653.444541
 30
0.0
  0
SPLINE
  5
2e9
100
AcDbEntity
  8
Layer_1
 62
7
100
AcDbSpline
 70
8
 71
3
 72
8
 73
4
 74
0
 40
0
 40
0
 40
0
 40
0
 40
1
 40
1
 40
1
 40
1
 10
542.993103
 20
653.444541
 30
0.0
 10
545.066608
 20
659.774355
 30
0.0
 10
545.498781
 20
666.527044
 30
0.0
 10
544.249107
 20
673.069542
 30
0.0
  0
SPLINE
  5
2ea
100
AcDbEntity
  8
Layer_1
 62
7
100
AcDbSpline
 70
8
 71
3
 72
8
 73
4
 74
0
 40
0
 40
0
 40
0
 40
0
 40
1
 40
1
 40
1
 40
1
 10
544.249107
 20
673.069542
 30
0.0
 10
542.024191
 20
673.172690
 30
0.0
 10
539.809082
 20
672.714396
 30
0.0
 10
537.807753
 20
671.736860
 30
0.0
  0
SPLINE
  5
2eb
100
AcDbEntity
  8
Layer_1
 62
7
100
AcDbSpline
 70
8
 71
3
 72
8
 73
4
 74
0
 40
0
 40
0
 40
0
 40
0
 40
1
 40
1
 40
1
 40
1
 10
537.807753
 20
671.736860
 30
0.0
 10
539.091656
 20
677.703373
 30
0.0
 10
539.091656
 20
683.874749
 30
0.0
 10
537.807753
 20
689.841262
 30
0.0
  0
SPLINE
  5
2ec
100
AcDbEntity
  8
Layer_1
 62
7
100
AcDbSpline
 70
8
 71
3
 72
8
 73
4
 74
0
 40
0
 40
0
 40
0
 40
0
 40
1
 40
1
 40
1
 40
1
 10
537.807753
 20
689.841262
 30
0.0
 10
546.769948
 20
688.081284
 30
0.0
 10
555.988906
 20
688.081284
 30
0.0
 10
564.951100
 20
689.841262
 30
0.0
  0
SPLINE
  5
2ed
100
AcDbEntity
  8
Layer_1
 62
7
100
AcDbSpline
 70
8
 71
3
 72
8
 73
4
 74
0
 40
0
 40
0
 40
0
 40
0
 40
1
 40
1
 40
1
 40
1
 10
564.951100
 20
689.841262
 30
0.0
 10
563.252834
 20
683.925940
 30
0.0
 10
563.252834
 20
677.652183
 30
0.0
 10
564.951100
 20
671.736860
 30
0.0
  0
SPLINE
  5
2ee
100
AcDbEntity
  8
Layer_1
 62
7
100
AcDbSpline
 70
8
 71
3
 72
8
 73
4
 74
0
 40
0
 40
0
 40
0
 40
0
 40
1
 40
1
 40
1
 40
1
 10
564.951100
 20
671.736860
 30
0.0
 10
563.119081
 20
672.610926
 30
0.0
 10
561.115448
 20
673.066165
 30
0.0
 10
559.085602
 20
673.069542
 30
0.0
  0
SPLINE
  5
2ef
100
AcDbEntity
  8
Layer_1
 62
7
100
AcDbSpline
 70
8
 71
3
 72
8
 73
4
 74
0
 40
0
 40
0
 40
0
 40
0
 40
1
 40
1
 40
1
 40
1
 10
559.085602
 20
673.069542
 30
0.0
 10
557.655083
 20
666.555106
 30
0.0
 10
558.007625
 20
659.775468
 30
0.0
 10
560.106106
 20
653.444541
 30
0.0
  0
SPLINE
  5
2f0
100
AcDbEntity
  8
Layer_1
 62
7
100
AcDbSpline
 70
8
 71
3
 72
8
 73
4
 74
0
 40
0
 40
0
 40
0
 40
0
 40
1
 40
1
 40
1
 40
1
 10
560.106106
 20
653.444541
 30
0.0
 10
564.251238
 20
649.841297
 30
0.0
 10
570.490142
 20
650.107469
 30
0.0
 10
574.313318
 20
654.050668
 30
0.0
  0
LWPOLYLINE
  5
2f1
100
AcDbEntity
  8
Layer_1
 62
7
100
AcDbPolyline
 90
2
 70
0
 10
526.948312
 20
635.081358
 30
0.0
 10
528.835818
 20
654.050168
 30
0.0
  0
SPLINE
  5
2f2
100
AcDbEntity
  8
Layer_1
 62
7
100
AcDbSpline
 70
8
 71
3
 72
8
 73
4
 74
0
 40
0
 40
0
 40
0
 40
0
 40
1
 40
1
 40
1
 40
1
 10
195.160784
 20
658.566809
 30
0.0
 10
195.160784
 20
669.284811
 30
0.0
 10
189.442798
 20
679.188653
 30
0.0
 10
180.160736
 20
684.547654
 30
0.0
  0
SPLINE
  5
2f3
100
AcDbEntity
  8
Layer_1
 62
7
100
AcDbSpline
 70
8
 71
3
 72
8
 73
4
 74
0
 40
0
 40
0
 40
0
 40
0
 40
1
 40
1
 40
1
 40
1
 10
180.160736
 20
684.547654
 30
0.0
 10
170.878674
 20
689.906655
 30
0.0
 10
159.442702
 20
689.906655
 30
0.0
 10
150.160640
 20
684.547654
 30
0.0
  0
SPLINE
  5
2f4
100
AcDbEntity
  8
Layer_1
 62
7
100
AcDbSpline
 70
8
 71
3
 72
8
 73
4
 74
0
 40
0
 40
0
 40
0
 40
0
 40
1
 40
1
 40
1
 40
1
 10
150.160640
 20
684.547654
 30
0.0
 10
140.878578
 20
679.188653
 30
0.0
 10
135.160592
 20
669.284811
 30
0.0
 10
135.160592
 20
658.566809
 30
0.0
  0
SPLINE
  5
2f5
100
AcDbEntity
  8
Layer_1
 62
7
100
AcDbSpline
 70
8
 71
3
 72
8
 73
4
 74
0
 40
0
 40
0
 40
0
 40
0
 40
1
 40
1
 40
1
 40
1
 10
135.160592
 20
658.566809
 30
0.0
 10
135.160592
 20
647.848807
 30
0.0
 10
140.878578
 20
637.944965
 30
0.0
 10
150.160640
 20
632.585964
 30
0.0
  0
SPLINE
  5
2f6
100
AcDbEntity
  8
Layer_1
 62
7
100
AcDbSpline
 70
8
 71
3
 72
8
 73
4
 74
0
 40
0
 40
0
 40
0
 40
0
 40
1
 40
1
 40
1
 40
1
 10
150.160640
 20
632.585964
 30
0.0
 10
159.442702
 20
627.226963
 30
0.0
 10
170.878674
 20
627.226963
 30
0.0
 10
180.160736
 20
632.585964
 30
0.0
  0
SPLINE
  5
2f7
100
AcDbEntity
  8
Layer_1
 62
7
100
AcDbSpline
 70
8
 71
3
 72
8
 73
4
 74
0
 40
0
 40
0
 40
0
 40
0
 40
1
 40
1
 40
1
 40
1
 10
180.160736
 20
632.585964
 30
0.0
 10
189.442798
 20
637.944965
 30
0.0
 10
195.160784
 20
647.848807
 30
0.0
 10
195.160784
 20
658.566809
 30
0.0
  0
LWPOLYLINE
  5
2f8
100
AcDbEntity
  8
Layer_1
 62
7
100
AcDbPolyline
 90
2
 70
0
 10
576.250553
 20
635.081358
 30
0.0
 10
574.313047
 20
654.050168
 30
0.0
  0
LWPOLYLINE
  5
2f9
100
AcDbEntity
  8
Layer_1
 62
7
100
AcDbPolyline
 90
1
 70
1
 10
195.160784
 20
658.566809
 30
0.0
  0
SPLINE
  5
2fa
100
AcDbEntity
  8
Layer_1
 62
7
100
AcDbSpline
 70
8
 71
3
 72
8
 73
4
 74
0
 40
0
 40
0
 40
0
 40
0
 40
1
 40
1
 40
1
 40
1
 10
242.660936
 20
688.566895
 30
0.0
 10
241.334849
 20
688.566895
 30
0.0
 10
240.063076
 20
688.040109
 30
0.0
 10
239.125391
 20
687.102424
 30
0.0
  0
SPLINE
  5
2fb
100
AcDbEntity
  8
Layer_1
 62
7
100
AcDbSpline
 70
8
 71
3
 72
8
 73
4
 74
0
 40
0
 40
0
 40
0
 40
0
 40
1
 40
1
 40
1
 40
1
 10
239.125391
 20
687.102424
 30
0.0
 10
238.187706
 20
686.164739
 30
0.0
 10
237.660920
 20
684.892965
 30
0.0
 10
237.660920
 20
683.566879
 30
0.0
  0
LWPOLYLINE
  5
2fc
100
AcDbEntity
  8
Layer_1
 62
7
100
AcDbPolyline
 90
2
 70
0
 10
237.663420
 20
683.567306
 30
0.0
 10
237.663420
 20
633.567146
 30
0.0
  0
SPLINE
  5
2fd
100
AcDbEntity
  8
Layer_1
 62
7
100
AcDbSpline
 70
8
 71
3
 72
8
 73
4
 74
0
 40
0
 40
0
 40
0
 40
0
 40
1
 40
1
 40
1
 40
1
 10
272.661032
 20
683.566879
 30
0.0
 10
272.661032
 20
684.892965
 30
0.0
 10
272.134246
 20
686.164739
 30
0.0
 10
271.196561
 20
687.102424
 30
0.0
  0
SPLINE
  5
2fe
100
AcDbEntity
  8
Layer_1
 62
7
100
AcDbSpline
 70
8
 71
3
 72
8
 73
4
 74
0
 40
0
 40
0
 40
0
 40
0
 40
1
 40
1
 40
1
 40
1
 10
271.196561
 20
687.102424
 30
0.0
 10
270.258877
 20
688.040109
 30
0.0
 10
268.987103
 20
688.566895
 30
0.0
 10
267.661016
 20
688.566895
 30
0.0
  0
LWPOLYLINE
  5
2ff
100
AcDbEntity
  8
Layer_1
 62
7
100
AcDbPolyline
 90
2
 70
0
 10
242.663436
 20
688.567322
 30
0.0
 10
267.663516
 20
688.567322
 30
0.0
  0
SPLINE
  5
300
100
AcDbEntity
  8
Layer_1
 62
7
100
AcDbSpline
 70
8
 71
3
 72
8
 73
4
 74
0
 40
0
 40
0
 40
0
 40
0
 40
1
 40
1
 40
1
 40
1
 10
267.661016
 20
628.566703
 30
0.0
 10
268.987103
 20
628.566703
 30
0.0
 10
270.258877
 20
629.093489
 30
0.0
 10
271.196561
 20
630.031173
 30
0.0
  0
SPLINE
  5
301
100
AcDbEntity
  8
Layer_1
 62
7
100
AcDbSpline
 70
8
 71
3
 72
8
 73
4
 74
0
 40
0
 40
0
 40
0
 40
0
 40
1
 40
1
 40
1
 40
1
 10
271.196561
 20
630.031173
 30
0.0
 10
272.134246
 20
630.968858
 30
0.0
 10
272.661032
 20
632.240632
 30
0.0
 10
272.661032
 20
633.566719
 30
0.0
  0
LWPOLYLINE
  5
302
100
AcDbEntity
  8
Layer_1
 62
7
100
AcDbPolyline
 90
2
 70
0
 10
272.663532
 20
683.567306
 30
0.0
 10
272.663532
 20
633.567146
 30
0.0
  0
SPLINE
  5
303
100
AcDbEntity
  8
Layer_1
 62
7
100
AcDbSpline
 70
8
 71
3
 72
8
 73
4
 74
0
 40
0
 40
0
 40
0
 40
0
 40
1
 40
1
 40
1
 40
1
 10
237.660920
 20
633.566719
 30
0.0
 10
237.660920
 20
632.240632
 30
0.0
 10
238.187706
 20
630.968858
 30
0.0
 10
239.125391
 20
630.031173
 30
0.0
  0
SPLINE
  5
304
100
AcDbEntity
  8
Layer_1
 62
7
100
AcDbSpline
 70
8
 71
3
 72
8
 73
4
 74
0
 40
0
 40
0
 40
0
 40
0
 40
1
 40
1
 40
1
 40
1
 10
239.125391
 20
630.031173
 30
0.0
 10
240.063076
 20
629.093489
 30
0.0
 10
241.334849
 20
628.566703
 30
0.0
 10
242.660936
 20
628.566703
 30
0.0
  0
LWPOLYLINE
  5
305
100
AcDbEntity
  8
Layer_1
 62
7
100
AcDbPolyline
 90
2
 70
0
 10
242.663436
 20
628.567130
 30
0.0
 10
267.663516
 20
628.567130
 30
0.0
  0
LWPOLYLINE
  5
306
100
AcDbEntity
  8
Layer_1
 62
7
100
AcDbPolyline
 90
2
 70
0
 10
430.164036
 20
718.567418
 30
0.0
 10
430.164036
 20
608.567066
 30
0.0
  0
LWPOLYLINE
  5
307
100
AcDbEntity
  8
Layer_1
 62
7
100
AcDbPolyline
 90
3
 70
0
 10
430.164036
 20
718.567418
 30
0.0
 10
80.162916
 20
718.567418
 30
0.0
 10
80.162916
 20
608.567066
 30
0.0
  0
LWPOLYLINE
  5
308
100
AcDbEntity
  8
Layer_1
 62
7
100
AcDbPolyline
 90
2
 70
0
 10
430.164036
 20
608.567066
 30
0.0
 10
80.162916
 20
608.567066
 30
0.0
  0
LWPOLYLINE
  5
309
100
AcDbEntity
  8
Layer_1
 62
7
100
AcDbPolyline
 90
3
 70
0
 10
352.590871
 20
628.567130
 30
0.0
 10
344.059594
 20
643.367177
 30
0.0
 10
335.788734
 20
628.567130
 30
0.0
  0
LWPOLYLINE
  5
30a
100
AcDbEntity
  8
Layer_1
 62
7
100
AcDbPolyline
 90
2
 70
0
 10
309.694901
 20
673.698524
 30
0.0
 10
335.788734
 20
628.567130
 30
0.0
  0
LWPOLYLINE
  5
30b
100
AcDbEntity
  8
Layer_1
 62
7
100
AcDbPolyline
 90
2
 70
0
 10
326.590788
 20
673.698524
 30
0.0
 10
309.694901
 20
673.698524
 30
0.0
  0
LWPOLYLINE
  5
30c
100
AcDbEntity
  8
Layer_1
 62
7
100
AcDbPolyline
 90
2
 70
0
 10
318.174094
 20
688.298571
 30
0.0
 10
326.590788
 20
673.698524
 30
0.0
  0
LWPOLYLINE
  5
30d
100
AcDbEntity
  8
Layer_1
 62
7
100
AcDbPolyline
 90
2
 70
0
 10
370.257594
 20
688.298571
 30
0.0
 10
318.174094
 20
688.298571
 30
0.0
  0
LWPOLYLINE
  5
30e
100
AcDbEntity
  8
Layer_1
 62
7
100
AcDbPolyline
 90
2
 70
0
 10
362.101318
 20
673.698524
 30
0.0
 10
370.257594
 20
688.298571
 30
0.0
  0
LWPOLYLINE
  5
30f
100
AcDbEntity
  8
Layer_1
 62
7
100
AcDbPolyline
 90
2
 70
0
 10
378.653455
 20
673.698524
 30
0.0
 10
362.101318
 20
673.698524
 30
0.0
  0
LWPOLYLINE
  5
310
100
AcDbEntity
  8
Layer_1
 62
7
100
AcDbPolyline
 90
2
 70
0
 10
352.590871
 20
628.567130
 30
0.0
 10
378.653455
 20
673.698524
 30
0.0
  0
ENDSEC
  0
SECTION
  2
OBJECTS
  0
DICTIONARY
  5
C
330
0
100
AcDbDictionary
  3
ACAD_GROUP
350
D
  3
ACAD_MLINESTYLE
350
17
  0
DICTIONARY
  5
D
330
C
100
AcDbDictionary
  0
DICTIONARY
  5
1A
330
C
100
AcDbDictionary
  0
DICTIONARY
  5
17
330
C
100
AcDbDictionary
  3
STANDARD
350
18
  0
DICTIONARY
  5
19
330
C
100
AcDbDictionary
  0
ENDSEC
  0
EOF
