999
"DXF R12 Output" (www.mydxf.blogspot.com)
 0 
SECTION
 2 
HEADER
 9 
$ACADVER
 1 
AC1009
 9 
$EXTMIN
 10 
 0 
 20 
 0 
 9 
$EXTMAX
 10 
 8.5 
 20 
 11 
 0 
ENDSEC
 0 
SECTION
 2 
ENTITIES
0
LINE
8
Layer 1
10
0.846666
20
283.069000
11
-0.846666
21
281.375000
0
LINE
8
Layer 1
10
0.000000
20
283.633000
11
0.000000
21
280.811000
0
LINE
8
Layer 1
10
2.257780
20
281.093000
11
1.128890
21
279.964110
0
LINE
8
Layer 1
10
1.693330
20
281.658000
11
0.564440
21
280.529110
0
LINE
8
Layer 1
10
1.128890
20
282.222000
11
0.000000
21
281.093110
0
LINE
8
Layer 1
10
0.846666
20
283.069000
11
-0.846666
21
281.375000
0
LINE
8
Layer 1
10
0.000000
20
283.633000
11
0.000000
21
280.811000
0
LINE
8
Layer 1
10
2.257780
20
281.093000
11
1.128890
21
279.964110
0
LINE
8
Layer 1
10
1.693330
20
281.658000
11
0.564440
21
280.529110
0
LINE
8
Layer 1
10
1.128890
20
282.222000
11
0.000000
21
281.093110
0
LINE
8
Layer 1
10
0.846666
20
283.069000
11
-0.846666
21
281.375000
0
LINE
8
Layer 1
10
0.000000
20
283.633000
11
0.000000
21
280.811000
0
LINE
8
Layer 1
10
2.257780
20
281.093000
11
1.128890
21
279.964110
0
LINE
8
Layer 1
10
1.693330
20
281.658000
11
0.564440
21
280.529110
0
LINE
8
Layer 1
10
1.128890
20
282.222000
11
0.000000
21
281.093110
0
LINE
8
Layer 1
10
0.846666
20
283.069000
11
-0.846666
21
281.375000
0
LINE
8
Layer 1
10
0.000000
20
283.633000
11
0.000000
21
280.811000
0
LINE
8
Layer 1
10
2.257780
20
281.093000
11
1.128890
21
279.964110
0
LINE
8
Layer 1
10
1.693330
20
281.658000
11
0.564440
21
280.529110
0
LINE
8
Layer 1
10
1.128890
20
282.222000
11
0.000000
21
281.093110
0
LINE
8
Visible
10
1981.790000
20
9135.980000
11
2514.260000
21
9135.980000
0
LINE
8
Visible
10
2514.260000
20
9236.220000
11
2514.260000
21
9135.980000
0
LINE
8
Visible
10
2514.260000
20
9236.220000
11
3046.730000
21
9236.220000
0
LINE
8
Visible
10
3046.730000
20
9236.220000
11
3046.730000
21
9135.980000
0
LINE
8
Visible
10
3046.730000
20
9135.980000
11
3320.000000
21
9135.980000
0
LINE
8
Visible
10
3320.000000
20
9135.980000
11
3320.000000
21
6356.200000
0
LINE
8
Visible
10
3046.730000
20
6356.200000
11
3320.000000
21
6356.200000
0
LINE
8
Visible
10
3046.730000
20
6255.960000
11
3046.730000
21
6356.200000
0
LINE
8
Visible
10
3046.730000
20
6255.960000
11
2514.260000
21
6255.960000
0
LINE
8
Visible
10
2514.260000
20
6255.960000
11
2514.260000
21
6356.200000
0
LINE
8
Visible
10
1981.790000
20
6356.200000
11
2514.260000
21
6356.200000
0
LINE
8
Visible
10
1981.790000
20
6255.960000
11
1981.790000
21
6356.200000
0
LINE
8
Visible
10
1981.790000
20
6255.960000
11
1449.310000
21
6255.960000
0
LINE
8
Visible
10
1449.310000
20
6255.960000
11
1449.310000
21
6356.200000
0
LINE
8
Visible
10
1423.480000
20
6356.200000
11
1449.310000
21
6356.200000
0
LINE
8
Visible
10
1423.480000
20
9135.980000
11
1423.480000
21
6356.200000
0
LINE
8
Visible
10
1423.480000
20
9135.980000
11
1449.310000
21
9135.980000
0
LINE
8
Visible
10
1449.310000
20
9236.220000
11
1449.310000
21
9135.980000
0
LINE
8
Visible
10
1449.310000
20
9236.220000
11
1981.790000
21
9236.220000
0
LINE
8
Visible
10
1981.790000
20
9236.220000
11
1981.790000
21
9135.980000
0
LINE
8
Visible
10
3962.110000
20
8865.040000
11
5858.650000
21
8865.040000
0
LINE
8
Visible
10
5858.650000
20
8865.040000
11
5858.650000
21
6627.140000
0
LINE
8
Visible
10
3962.110000
20
6627.140000
11
5858.650000
21
6627.140000
0
LINE
8
Visible
10
3962.110000
20
8865.040000
11
3962.110000
21
6627.140000
0
LINE
8
Visible
10
5249.060000
20
5653.120000
11
5248.871587
21
5664.434948
0
LINE
8
Visible
10
5248.871587
20
5664.434948
11
5248.309410
21
5675.688332
0
LINE
8
Visible
10
5248.309410
20
5675.688332
11
5247.377922
21
5686.872440
0
LINE
8
Visible
10
5247.377922
20
5686.872440
11
5246.081573
21
5697.979561
0
LINE
8
Visible
10
5246.081573
20
5697.979561
11
5244.424818
21
5709.001982
0
LINE
8
Visible
10
5244.424818
20
5709.001982
11
5242.412107
21
5719.931993
0
LINE
8
Visible
10
5242.412107
20
5719.931993
11
5240.047892
21
5730.761882
0
LINE
8
Visible
10
5240.047892
20
5730.761882
11
5237.336627
21
5741.483938
0
LINE
8
Visible
10
5237.336627
20
5741.483938
11
5234.282763
21
5752.090449
0
LINE
8
Visible
10
5234.282763
20
5752.090449
11
5230.890752
21
5762.573703
0
LINE
8
Visible
10
5230.890752
20
5762.573703
11
5227.165046
21
5772.925989
0
LINE
8
Visible
10
5227.165046
20
5772.925989
11
5223.110097
21
5783.139596
0
LINE
8
Visible
10
5223.110097
20
5783.139596
11
5218.730359
21
5793.206812
0
LINE
8
Visible
10
5218.730359
20
5793.206812
11
5214.030282
21
5803.119926
0
LINE
8
Visible
10
5214.030282
20
5803.119926
11
5209.014319
21
5812.871226
0
LINE
8
Visible
10
5209.014319
20
5812.871226
11
5203.686922
21
5822.453000
0
LINE
8
Visible
10
5203.686922
20
5822.453000
11
5198.052543
21
5831.857537
0
LINE
8
Visible
10
5198.052543
20
5831.857537
11
5192.115635
21
5841.077127
0
LINE
8
Visible
10
5192.115635
20
5841.077127
11
5185.880649
21
5850.104056
0
LINE
8
Visible
10
5185.880649
20
5850.104056
11
5179.352037
21
5858.930614
0
LINE
8
Visible
10
5179.352037
20
5858.930614
11
5172.534253
21
5867.549089
0
LINE
8
Visible
10
5172.534253
20
5867.549089
11
5165.431747
21
5875.951769
0
LINE
8
Visible
10
5165.431747
20
5875.951769
11
5158.048972
21
5884.130944
0
LINE
8
Visible
10
5158.048972
20
5884.130944
11
5150.390381
21
5892.078902
0
LINE
8
Visible
10
5150.390381
20
5892.078902
11
5142.460425
21
5899.787931
0
LINE
8
Visible
10
5142.460425
20
5899.787931
11
5134.263556
21
5907.250319
0
LINE
8
Visible
10
5134.263556
20
5907.250319
11
5125.804227
21
5914.458356
0
LINE
8
Visible
10
5125.804227
20
5914.458356
11
5117.086889
21
5921.404329
0
LINE
8
Visible
10
5117.086889
20
5921.404329
11
5108.115996
21
5928.080527
0
LINE
8
Visible
10
5108.115996
20
5928.080527
11
5098.895998
21
5934.479240
0
LINE
8
Visible
10
5098.895998
20
5934.479240
11
5089.431349
21
5940.592754
0
LINE
8
Visible
10
5089.431349
20
5940.592754
11
5079.726500
21
5946.413359
0
LINE
8
Visible
10
5079.726500
20
5946.413359
11
5069.833284
21
5951.907703
0
LINE
8
Visible
10
5069.833284
20
5951.907703
11
5059.806500
21
5957.047572
0
LINE
8
Visible
10
5059.806500
20
5957.047572
11
5049.655054
21
5961.832968
0
LINE
8
Visible
10
5049.655054
20
5961.832968
11
5039.387850
21
5966.263890
0
LINE
8
Visible
10
5039.387850
20
5966.263890
11
5029.013793
21
5970.340338
0
LINE
8
Visible
10
5029.013793
20
5970.340338
11
5018.541786
21
5974.062312
0
LINE
8
Visible
10
5018.541786
20
5974.062312
11
5007.980734
21
5977.429813
0
LINE
8
Visible
10
5007.980734
20
5977.429813
11
4997.339543
21
5980.442840
0
LINE
8
Visible
10
4997.339543
20
5980.442840
11
4986.627116
21
5983.101393
0
LINE
8
Visible
10
4986.627116
20
5983.101393
11
4975.852357
21
5985.405472
0
LINE
8
Visible
10
4975.852357
20
5985.405472
11
4965.024172
21
5987.355078
0
LINE
8
Visible
10
4965.024172
20
5987.355078
11
4954.151464
21
5988.950210
0
LINE
8
Visible
10
4954.151464
20
5988.950210
11
4943.243139
21
5990.190868
0
LINE
8
Visible
10
4943.243139
20
5990.190868
11
4932.308100
21
5991.077052
0
LINE
8
Visible
10
4932.308100
20
5991.077052
11
4921.355252
21
5991.608763
0
LINE
8
Visible
10
4921.355252
20
5991.608763
11
4910.393500
21
5991.786000
0
LINE
8
Visible
10
4910.393500
20
5991.786000
11
4899.431748
21
5991.608763
0
LINE
8
Visible
10
4899.431748
20
5991.608763
11
4888.478900
21
5991.077052
0
LINE
8
Visible
10
4888.478900
20
5991.077052
11
4877.543861
21
5990.190868
0
LINE
8
Visible
10
4877.543861
20
5990.190868
11
4866.635536
21
5988.950210
0
LINE
8
Visible
10
4866.635536
20
5988.950210
11
4855.762828
21
5987.355078
0
LINE
8
Visible
10
4855.762828
20
5987.355078
11
4844.934643
21
5985.405472
0
LINE
8
Visible
10
4844.934643
20
5985.405472
11
4834.159884
21
5983.101393
0
LINE
8
Visible
10
4834.159884
20
5983.101393
11
4823.447457
21
5980.442840
0
LINE
8
Visible
10
4823.447457
20
5980.442840
11
4812.806266
21
5977.429813
0
LINE
8
Visible
10
4812.806266
20
5977.429813
11
4802.245214
21
5974.062312
0
LINE
8
Visible
10
4802.245214
20
5974.062312
11
4791.773207
21
5970.340338
0
LINE
8
Visible
10
4791.773207
20
5970.340338
11
4781.399150
21
5966.263890
0
LINE
8
Visible
10
4781.399150
20
5966.263890
11
4771.131946
21
5961.832968
0
LINE
8
Visible
10
4771.131946
20
5961.832968
11
4760.980500
21
5957.047572
0
LINE
8
Visible
10
4760.980500
20
5957.047572
11
4750.953716
21
5951.907703
0
LINE
8
Visible
10
4750.953716
20
5951.907703
11
4741.060500
21
5946.413359
0
LINE
8
Visible
10
4741.060500
20
5946.413359
11
4731.355651
21
5940.592754
0
LINE
8
Visible
10
4731.355651
20
5940.592754
11
4721.891002
21
5934.479240
0
LINE
8
Visible
10
4721.891002
20
5934.479240
11
4712.671005
21
5928.080527
0
LINE
8
Visible
10
4712.671005
20
5928.080527
11
4703.700112
21
5921.404329
0
LINE
8
Visible
10
4703.700112
20
5921.404329
11
4694.982775
21
5914.458356
0
LINE
8
Visible
10
4694.982775
20
5914.458356
11
4686.523447
21
5907.250319
0
LINE
8
Visible
10
4686.523447
20
5907.250319
11
4678.326581
21
5899.787931
0
LINE
8
Visible
10
4678.326581
20
5899.787931
11
4670.396627
21
5892.078902
0
LINE
8
Visible
10
4670.396627
20
5892.078902
11
4662.738039
21
5884.130944
0
LINE
8
Visible
10
4662.738039
20
5884.130944
11
4655.355268
21
5875.951769
0
LINE
8
Visible
10
4655.355268
20
5875.951769
11
4648.252768
21
5867.549089
0
LINE
8
Visible
10
4648.252768
20
5867.549089
11
4641.434989
21
5858.930614
0
LINE
8
Visible
10
4641.434989
20
5858.930614
11
4634.906385
21
5850.104056
0
LINE
8
Visible
10
4634.906385
20
5850.104056
11
4628.671407
21
5841.077127
0
LINE
8
Visible
10
4628.671407
20
5841.077127
11
4622.734508
21
5831.857537
0
LINE
8
Visible
10
4622.734508
20
5831.857537
11
4617.100141
21
5822.453000
0
LINE
8
Visible
10
4617.100141
20
5822.453000
11
4611.772756
21
5812.871226
0
LINE
8
Visible
10
4611.772756
20
5812.871226
11
4606.756807
21
5803.119926
0
LINE
8
Visible
10
4606.756807
20
5803.119926
11
4602.056746
21
5793.206812
0
LINE
8
Visible
10
4602.056746
20
5793.206812
11
4597.677025
21
5783.139596
0
LINE
8
Visible
10
4597.677025
20
5783.139596
11
4593.622096
21
5772.925989
0
LINE
8
Visible
10
4593.622096
20
5772.925989
11
4589.896411
21
5762.573703
0
LINE
8
Visible
10
4589.896411
20
5762.573703
11
4586.504423
21
5752.090449
0
LINE
8
Visible
10
4586.504423
20
5752.090449
11
4583.450584
21
5741.483938
0
LINE
8
Visible
10
4583.450584
20
5741.483938
11
4580.739346
21
5730.761882
0
LINE
8
Visible
10
4580.739346
20
5730.761882
11
4578.375162
21
5719.931993
0
LINE
8
Visible
10
4578.375162
20
5719.931993
11
4576.362483
21
5709.001982
0
LINE
8
Visible
10
4576.362483
20
5709.001982
11
4574.705761
21
5697.979561
0
LINE
8
Visible
10
4574.705761
20
5697.979561
11
4573.409450
21
5686.872440
0
LINE
8
Visible
10
4573.409450
20
5686.872440
11
4572.478002
21
5675.688332
0
LINE
8
Visible
10
4572.478002
20
5675.688332
11
4571.915867
21
5664.434948
0
LINE
8
Visible
10
4571.915867
20
5664.434948
11
4571.727500
21
5653.120000
0
LINE
8
Visible
10
4571.727500
20
5653.120000
11
4571.915890
21
5641.805052
0
LINE
8
Visible
10
4571.915890
20
5641.805052
11
4572.478046
21
5630.551668
0
LINE
8
Visible
10
4572.478046
20
5630.551668
11
4573.409514
21
5619.367560
0
LINE
8
Visible
10
4573.409514
20
5619.367560
11
4574.705844
21
5608.260439
0
LINE
8
Visible
10
4574.705844
20
5608.260439
11
4576.362582
21
5597.238018
0
LINE
8
Visible
10
4576.362582
20
5597.238018
11
4578.375277
21
5586.308007
0
LINE
8
Visible
10
4578.375277
20
5586.308007
11
4580.739477
21
5575.478118
0
LINE
8
Visible
10
4580.739477
20
5575.478118
11
4583.450729
21
5564.756062
0
LINE
8
Visible
10
4583.450729
20
5564.756062
11
4586.504580
21
5554.149551
0
LINE
8
Visible
10
4586.504580
20
5554.149551
11
4589.896580
21
5543.666297
0
LINE
8
Visible
10
4589.896580
20
5543.666297
11
4593.622275
21
5533.314011
0
LINE
8
Visible
10
4593.622275
20
5533.314011
11
4597.677214
21
5523.100404
0
LINE
8
Visible
10
4597.677214
20
5523.100404
11
4602.056944
21
5513.033188
0
LINE
8
Visible
10
4602.056944
20
5513.033188
11
4606.757013
21
5503.120074
0
LINE
8
Visible
10
4606.757013
20
5503.120074
11
4611.772969
21
5493.368774
0
LINE
8
Visible
10
4611.772969
20
5493.368774
11
4617.100359
21
5483.787000
0
LINE
8
Visible
10
4617.100359
20
5483.787000
11
4622.734733
21
5474.382463
0
LINE
8
Visible
10
4622.734733
20
5474.382463
11
4628.671636
21
5465.162873
0
LINE
8
Visible
10
4628.671636
20
5465.162873
11
4634.906618
21
5456.135944
0
LINE
8
Visible
10
4634.906618
20
5456.135944
11
4641.435226
21
5447.309386
0
LINE
8
Visible
10
4641.435226
20
5447.309386
11
4648.253007
21
5438.690911
0
LINE
8
Visible
10
4648.253007
20
5438.690911
11
4655.355511
21
5430.288231
0
LINE
8
Visible
10
4655.355511
20
5430.288231
11
4662.738283
21
5422.109056
0
LINE
8
Visible
10
4662.738283
20
5422.109056
11
4670.396873
21
5414.161098
0
LINE
8
Visible
10
4670.396873
20
5414.161098
11
4678.326828
21
5406.452069
0
LINE
8
Visible
10
4678.326828
20
5406.452069
11
4686.523696
21
5398.989681
0
LINE
8
Visible
10
4686.523696
20
5398.989681
11
4694.983024
21
5391.781644
0
LINE
8
Visible
10
4694.983024
20
5391.781644
11
4703.700361
21
5384.835671
0
LINE
8
Visible
10
4703.700361
20
5384.835671
11
4712.671254
21
5378.159473
0
LINE
8
Visible
10
4712.671254
20
5378.159473
11
4721.891252
21
5371.760760
0
LINE
8
Visible
10
4721.891252
20
5371.760760
11
4731.355901
21
5365.647246
0
LINE
8
Visible
10
4731.355901
20
5365.647246
11
4741.060750
21
5359.826641
0
LINE
8
Visible
10
4741.060750
20
5359.826641
11
4750.953966
21
5354.332297
0
LINE
8
Visible
10
4750.953966
20
5354.332297
11
4760.980750
21
5349.192428
0
LINE
8
Visible
10
4760.980750
20
5349.192428
11
4771.132196
21
5344.407032
0
LINE
8
Visible
10
4771.132196
20
5344.407032
11
4781.399400
21
5339.976110
0
LINE
8
Visible
10
4781.399400
20
5339.976110
11
4791.773457
21
5335.899662
0
LINE
8
Visible
10
4791.773457
20
5335.899662
11
4802.245464
21
5332.177688
0
LINE
8
Visible
10
4802.245464
20
5332.177688
11
4812.806516
21
5328.810187
0
LINE
8
Visible
10
4812.806516
20
5328.810187
11
4823.447707
21
5325.797160
0
LINE
8
Visible
10
4823.447707
20
5325.797160
11
4834.160134
21
5323.138607
0
LINE
8
Visible
10
4834.160134
20
5323.138607
11
4844.934893
21
5320.834528
0
LINE
8
Visible
10
4844.934893
20
5320.834528
11
4855.763078
21
5318.884922
0
LINE
8
Visible
10
4855.763078
20
5318.884922
11
4866.635786
21
5317.289790
0
LINE
8
Visible
10
4866.635786
20
5317.289790
11
4877.544111
21
5316.049132
0
LINE
8
Visible
10
4877.544111
20
5316.049132
11
4888.479150
21
5315.162948
0
LINE
8
Visible
10
4888.479150
20
5315.162948
11
4899.431998
21
5314.631237
0
LINE
8
Visible
10
4899.431998
20
5314.631237
11
4910.393750
21
5314.454000
0
LINE
8
Visible
10
4910.393750
20
5314.454000
11
4921.355502
21
5314.631237
0
LINE
8
Visible
10
4921.355502
20
5314.631237
11
4932.308350
21
5315.162948
0
LINE
8
Visible
10
4932.308350
20
5315.162948
11
4943.243389
21
5316.049132
0
LINE
8
Visible
10
4943.243389
20
5316.049132
11
4954.151714
21
5317.289790
0
LINE
8
Visible
10
4954.151714
20
5317.289790
11
4965.024422
21
5318.884922
0
LINE
8
Visible
10
4965.024422
20
5318.884922
11
4975.852607
21
5320.834528
0
LINE
8
Visible
10
4975.852607
20
5320.834528
11
4986.627366
21
5323.138607
0
LINE
8
Visible
10
4986.627366
20
5323.138607
11
4997.339793
21
5325.797160
0
LINE
8
Visible
10
4997.339793
20
5325.797160
11
5007.980984
21
5328.810187
0
LINE
8
Visible
10
5007.980984
20
5328.810187
11
5018.542036
21
5332.177688
0
LINE
8
Visible
10
5018.542036
20
5332.177688
11
5029.014043
21
5335.899662
0
LINE
8
Visible
10
5029.014043
20
5335.899662
11
5039.388100
21
5339.976110
0
LINE
8
Visible
10
5039.388100
20
5339.976110
11
5049.655304
21
5344.407032
0
LINE
8
Visible
10
5049.655304
20
5344.407032
11
5059.806750
21
5349.192428
0
LINE
8
Visible
10
5059.806750
20
5349.192428
11
5069.833534
21
5354.332297
0
LINE
8
Visible
10
5069.833534
20
5354.332297
11
5079.726750
21
5359.826641
0
LINE
8
Visible
10
5079.726750
20
5359.826641
11
5089.431599
21
5365.647246
0
LINE
8
Visible
10
5089.431599
20
5365.647246
11
5098.896248
21
5371.760760
0
LINE
8
Visible
10
5098.896248
20
5371.760760
11
5108.116245
21
5378.159473
0
LINE
8
Visible
10
5108.116245
20
5378.159473
11
5117.087138
21
5384.835671
0
LINE
8
Visible
10
5117.087138
20
5384.835671
11
5125.804475
21
5391.781644
0
LINE
8
Visible
10
5125.804475
20
5391.781644
11
5134.263803
21
5398.989681
0
LINE
8
Visible
10
5134.263803
20
5398.989681
11
5142.460669
21
5406.452069
0
LINE
8
Visible
10
5142.460669
20
5406.452069
11
5150.390623
21
5414.161098
0
LINE
8
Visible
10
5150.390623
20
5414.161098
11
5158.049211
21
5422.109056
0
LINE
8
Visible
10
5158.049211
20
5422.109056
11
5165.431982
21
5430.288231
0
LINE
8
Visible
10
5165.431982
20
5430.288231
11
5172.534482
21
5438.690911
0
LINE
8
Visible
10
5172.534482
20
5438.690911
11
5179.352261
21
5447.309386
0
LINE
8
Visible
10
5179.352261
20
5447.309386
11
5185.880865
21
5456.135944
0
LINE
8
Visible
10
5185.880865
20
5456.135944
11
5192.115843
21
5465.162873
0
LINE
8
Visible
10
5192.115843
20
5465.162873
11
5198.052742
21
5474.382463
0
LINE
8
Visible
10
5198.052742
20
5474.382463
11
5203.687109
21
5483.787000
0
LINE
8
Visible
10
5203.687109
20
5483.787000
11
5209.014494
21
5493.368774
0
LINE
8
Visible
10
5209.014494
20
5493.368774
11
5214.030443
21
5503.120074
0
LINE
8
Visible
10
5214.030443
20
5503.120074
11
5218.730504
21
5513.033188
0
LINE
8
Visible
10
5218.730504
20
5513.033188
11
5223.110225
21
5523.100404
0
LINE
8
Visible
10
5223.110225
20
5523.100404
11
5227.165154
21
5533.314011
0
LINE
8
Visible
10
5227.165154
20
5533.314011
11
5230.890839
21
5543.666297
0
LINE
8
Visible
10
5230.890839
20
5543.666297
11
5234.282827
21
5554.149551
0
LINE
8
Visible
10
5234.282827
20
5554.149551
11
5237.336666
21
5564.756062
0
LINE
8
Visible
10
5237.336666
20
5564.756062
11
5240.047904
21
5575.478118
0
LINE
8
Visible
10
5240.047904
20
5575.478118
11
5242.412088
21
5586.308007
0
LINE
8
Visible
10
5242.412088
20
5586.308007
11
5244.424767
21
5597.238018
0
LINE
8
Visible
10
5244.424767
20
5597.238018
11
5246.081489
21
5608.260439
0
LINE
8
Visible
10
5246.081489
20
5608.260439
11
5247.377800
21
5619.367560
0
LINE
8
Visible
10
5247.377800
20
5619.367560
11
5248.309248
21
5630.551668
0
LINE
8
Visible
10
5248.309248
20
5630.551668
11
5248.871383
21
5641.805052
0
LINE
8
Visible
10
5248.871383
20
5641.805052
11
5249.059750
21
5653.120000
0
LINE
8
Visible
10
5249.059750
20
5653.120000
11
5249.060000
21
5653.120000
0
LINE
8
Visible
10
916.838000
20
7249.380000
11
916.838000
21
7580.510000
0
LINE
8
Visible
10
916.838000
20
7580.510000
11
1017.080000
21
7580.510000
0
LINE
8
Visible
10
1017.080000
20
7249.380000
11
1017.080000
21
7580.510000
0
LINE
8
Visible
10
916.838000
20
7249.380000
11
1017.080000
21
7249.380000
0
LINE
8
Visible
10
916.838000
20
7911.640000
11
916.838000
21
8242.800000
0
LINE
8
Visible
10
916.838000
20
8242.800000
11
1017.080000
21
8242.800000
0
LINE
8
Visible
10
1017.080000
20
7911.640000
11
1017.080000
21
8242.800000
0
LINE
8
Visible
10
916.838000
20
7911.640000
11
1017.080000
21
7911.640000
0
LINE
8
Visible
10
916.838000
20
8573.930000
11
916.838000
21
8905.060000
0
LINE
8
Visible
10
916.838000
20
8905.060000
11
1017.080000
21
8905.060000
0
LINE
8
Visible
10
1017.080000
20
8573.930000
11
1017.080000
21
8905.060000
0
LINE
8
Visible
10
916.838000
20
8573.930000
11
1017.080000
21
8573.930000
0
LINE
8
Visible
10
916.838000
20
6587.090000
11
916.838000
21
6918.220000
0
LINE
8
Visible
10
916.838000
20
6918.220000
11
1017.080000
21
6918.220000
0
LINE
8
Visible
10
1017.080000
20
6587.090000
11
1017.080000
21
6918.220000
0
LINE
8
Visible
10
916.838000
20
6587.090000
11
1017.080000
21
6587.090000
0
LINE
8
Visible
10
3726.400000
20
7282.800000
11
3726.400000
21
7591.660000
0
LINE
8
Visible
10
3726.400000
20
7591.660000
11
3826.650000
21
7591.660000
0
LINE
8
Visible
10
3826.650000
20
7282.800000
11
3826.650000
21
7591.660000
0
LINE
8
Visible
10
3726.400000
20
7282.800000
11
3826.650000
21
7282.800000
0
LINE
8
Visible
10
3726.400000
20
7900.520000
11
3726.400000
21
8209.390000
0
LINE
8
Visible
10
3726.400000
20
8209.390000
11
3826.650000
21
8209.390000
0
LINE
8
Visible
10
3826.650000
20
7900.520000
11
3826.650000
21
8209.390000
0
LINE
8
Visible
10
3726.400000
20
7900.520000
11
3826.650000
21
7900.520000
0
LINE
8
Visible
10
3726.400000
20
8518.250000
11
3726.400000
21
8827.110000
0
LINE
8
Visible
10
3726.400000
20
8827.110000
11
3826.650000
21
8827.110000
0
LINE
8
Visible
10
3826.650000
20
8518.250000
11
3826.650000
21
8827.110000
0
LINE
8
Visible
10
3726.400000
20
8518.250000
11
3826.650000
21
8518.250000
0
LINE
8
Visible
10
3726.400000
20
6665.070000
11
3726.400000
21
6973.930000
0
LINE
8
Visible
10
3726.400000
20
6973.930000
11
3826.650000
21
6973.930000
0
LINE
8
Visible
10
3826.650000
20
6665.070000
11
3826.650000
21
6973.930000
0
LINE
8
Visible
10
3726.400000
20
6665.070000
11
3826.650000
21
6665.070000
0
LINE
8
Visible
10
8903.930000
20
8242.800000
11
8903.930000
21
7911.640000
0
LINE
8
Visible
10
8903.930000
20
7911.640000
11
8803.690000
21
7911.640000
0
LINE
8
Visible
10
8803.690000
20
8242.800000
11
8803.690000
21
7911.640000
0
LINE
8
Visible
10
8903.930000
20
8242.800000
11
8803.690000
21
8242.800000
0
LINE
8
Visible
10
8903.930000
20
7580.510000
11
8903.930000
21
7249.380000
0
LINE
8
Visible
10
8903.930000
20
7249.380000
11
8803.690000
21
7249.380000
0
LINE
8
Visible
10
8803.690000
20
7580.510000
11
8803.690000
21
7249.380000
0
LINE
8
Visible
10
8903.930000
20
7580.510000
11
8803.690000
21
7580.510000
0
LINE
8
Visible
10
8903.930000
20
6918.220000
11
8903.930000
21
6587.090000
0
LINE
8
Visible
10
8903.930000
20
6587.090000
11
8803.690000
21
6587.090000
0
LINE
8
Visible
10
8803.690000
20
6918.220000
11
8803.690000
21
6587.090000
0
LINE
8
Visible
10
8903.930000
20
6918.220000
11
8803.690000
21
6918.220000
0
LINE
8
Visible
10
8903.930000
20
8905.060000
11
8903.930000
21
8573.930000
0
LINE
8
Visible
10
8903.930000
20
8573.930000
11
8803.690000
21
8573.930000
0
LINE
8
Visible
10
8803.690000
20
8905.060000
11
8803.690000
21
8573.930000
0
LINE
8
Visible
10
8903.930000
20
8905.060000
11
8803.690000
21
8905.060000
0
LINE
8
Visible
10
5994.110000
20
7282.800000
11
5994.110000
21
7591.660000
0
LINE
8
Visible
10
5994.110000
20
7591.660000
11
6094.360000
21
7591.660000
0
LINE
8
Visible
10
6094.360000
20
7282.800000
11
6094.360000
21
7591.660000
0
LINE
8
Visible
10
5994.110000
20
7282.800000
11
6094.360000
21
7282.800000
0
LINE
8
Visible
10
5994.110000
20
7900.520000
11
5994.110000
21
8209.390000
0
LINE
8
Visible
10
5994.110000
20
8209.390000
11
6094.360000
21
8209.390000
0
LINE
8
Visible
10
6094.360000
20
7900.520000
11
6094.360000
21
8209.390000
0
LINE
8
Visible
10
5994.110000
20
7900.520000
11
6094.360000
21
7900.520000
0
LINE
8
Visible
10
5994.110000
20
8518.250000
11
5994.110000
21
8827.110000
0
LINE
8
Visible
10
5994.110000
20
8827.110000
11
6094.360000
21
8827.110000
0
LINE
8
Visible
10
6094.360000
20
8518.250000
11
6094.360000
21
8827.110000
0
LINE
8
Visible
10
5994.110000
20
8518.250000
11
6094.360000
21
8518.250000
0
LINE
8
Visible
10
5994.110000
20
6665.070000
11
5994.110000
21
6973.930000
0
LINE
8
Visible
10
5994.110000
20
6973.930000
11
6094.360000
21
6973.930000
0
LINE
8
Visible
10
6094.360000
20
6665.070000
11
6094.360000
21
6973.930000
0
LINE
8
Visible
10
5994.110000
20
6665.070000
11
6094.360000
21
6665.070000
0
LINE
8
Visible
10
6241.570000
20
6255.960000
11
5709.100000
21
6255.960000
0
LINE
8
Visible
10
5709.100000
20
6255.960000
11
5709.100000
21
6356.200000
0
LINE
8
Visible
10
6241.570000
20
6356.200000
11
5709.100000
21
6356.200000
0
LINE
8
Visible
10
6241.570000
20
6255.960000
11
6241.570000
21
6356.200000
0
LINE
8
Visible
10
5176.630000
20
6255.960000
11
4644.160000
21
6255.960000
0
LINE
8
Visible
10
4644.160000
20
6255.960000
11
4644.160000
21
6356.200000
0
LINE
8
Visible
10
5176.630000
20
6356.200000
11
4644.160000
21
6356.200000
0
LINE
8
Visible
10
5176.630000
20
6255.960000
11
5176.630000
21
6356.200000
0
LINE
8
Visible
10
4111.690000
20
6255.960000
11
3579.200000
21
6255.960000
0
LINE
8
Visible
10
3579.200000
20
6255.960000
11
3579.200000
21
6356.200000
0
LINE
8
Visible
10
4111.690000
20
6356.200000
11
3579.200000
21
6356.200000
0
LINE
8
Visible
10
4111.690000
20
6255.960000
11
4111.690000
21
6356.200000
0
LINE
8
Visible
10
3579.200000
20
9236.220000
11
4111.690000
21
9236.220000
0
LINE
8
Visible
10
4111.690000
20
9236.220000
11
4111.690000
21
9135.980000
0
LINE
8
Visible
10
3579.200000
20
9135.980000
11
4111.690000
21
9135.980000
0
LINE
8
Visible
10
3579.200000
20
9236.220000
11
3579.200000
21
9135.980000
0
LINE
8
Visible
10
4644.160000
20
9236.220000
11
5176.630000
21
9236.220000
0
LINE
8
Visible
10
5176.630000
20
9236.220000
11
5176.630000
21
9135.980000
0
LINE
8
Visible
10
4644.160000
20
9135.980000
11
5176.630000
21
9135.980000
0
LINE
8
Visible
10
4644.160000
20
9236.220000
11
4644.160000
21
9135.980000
0
LINE
8
Visible
10
5709.100000
20
9236.220000
11
6241.570000
21
9236.220000
0
LINE
8
Visible
10
6241.570000
20
9236.220000
11
6241.570000
21
9135.980000
0
LINE
8
Visible
10
5709.100000
20
9135.980000
11
6241.570000
21
9135.980000
0
LINE
8
Visible
10
5709.100000
20
9236.220000
11
5709.100000
21
9135.980000
0
LINE
8
Visible
10
8653.550000
20
9837.690000
11
9152.630000
21
9837.690000
0
LINE
8
Visible
10
9152.630000
20
9837.690000
11
9152.630000
21
9737.450000
0
LINE
8
Visible
10
8653.550000
20
9737.450000
11
9152.630000
21
9737.450000
0
LINE
8
Visible
10
8653.550000
20
9837.690000
11
8653.550000
21
9737.450000
0
LINE
8
Visible
10
7655.380000
20
9837.690000
11
8154.470000
21
9837.690000
0
LINE
8
Visible
10
8154.470000
20
9837.690000
11
8154.470000
21
9737.450000
0
LINE
8
Visible
10
7655.380000
20
9737.450000
11
8154.470000
21
9737.450000
0
LINE
8
Visible
10
7655.380000
20
9837.690000
11
7655.380000
21
9737.450000
0
LINE
8
Visible
10
6657.190000
20
9837.690000
11
7156.280000
21
9837.690000
0
LINE
8
Visible
10
7156.280000
20
9837.690000
11
7156.280000
21
9737.450000
0
LINE
8
Visible
10
6657.190000
20
9737.450000
11
7156.280000
21
9737.450000
0
LINE
8
Visible
10
6657.190000
20
9837.690000
11
6657.190000
21
9737.450000
0
LINE
8
Visible
10
5659.030000
20
9837.690000
11
6158.110000
21
9837.690000
0
LINE
8
Visible
10
6158.110000
20
9837.690000
11
6158.110000
21
9737.450000
0
LINE
8
Visible
10
5659.030000
20
9737.450000
11
6158.110000
21
9737.450000
0
LINE
8
Visible
10
5659.030000
20
9837.690000
11
5659.030000
21
9737.450000
0
LINE
8
Visible
10
4660.840000
20
9837.690000
11
5159.950000
21
9837.690000
0
LINE
8
Visible
10
5159.950000
20
9837.690000
11
5159.950000
21
9737.450000
0
LINE
8
Visible
10
4660.840000
20
9737.450000
11
5159.950000
21
9737.450000
0
LINE
8
Visible
10
4660.840000
20
9837.690000
11
4660.840000
21
9737.450000
0
LINE
8
Visible
10
3662.680000
20
9837.690000
11
4161.760000
21
9837.690000
0
LINE
8
Visible
10
4161.760000
20
9837.690000
11
4161.760000
21
9737.450000
0
LINE
8
Visible
10
3662.680000
20
9737.450000
11
4161.760000
21
9737.450000
0
LINE
8
Visible
10
3662.680000
20
9837.690000
11
3662.680000
21
9737.450000
0
LINE
8
Visible
10
2664.500000
20
9837.690000
11
3163.600000
21
9837.690000
0
LINE
8
Visible
10
3163.600000
20
9837.690000
11
3163.600000
21
9737.450000
0
LINE
8
Visible
10
2664.500000
20
9737.450000
11
3163.600000
21
9737.450000
0
LINE
8
Visible
10
2664.500000
20
9837.690000
11
2664.500000
21
9737.450000
0
LINE
8
Visible
10
1666.320000
20
9837.690000
11
2165.410000
21
9837.690000
0
LINE
8
Visible
10
2165.410000
20
9837.690000
11
2165.410000
21
9737.450000
0
LINE
8
Visible
10
1666.320000
20
9737.450000
11
2165.410000
21
9737.450000
0
LINE
8
Visible
10
1666.320000
20
9837.690000
11
1666.320000
21
9737.450000
0
LINE
8
Visible
10
668.149000
20
9837.690000
11
1167.240000
21
9837.690000
0
LINE
8
Visible
10
1167.240000
20
9837.690000
11
1167.240000
21
9737.450000
0
LINE
8
Visible
10
668.149000
20
9737.450000
11
1167.240000
21
9737.450000
0
LINE
8
Visible
10
668.149000
20
9837.690000
11
668.149000
21
9737.450000
0
LINE
8
Visible
10
7306.530000
20
9135.980000
11
7839.000000
21
9135.980000
0
LINE
8
Visible
10
7839.000000
20
9236.220000
11
7839.000000
21
9135.980000
0
LINE
8
Visible
10
7839.000000
20
9236.220000
11
8371.470000
21
9236.220000
0
LINE
8
Visible
10
8371.470000
20
9236.220000
11
8371.470000
21
9135.980000
0
LINE
8
Visible
10
8371.470000
20
9135.980000
11
8397.290000
21
9135.980000
0
LINE
8
Visible
10
8397.290000
20
9135.980000
11
8397.290000
21
6356.200000
0
LINE
8
Visible
10
8371.470000
20
6356.200000
11
8397.290000
21
6356.200000
0
LINE
8
Visible
10
8371.470000
20
6255.960000
11
8371.470000
21
6356.200000
0
LINE
8
Visible
10
8371.470000
20
6255.960000
11
7839.000000
21
6255.960000
0
LINE
8
Visible
10
7839.000000
20
6255.960000
11
7839.000000
21
6356.200000
0
LINE
8
Visible
10
7306.530000
20
6356.200000
11
7839.000000
21
6356.200000
0
LINE
8
Visible
10
7306.530000
20
6255.960000
11
7306.530000
21
6356.200000
0
LINE
8
Visible
10
7306.530000
20
6255.960000
11
6774.060000
21
6255.960000
0
LINE
8
Visible
10
6774.060000
20
6255.960000
11
6774.060000
21
6356.200000
0
LINE
8
Visible
10
6500.760000
20
6356.200000
11
6774.060000
21
6356.200000
0
LINE
8
Visible
10
6500.760000
20
9135.980000
11
6500.760000
21
6356.200000
0
LINE
8
Visible
10
6500.760000
20
9135.980000
11
6774.060000
21
9135.980000
0
LINE
8
Visible
10
6774.060000
20
9236.220000
11
6774.060000
21
9135.980000
0
LINE
8
Visible
10
6774.060000
20
9236.220000
11
7306.530000
21
9236.220000
0
LINE
8
Visible
10
7306.530000
20
9236.220000
11
7306.530000
21
9135.980000
0
LINE
8
Visible
10
169.062000
20
9140.150000
11
169.062000
21
10040.900000
0
LINE
8
Visible
10
169.062000
20
9140.150000
11
68.817000
21
9140.150000
0
LINE
8
Visible
10
68.817000
20
9140.150000
11
68.817000
21
8743.350000
0
LINE
8
Visible
10
169.062000
20
8743.350000
11
68.817000
21
8743.350000
0
LINE
8
Visible
10
169.062000
20
8346.570000
11
169.062000
21
8743.350000
0
LINE
8
Visible
10
169.062000
20
8346.570000
11
68.817000
21
8346.570000
0
LINE
8
Visible
10
68.817000
20
8346.570000
11
68.817000
21
7949.770000
0
LINE
8
Visible
10
169.062000
20
7949.770000
11
68.817000
21
7949.770000
0
LINE
8
Visible
10
169.062000
20
7552.970000
11
169.062000
21
7949.770000
0
LINE
8
Visible
10
169.062000
20
7552.970000
11
68.817000
21
7552.970000
0
LINE
8
Visible
10
68.817000
20
7552.970000
11
68.817000
21
7156.190000
0
LINE
8
Visible
10
169.062000
20
7156.190000
11
68.817000
21
7156.190000
0
LINE
8
Visible
10
169.062000
20
6759.390000
11
169.062000
21
7156.190000
0
LINE
8
Visible
10
169.062000
20
6759.390000
11
68.817000
21
6759.390000
0
LINE
8
Visible
10
68.817000
20
6759.390000
11
68.817000
21
6362.610000
0
LINE
8
Visible
10
169.062000
20
6362.610000
11
68.817000
21
6362.610000
0
LINE
8
Visible
10
169.062000
20
5965.810000
11
169.062000
21
6362.610000
0
LINE
8
Visible
10
169.062000
20
5965.810000
11
68.817000
21
5965.810000
0
LINE
8
Visible
10
68.817000
20
5965.810000
11
68.817000
21
5569.000000
0
LINE
8
Visible
10
169.062000
20
5569.000000
11
68.817000
21
5569.000000
0
LINE
8
Visible
10
169.062000
20
5172.230000
11
169.062000
21
5569.000000
0
LINE
8
Visible
10
578.456000
20
5172.230000
11
169.062000
21
5172.230000
0
LINE
8
Visible
10
578.456000
20
5172.230000
11
578.456000
21
5071.980000
0
LINE
8
Visible
10
578.456000
20
5071.980000
11
1088.100000
21
5071.980000
0
LINE
8
Visible
10
1088.100000
20
5172.230000
11
1088.100000
21
5071.980000
0
LINE
8
Visible
10
1597.730000
20
5172.230000
11
1088.100000
21
5172.230000
0
LINE
8
Visible
10
1597.730000
20
5172.230000
11
1597.730000
21
5071.980000
0
LINE
8
Visible
10
1597.730000
20
5071.980000
11
2107.370000
21
5071.980000
0
LINE
8
Visible
10
2107.370000
20
5172.230000
11
2107.370000
21
5071.980000
0
LINE
8
Visible
10
2617.010000
20
5172.230000
11
2107.370000
21
5172.230000
0
LINE
8
Visible
10
2617.010000
20
5172.230000
11
2617.010000
21
5071.980000
0
LINE
8
Visible
10
2617.010000
20
5071.980000
11
3126.650000
21
5071.980000
0
LINE
8
Visible
10
3126.650000
20
5172.230000
11
3126.650000
21
5071.980000
0
LINE
8
Visible
10
3636.290000
20
5172.230000
11
3126.650000
21
5172.230000
0
LINE
8
Visible
10
3636.290000
20
5172.230000
11
3636.290000
21
5071.980000
0
LINE
8
Visible
10
3636.290000
20
5071.980000
11
4145.930000
21
5071.980000
0
LINE
8
Visible
10
4145.930000
20
5172.230000
11
4145.930000
21
5071.980000
0
LINE
8
Visible
10
4655.560000
20
5172.230000
11
4145.930000
21
5172.230000
0
LINE
8
Visible
10
4655.560000
20
5172.230000
11
4655.560000
21
5071.980000
0
LINE
8
Visible
10
4655.560000
20
5071.980000
11
5165.200000
21
5071.980000
0
LINE
8
Visible
10
5165.200000
20
5172.230000
11
5165.200000
21
5071.980000
0
LINE
8
Visible
10
5674.860000
20
5172.230000
11
5165.200000
21
5172.230000
0
LINE
8
Visible
10
5674.860000
20
5172.230000
11
5674.860000
21
5071.980000
0
LINE
8
Visible
10
5674.860000
20
5071.980000
11
6184.500000
21
5071.980000
0
LINE
8
Visible
10
6184.500000
20
5172.230000
11
6184.500000
21
5071.980000
0
LINE
8
Visible
10
6694.140000
20
5172.230000
11
6184.500000
21
5172.230000
0
LINE
8
Visible
10
6694.140000
20
5172.230000
11
6694.140000
21
5071.980000
0
LINE
8
Visible
10
6694.140000
20
5071.980000
11
7203.770000
21
5071.980000
0
LINE
8
Visible
10
7203.770000
20
5172.230000
11
7203.770000
21
5071.980000
0
LINE
8
Visible
10
7713.410000
20
5172.230000
11
7203.770000
21
5172.230000
0
LINE
8
Visible
10
7713.410000
20
5172.230000
11
7713.410000
21
5071.980000
0
LINE
8
Visible
10
7713.410000
20
5071.980000
11
8223.050000
21
5071.980000
0
LINE
8
Visible
10
8223.050000
20
5172.230000
11
8223.050000
21
5071.980000
0
LINE
8
Visible
10
8732.680000
20
5172.230000
11
8223.050000
21
5172.230000
0
LINE
8
Visible
10
8732.680000
20
5172.230000
11
8732.680000
21
5071.980000
0
LINE
8
Visible
10
8732.680000
20
5071.980000
11
9242.320000
21
5071.980000
0
LINE
8
Visible
10
9242.320000
20
5172.230000
11
9242.320000
21
5071.980000
0
LINE
8
Visible
10
9651.710000
20
5172.230000
11
9242.320000
21
5172.230000
0
LINE
8
Visible
10
9651.710000
20
5172.230000
11
9651.710000
21
5614.830000
0
LINE
8
Visible
10
9751.960000
20
5614.830000
11
9651.710000
21
5614.830000
0
LINE
8
Visible
10
9751.960000
20
5614.830000
11
9751.960000
21
6057.420000
0
LINE
8
Visible
10
9751.960000
20
6057.420000
11
9651.710000
21
6057.420000
0
LINE
8
Visible
10
9651.710000
20
6057.420000
11
9651.710000
21
6500.020000
0
LINE
8
Visible
10
9751.960000
20
6500.020000
11
9651.710000
21
6500.020000
0
LINE
8
Visible
10
9751.960000
20
6500.020000
11
9751.960000
21
6942.630000
0
LINE
8
Visible
10
9751.960000
20
6942.630000
11
9651.710000
21
6942.630000
0
LINE
8
Visible
10
9651.710000
20
6942.630000
11
9651.710000
21
7385.240000
0
LINE
8
Visible
10
9751.960000
20
7385.240000
11
9651.710000
21
7385.240000
0
LINE
8
Visible
10
9751.960000
20
7385.240000
11
9751.960000
21
7827.850000
0
LINE
8
Visible
10
9751.960000
20
7827.850000
11
9651.710000
21
7827.850000
0
LINE
8
Visible
10
9651.710000
20
7827.850000
11
9651.710000
21
8270.460000
0
LINE
8
Visible
10
9751.960000
20
8270.460000
11
9651.710000
21
8270.460000
0
LINE
8
Visible
10
9751.960000
20
8270.460000
11
9751.960000
21
8713.070000
0
LINE
8
Visible
10
9751.960000
20
8713.070000
11
9651.710000
21
8713.070000
0
LINE
8
Visible
10
9651.710000
20
8713.070000
11
9651.710000
21
9155.680000
0
LINE
8
Visible
10
9751.960000
20
9155.680000
11
9651.710000
21
9155.680000
0
LINE
8
Visible
10
9751.960000
20
9155.680000
11
9751.960000
21
9598.290000
0
LINE
8
Visible
10
9751.960000
20
9598.290000
11
9651.710000
21
9598.290000
0
LINE
8
Visible
10
9651.710000
20
9598.290000
11
9651.710000
21
10040.900000
0
LINE
8
Visible
10
9152.630000
20
10040.900000
11
9651.710000
21
10040.900000
0
LINE
8
Visible
10
9152.630000
20
10040.900000
11
9152.630000
21
9940.650000
0
LINE
8
Visible
10
8653.550000
20
9940.650000
11
9152.630000
21
9940.650000
0
LINE
8
Visible
10
8653.550000
20
10040.900000
11
8653.550000
21
9940.650000
0
LINE
8
Visible
10
8154.470000
20
10040.900000
11
8653.550000
21
10040.900000
0
LINE
8
Visible
10
8154.470000
20
10040.900000
11
8154.470000
21
9940.650000
0
LINE
8
Visible
10
7655.380000
20
9940.650000
11
8154.470000
21
9940.650000
0
LINE
8
Visible
10
7655.380000
20
10040.900000
11
7655.380000
21
9940.650000
0
LINE
8
Visible
10
7156.280000
20
10040.900000
11
7655.380000
21
10040.900000
0
LINE
8
Visible
10
7156.280000
20
10040.900000
11
7156.280000
21
9940.650000
0
LINE
8
Visible
10
6657.190000
20
9940.650000
11
7156.280000
21
9940.650000
0
LINE
8
Visible
10
6657.190000
20
10040.900000
11
6657.190000
21
9940.650000
0
LINE
8
Visible
10
6158.110000
20
10040.900000
11
6657.190000
21
10040.900000
0
LINE
8
Visible
10
6158.110000
20
10040.900000
11
6158.110000
21
9940.650000
0
LINE
8
Visible
10
5659.030000
20
9940.650000
11
6158.110000
21
9940.650000
0
LINE
8
Visible
10
5659.030000
20
10040.900000
11
5659.030000
21
9940.650000
0
LINE
8
Visible
10
5159.950000
20
10040.900000
11
5659.030000
21
10040.900000
0
LINE
8
Visible
10
5159.950000
20
10040.900000
11
5159.950000
21
9940.650000
0
LINE
8
Visible
10
4660.840000
20
9940.650000
11
5159.950000
21
9940.650000
0
LINE
8
Visible
10
4660.840000
20
10040.900000
11
4660.840000
21
9940.650000
0
LINE
8
Visible
10
4161.760000
20
10040.900000
11
4660.840000
21
10040.900000
0
LINE
8
Visible
10
4161.760000
20
10040.900000
11
4161.760000
21
9940.650000
0
LINE
8
Visible
10
3662.680000
20
9940.650000
11
4161.760000
21
9940.650000
0
LINE
8
Visible
10
3662.680000
20
10040.900000
11
3662.680000
21
9940.650000
0
LINE
8
Visible
10
3163.600000
20
10040.900000
11
3662.680000
21
10040.900000
0
LINE
8
Visible
10
3163.600000
20
10040.900000
11
3163.600000
21
9940.650000
0
LINE
8
Visible
10
2664.500000
20
9940.650000
11
3163.600000
21
9940.650000
0
LINE
8
Visible
10
2664.500000
20
10040.900000
11
2664.500000
21
9940.650000
0
LINE
8
Visible
10
2165.410000
20
10040.900000
11
2664.500000
21
10040.900000
0
LINE
8
Visible
10
2165.410000
20
10040.900000
11
2165.410000
21
9940.650000
0
LINE
8
Visible
10
1666.320000
20
9940.650000
11
2165.410000
21
9940.650000
0
LINE
8
Visible
10
1666.320000
20
10040.900000
11
1666.320000
21
9940.650000
0
LINE
8
Visible
10
1167.240000
20
10040.900000
11
1666.320000
21
10040.900000
0
LINE
8
Visible
10
1167.240000
20
10040.900000
11
1167.240000
21
9940.650000
0
LINE
8
Visible
10
668.149000
20
9940.650000
11
1167.240000
21
9940.650000
0
LINE
8
Visible
10
668.149000
20
10040.900000
11
668.149000
21
9940.650000
0
LINE
8
Visible
10
169.062000
20
10040.900000
11
668.149000
21
10040.900000
0
LINE
8
Visible
10
7839.000000
20
4098.230000
11
7306.530000
21
4098.230000
0
LINE
8
Visible
10
7839.000000
20
4198.480000
11
7839.000000
21
4098.230000
0
LINE
8
Visible
10
8371.470000
20
4198.480000
11
7839.000000
21
4198.480000
0
LINE
8
Visible
10
8371.470000
20
4198.480000
11
8371.470000
21
4098.230000
0
LINE
8
Visible
10
8397.290000
20
4098.230000
11
8371.470000
21
4098.230000
0
LINE
8
Visible
10
8397.290000
20
4098.230000
11
8397.290000
21
1318.460000
0
LINE
8
Visible
10
8397.290000
20
1318.460000
11
8371.470000
21
1318.460000
0
LINE
8
Visible
10
8371.470000
20
1218.220000
11
8371.470000
21
1318.460000
0
LINE
8
Visible
10
7839.000000
20
1218.220000
11
8371.470000
21
1218.220000
0
LINE
8
Visible
10
7839.000000
20
1218.220000
11
7839.000000
21
1318.460000
0
LINE
8
Visible
10
7839.000000
20
1318.460000
11
7306.530000
21
1318.460000
0
LINE
8
Visible
10
7306.530000
20
1218.220000
11
7306.530000
21
1318.460000
0
LINE
8
Visible
10
6774.060000
20
1218.220000
11
7306.530000
21
1218.220000
0
LINE
8
Visible
10
6774.060000
20
1218.220000
11
6774.060000
21
1318.460000
0
LINE
8
Visible
10
6774.060000
20
1318.460000
11
6500.760000
21
1318.460000
0
LINE
8
Visible
10
6500.760000
20
4098.230000
11
6500.760000
21
1318.460000
0
LINE
8
Visible
10
6774.060000
20
4098.230000
11
6500.760000
21
4098.230000
0
LINE
8
Visible
10
6774.060000
20
4198.480000
11
6774.060000
21
4098.230000
0
LINE
8
Visible
10
7306.530000
20
4198.480000
11
6774.060000
21
4198.480000
0
LINE
8
Visible
10
7306.530000
20
4198.480000
11
7306.530000
21
4098.230000
0
LINE
8
Visible
10
5858.650000
20
3827.300000
11
3962.110000
21
3827.300000
0
LINE
8
Visible
10
5858.650000
20
3827.300000
11
5858.650000
21
1589.400000
0
LINE
8
Visible
10
5858.650000
20
1589.400000
11
3962.110000
21
1589.400000
0
LINE
8
Visible
10
3962.110000
20
3827.300000
11
3962.110000
21
1589.400000
0
LINE
8
Visible
10
5249.060000
20
615.391000
11
5248.871587
21
626.705948
0
LINE
8
Visible
10
5248.871587
20
626.705948
11
5248.309410
21
637.959332
0
LINE
8
Visible
10
5248.309410
20
637.959332
11
5247.377922
21
649.143440
0
LINE
8
Visible
10
5247.377922
20
649.143440
11
5246.081573
21
660.250561
0
LINE
8
Visible
10
5246.081573
20
660.250561
11
5244.424818
21
671.272982
0
LINE
8
Visible
10
5244.424818
20
671.272982
11
5242.412107
21
682.202993
0
LINE
8
Visible
10
5242.412107
20
682.202993
11
5240.047892
21
693.032882
0
LINE
8
Visible
10
5240.047892
20
693.032882
11
5237.336627
21
703.754938
0
LINE
8
Visible
10
5237.336627
20
703.754938
11
5234.282763
21
714.361449
0
LINE
8
Visible
10
5234.282763
20
714.361449
11
5230.890752
21
724.844703
0
LINE
8
Visible
10
5230.890752
20
724.844703
11
5227.165046
21
735.196989
0
LINE
8
Visible
10
5227.165046
20
735.196989
11
5223.110097
21
745.410596
0
LINE
8
Visible
10
5223.110097
20
745.410596
11
5218.730359
21
755.477812
0
LINE
8
Visible
10
5218.730359
20
755.477812
11
5214.030282
21
765.390926
0
LINE
8
Visible
10
5214.030282
20
765.390926
11
5209.014319
21
775.142226
0
LINE
8
Visible
10
5209.014319
20
775.142226
11
5203.686922
21
784.724000
0
LINE
8
Visible
10
5203.686922
20
784.724000
11
5198.052543
21
794.128537
0
LINE
8
Visible
10
5198.052543
20
794.128537
11
5192.115635
21
803.348127
0
LINE
8
Visible
10
5192.115635
20
803.348127
11
5185.880649
21
812.375056
0
LINE
8
Visible
10
5185.880649
20
812.375056
11
5179.352037
21
821.201614
0
LINE
8
Visible
10
5179.352037
20
821.201614
11
5172.534253
21
829.820089
0
LINE
8
Visible
10
5172.534253
20
829.820089
11
5165.431747
21
838.222769
0
LINE
8
Visible
10
5165.431747
20
838.222769
11
5158.048972
21
846.401944
0
LINE
8
Visible
10
5158.048972
20
846.401944
11
5150.390381
21
854.349902
0
LINE
8
Visible
10
5150.390381
20
854.349902
11
5142.460425
21
862.058931
0
LINE
8
Visible
10
5142.460425
20
862.058931
11
5134.263556
21
869.521319
0
LINE
8
Visible
10
5134.263556
20
869.521319
11
5125.804227
21
876.729356
0
LINE
8
Visible
10
5125.804227
20
876.729356
11
5117.086889
21
883.675329
0
LINE
8
Visible
10
5117.086889
20
883.675329
11
5108.115996
21
890.351527
0
LINE
8
Visible
10
5108.115996
20
890.351527
11
5098.895998
21
896.750240
0
LINE
8
Visible
10
5098.895998
20
896.750240
11
5089.431349
21
902.863754
0
LINE
8
Visible
10
5089.431349
20
902.863754
11
5079.726500
21
908.684359
0
LINE
8
Visible
10
5079.726500
20
908.684359
11
5069.833284
21
914.178703
0
LINE
8
Visible
10
5069.833284
20
914.178703
11
5059.806500
21
919.318572
0
LINE
8
Visible
10
5059.806500
20
919.318572
11
5049.655054
21
924.103968
0
LINE
8
Visible
10
5049.655054
20
924.103968
11
5039.387850
21
928.534890
0
LINE
8
Visible
10
5039.387850
20
928.534890
11
5029.013793
21
932.611338
0
LINE
8
Visible
10
5029.013793
20
932.611338
11
5018.541786
21
936.333312
0
LINE
8
Visible
10
5018.541786
20
936.333312
11
5007.980734
21
939.700813
0
LINE
8
Visible
10
5007.980734
20
939.700813
11
4997.339543
21
942.713840
0
LINE
8
Visible
10
4997.339543
20
942.713840
11
4986.627116
21
945.372393
0
LINE
8
Visible
10
4986.627116
20
945.372393
11
4975.852357
21
947.676472
0
LINE
8
Visible
10
4975.852357
20
947.676472
11
4965.024172
21
949.626078
0
LINE
8
Visible
10
4965.024172
20
949.626078
11
4954.151464
21
951.221210
0
LINE
8
Visible
10
4954.151464
20
951.221210
11
4943.243139
21
952.461868
0
LINE
8
Visible
10
4943.243139
20
952.461868
11
4932.308100
21
953.348052
0
LINE
8
Visible
10
4932.308100
20
953.348052
11
4921.355252
21
953.879763
0
LINE
8
Visible
10
4921.355252
20
953.879763
11
4910.393500
21
954.057000
0
LINE
8
Visible
10
4910.393500
20
954.057000
11
4899.431748
21
953.879763
0
LINE
8
Visible
10
4899.431748
20
953.879763
11
4888.478900
21
953.348052
0
LINE
8
Visible
10
4888.478900
20
953.348052
11
4877.543861
21
952.461868
0
LINE
8
Visible
10
4877.543861
20
952.461868
11
4866.635536
21
951.221210
0
LINE
8
Visible
10
4866.635536
20
951.221210
11
4855.762828
21
949.626078
0
LINE
8
Visible
10
4855.762828
20
949.626078
11
4844.934643
21
947.676472
0
LINE
8
Visible
10
4844.934643
20
947.676472
11
4834.159884
21
945.372393
0
LINE
8
Visible
10
4834.159884
20
945.372393
11
4823.447457
21
942.713840
0
LINE
8
Visible
10
4823.447457
20
942.713840
11
4812.806266
21
939.700813
0
LINE
8
Visible
10
4812.806266
20
939.700813
11
4802.245214
21
936.333312
0
LINE
8
Visible
10
4802.245214
20
936.333312
11
4791.773207
21
932.611338
0
LINE
8
Visible
10
4791.773207
20
932.611338
11
4781.399150
21
928.534890
0
LINE
8
Visible
10
4781.399150
20
928.534890
11
4771.131946
21
924.103968
0
LINE
8
Visible
10
4771.131946
20
924.103968
11
4760.980500
21
919.318572
0
LINE
8
Visible
10
4760.980500
20
919.318572
11
4750.953716
21
914.178703
0
LINE
8
Visible
10
4750.953716
20
914.178703
11
4741.060500
21
908.684359
0
LINE
8
Visible
10
4741.060500
20
908.684359
11
4731.355651
21
902.863754
0
LINE
8
Visible
10
4731.355651
20
902.863754
11
4721.891002
21
896.750240
0
LINE
8
Visible
10
4721.891002
20
896.750240
11
4712.671005
21
890.351527
0
LINE
8
Visible
10
4712.671005
20
890.351527
11
4703.700112
21
883.675329
0
LINE
8
Visible
10
4703.700112
20
883.675329
11
4694.982775
21
876.729356
0
LINE
8
Visible
10
4694.982775
20
876.729356
11
4686.523447
21
869.521319
0
LINE
8
Visible
10
4686.523447
20
869.521319
11
4678.326581
21
862.058931
0
LINE
8
Visible
10
4678.326581
20
862.058931
11
4670.396627
21
854.349902
0
LINE
8
Visible
10
4670.396627
20
854.349902
11
4662.738039
21
846.401944
0
LINE
8
Visible
10
4662.738039
20
846.401944
11
4655.355268
21
838.222769
0
LINE
8
Visible
10
4655.355268
20
838.222769
11
4648.252768
21
829.820089
0
LINE
8
Visible
10
4648.252768
20
829.820089
11
4641.434989
21
821.201614
0
LINE
8
Visible
10
4641.434989
20
821.201614
11
4634.906385
21
812.375056
0
LINE
8
Visible
10
4634.906385
20
812.375056
11
4628.671407
21
803.348127
0
LINE
8
Visible
10
4628.671407
20
803.348127
11
4622.734508
21
794.128537
0
LINE
8
Visible
10
4622.734508
20
794.128537
11
4617.100141
21
784.724000
0
LINE
8
Visible
10
4617.100141
20
784.724000
11
4611.772756
21
775.142226
0
LINE
8
Visible
10
4611.772756
20
775.142226
11
4606.756807
21
765.390926
0
LINE
8
Visible
10
4606.756807
20
765.390926
11
4602.056746
21
755.477812
0
LINE
8
Visible
10
4602.056746
20
755.477812
11
4597.677025
21
745.410596
0
LINE
8
Visible
10
4597.677025
20
745.410596
11
4593.622096
21
735.196989
0
LINE
8
Visible
10
4593.622096
20
735.196989
11
4589.896411
21
724.844703
0
LINE
8
Visible
10
4589.896411
20
724.844703
11
4586.504423
21
714.361449
0
LINE
8
Visible
10
4586.504423
20
714.361449
11
4583.450584
21
703.754938
0
LINE
8
Visible
10
4583.450584
20
703.754938
11
4580.739346
21
693.032882
0
LINE
8
Visible
10
4580.739346
20
693.032882
11
4578.375162
21
682.202993
0
LINE
8
Visible
10
4578.375162
20
682.202993
11
4576.362483
21
671.272982
0
LINE
8
Visible
10
4576.362483
20
671.272982
11
4574.705761
21
660.250561
0
LINE
8
Visible
10
4574.705761
20
660.250561
11
4573.409450
21
649.143440
0
LINE
8
Visible
10
4573.409450
20
649.143440
11
4572.478002
21
637.959332
0
LINE
8
Visible
10
4572.478002
20
637.959332
11
4571.915867
21
626.705948
0
LINE
8
Visible
10
4571.915867
20
626.705948
11
4571.727500
21
615.391000
0
LINE
8
Visible
10
4571.727500
20
615.391000
11
4571.915890
21
604.076052
0
LINE
8
Visible
10
4571.915890
20
604.076052
11
4572.478046
21
592.822668
0
LINE
8
Visible
10
4572.478046
20
592.822668
11
4573.409514
21
581.638560
0
LINE
8
Visible
10
4573.409514
20
581.638560
11
4574.705844
21
570.531439
0
LINE
8
Visible
10
4574.705844
20
570.531439
11
4576.362582
21
559.509018
0
LINE
8
Visible
10
4576.362582
20
559.509018
11
4578.375277
21
548.579007
0
LINE
8
Visible
10
4578.375277
20
548.579007
11
4580.739477
21
537.749118
0
LINE
8
Visible
10
4580.739477
20
537.749118
11
4583.450729
21
527.027062
0
LINE
8
Visible
10
4583.450729
20
527.027062
11
4586.504580
21
516.420551
0
LINE
8
Visible
10
4586.504580
20
516.420551
11
4589.896580
21
505.937297
0
LINE
8
Visible
10
4589.896580
20
505.937297
11
4593.622275
21
495.585011
0
LINE
8
Visible
10
4593.622275
20
495.585011
11
4597.677214
21
485.371404
0
LINE
8
Visible
10
4597.677214
20
485.371404
11
4602.056944
21
475.304188
0
LINE
8
Visible
10
4602.056944
20
475.304188
11
4606.757013
21
465.391074
0
LINE
8
Visible
10
4606.757013
20
465.391074
11
4611.772969
21
455.639774
0
LINE
8
Visible
10
4611.772969
20
455.639774
11
4617.100359
21
446.058000
0
LINE
8
Visible
10
4617.100359
20
446.058000
11
4622.734733
21
436.653463
0
LINE
8
Visible
10
4622.734733
20
436.653463
11
4628.671636
21
427.433873
0
LINE
8
Visible
10
4628.671636
20
427.433873
11
4634.906618
21
418.406944
0
LINE
8
Visible
10
4634.906618
20
418.406944
11
4641.435226
21
409.580386
0
LINE
8
Visible
10
4641.435226
20
409.580386
11
4648.253007
21
400.961911
0
LINE
8
Visible
10
4648.253007
20
400.961911
11
4655.355511
21
392.559231
0
LINE
8
Visible
10
4655.355511
20
392.559231
11
4662.738283
21
384.380056
0
LINE
8
Visible
10
4662.738283
20
384.380056
11
4670.396873
21
376.432098
0
LINE
8
Visible
10
4670.396873
20
376.432098
11
4678.326828
21
368.723069
0
LINE
8
Visible
10
4678.326828
20
368.723069
11
4686.523696
21
361.260681
0
LINE
8
Visible
10
4686.523696
20
361.260681
11
4694.983024
21
354.052644
0
LINE
8
Visible
10
4694.983024
20
354.052644
11
4703.700361
21
347.106671
0
LINE
8
Visible
10
4703.700361
20
347.106671
11
4712.671254
21
340.430473
0
LINE
8
Visible
10
4712.671254
20
340.430473
11
4721.891252
21
334.031760
0
LINE
8
Visible
10
4721.891252
20
334.031760
11
4731.355901
21
327.918246
0
LINE
8
Visible
10
4731.355901
20
327.918246
11
4741.060750
21
322.097641
0
LINE
8
Visible
10
4741.060750
20
322.097641
11
4750.953966
21
316.603297
0
LINE
8
Visible
10
4750.953966
20
316.603297
11
4760.980750
21
311.463428
0
LINE
8
Visible
10
4760.980750
20
311.463428
11
4771.132196
21
306.678032
0
LINE
8
Visible
10
4771.132196
20
306.678032
11
4781.399400
21
302.247110
0
LINE
8
Visible
10
4781.399400
20
302.247110
11
4791.773457
21
298.170662
0
LINE
8
Visible
10
4791.773457
20
298.170662
11
4802.245464
21
294.448688
0
LINE
8
Visible
10
4802.245464
20
294.448688
11
4812.806516
21
291.081187
0
LINE
8
Visible
10
4812.806516
20
291.081187
11
4823.447707
21
288.068160
0
LINE
8
Visible
10
4823.447707
20
288.068160
11
4834.160134
21
285.409607
0
LINE
8
Visible
10
4834.160134
20
285.409607
11
4844.934893
21
283.105528
0
LINE
8
Visible
10
4844.934893
20
283.105528
11
4855.763078
21
281.155922
0
LINE
8
Visible
10
4855.763078
20
281.155922
11
4866.635786
21
279.560790
0
LINE
8
Visible
10
4866.635786
20
279.560790
11
4877.544111
21
278.320132
0
LINE
8
Visible
10
4877.544111
20
278.320132
11
4888.479150
21
277.433948
0
LINE
8
Visible
10
4888.479150
20
277.433948
11
4899.431998
21
276.902237
0
LINE
8
Visible
10
4899.431998
20
276.902237
11
4910.393750
21
276.725000
0
LINE
8
Visible
10
4910.393750
20
276.725000
11
4921.355502
21
276.902237
0
LINE
8
Visible
10
4921.355502
20
276.902237
11
4932.308350
21
277.433948
0
LINE
8
Visible
10
4932.308350
20
277.433948
11
4943.243389
21
278.320132
0
LINE
8
Visible
10
4943.243389
20
278.320132
11
4954.151714
21
279.560790
0
LINE
8
Visible
10
4954.151714
20
279.560790
11
4965.024422
21
281.155922
0
LINE
8
Visible
10
4965.024422
20
281.155922
11
4975.852607
21
283.105528
0
LINE
8
Visible
10
4975.852607
20
283.105528
11
4986.627366
21
285.409607
0
LINE
8
Visible
10
4986.627366
20
285.409607
11
4997.339793
21
288.068160
0
LINE
8
Visible
10
4997.339793
20
288.068160
11
5007.980984
21
291.081187
0
LINE
8
Visible
10
5007.980984
20
291.081187
11
5018.542036
21
294.448688
0
LINE
8
Visible
10
5018.542036
20
294.448688
11
5029.014043
21
298.170662
0
LINE
8
Visible
10
5029.014043
20
298.170662
11
5039.388100
21
302.247110
0
LINE
8
Visible
10
5039.388100
20
302.247110
11
5049.655304
21
306.678032
0
LINE
8
Visible
10
5049.655304
20
306.678032
11
5059.806750
21
311.463428
0
LINE
8
Visible
10
5059.806750
20
311.463428
11
5069.833534
21
316.603297
0
LINE
8
Visible
10
5069.833534
20
316.603297
11
5079.726750
21
322.097641
0
LINE
8
Visible
10
5079.726750
20
322.097641
11
5089.431599
21
327.918246
0
LINE
8
Visible
10
5089.431599
20
327.918246
11
5098.896248
21
334.031760
0
LINE
8
Visible
10
5098.896248
20
334.031760
11
5108.116245
21
340.430473
0
LINE
8
Visible
10
5108.116245
20
340.430473
11
5117.087138
21
347.106671
0
LINE
8
Visible
10
5117.087138
20
347.106671
11
5125.804475
21
354.052644
0
LINE
8
Visible
10
5125.804475
20
354.052644
11
5134.263803
21
361.260681
0
LINE
8
Visible
10
5134.263803
20
361.260681
11
5142.460669
21
368.723069
0
LINE
8
Visible
10
5142.460669
20
368.723069
11
5150.390623
21
376.432098
0
LINE
8
Visible
10
5150.390623
20
376.432098
11
5158.049211
21
384.380056
0
LINE
8
Visible
10
5158.049211
20
384.380056
11
5165.431982
21
392.559231
0
LINE
8
Visible
10
5165.431982
20
392.559231
11
5172.534482
21
400.961911
0
LINE
8
Visible
10
5172.534482
20
400.961911
11
5179.352261
21
409.580386
0
LINE
8
Visible
10
5179.352261
20
409.580386
11
5185.880865
21
418.406944
0
LINE
8
Visible
10
5185.880865
20
418.406944
11
5192.115843
21
427.433873
0
LINE
8
Visible
10
5192.115843
20
427.433873
11
5198.052742
21
436.653463
0
LINE
8
Visible
10
5198.052742
20
436.653463
11
5203.687109
21
446.058000
0
LINE
8
Visible
10
5203.687109
20
446.058000
11
5209.014494
21
455.639774
0
LINE
8
Visible
10
5209.014494
20
455.639774
11
5214.030443
21
465.391074
0
LINE
8
Visible
10
5214.030443
20
465.391074
11
5218.730504
21
475.304188
0
LINE
8
Visible
10
5218.730504
20
475.304188
11
5223.110225
21
485.371404
0
LINE
8
Visible
10
5223.110225
20
485.371404
11
5227.165154
21
495.585011
0
LINE
8
Visible
10
5227.165154
20
495.585011
11
5230.890839
21
505.937297
0
LINE
8
Visible
10
5230.890839
20
505.937297
11
5234.282827
21
516.420551
0
LINE
8
Visible
10
5234.282827
20
516.420551
11
5237.336666
21
527.027062
0
LINE
8
Visible
10
5237.336666
20
527.027062
11
5240.047904
21
537.749118
0
LINE
8
Visible
10
5240.047904
20
537.749118
11
5242.412088
21
548.579007
0
LINE
8
Visible
10
5242.412088
20
548.579007
11
5244.424767
21
559.509018
0
LINE
8
Visible
10
5244.424767
20
559.509018
11
5246.081489
21
570.531439
0
LINE
8
Visible
10
5246.081489
20
570.531439
11
5247.377800
21
581.638560
0
LINE
8
Visible
10
5247.377800
20
581.638560
11
5248.309248
21
592.822668
0
LINE
8
Visible
10
5248.309248
20
592.822668
11
5248.871383
21
604.076052
0
LINE
8
Visible
10
5248.871383
20
604.076052
11
5249.059750
21
615.391000
0
LINE
8
Visible
10
5249.059750
20
615.391000
11
5249.060000
21
615.391000
0
LINE
8
Visible
10
8903.930000
20
2211.640000
11
8903.930000
21
2542.780000
0
LINE
8
Visible
10
8903.930000
20
2211.640000
11
8803.690000
21
2211.640000
0
LINE
8
Visible
10
8803.690000
20
2211.640000
11
8803.690000
21
2542.780000
0
LINE
8
Visible
10
8903.930000
20
2542.780000
11
8803.690000
21
2542.780000
0
LINE
8
Visible
10
8903.930000
20
2873.920000
11
8903.930000
21
3205.050000
0
LINE
8
Visible
10
8903.930000
20
2873.920000
11
8803.690000
21
2873.920000
0
LINE
8
Visible
10
8803.690000
20
2873.920000
11
8803.690000
21
3205.050000
0
LINE
8
Visible
10
8903.930000
20
3205.050000
11
8803.690000
21
3205.050000
0
LINE
8
Visible
10
8903.930000
20
3536.210000
11
8903.930000
21
3867.340000
0
LINE
8
Visible
10
8903.930000
20
3536.210000
11
8803.690000
21
3536.210000
0
LINE
8
Visible
10
8803.690000
20
3536.210000
11
8803.690000
21
3867.340000
0
LINE
8
Visible
10
8903.930000
20
3867.340000
11
8803.690000
21
3867.340000
0
LINE
8
Visible
10
8903.930000
20
1549.360000
11
8903.930000
21
1880.500000
0
LINE
8
Visible
10
8903.930000
20
1549.360000
11
8803.690000
21
1549.360000
0
LINE
8
Visible
10
8803.690000
20
1549.360000
11
8803.690000
21
1880.500000
0
LINE
8
Visible
10
8903.930000
20
1880.500000
11
8803.690000
21
1880.500000
0
LINE
8
Visible
10
6094.360000
20
2245.050000
11
6094.360000
21
2553.920000
0
LINE
8
Visible
10
6094.360000
20
2245.050000
11
5994.110000
21
2245.050000
0
LINE
8
Visible
10
5994.110000
20
2245.050000
11
5994.110000
21
2553.920000
0
LINE
8
Visible
10
6094.360000
20
2553.920000
11
5994.110000
21
2553.920000
0
LINE
8
Visible
10
6094.360000
20
2862.780000
11
6094.360000
21
3171.640000
0
LINE
8
Visible
10
6094.360000
20
2862.780000
11
5994.110000
21
2862.780000
0
LINE
8
Visible
10
5994.110000
20
2862.780000
11
5994.110000
21
3171.640000
0
LINE
8
Visible
10
6094.360000
20
3171.640000
11
5994.110000
21
3171.640000
0
LINE
8
Visible
10
6094.360000
20
3480.500000
11
6094.360000
21
3789.370000
0
LINE
8
Visible
10
6094.360000
20
3480.500000
11
5994.110000
21
3480.500000
0
LINE
8
Visible
10
5994.110000
20
3480.500000
11
5994.110000
21
3789.370000
0
LINE
8
Visible
10
6094.360000
20
3789.370000
11
5994.110000
21
3789.370000
0
LINE
8
Visible
10
6094.360000
20
1627.330000
11
6094.360000
21
1936.190000
0
LINE
8
Visible
10
6094.360000
20
1627.330000
11
5994.110000
21
1627.330000
0
LINE
8
Visible
10
5994.110000
20
1627.330000
11
5994.110000
21
1936.190000
0
LINE
8
Visible
10
6094.360000
20
1936.190000
11
5994.110000
21
1936.190000
0
LINE
8
Visible
10
916.838000
20
3205.050000
11
916.838000
21
2873.920000
0
LINE
8
Visible
10
916.838000
20
3205.050000
11
1017.080000
21
3205.050000
0
LINE
8
Visible
10
1017.080000
20
3205.050000
11
1017.080000
21
2873.920000
0
LINE
8
Visible
10
916.838000
20
2873.920000
11
1017.080000
21
2873.920000
0
LINE
8
Visible
10
916.838000
20
2542.780000
11
916.838000
21
2211.640000
0
LINE
8
Visible
10
916.838000
20
2542.780000
11
1017.080000
21
2542.780000
0
LINE
8
Visible
10
1017.080000
20
2542.780000
11
1017.080000
21
2211.640000
0
LINE
8
Visible
10
916.838000
20
2211.640000
11
1017.080000
21
2211.640000
0
LINE
8
Visible
10
916.838000
20
1880.500000
11
916.838000
21
1549.360000
0
LINE
8
Visible
10
916.838000
20
1880.500000
11
1017.080000
21
1880.500000
0
LINE
8
Visible
10
1017.080000
20
1880.500000
11
1017.080000
21
1549.360000
0
LINE
8
Visible
10
916.838000
20
1549.360000
11
1017.080000
21
1549.360000
0
LINE
8
Visible
10
916.838000
20
3867.340000
11
916.838000
21
3536.210000
0
LINE
8
Visible
10
916.838000
20
3867.340000
11
1017.080000
21
3867.340000
0
LINE
8
Visible
10
1017.080000
20
3867.340000
11
1017.080000
21
3536.210000
0
LINE
8
Visible
10
916.838000
20
3536.210000
11
1017.080000
21
3536.210000
0
LINE
8
Visible
10
3826.650000
20
2245.050000
11
3826.650000
21
2553.920000
0
LINE
8
Visible
10
3826.650000
20
2245.050000
11
3726.400000
21
2245.050000
0
LINE
8
Visible
10
3726.400000
20
2245.050000
11
3726.400000
21
2553.920000
0
LINE
8
Visible
10
3826.650000
20
2553.920000
11
3726.400000
21
2553.920000
0
LINE
8
Visible
10
3826.650000
20
2862.780000
11
3826.650000
21
3171.640000
0
LINE
8
Visible
10
3826.650000
20
2862.780000
11
3726.400000
21
2862.780000
0
LINE
8
Visible
10
3726.400000
20
2862.780000
11
3726.400000
21
3171.640000
0
LINE
8
Visible
10
3826.650000
20
3171.640000
11
3726.400000
21
3171.640000
0
LINE
8
Visible
10
3826.650000
20
3480.500000
11
3826.650000
21
3789.370000
0
LINE
8
Visible
10
3826.650000
20
3480.500000
11
3726.400000
21
3480.500000
0
LINE
8
Visible
10
3726.400000
20
3480.500000
11
3726.400000
21
3789.370000
0
LINE
8
Visible
10
3826.650000
20
3789.370000
11
3726.400000
21
3789.370000
0
LINE
8
Visible
10
3826.650000
20
1627.330000
11
3826.650000
21
1936.190000
0
LINE
8
Visible
10
3826.650000
20
1627.330000
11
3726.400000
21
1627.330000
0
LINE
8
Visible
10
3726.400000
20
1627.330000
11
3726.400000
21
1936.190000
0
LINE
8
Visible
10
3826.650000
20
1936.190000
11
3726.400000
21
1936.190000
0
LINE
8
Visible
10
3579.200000
20
1218.220000
11
4111.690000
21
1218.220000
0
LINE
8
Visible
10
3579.200000
20
1218.220000
11
3579.200000
21
1318.460000
0
LINE
8
Visible
10
3579.200000
20
1318.460000
11
4111.690000
21
1318.460000
0
LINE
8
Visible
10
4111.690000
20
1218.220000
11
4111.690000
21
1318.460000
0
LINE
8
Visible
10
4644.160000
20
1218.220000
11
5176.630000
21
1218.220000
0
LINE
8
Visible
10
4644.160000
20
1218.220000
11
4644.160000
21
1318.460000
0
LINE
8
Visible
10
4644.160000
20
1318.460000
11
5176.630000
21
1318.460000
0
LINE
8
Visible
10
5176.630000
20
1218.220000
11
5176.630000
21
1318.460000
0
LINE
8
Visible
10
5709.100000
20
1218.220000
11
6241.570000
21
1218.220000
0
LINE
8
Visible
10
5709.100000
20
1218.220000
11
5709.100000
21
1318.460000
0
LINE
8
Visible
10
5709.100000
20
1318.460000
11
6241.570000
21
1318.460000
0
LINE
8
Visible
10
6241.570000
20
1218.220000
11
6241.570000
21
1318.460000
0
LINE
8
Visible
10
6241.570000
20
4198.480000
11
5709.100000
21
4198.480000
0
LINE
8
Visible
10
6241.570000
20
4198.480000
11
6241.570000
21
4098.230000
0
LINE
8
Visible
10
6241.570000
20
4098.230000
11
5709.100000
21
4098.230000
0
LINE
8
Visible
10
5709.100000
20
4198.480000
11
5709.100000
21
4098.230000
0
LINE
8
Visible
10
5176.630000
20
4198.480000
11
4644.160000
21
4198.480000
0
LINE
8
Visible
10
5176.630000
20
4198.480000
11
5176.630000
21
4098.230000
0
LINE
8
Visible
10
5176.630000
20
4098.230000
11
4644.160000
21
4098.230000
0
LINE
8
Visible
10
4644.160000
20
4198.480000
11
4644.160000
21
4098.230000
0
LINE
8
Visible
10
4111.690000
20
4198.480000
11
3579.200000
21
4198.480000
0
LINE
8
Visible
10
4111.690000
20
4198.480000
11
4111.690000
21
4098.230000
0
LINE
8
Visible
10
4111.690000
20
4098.230000
11
3579.200000
21
4098.230000
0
LINE
8
Visible
10
3579.200000
20
4198.480000
11
3579.200000
21
4098.230000
0
LINE
8
Visible
10
1167.240000
20
4799.950000
11
668.149000
21
4799.950000
0
LINE
8
Visible
10
1167.240000
20
4799.950000
11
1167.240000
21
4699.700000
0
LINE
8
Visible
10
1167.240000
20
4699.700000
11
668.149000
21
4699.700000
0
LINE
8
Visible
10
668.149000
20
4799.950000
11
668.149000
21
4699.700000
0
LINE
8
Visible
10
2165.410000
20
4799.950000
11
1666.320000
21
4799.950000
0
LINE
8
Visible
10
2165.410000
20
4799.950000
11
2165.410000
21
4699.700000
0
LINE
8
Visible
10
2165.410000
20
4699.700000
11
1666.320000
21
4699.700000
0
LINE
8
Visible
10
1666.320000
20
4799.950000
11
1666.320000
21
4699.700000
0
LINE
8
Visible
10
3163.600000
20
4799.950000
11
2664.500000
21
4799.950000
0
LINE
8
Visible
10
3163.600000
20
4799.950000
11
3163.600000
21
4699.700000
0
LINE
8
Visible
10
3163.600000
20
4699.700000
11
2664.500000
21
4699.700000
0
LINE
8
Visible
10
2664.500000
20
4799.950000
11
2664.500000
21
4699.700000
0
LINE
8
Visible
10
4161.760000
20
4799.950000
11
3662.680000
21
4799.950000
0
LINE
8
Visible
10
4161.760000
20
4799.950000
11
4161.760000
21
4699.700000
0
LINE
8
Visible
10
4161.760000
20
4699.700000
11
3662.680000
21
4699.700000
0
LINE
8
Visible
10
3662.680000
20
4799.950000
11
3662.680000
21
4699.700000
0
LINE
8
Visible
10
5159.950000
20
4799.950000
11
4660.840000
21
4799.950000
0
LINE
8
Visible
10
5159.950000
20
4799.950000
11
5159.950000
21
4699.700000
0
LINE
8
Visible
10
5159.950000
20
4699.700000
11
4660.840000
21
4699.700000
0
LINE
8
Visible
10
4660.840000
20
4799.950000
11
4660.840000
21
4699.700000
0
LINE
8
Visible
10
6158.110000
20
4799.950000
11
5659.030000
21
4799.950000
0
LINE
8
Visible
10
6158.110000
20
4799.950000
11
6158.110000
21
4699.700000
0
LINE
8
Visible
10
6158.110000
20
4699.700000
11
5659.030000
21
4699.700000
0
LINE
8
Visible
10
5659.030000
20
4799.950000
11
5659.030000
21
4699.700000
0
LINE
8
Visible
10
7156.280000
20
4799.950000
11
6657.190000
21
4799.950000
0
LINE
8
Visible
10
7156.280000
20
4799.950000
11
7156.280000
21
4699.700000
0
LINE
8
Visible
10
7156.280000
20
4699.700000
11
6657.190000
21
4699.700000
0
LINE
8
Visible
10
6657.190000
20
4799.950000
11
6657.190000
21
4699.700000
0
LINE
8
Visible
10
8154.470000
20
4799.950000
11
7655.380000
21
4799.950000
0
LINE
8
Visible
10
8154.470000
20
4799.950000
11
8154.470000
21
4699.700000
0
LINE
8
Visible
10
8154.470000
20
4699.700000
11
7655.380000
21
4699.700000
0
LINE
8
Visible
10
7655.380000
20
4799.950000
11
7655.380000
21
4699.700000
0
LINE
8
Visible
10
9152.630000
20
4799.950000
11
8653.550000
21
4799.950000
0
LINE
8
Visible
10
9152.630000
20
4799.950000
11
9152.630000
21
4699.700000
0
LINE
8
Visible
10
9152.630000
20
4699.700000
11
8653.550000
21
4699.700000
0
LINE
8
Visible
10
8653.550000
20
4799.950000
11
8653.550000
21
4699.700000
0
LINE
8
Visible
10
2514.260000
20
4098.230000
11
1981.790000
21
4098.230000
0
LINE
8
Visible
10
2514.260000
20
4198.480000
11
2514.260000
21
4098.230000
0
LINE
8
Visible
10
3046.730000
20
4198.480000
11
2514.260000
21
4198.480000
0
LINE
8
Visible
10
3046.730000
20
4198.480000
11
3046.730000
21
4098.230000
0
LINE
8
Visible
10
3320.000000
20
4098.230000
11
3046.730000
21
4098.230000
0
LINE
8
Visible
10
3320.000000
20
4098.230000
11
3320.000000
21
1318.460000
0
LINE
8
Visible
10
3320.000000
20
1318.460000
11
3046.730000
21
1318.460000
0
LINE
8
Visible
10
3046.730000
20
1218.220000
11
3046.730000
21
1318.460000
0
LINE
8
Visible
10
2514.260000
20
1218.220000
11
3046.730000
21
1218.220000
0
LINE
8
Visible
10
2514.260000
20
1218.220000
11
2514.260000
21
1318.460000
0
LINE
8
Visible
10
2514.260000
20
1318.460000
11
1981.790000
21
1318.460000
0
LINE
8
Visible
10
1981.790000
20
1218.220000
11
1981.790000
21
1318.460000
0
LINE
8
Visible
10
1449.310000
20
1218.220000
11
1981.790000
21
1218.220000
0
LINE
8
Visible
10
1449.310000
20
1218.220000
11
1449.310000
21
1318.460000
0
LINE
8
Visible
10
1449.310000
20
1318.460000
11
1423.480000
21
1318.460000
0
LINE
8
Visible
10
1423.480000
20
4098.230000
11
1423.480000
21
1318.460000
0
LINE
8
Visible
10
1449.310000
20
4098.230000
11
1423.480000
21
4098.230000
0
LINE
8
Visible
10
1449.310000
20
4198.480000
11
1449.310000
21
4098.230000
0
LINE
8
Visible
10
1981.790000
20
4198.480000
11
1449.310000
21
4198.480000
0
LINE
8
Visible
10
1981.790000
20
4198.480000
11
1981.790000
21
4098.230000
0
LINE
8
Visible
10
9651.710000
20
4102.440000
11
9751.960000
21
4102.440000
0
LINE
8
Visible
10
9651.710000
20
4102.440000
11
9651.710000
21
5003.150000
0
LINE
8
Visible
10
9651.710000
20
5003.150000
11
9152.630000
21
5003.150000
0
LINE
8
Visible
10
9152.630000
20
5003.150000
11
9152.630000
21
4902.900000
0
LINE
8
Visible
10
9152.630000
20
4902.900000
11
8653.550000
21
4902.900000
0
LINE
8
Visible
10
8653.550000
20
5003.150000
11
8653.550000
21
4902.900000
0
LINE
8
Visible
10
8653.550000
20
5003.150000
11
8154.470000
21
5003.150000
0
LINE
8
Visible
10
8154.470000
20
5003.150000
11
8154.470000
21
4902.900000
0
LINE
8
Visible
10
8154.470000
20
4902.900000
11
7655.380000
21
4902.900000
0
LINE
8
Visible
10
7655.380000
20
5003.150000
11
7655.380000
21
4902.900000
0
LINE
8
Visible
10
7655.380000
20
5003.150000
11
7156.280000
21
5003.150000
0
LINE
8
Visible
10
7156.280000
20
5003.150000
11
7156.280000
21
4902.900000
0
LINE
8
Visible
10
7156.280000
20
4902.900000
11
6657.190000
21
4902.900000
0
LINE
8
Visible
10
6657.190000
20
5003.150000
11
6657.190000
21
4902.900000
0
LINE
8
Visible
10
6657.190000
20
5003.150000
11
6158.110000
21
5003.150000
0
LINE
8
Visible
10
6158.110000
20
5003.150000
11
6158.110000
21
4902.900000
0
LINE
8
Visible
10
6158.110000
20
4902.900000
11
5659.030000
21
4902.900000
0
LINE
8
Visible
10
5659.030000
20
5003.150000
11
5659.030000
21
4902.900000
0
LINE
8
Visible
10
5659.030000
20
5003.150000
11
5159.950000
21
5003.150000
0
LINE
8
Visible
10
5159.950000
20
5003.150000
11
5159.950000
21
4902.900000
0
LINE
8
Visible
10
5159.950000
20
4902.900000
11
4660.840000
21
4902.900000
0
LINE
8
Visible
10
4660.840000
20
5003.150000
11
4660.840000
21
4902.900000
0
LINE
8
Visible
10
4660.840000
20
5003.150000
11
4161.760000
21
5003.150000
0
LINE
8
Visible
10
4161.760000
20
5003.150000
11
4161.760000
21
4902.900000
0
LINE
8
Visible
10
4161.760000
20
4902.900000
11
3662.680000
21
4902.900000
0
LINE
8
Visible
10
3662.680000
20
5003.150000
11
3662.680000
21
4902.900000
0
LINE
8
Visible
10
3662.680000
20
5003.150000
11
3163.600000
21
5003.150000
0
LINE
8
Visible
10
3163.600000
20
5003.150000
11
3163.600000
21
4902.900000
0
LINE
8
Visible
10
3163.600000
20
4902.900000
11
2664.500000
21
4902.900000
0
LINE
8
Visible
10
2664.500000
20
5003.150000
11
2664.500000
21
4902.900000
0
LINE
8
Visible
10
2664.500000
20
5003.150000
11
2165.410000
21
5003.150000
0
LINE
8
Visible
10
2165.410000
20
5003.150000
11
2165.410000
21
4902.900000
0
LINE
8
Visible
10
2165.410000
20
4902.900000
11
1666.320000
21
4902.900000
0
LINE
8
Visible
10
1666.320000
20
5003.150000
11
1666.320000
21
4902.900000
0
LINE
8
Visible
10
1666.320000
20
5003.150000
11
1167.240000
21
5003.150000
0
LINE
8
Visible
10
1167.240000
20
5003.150000
11
1167.240000
21
4902.900000
0
LINE
8
Visible
10
1167.240000
20
4902.900000
11
668.149000
21
4902.900000
0
LINE
8
Visible
10
668.149000
20
5003.150000
11
668.149000
21
4902.900000
0
LINE
8
Visible
10
668.149000
20
5003.150000
11
169.062000
21
5003.150000
0
LINE
8
Visible
10
169.062000
20
5003.150000
11
169.062000
21
4560.540000
0
LINE
8
Visible
10
68.817000
20
4560.540000
11
169.062000
21
4560.540000
0
LINE
8
Visible
10
68.817000
20
4117.930000
11
68.817000
21
4560.540000
0
LINE
8
Visible
10
68.817000
20
4117.930000
11
169.062000
21
4117.930000
0
LINE
8
Visible
10
169.062000
20
4117.930000
11
169.062000
21
3675.320000
0
LINE
8
Visible
10
68.817000
20
3675.320000
11
169.062000
21
3675.320000
0
LINE
8
Visible
10
68.817000
20
3232.740000
11
68.817000
21
3675.320000
0
LINE
8
Visible
10
68.817000
20
3232.740000
11
169.062000
21
3232.740000
0
LINE
8
Visible
10
169.062000
20
3232.740000
11
169.062000
21
2790.120000
0
LINE
8
Visible
10
68.817000
20
2790.120000
11
169.062000
21
2790.120000
0
LINE
8
Visible
10
68.817000
20
2347.510000
11
68.817000
21
2790.120000
0
LINE
8
Visible
10
68.817000
20
2347.510000
11
169.062000
21
2347.510000
0
LINE
8
Visible
10
169.062000
20
2347.510000
11
169.062000
21
1904.910000
0
LINE
8
Visible
10
68.817000
20
1904.910000
11
169.062000
21
1904.910000
0
LINE
8
Visible
10
68.817000
20
1462.300000
11
68.817000
21
1904.910000
0
LINE
8
Visible
10
68.817000
20
1462.300000
11
169.062000
21
1462.300000
0
LINE
8
Visible
10
169.062000
20
1462.300000
11
169.062000
21
1019.700000
0
LINE
8
Visible
10
68.817000
20
1019.700000
11
169.062000
21
1019.700000
0
LINE
8
Visible
10
68.817000
20
577.090000
11
68.817000
21
1019.700000
0
LINE
8
Visible
10
68.817000
20
577.090000
11
169.062000
21
577.090000
0
LINE
8
Visible
10
169.062000
20
577.090000
11
169.062000
21
134.484000
0
LINE
8
Visible
10
578.456000
20
134.484000
11
169.062000
21
134.484000
0
LINE
8
Visible
10
578.456000
20
134.484000
11
578.456000
21
34.239200
0
LINE
8
Visible
10
1088.100000
20
34.239200
11
578.456000
21
34.239200
0
LINE
8
Visible
10
1088.100000
20
134.484000
11
1088.100000
21
34.239200
0
LINE
8
Visible
10
1597.730000
20
134.484000
11
1088.100000
21
134.484000
0
LINE
8
Visible
10
1597.730000
20
134.484000
11
1597.730000
21
34.239200
0
LINE
8
Visible
10
2107.370000
20
34.239200
11
1597.730000
21
34.239200
0
LINE
8
Visible
10
2107.370000
20
134.484000
11
2107.370000
21
34.239200
0
LINE
8
Visible
10
2617.010000
20
134.484000
11
2107.370000
21
134.484000
0
LINE
8
Visible
10
2617.010000
20
134.484000
11
2617.010000
21
34.239200
0
LINE
8
Visible
10
3126.650000
20
34.239200
11
2617.010000
21
34.239200
0
LINE
8
Visible
10
3126.650000
20
134.484000
11
3126.650000
21
34.239200
0
LINE
8
Visible
10
3636.290000
20
134.484000
11
3126.650000
21
134.484000
0
LINE
8
Visible
10
3636.290000
20
134.484000
11
3636.290000
21
34.239200
0
LINE
8
Visible
10
4145.930000
20
34.239200
11
3636.290000
21
34.239200
0
LINE
8
Visible
10
4145.930000
20
134.484000
11
4145.930000
21
34.239200
0
LINE
8
Visible
10
4655.560000
20
134.484000
11
4145.930000
21
134.484000
0
LINE
8
Visible
10
4655.560000
20
134.484000
11
4655.560000
21
34.239200
0
LINE
8
Visible
10
5165.200000
20
34.239200
11
4655.560000
21
34.239200
0
LINE
8
Visible
10
5165.200000
20
134.484000
11
5165.200000
21
34.239200
0
LINE
8
Visible
10
5674.860000
20
134.484000
11
5165.200000
21
134.484000
0
LINE
8
Visible
10
5674.860000
20
134.484000
11
5674.860000
21
34.239200
0
LINE
8
Visible
10
6184.500000
20
34.239200
11
5674.860000
21
34.239200
0
LINE
8
Visible
10
6184.500000
20
134.484000
11
6184.500000
21
34.239200
0
LINE
8
Visible
10
6694.140000
20
134.484000
11
6184.500000
21
134.484000
0
LINE
8
Visible
10
6694.140000
20
134.484000
11
6694.140000
21
34.239200
0
LINE
8
Visible
10
7203.770000
20
34.239200
11
6694.140000
21
34.239200
0
LINE
8
Visible
10
7203.770000
20
134.484000
11
7203.770000
21
34.239200
0
LINE
8
Visible
10
7713.410000
20
134.484000
11
7203.770000
21
134.484000
0
LINE
8
Visible
10
7713.410000
20
134.484000
11
7713.410000
21
34.239200
0
LINE
8
Visible
10
8223.050000
20
34.239200
11
7713.410000
21
34.239200
0
LINE
8
Visible
10
8223.050000
20
134.484000
11
8223.050000
21
34.239200
0
LINE
8
Visible
10
8732.680000
20
134.484000
11
8223.050000
21
134.484000
0
LINE
8
Visible
10
8732.680000
20
134.484000
11
8732.680000
21
34.239200
0
LINE
8
Visible
10
9242.320000
20
34.239200
11
8732.680000
21
34.239200
0
LINE
8
Visible
10
9242.320000
20
134.484000
11
9242.320000
21
34.239200
0
LINE
8
Visible
10
9651.710000
20
134.484000
11
9242.320000
21
134.484000
0
LINE
8
Visible
10
9651.710000
20
531.278000
11
9651.710000
21
134.484000
0
LINE
8
Visible
10
9651.710000
20
531.278000
11
9751.960000
21
531.278000
0
LINE
8
Visible
10
9751.960000
20
928.073000
11
9751.960000
21
531.278000
0
LINE
8
Visible
10
9651.710000
20
928.073000
11
9751.960000
21
928.073000
0
LINE
8
Visible
10
9651.710000
20
1324.870000
11
9651.710000
21
928.073000
0
LINE
8
Visible
10
9651.710000
20
1324.870000
11
9751.960000
21
1324.870000
0
LINE
8
Visible
10
9751.960000
20
1721.660000
11
9751.960000
21
1324.870000
0
LINE
8
Visible
10
9651.710000
20
1721.660000
11
9751.960000
21
1721.660000
0
LINE
8
Visible
10
9651.710000
20
2118.450000
11
9651.710000
21
1721.660000
0
LINE
8
Visible
10
9651.710000
20
2118.450000
11
9751.960000
21
2118.450000
0
LINE
8
Visible
10
9751.960000
20
2515.250000
11
9751.960000
21
2118.450000
0
LINE
8
Visible
10
9651.710000
20
2515.250000
11
9751.960000
21
2515.250000
0
LINE
8
Visible
10
9651.710000
20
2912.040000
11
9651.710000
21
2515.250000
0
LINE
8
Visible
10
9651.710000
20
2912.040000
11
9751.960000
21
2912.040000
0
LINE
8
Visible
10
9751.960000
20
3308.830000
11
9751.960000
21
2912.040000
0
LINE
8
Visible
10
9651.710000
20
3308.830000
11
9751.960000
21
3308.830000
0
LINE
8
Visible
10
9651.710000
20
3705.630000
11
9651.710000
21
3308.830000
0
LINE
8
Visible
10
9651.710000
20
3705.630000
11
9751.960000
21
3705.630000
0
LINE
8
Visible
10
9751.960000
20
4102.440000
11
9751.960000
21
3705.630000
0
LINE
8
Visible
10
19303.400000
20
8052.250000
11
19303.400000
21
5071.980000
0
LINE
8
Visible
10
19303.400000
20
8052.250000
11
9820.790000
21
8052.250000
0
LINE
8
Visible
10
9820.790000
20
8052.250000
11
9820.790000
21
5071.980000
0
LINE
8
Visible
10
19303.400000
20
5071.980000
11
9820.790000
21
5071.980000
0
LINE
8
Visible
10
17435.000000
20
6985.100000
11
17419.618719
21
6985.346070
0
LINE
8
Visible
10
17419.618719
20
6985.346070
11
17404.251258
21
6985.339132
0
LINE
8
Visible
10
17404.251258
20
6985.339132
11
17388.900608
21
6985.079910
0
LINE
8
Visible
10
17388.900608
20
6985.079910
11
17373.569758
21
6984.569130
0
LINE
8
Visible
10
17373.569758
20
6984.569130
11
17358.261699
21
6983.807517
0
LINE
8
Visible
10
17358.261699
20
6983.807517
11
17342.979422
21
6982.795794
0
LINE
8
Visible
10
17342.979422
20
6982.795794
11
17327.725918
21
6981.534687
0
LINE
8
Visible
10
17327.725918
20
6981.534687
11
17312.504178
21
6980.024921
0
LINE
8
Visible
10
17312.504178
20
6980.024921
11
17297.317191
21
6978.267220
0
LINE
8
Visible
10
17297.317191
20
6978.267220
11
17282.167949
21
6976.262309
0
LINE
8
Visible
10
17282.167949
20
6976.262309
11
17267.059442
21
6974.010912
0
LINE
8
Visible
10
17267.059442
20
6974.010912
11
17251.994660
21
6971.513755
0
LINE
8
Visible
10
17251.994660
20
6971.513755
11
17236.976595
21
6968.771562
0
LINE
8
Visible
10
17236.976595
20
6968.771562
11
17222.008237
21
6965.785058
0
LINE
8
Visible
10
17222.008237
20
6965.785058
11
17207.092577
21
6962.554968
0
LINE
8
Visible
10
17207.092577
20
6962.554968
11
17192.232605
21
6959.082016
0
LINE
8
Visible
10
17192.232605
20
6959.082016
11
17177.431312
21
6955.366928
0
LINE
8
Visible
10
17177.431312
20
6955.366928
11
17162.691688
21
6951.410427
0
LINE
8
Visible
10
17162.691688
20
6951.410427
11
17148.016724
21
6947.213239
0
LINE
8
Visible
10
17148.016724
20
6947.213239
11
17133.409412
21
6942.776088
0
LINE
8
Visible
10
17133.409412
20
6942.776088
11
17118.872740
21
6938.099700
0
LINE
8
Visible
10
17118.872740
20
6938.099700
11
17104.409701
21
6933.184798
0
LINE
8
Visible
10
17104.409701
20
6933.184798
11
17090.023284
21
6928.032108
0
LINE
8
Visible
10
17090.023284
20
6928.032108
11
17075.716480
21
6922.642354
0
LINE
8
Visible
10
17075.716480
20
6922.642354
11
17061.492280
21
6917.016261
0
LINE
8
Visible
10
17061.492280
20
6917.016261
11
17047.353674
21
6911.154554
0
LINE
8
Visible
10
17047.353674
20
6911.154554
11
17033.303654
21
6905.057958
0
LINE
8
Visible
10
17033.303654
20
6905.057958
11
17019.345209
21
6898.727197
0
LINE
8
Visible
10
17019.345209
20
6898.727197
11
17005.481331
21
6892.162996
0
LINE
8
Visible
10
17005.481331
20
6892.162996
11
16991.715010
21
6885.366079
0
LINE
8
Visible
10
16991.715010
20
6885.366079
11
16978.049236
21
6878.337173
0
LINE
8
Visible
10
16978.049236
20
6878.337173
11
16964.487000
21
6871.077000
0
LINE
8
Visible
10
17435.000000
20
6985.100000
11
17425.829272
21
7005.488003
0
LINE
8
Visible
10
17425.829272
20
7005.488003
11
17416.170421
21
7025.623025
0
LINE
8
Visible
10
17416.170421
20
7025.623025
11
17406.029187
21
7045.496798
0
LINE
8
Visible
10
17406.029187
20
7045.496798
11
17395.411307
21
7065.101054
0
LINE
8
Visible
10
17395.411307
20
7065.101054
11
17384.322519
21
7084.427524
0
LINE
8
Visible
10
17384.322519
20
7084.427524
11
17372.768562
21
7103.467939
0
LINE
8
Visible
10
17372.768562
20
7103.467939
11
17360.755172
21
7122.214031
0
LINE
8
Visible
10
17360.755172
20
7122.214031
11
17348.288088
21
7140.657531
0
LINE
8
Visible
10
17348.288088
20
7140.657531
11
17335.373049
21
7158.790171
0
LINE
8
Visible
10
17335.373049
20
7158.790171
11
17322.015792
21
7176.603682
0
LINE
8
Visible
10
17322.015792
20
7176.603682
11
17308.222054
21
7194.089795
0
LINE
8
Visible
10
17308.222054
20
7194.089795
11
17293.997575
21
7211.240243
0
LINE
8
Visible
10
17293.997575
20
7211.240243
11
17279.348092
21
7228.046755
0
LINE
8
Visible
10
17279.348092
20
7228.046755
11
17264.279343
21
7244.501065
0
LINE
8
Visible
10
17264.279343
20
7244.501065
11
17248.797067
21
7260.594903
0
LINE
8
Visible
10
17248.797067
20
7260.594903
11
17232.907000
21
7276.320000
0
LINE
8
Visible
10
17387.500000
20
6227.720000
11
17395.230389
21
6234.269066
0
LINE
8
Visible
10
17395.230389
20
6234.269066
11
17402.836926
21
6240.928473
0
LINE
8
Visible
10
17402.836926
20
6240.928473
11
17410.318931
21
6247.696446
0
LINE
8
Visible
10
17410.318931
20
6247.696446
11
17417.675728
21
6254.571213
0
LINE
8
Visible
10
17417.675728
20
6254.571213
11
17424.906639
21
6261.550996
0
LINE
8
Visible
10
17424.906639
20
6261.550996
11
17432.010986
21
6268.634024
0
LINE
8
Visible
10
17432.010986
20
6268.634024
11
17438.988091
21
6275.818520
0
LINE
8
Visible
10
17438.988091
20
6275.818520
11
17445.837276
21
6283.102710
0
LINE
8
Visible
10
17445.837276
20
6283.102710
11
17452.557864
21
6290.484820
0
LINE
8
Visible
10
17452.557864
20
6290.484820
11
17459.149177
21
6297.963075
0
LINE
8
Visible
10
17459.149177
20
6297.963075
11
17465.610537
21
6305.535701
0
LINE
8
Visible
10
17465.610537
20
6305.535701
11
17471.941266
21
6313.200923
0
LINE
8
Visible
10
17471.941266
20
6313.200923
11
17478.140687
21
6320.956966
0
LINE
8
Visible
10
17478.140687
20
6320.956966
11
17484.208121
21
6328.802057
0
LINE
8
Visible
10
17484.208121
20
6328.802057
11
17490.142892
21
6336.734421
0
LINE
8
Visible
10
17490.142892
20
6336.734421
11
17495.944320
21
6344.752283
0
LINE
8
Visible
10
17495.944320
20
6344.752283
11
17501.611729
21
6352.853868
0
LINE
8
Visible
10
17501.611729
20
6352.853868
11
17507.144440
21
6361.037403
0
LINE
8
Visible
10
17507.144440
20
6361.037403
11
17512.541777
21
6369.301112
0
LINE
8
Visible
10
17512.541777
20
6369.301112
11
17517.803060
21
6377.643222
0
LINE
8
Visible
10
17517.803060
20
6377.643222
11
17522.927612
21
6386.061957
0
LINE
8
Visible
10
17522.927612
20
6386.061957
11
17527.914756
21
6394.555543
0
LINE
8
Visible
10
17527.914756
20
6394.555543
11
17532.763814
21
6403.122206
0
LINE
8
Visible
10
17532.763814
20
6403.122206
11
17537.474107
21
6411.760170
0
LINE
8
Visible
10
17537.474107
20
6411.760170
11
17542.044959
21
6420.467663
0
LINE
8
Visible
10
17542.044959
20
6420.467663
11
17546.475690
21
6429.242908
0
LINE
8
Visible
10
17546.475690
20
6429.242908
11
17550.765625
21
6438.084132
0
LINE
8
Visible
10
17550.765625
20
6438.084132
11
17554.914084
21
6446.989560
0
LINE
8
Visible
10
17554.914084
20
6446.989560
11
17558.920390
21
6455.957418
0
LINE
8
Visible
10
17558.920390
20
6455.957418
11
17562.783866
21
6464.985930
0
LINE
8
Visible
10
17562.783866
20
6464.985930
11
17566.503832
21
6474.073324
0
LINE
8
Visible
10
17566.503832
20
6474.073324
11
17570.079613
21
6483.217823
0
LINE
8
Visible
10
17570.079613
20
6483.217823
11
17573.510529
21
6492.417653
0
LINE
8
Visible
10
17573.510529
20
6492.417653
11
17576.795903
21
6501.671041
0
LINE
8
Visible
10
17576.795903
20
6501.671041
11
17579.935058
21
6510.976211
0
LINE
8
Visible
10
17579.935058
20
6510.976211
11
17582.927315
21
6520.331389
0
LINE
8
Visible
10
17582.927315
20
6520.331389
11
17585.771997
21
6529.734801
0
LINE
8
Visible
10
17585.771997
20
6529.734801
11
17588.468425
21
6539.184671
0
LINE
8
Visible
10
17588.468425
20
6539.184671
11
17591.015923
21
6548.679226
0
LINE
8
Visible
10
17591.015923
20
6548.679226
11
17593.413812
21
6558.216691
0
LINE
8
Visible
10
17593.413812
20
6558.216691
11
17595.661415
21
6567.795291
0
LINE
8
Visible
10
17595.661415
20
6567.795291
11
17597.758054
21
6577.413252
0
LINE
8
Visible
10
17597.758054
20
6577.413252
11
17599.703051
21
6587.068799
0
LINE
8
Visible
10
17599.703051
20
6587.068799
11
17601.495728
21
6596.760159
0
LINE
8
Visible
10
17601.495728
20
6596.760159
11
17603.135407
21
6606.485556
0
LINE
8
Visible
10
17603.135407
20
6606.485556
11
17604.621411
21
6616.243215
0
LINE
8
Visible
10
17604.621411
20
6616.243215
11
17605.953062
21
6626.031363
0
LINE
8
Visible
10
17605.953062
20
6626.031363
11
17607.129682
21
6635.848225
0
LINE
8
Visible
10
17607.129682
20
6635.848225
11
17608.150594
21
6645.692026
0
LINE
8
Visible
10
17608.150594
20
6645.692026
11
17609.015119
21
6655.560992
0
LINE
8
Visible
10
17609.015119
20
6655.560992
11
17609.722579
21
6665.453348
0
LINE
8
Visible
10
17609.722579
20
6665.453348
11
17610.272298
21
6675.367320
0
LINE
8
Visible
10
17610.272298
20
6675.367320
11
17610.663597
21
6685.301133
0
LINE
8
Visible
10
17610.663597
20
6685.301133
11
17610.895799
21
6695.253013
0
LINE
8
Visible
10
17610.895799
20
6695.253013
11
17610.968225
21
6705.221186
0
LINE
8
Visible
10
17610.968225
20
6705.221186
11
17610.880198
21
6715.203876
0
LINE
8
Visible
10
17610.880198
20
6715.203876
11
17610.631040
21
6725.199309
0
LINE
8
Visible
10
17610.631040
20
6725.199309
11
17610.220073
21
6735.205711
0
LINE
8
Visible
10
17610.220073
20
6735.205711
11
17609.646620
21
6745.221308
0
LINE
8
Visible
10
17609.646620
20
6745.221308
11
17608.910002
21
6755.244324
0
LINE
8
Visible
10
17608.910002
20
6755.244324
11
17608.009543
21
6765.272985
0
LINE
8
Visible
10
17608.009543
20
6765.272985
11
17606.944563
21
6775.305517
0
LINE
8
Visible
10
17606.944563
20
6775.305517
11
17605.714386
21
6785.340145
0
LINE
8
Visible
10
17605.714386
20
6785.340145
11
17604.318334
21
6795.375094
0
LINE
8
Visible
10
17604.318334
20
6795.375094
11
17602.759368
21
6805.386029
0
LINE
8
Visible
10
17602.759368
20
6805.386029
11
17601.041675
21
6815.348791
0
LINE
8
Visible
10
17601.041675
20
6815.348791
11
17599.166416
21
6825.261877
0
LINE
8
Visible
10
17599.166416
20
6825.261877
11
17597.134752
21
6835.123784
0
LINE
8
Visible
10
17597.134752
20
6835.123784
11
17594.947844
21
6844.933009
0
LINE
8
Visible
10
17594.947844
20
6844.933009
11
17592.606854
21
6854.688048
0
LINE
8
Visible
10
17592.606854
20
6854.688048
11
17590.112942
21
6864.387397
0
LINE
8
Visible
10
17590.112942
20
6864.387397
11
17587.467269
21
6874.029554
0
LINE
8
Visible
10
17587.467269
20
6874.029554
11
17584.670996
21
6883.613014
0
LINE
8
Visible
10
17584.670996
20
6883.613014
11
17581.725285
21
6893.136274
0
LINE
8
Visible
10
17581.725285
20
6893.136274
11
17578.631295
21
6902.597831
0
LINE
8
Visible
10
17578.631295
20
6902.597831
11
17575.390189
21
6911.996182
0
LINE
8
Visible
10
17575.390189
20
6911.996182
11
17572.003127
21
6921.329822
0
LINE
8
Visible
10
17572.003127
20
6921.329822
11
17568.471270
21
6930.597249
0
LINE
8
Visible
10
17568.471270
20
6930.597249
11
17564.795779
21
6939.796959
0
LINE
8
Visible
10
17564.795779
20
6939.796959
11
17560.977816
21
6948.927448
0
LINE
8
Visible
10
17560.977816
20
6948.927448
11
17557.018540
21
6957.987213
0
LINE
8
Visible
10
17557.018540
20
6957.987213
11
17552.919114
21
6966.974751
0
LINE
8
Visible
10
17552.919114
20
6966.974751
11
17548.680698
21
6975.888559
0
LINE
8
Visible
10
17548.680698
20
6975.888559
11
17544.304453
21
6984.727131
0
LINE
8
Visible
10
17544.304453
20
6984.727131
11
17539.791540
21
6993.488966
0
LINE
8
Visible
10
17539.791540
20
6993.488966
11
17535.143120
21
7002.172560
0
LINE
8
Visible
10
17535.143120
20
7002.172560
11
17530.360354
21
7010.776410
0
LINE
8
Visible
10
17530.360354
20
7010.776410
11
17525.444404
21
7019.299011
0
LINE
8
Visible
10
17525.444404
20
7019.299011
11
17520.396429
21
7027.738860
0
LINE
8
Visible
10
17520.396429
20
7027.738860
11
17515.217592
21
7036.094455
0
LINE
8
Visible
10
17515.217592
20
7036.094455
11
17509.909053
21
7044.364291
0
LINE
8
Visible
10
17509.909053
20
7044.364291
11
17504.471973
21
7052.546865
0
LINE
8
Visible
10
17504.471973
20
7052.546865
11
17498.907513
21
7060.640674
0
LINE
8
Visible
10
17498.907513
20
7060.640674
11
17493.216834
21
7068.644214
0
LINE
8
Visible
10
17493.216834
20
7068.644214
11
17487.401097
21
7076.555982
0
LINE
8
Visible
10
17487.401097
20
7076.555982
11
17481.461463
21
7084.374474
0
LINE
8
Visible
10
17481.461463
20
7084.374474
11
17475.399093
21
7092.098187
0
LINE
8
Visible
10
17475.399093
20
7092.098187
11
17469.215149
21
7099.725618
0
LINE
8
Visible
10
17469.215149
20
7099.725618
11
17462.910790
21
7107.255262
0
LINE
8
Visible
10
17462.910790
20
7107.255262
11
17456.487178
21
7114.685617
0
LINE
8
Visible
10
17456.487178
20
7114.685617
11
17449.945475
21
7122.015179
0
LINE
8
Visible
10
17449.945475
20
7122.015179
11
17443.286840
21
7129.242444
0
LINE
8
Visible
10
17443.286840
20
7129.242444
11
17436.512436
21
7136.365910
0
LINE
8
Visible
10
17436.512436
20
7136.365910
11
17429.623422
21
7143.384072
0
LINE
8
Visible
10
17429.623422
20
7143.384072
11
17422.620961
21
7150.295428
0
LINE
8
Visible
10
17422.620961
20
7150.295428
11
17415.506213
21
7157.098473
0
LINE
8
Visible
10
17415.506213
20
7157.098473
11
17408.280338
21
7163.791705
0
LINE
8
Visible
10
17408.280338
20
7163.791705
11
17400.944499
21
7170.373619
0
LINE
8
Visible
10
17400.944499
20
7170.373619
11
17393.499856
21
7176.842713
0
LINE
8
Visible
10
17393.499856
20
7176.842713
11
17385.947570
21
7183.197483
0
LINE
8
Visible
10
17385.947570
20
7183.197483
11
17378.288801
21
7189.436426
0
LINE
8
Visible
10
17378.288801
20
7189.436426
11
17370.524712
21
7195.558037
0
LINE
8
Visible
10
17370.524712
20
7195.558037
11
17362.656463
21
7201.560814
0
LINE
8
Visible
10
17362.656463
20
7201.560814
11
17354.685215
21
7207.443254
0
LINE
8
Visible
10
17354.685215
20
7207.443254
11
17346.612128
21
7213.203852
0
LINE
8
Visible
10
17346.612128
20
7213.203852
11
17338.438365
21
7218.841105
0
LINE
8
Visible
10
17338.438365
20
7218.841105
11
17330.165086
21
7224.353510
0
LINE
8
Visible
10
17330.165086
20
7224.353510
11
17321.793451
21
7229.739564
0
LINE
8
Visible
10
17321.793451
20
7229.739564
11
17313.324623
21
7234.997762
0
LINE
8
Visible
10
17313.324623
20
7234.997762
11
17304.759761
21
7240.126602
0
LINE
8
Visible
10
17304.759761
20
7240.126602
11
17296.100028
21
7245.124580
0
LINE
8
Visible
10
17296.100028
20
7245.124580
11
17287.346583
21
7249.990192
0
LINE
8
Visible
10
17287.346583
20
7249.990192
11
17278.500589
21
7254.721936
0
LINE
8
Visible
10
17278.500589
20
7254.721936
11
17269.563205
21
7259.318307
0
LINE
8
Visible
10
17269.563205
20
7259.318307
11
17260.535594
21
7263.777803
0
LINE
8
Visible
10
17260.535594
20
7263.777803
11
17251.418915
21
7268.098919
0
LINE
8
Visible
10
17251.418915
20
7268.098919
11
17242.214330
21
7272.280153
0
LINE
8
Visible
10
17242.214330
20
7272.280153
11
17232.923000
21
7276.320000
0
LINE
8
Visible
10
17241.300000
20
5764.470000
11
17249.242311
21
5777.664979
0
LINE
8
Visible
10
17249.242311
20
5777.664979
11
17256.975028
21
5790.968090
0
LINE
8
Visible
10
17256.975028
20
5790.968090
11
17264.497347
21
5804.376788
0
LINE
8
Visible
10
17264.497347
20
5804.376788
11
17271.808466
21
5817.888527
0
LINE
8
Visible
10
17271.808466
20
5817.888527
11
17278.907581
21
5831.500763
0
LINE
8
Visible
10
17278.907581
20
5831.500763
11
17285.793889
21
5845.210951
0
LINE
8
Visible
10
17285.793889
20
5845.210951
11
17292.466586
21
5859.016544
0
LINE
8
Visible
10
17292.466586
20
5859.016544
11
17298.924870
21
5872.914999
0
LINE
8
Visible
10
17298.924870
20
5872.914999
11
17305.167936
21
5886.903770
0
LINE
8
Visible
10
17305.167936
20
5886.903770
11
17311.194983
21
5900.980312
0
LINE
8
Visible
10
17311.194983
20
5900.980312
11
17317.005205
21
5915.142080
0
LINE
8
Visible
10
17317.005205
20
5915.142080
11
17322.597801
21
5929.386529
0
LINE
8
Visible
10
17322.597801
20
5929.386529
11
17327.971966
21
5943.711113
0
LINE
8
Visible
10
17327.971966
20
5943.711113
11
17333.126898
21
5958.113288
0
LINE
8
Visible
10
17333.126898
20
5958.113288
11
17338.061794
21
5972.590508
0
LINE
8
Visible
10
17338.061794
20
5972.590508
11
17342.775849
21
5987.140229
0
LINE
8
Visible
10
17342.775849
20
5987.140229
11
17347.268261
21
6001.759905
0
LINE
8
Visible
10
17347.268261
20
6001.759905
11
17351.538226
21
6016.446991
0
LINE
8
Visible
10
17351.538226
20
6016.446991
11
17355.584941
21
6031.198942
0
LINE
8
Visible
10
17355.584941
20
6031.198942
11
17359.407603
21
6046.013213
0
LINE
8
Visible
10
17359.407603
20
6046.013213
11
17363.005409
21
6060.887259
0
LINE
8
Visible
10
17363.005409
20
6060.887259
11
17366.377555
21
6075.818535
0
LINE
8
Visible
10
17366.377555
20
6075.818535
11
17369.523237
21
6090.804495
0
LINE
8
Visible
10
17369.523237
20
6090.804495
11
17372.441654
21
6105.842594
0
LINE
8
Visible
10
17372.441654
20
6105.842594
11
17375.132000
21
6120.930288
0
LINE
8
Visible
10
17375.132000
20
6120.930288
11
17377.593474
21
6136.065032
0
LINE
8
Visible
10
17377.593474
20
6136.065032
11
17379.825271
21
6151.244279
0
LINE
8
Visible
10
17379.825271
20
6151.244279
11
17381.826589
21
6166.465486
0
LINE
8
Visible
10
17381.826589
20
6166.465486
11
17383.596624
21
6181.726106
0
LINE
8
Visible
10
17383.596624
20
6181.726106
11
17385.134573
21
6197.023595
0
LINE
8
Visible
10
17385.134573
20
6197.023595
11
17386.439633
21
6212.355408
0
LINE
8
Visible
10
17386.439633
20
6212.355408
11
17387.511000
21
6227.719000
0
LINE
8
Visible
10
17241.300000
20
5764.470000
11
17252.540256
21
5761.418704
0
LINE
8
Visible
10
17252.540256
20
5761.418704
11
17263.823755
21
5758.617591
0
LINE
8
Visible
10
17263.823755
20
5758.617591
11
17275.146477
21
5756.066382
0
LINE
8
Visible
10
17275.146477
20
5756.066382
11
17286.504401
21
5753.764796
0
LINE
8
Visible
10
17286.504401
20
5753.764796
11
17297.893505
21
5751.712556
0
LINE
8
Visible
10
17297.893505
20
5751.712556
11
17309.309770
21
5749.909382
0
LINE
8
Visible
10
17309.309770
20
5749.909382
11
17320.749173
21
5748.354995
0
LINE
8
Visible
10
17320.749173
20
5748.354995
11
17332.207693
21
5747.049117
0
LINE
8
Visible
10
17332.207693
20
5747.049117
11
17343.681311
21
5745.991468
0
LINE
8
Visible
10
17343.681311
20
5745.991468
11
17355.166004
21
5745.181768
0
LINE
8
Visible
10
17355.166004
20
5745.181768
11
17366.657753
21
5744.619740
0
LINE
8
Visible
10
17366.657753
20
5744.619740
11
17378.152535
21
5744.305104
0
LINE
8
Visible
10
17378.152535
20
5744.305104
11
17389.646330
21
5744.237581
0
LINE
8
Visible
10
17389.646330
20
5744.237581
11
17401.135117
21
5744.416892
0
LINE
8
Visible
10
17401.135117
20
5744.416892
11
17412.614875
21
5744.842758
0
LINE
8
Visible
10
17412.614875
20
5744.842758
11
17424.081583
21
5745.514900
0
LINE
8
Visible
10
17424.081583
20
5745.514900
11
17435.531220
21
5746.433039
0
LINE
8
Visible
10
17435.531220
20
5746.433039
11
17446.959765
21
5747.596895
0
LINE
8
Visible
10
17446.959765
20
5747.596895
11
17458.363198
21
5749.006191
0
LINE
8
Visible
10
17458.363198
20
5749.006191
11
17469.737496
21
5750.660646
0
LINE
8
Visible
10
17469.737496
20
5750.660646
11
17481.078639
21
5752.559982
0
LINE
8
Visible
10
17481.078639
20
5752.559982
11
17492.382607
21
5754.703919
0
LINE
8
Visible
10
17492.382607
20
5754.703919
11
17503.645378
21
5757.092179
0
LINE
8
Visible
10
17503.645378
20
5757.092179
11
17514.862931
21
5759.724483
0
LINE
8
Visible
10
17514.862931
20
5759.724483
11
17526.031246
21
5762.600552
0
LINE
8
Visible
10
17526.031246
20
5762.600552
11
17537.146300
21
5765.720106
0
LINE
8
Visible
10
17537.146300
20
5765.720106
11
17548.204074
21
5769.082866
0
LINE
8
Visible
10
17548.204074
20
5769.082866
11
17559.200547
21
5772.688554
0
LINE
8
Visible
10
17559.200547
20
5772.688554
11
17570.131696
21
5776.536890
0
LINE
8
Visible
10
17570.131696
20
5776.536890
11
17580.993502
21
5780.627596
0
LINE
8
Visible
10
17580.993502
20
5780.627596
11
17591.781944
21
5784.960392
0
LINE
8
Visible
10
17591.781944
20
5784.960392
11
17602.493000
21
5789.535000
0
LINE
8
Visible
10
16611.300000
20
6183.160000
11
16612.906334
21
6172.999815
0
LINE
8
Visible
10
16612.906334
20
6172.999815
11
16614.677137
21
6162.890564
0
LINE
8
Visible
10
16614.677137
20
6162.890564
11
16616.611159
21
6152.833821
0
LINE
8
Visible
10
16616.611159
20
6152.833821
11
16618.707152
21
6142.831160
0
LINE
8
Visible
10
16618.707152
20
6142.831160
11
16620.963865
21
6132.884157
0
LINE
8
Visible
10
16620.963865
20
6132.884157
11
16623.380051
21
6122.994386
0
LINE
8
Visible
10
16623.380051
20
6122.994386
11
16625.954460
21
6113.163422
0
LINE
8
Visible
10
16625.954460
20
6113.163422
11
16628.685842
21
6103.392840
0
LINE
8
Visible
10
16628.685842
20
6103.392840
11
16631.572948
21
6093.684214
0
LINE
8
Visible
10
16631.572948
20
6093.684214
11
16634.614530
21
6084.039119
0
LINE
8
Visible
10
16634.614530
20
6084.039119
11
16637.809338
21
6074.459130
0
LINE
8
Visible
10
16637.809338
20
6074.459130
11
16641.156122
21
6064.945821
0
LINE
8
Visible
10
16641.156122
20
6064.945821
11
16644.653635
21
6055.500768
0
LINE
8
Visible
10
16644.653635
20
6055.500768
11
16648.300625
21
6046.125544
0
LINE
8
Visible
10
16648.300625
20
6046.125544
11
16652.095845
21
6036.821726
0
LINE
8
Visible
10
16652.095845
20
6036.821726
11
16656.038046
21
6027.590886
0
LINE
8
Visible
10
16656.038046
20
6027.590886
11
16660.125977
21
6018.434601
0
LINE
8
Visible
10
16660.125977
20
6018.434601
11
16664.358389
21
6009.354445
0
LINE
8
Visible
10
16664.358389
20
6009.354445
11
16668.734035
21
6000.351992
0
LINE
8
Visible
10
16668.734035
20
6000.351992
11
16673.251663
21
5991.428817
0
LINE
8
Visible
10
16673.251663
20
5991.428817
11
16677.910026
21
5982.586496
0
LINE
8
Visible
10
16677.910026
20
5982.586496
11
16682.707874
21
5973.826602
0
LINE
8
Visible
10
16682.707874
20
5973.826602
11
16687.643958
21
5965.150711
0
LINE
8
Visible
10
16687.643958
20
5965.150711
11
16692.717028
21
5956.560396
0
LINE
8
Visible
10
16692.717028
20
5956.560396
11
16697.925835
21
5948.057234
0
LINE
8
Visible
10
16697.925835
20
5948.057234
11
16703.269131
21
5939.642798
0
LINE
8
Visible
10
16703.269131
20
5939.642798
11
16708.745666
21
5931.318664
0
LINE
8
Visible
10
16708.745666
20
5931.318664
11
16714.354191
21
5923.086405
0
LINE
8
Visible
10
16714.354191
20
5923.086405
11
16720.093456
21
5914.947598
0
LINE
8
Visible
10
16720.093456
20
5914.947598
11
16725.962213
21
5906.903816
0
LINE
8
Visible
10
16725.962213
20
5906.903816
11
16731.959212
21
5898.956634
0
LINE
8
Visible
10
16731.959212
20
5898.956634
11
16738.083205
21
5891.107626
0
LINE
8
Visible
10
16738.083205
20
5891.107626
11
16744.332941
21
5883.358369
0
LINE
8
Visible
10
16744.332941
20
5883.358369
11
16750.707172
21
5875.710436
0
LINE
8
Visible
10
16750.707172
20
5875.710436
11
16757.204648
21
5868.165402
0
LINE
8
Visible
10
16757.204648
20
5868.165402
11
16763.824121
21
5860.724842
0
LINE
8
Visible
10
16763.824121
20
5860.724842
11
16770.564341
21
5853.390330
0
LINE
8
Visible
10
16770.564341
20
5853.390330
11
16777.424059
21
5846.163441
0
LINE
8
Visible
10
16777.424059
20
5846.163441
11
16784.402026
21
5839.045751
0
LINE
8
Visible
10
16784.402026
20
5839.045751
11
16791.496992
21
5832.038833
0
LINE
8
Visible
10
16791.496992
20
5832.038833
11
16798.707709
21
5825.144262
0
LINE
8
Visible
10
16798.707709
20
5825.144262
11
16806.032927
21
5818.363614
0
LINE
8
Visible
10
16806.032927
20
5818.363614
11
16813.471397
21
5811.698462
0
LINE
8
Visible
10
16813.471397
20
5811.698462
11
16821.021870
21
5805.150382
0
LINE
8
Visible
10
16821.021870
20
5805.150382
11
16828.683097
21
5798.720948
0
LINE
8
Visible
10
16828.683097
20
5798.720948
11
16836.453828
21
5792.411736
0
LINE
8
Visible
10
16836.453828
20
5792.411736
11
16844.332814
21
5786.224318
0
LINE
8
Visible
10
16844.332814
20
5786.224318
11
16852.318807
21
5780.160272
0
LINE
8
Visible
10
16852.318807
20
5780.160272
11
16860.410556
21
5774.221170
0
LINE
8
Visible
10
16860.410556
20
5774.221170
11
16868.606814
21
5768.408589
0
LINE
8
Visible
10
16868.606814
20
5768.408589
11
16876.906329
21
5762.724101
0
LINE
8
Visible
10
16876.906329
20
5762.724101
11
16885.307854
21
5757.169284
0
LINE
8
Visible
10
16885.307854
20
5757.169284
11
16893.810140
21
5751.745710
0
LINE
8
Visible
10
16893.810140
20
5751.745710
11
16902.411936
21
5746.454955
0
LINE
8
Visible
10
16902.411936
20
5746.454955
11
16911.111994
21
5741.298593
0
LINE
8
Visible
10
16911.111994
20
5741.298593
11
16919.909065
21
5736.278200
0
LINE
8
Visible
10
16919.909065
20
5736.278200
11
16928.801899
21
5731.395349
0
LINE
8
Visible
10
16928.801899
20
5731.395349
11
16937.789247
21
5726.651616
0
LINE
8
Visible
10
16937.789247
20
5726.651616
11
16946.869860
21
5722.048576
0
LINE
8
Visible
10
16946.869860
20
5722.048576
11
16956.042490
21
5717.587802
0
LINE
8
Visible
10
16956.042490
20
5717.587802
11
16965.305886
21
5713.270871
0
LINE
8
Visible
10
16965.305886
20
5713.270871
11
16974.658799
21
5709.099355
0
LINE
8
Visible
10
16974.658799
20
5709.099355
11
16984.099981
21
5705.074831
0
LINE
8
Visible
10
16984.099981
20
5705.074831
11
16993.628182
21
5701.198873
0
LINE
8
Visible
10
16993.628182
20
5701.198873
11
17003.219448
21
5697.481713
0
LINE
8
Visible
10
17003.219448
20
5697.481713
11
17012.849332
21
5693.932341
0
LINE
8
Visible
10
17012.849332
20
5693.932341
11
17022.515844
21
5690.550469
0
LINE
8
Visible
10
17022.515844
20
5690.550469
11
17032.216996
21
5687.335807
0
LINE
8
Visible
10
17032.216996
20
5687.335807
11
17041.950799
21
5684.288067
0
LINE
8
Visible
10
17041.950799
20
5684.288067
11
17051.715263
21
5681.406961
0
LINE
8
Visible
10
17051.715263
20
5681.406961
11
17061.508398
21
5678.692200
0
LINE
8
Visible
10
17061.508398
20
5678.692200
11
17071.328216
21
5676.143495
0
LINE
8
Visible
10
17071.328216
20
5676.143495
11
17081.172728
21
5673.760557
0
LINE
8
Visible
10
17081.172728
20
5673.760557
11
17091.039944
21
5671.543099
0
LINE
8
Visible
10
17091.039944
20
5671.543099
11
17100.927875
21
5669.490831
0
LINE
8
Visible
10
17100.927875
20
5669.490831
11
17110.834533
21
5667.603465
0
LINE
8
Visible
10
17110.834533
20
5667.603465
11
17120.757927
21
5665.880712
0
LINE
8
Visible
10
17120.757927
20
5665.880712
11
17130.696068
21
5664.322284
0
LINE
8
Visible
10
17130.696068
20
5664.322284
11
17140.646968
21
5662.927891
0
LINE
8
Visible
10
17140.646968
20
5662.927891
11
17150.608637
21
5661.697246
0
LINE
8
Visible
10
17150.608637
20
5661.697246
11
17160.579086
21
5660.630059
0
LINE
8
Visible
10
17160.579086
20
5660.630059
11
17170.556325
21
5659.726042
0
LINE
8
Visible
10
17170.556325
20
5659.726042
11
17180.538367
21
5658.984907
0
LINE
8
Visible
10
17180.538367
20
5658.984907
11
17190.523220
21
5658.406365
0
LINE
8
Visible
10
17190.523220
20
5658.406365
11
17200.508897
21
5657.990126
0
LINE
8
Visible
10
17200.508897
20
5657.990126
11
17210.493408
21
5657.735903
0
LINE
8
Visible
10
17210.493408
20
5657.735903
11
17220.474763
21
5657.643407
0
LINE
8
Visible
10
17220.474763
20
5657.643407
11
17230.450974
21
5657.712350
0
LINE
8
Visible
10
17230.450974
20
5657.712350
11
17240.420052
21
5657.942442
0
LINE
8
Visible
10
17240.420052
20
5657.942442
11
17250.380006
21
5658.333395
0
LINE
8
Visible
10
17250.380006
20
5658.333395
11
17260.328849
21
5658.884920
0
LINE
8
Visible
10
17260.328849
20
5658.884920
11
17270.264590
21
5659.596729
0
LINE
8
Visible
10
17270.264590
20
5659.596729
11
17280.185241
21
5660.468533
0
LINE
8
Visible
10
17280.185241
20
5660.468533
11
17290.088812
21
5661.500044
0
LINE
8
Visible
10
17290.088812
20
5661.500044
11
17299.973315
21
5662.690973
0
LINE
8
Visible
10
17299.973315
20
5662.690973
11
17309.836759
21
5664.041031
0
LINE
8
Visible
10
17309.836759
20
5664.041031
11
17319.677157
21
5665.549929
0
LINE
8
Visible
10
17319.677157
20
5665.549929
11
17329.492518
21
5667.217380
0
LINE
8
Visible
10
17329.492518
20
5667.217380
11
17339.280853
21
5669.043094
0
LINE
8
Visible
10
17339.280853
20
5669.043094
11
17349.040173
21
5671.026782
0
LINE
8
Visible
10
17349.040173
20
5671.026782
11
17358.768490
21
5673.168157
0
LINE
8
Visible
10
17358.768490
20
5673.168157
11
17368.463813
21
5675.466930
0
LINE
8
Visible
10
17368.463813
20
5675.466930
11
17378.124154
21
5677.922811
0
LINE
8
Visible
10
17378.124154
20
5677.922811
11
17387.747523
21
5680.535512
0
LINE
8
Visible
10
17387.747523
20
5680.535512
11
17397.331932
21
5683.304745
0
LINE
8
Visible
10
17397.331932
20
5683.304745
11
17406.875391
21
5686.230221
0
LINE
8
Visible
10
17406.875391
20
5686.230221
11
17416.375910
21
5689.311652
0
LINE
8
Visible
10
17416.375910
20
5689.311652
11
17425.831501
21
5692.548748
0
LINE
8
Visible
10
17425.831501
20
5692.548748
11
17435.240175
21
5695.941222
0
LINE
8
Visible
10
17435.240175
20
5695.941222
11
17444.599941
21
5699.488784
0
LINE
8
Visible
10
17444.599941
20
5699.488784
11
17453.908812
21
5703.191145
0
LINE
8
Visible
10
17453.908812
20
5703.191145
11
17463.164798
21
5707.048018
0
LINE
8
Visible
10
17463.164798
20
5707.048018
11
17472.365909
21
5711.059114
0
LINE
8
Visible
10
17472.365909
20
5711.059114
11
17481.510157
21
5715.224144
0
LINE
8
Visible
10
17481.510157
20
5715.224144
11
17490.595551
21
5719.542819
0
LINE
8
Visible
10
17490.595551
20
5719.542819
11
17499.620104
21
5724.014851
0
LINE
8
Visible
10
17499.620104
20
5724.014851
11
17508.581826
21
5728.639951
0
LINE
8
Visible
10
17508.581826
20
5728.639951
11
17517.478728
21
5733.417830
0
LINE
8
Visible
10
17517.478728
20
5733.417830
11
17526.308820
21
5738.348201
0
LINE
8
Visible
10
17526.308820
20
5738.348201
11
17535.070113
21
5743.430773
0
LINE
8
Visible
10
17535.070113
20
5743.430773
11
17543.760618
21
5748.665259
0
LINE
8
Visible
10
17543.760618
20
5748.665259
11
17552.378346
21
5754.051371
0
LINE
8
Visible
10
17552.378346
20
5754.051371
11
17560.921308
21
5759.588818
0
LINE
8
Visible
10
17560.921308
20
5759.588818
11
17569.387514
21
5765.277314
0
LINE
8
Visible
10
17569.387514
20
5765.277314
11
17577.774976
21
5771.116568
0
LINE
8
Visible
10
17577.774976
20
5771.116568
11
17586.081703
21
5777.106293
0
LINE
8
Visible
10
17586.081703
20
5777.106293
11
17594.305708
21
5783.246200
0
LINE
8
Visible
10
17594.305708
20
5783.246200
11
17602.445000
21
5789.536000
0
LINE
8
Visible
10
16276.300000
20
6535.010000
11
16283.568738
21
6521.347065
0
LINE
8
Visible
10
16283.568738
20
6521.347065
11
16291.068498
21
6507.830490
0
LINE
8
Visible
10
16291.068498
20
6507.830490
11
16298.796829
21
6494.462850
0
LINE
8
Visible
10
16298.796829
20
6494.462850
11
16306.751281
21
6481.246718
0
LINE
8
Visible
10
16306.751281
20
6481.246718
11
16314.929403
21
6468.184669
0
LINE
8
Visible
10
16314.929403
20
6468.184669
11
16323.328743
21
6455.279277
0
LINE
8
Visible
10
16323.328743
20
6455.279277
11
16331.946850
21
6442.533115
0
LINE
8
Visible
10
16331.946850
20
6442.533115
11
16340.781274
21
6429.948758
0
LINE
8
Visible
10
16340.781274
20
6429.948758
11
16349.829564
21
6417.528780
0
LINE
8
Visible
10
16349.829564
20
6417.528780
11
16359.089269
21
6405.275754
0
LINE
8
Visible
10
16359.089269
20
6405.275754
11
16368.557938
21
6393.192255
0
LINE
8
Visible
10
16368.557938
20
6393.192255
11
16378.233119
21
6381.280856
0
LINE
8
Visible
10
16378.233119
20
6381.280856
11
16388.112362
21
6369.544133
0
LINE
8
Visible
10
16388.112362
20
6369.544133
11
16398.193217
21
6357.984658
0
LINE
8
Visible
10
16398.193217
20
6357.984658
11
16408.473231
21
6346.605005
0
LINE
8
Visible
10
16408.473231
20
6346.605005
11
16418.949955
21
6335.407750
0
LINE
8
Visible
10
16418.949955
20
6335.407750
11
16429.620937
21
6324.395465
0
LINE
8
Visible
10
16429.620937
20
6324.395465
11
16440.483726
21
6313.570724
0
LINE
8
Visible
10
16440.483726
20
6313.570724
11
16451.535871
21
6302.936103
0
LINE
8
Visible
10
16451.535871
20
6302.936103
11
16462.774921
21
6292.494174
0
LINE
8
Visible
10
16462.774921
20
6292.494174
11
16474.198426
21
6282.247512
0
LINE
8
Visible
10
16474.198426
20
6282.247512
11
16485.803935
21
6272.198691
0
LINE
8
Visible
10
16485.803935
20
6272.198691
11
16497.588995
21
6262.350284
0
LINE
8
Visible
10
16497.588995
20
6262.350284
11
16509.551158
21
6252.704866
0
LINE
8
Visible
10
16509.551158
20
6252.704866
11
16521.687971
21
6243.265011
0
LINE
8
Visible
10
16521.687971
20
6243.265011
11
16533.996984
21
6234.033293
0
LINE
8
Visible
10
16533.996984
20
6234.033293
11
16546.475745
21
6225.012285
0
LINE
8
Visible
10
16546.475745
20
6225.012285
11
16559.121804
21
6216.204563
0
LINE
8
Visible
10
16559.121804
20
6216.204563
11
16571.932710
21
6207.612699
0
LINE
8
Visible
10
16571.932710
20
6207.612699
11
16584.906012
21
6199.239268
0
LINE
8
Visible
10
16584.906012
20
6199.239268
11
16598.039259
21
6191.086843
0
LINE
8
Visible
10
16598.039259
20
6191.086843
11
16611.330000
21
6183.158000
0
LINE
8
Visible
10
16276.300000
20
6535.010000
11
16268.631255
21
6526.639181
0
LINE
8
Visible
10
16268.631255
20
6526.639181
11
16261.134632
21
6518.134981
0
LINE
8
Visible
10
16261.134632
20
6518.134981
11
16253.811453
21
6509.500162
0
LINE
8
Visible
10
16253.811453
20
6509.500162
11
16246.663041
21
6500.737484
0
LINE
8
Visible
10
16246.663041
20
6500.737484
11
16239.690718
21
6491.849709
0
LINE
8
Visible
10
16239.690718
20
6491.849709
11
16232.895807
21
6482.839596
0
LINE
8
Visible
10
16232.895807
20
6482.839596
11
16226.279632
21
6473.709907
0
LINE
8
Visible
10
16226.279632
20
6473.709907
11
16219.843513
21
6464.463403
0
LINE
8
Visible
10
16219.843513
20
6464.463403
11
16213.588776
21
6455.102845
0
LINE
8
Visible
10
16213.588776
20
6455.102845
11
16207.516741
21
6445.630993
0
LINE
8
Visible
10
16207.516741
20
6445.630993
11
16201.628732
21
6436.050609
0
LINE
8
Visible
10
16201.628732
20
6436.050609
11
16195.926071
21
6426.364453
0
LINE
8
Visible
10
16195.926071
20
6426.364453
11
16190.410081
21
6416.575286
0
LINE
8
Visible
10
16190.410081
20
6416.575286
11
16185.082086
21
6406.685869
0
LINE
8
Visible
10
16185.082086
20
6406.685869
11
16179.943407
21
6396.698963
0
LINE
8
Visible
10
16179.943407
20
6396.698963
11
16174.995367
21
6386.617329
0
LINE
8
Visible
10
16174.995367
20
6386.617329
11
16170.239289
21
6376.443727
0
LINE
8
Visible
10
16170.239289
20
6376.443727
11
16165.676496
21
6366.180919
0
LINE
8
Visible
10
16165.676496
20
6366.180919
11
16161.308310
21
6355.831665
0
LINE
8
Visible
10
16161.308310
20
6355.831665
11
16157.136054
21
6345.398726
0
LINE
8
Visible
10
16157.136054
20
6345.398726
11
16153.161051
21
6334.884863
0
LINE
8
Visible
10
16153.161051
20
6334.884863
11
16149.384624
21
6324.292837
0
LINE
8
Visible
10
16149.384624
20
6324.292837
11
16145.808095
21
6313.625409
0
LINE
8
Visible
10
16145.808095
20
6313.625409
11
16142.432787
21
6302.885340
0
LINE
8
Visible
10
16142.432787
20
6302.885340
11
16139.260022
21
6292.075390
0
LINE
8
Visible
10
16139.260022
20
6292.075390
11
16136.291124
21
6281.198320
0
LINE
8
Visible
10
16136.291124
20
6281.198320
11
16133.527415
21
6270.256892
0
LINE
8
Visible
10
16133.527415
20
6270.256892
11
16130.970217
21
6259.253866
0
LINE
8
Visible
10
16130.970217
20
6259.253866
11
16128.620855
21
6248.192003
0
LINE
8
Visible
10
16128.620855
20
6248.192003
11
16126.480649
21
6237.074064
0
LINE
8
Visible
10
16126.480649
20
6237.074064
11
16124.550923
21
6225.902809
0
LINE
8
Visible
10
16124.550923
20
6225.902809
11
16122.833000
21
6214.681000
0
LINE
8
Visible
10
16964.500000
20
6871.080000
11
16954.925134
21
6874.538975
0
LINE
8
Visible
10
16954.925134
20
6874.538975
11
16945.316148
21
6877.835729
0
LINE
8
Visible
10
16945.316148
20
6877.835729
11
16935.674909
21
6880.970552
0
LINE
8
Visible
10
16935.674909
20
6880.970552
11
16926.003285
21
6883.943733
0
LINE
8
Visible
10
16926.003285
20
6883.943733
11
16916.303142
21
6886.755561
0
LINE
8
Visible
10
16916.303142
20
6886.755561
11
16906.576347
21
6889.406327
0
LINE
8
Visible
10
16906.576347
20
6889.406327
11
16896.824768
21
6891.896320
0
LINE
8
Visible
10
16896.824768
20
6891.896320
11
16887.050271
21
6894.225828
0
LINE
8
Visible
10
16887.050271
20
6894.225828
11
16877.254724
21
6896.395142
0
LINE
8
Visible
10
16877.254724
20
6896.395142
11
16867.439992
21
6898.404550
0
LINE
8
Visible
10
16867.439992
20
6898.404550
11
16857.607945
21
6900.254343
0
LINE
8
Visible
10
16857.607945
20
6900.254343
11
16847.760447
21
6901.944809
0
LINE
8
Visible
10
16847.760447
20
6901.944809
11
16837.899367
21
6903.476239
0
LINE
8
Visible
10
16837.899367
20
6903.476239
11
16828.026571
21
6904.848921
0
LINE
8
Visible
10
16828.026571
20
6904.848921
11
16818.143927
21
6906.063145
0
LINE
8
Visible
10
16818.143927
20
6906.063145
11
16808.253301
21
6907.119201
0
LINE
8
Visible
10
16808.253301
20
6907.119201
11
16798.356561
21
6908.017377
0
LINE
8
Visible
10
16798.356561
20
6908.017377
11
16788.455573
21
6908.757964
0
LINE
8
Visible
10
16788.455573
20
6908.757964
11
16778.552204
21
6909.341251
0
LINE
8
Visible
10
16778.552204
20
6909.341251
11
16768.648322
21
6909.767526
0
LINE
8
Visible
10
16768.648322
20
6909.767526
11
16758.745793
21
6910.037081
0
LINE
8
Visible
10
16758.745793
20
6910.037081
11
16748.846485
21
6910.150203
0
LINE
8
Visible
10
16748.846485
20
6910.150203
11
16738.952264
21
6910.107183
0
LINE
8
Visible
10
16738.952264
20
6910.107183
11
16729.064997
21
6909.908310
0
LINE
8
Visible
10
16729.064997
20
6909.908310
11
16719.186552
21
6909.553873
0
LINE
8
Visible
10
16719.186552
20
6909.553873
11
16709.318796
21
6909.044162
0
LINE
8
Visible
10
16709.318796
20
6909.044162
11
16699.463595
21
6908.379466
0
LINE
8
Visible
10
16699.463595
20
6908.379466
11
16689.622816
21
6907.560075
0
LINE
8
Visible
10
16689.622816
20
6907.560075
11
16679.798327
21
6906.586278
0
LINE
8
Visible
10
16679.798327
20
6906.586278
11
16669.991995
21
6905.458365
0
LINE
8
Visible
10
16669.991995
20
6905.458365
11
16660.205686
21
6904.176624
0
LINE
8
Visible
10
16660.205686
20
6904.176624
11
16650.441267
21
6902.741346
0
LINE
8
Visible
10
16650.441267
20
6902.741346
11
16640.700606
21
6901.152820
0
LINE
8
Visible
10
16640.700606
20
6901.152820
11
16630.985570
21
6899.411335
0
LINE
8
Visible
10
16630.985570
20
6899.411335
11
16621.298025
21
6897.517181
0
LINE
8
Visible
10
16621.298025
20
6897.517181
11
16611.639839
21
6895.470646
0
LINE
8
Visible
10
16611.639839
20
6895.470646
11
16602.012878
21
6893.272022
0
LINE
8
Visible
10
16602.012878
20
6893.272022
11
16592.419010
21
6890.921596
0
LINE
8
Visible
10
16592.419010
20
6890.921596
11
16582.860101
21
6888.419659
0
LINE
8
Visible
10
16582.860101
20
6888.419659
11
16573.338019
21
6885.766500
0
LINE
8
Visible
10
16573.338019
20
6885.766500
11
16563.854631
21
6882.962409
0
LINE
8
Visible
10
16563.854631
20
6882.962409
11
16554.411803
21
6880.007674
0
LINE
8
Visible
10
16554.411803
20
6880.007674
11
16545.011402
21
6876.902585
0
LINE
8
Visible
10
16545.011402
20
6876.902585
11
16535.655297
21
6873.647432
0
LINE
8
Visible
10
16535.655297
20
6873.647432
11
16526.345353
21
6870.242503
0
LINE
8
Visible
10
16526.345353
20
6870.242503
11
16517.083437
21
6866.688090
0
LINE
8
Visible
10
16517.083437
20
6866.688090
11
16507.871417
21
6862.984480
0
LINE
8
Visible
10
16507.871417
20
6862.984480
11
16498.711160
21
6859.131964
0
LINE
8
Visible
10
16498.711160
20
6859.131964
11
16489.604533
21
6855.130830
0
LINE
8
Visible
10
16489.604533
20
6855.130830
11
16480.553402
21
6850.981369
0
LINE
8
Visible
10
16480.553402
20
6850.981369
11
16471.559635
21
6846.683870
0
LINE
8
Visible
10
16471.559635
20
6846.683870
11
16462.625098
21
6842.238621
0
LINE
8
Visible
10
16462.625098
20
6842.238621
11
16453.751659
21
6837.645914
0
LINE
8
Visible
10
16453.751659
20
6837.645914
11
16444.941185
21
6832.906036
0
LINE
8
Visible
10
16444.941185
20
6832.906036
11
16436.195542
21
6828.019277
0
LINE
8
Visible
10
16436.195542
20
6828.019277
11
16427.516598
21
6822.985928
0
LINE
8
Visible
10
16427.516598
20
6822.985928
11
16418.906220
21
6817.806276
0
LINE
8
Visible
10
16418.906220
20
6817.806276
11
16410.366275
21
6812.480613
0
LINE
8
Visible
10
16410.366275
20
6812.480613
11
16401.898629
21
6807.009227
0
LINE
8
Visible
10
16401.898629
20
6807.009227
11
16393.505150
21
6801.392407
0
LINE
8
Visible
10
16393.505150
20
6801.392407
11
16385.187705
21
6795.630443
0
LINE
8
Visible
10
16385.187705
20
6795.630443
11
16376.948160
21
6789.723625
0
LINE
8
Visible
10
16376.948160
20
6789.723625
11
16368.788383
21
6783.672242
0
LINE
8
Visible
10
16368.788383
20
6783.672242
11
16360.710241
21
6777.476583
0
LINE
8
Visible
10
16360.710241
20
6777.476583
11
16352.733315
21
6771.151141
0
LINE
8
Visible
10
16352.733315
20
6771.151141
11
16344.876430
21
6764.711377
0
LINE
8
Visible
10
16344.876430
20
6764.711377
11
16337.140323
21
6758.159031
0
LINE
8
Visible
10
16337.140323
20
6758.159031
11
16329.525729
21
6751.495843
0
LINE
8
Visible
10
16329.525729
20
6751.495843
11
16322.033383
21
6744.723553
0
LINE
8
Visible
10
16322.033383
20
6744.723553
11
16314.664022
21
6737.843901
0
LINE
8
Visible
10
16314.664022
20
6737.843901
11
16307.418380
21
6730.858628
0
LINE
8
Visible
10
16307.418380
20
6730.858628
11
16300.297193
21
6723.769475
0
LINE
8
Visible
10
16300.297193
20
6723.769475
11
16293.301197
21
6716.578180
0
LINE
8
Visible
10
16293.301197
20
6716.578180
11
16286.431128
21
6709.286485
0
LINE
8
Visible
10
16286.431128
20
6709.286485
11
16279.687720
21
6701.896130
0
LINE
8
Visible
10
16279.687720
20
6701.896130
11
16273.071709
21
6694.408855
0
LINE
8
Visible
10
16273.071709
20
6694.408855
11
16266.583831
21
6686.826401
0
LINE
8
Visible
10
16266.583831
20
6686.826401
11
16260.224822
21
6679.150506
0
LINE
8
Visible
10
16260.224822
20
6679.150506
11
16253.995417
21
6671.382913
0
LINE
8
Visible
10
16253.995417
20
6671.382913
11
16247.896351
21
6663.525360
0
LINE
8
Visible
10
16247.896351
20
6663.525360
11
16241.928360
21
6655.579589
0
LINE
8
Visible
10
16241.928360
20
6655.579589
11
16236.092180
21
6647.547340
0
LINE
8
Visible
10
16236.092180
20
6647.547340
11
16230.388546
21
6639.430352
0
LINE
8
Visible
10
16230.388546
20
6639.430352
11
16224.818193
21
6631.230366
0
LINE
8
Visible
10
16224.818193
20
6631.230366
11
16219.381858
21
6622.949122
0
LINE
8
Visible
10
16219.381858
20
6622.949122
11
16214.080276
21
6614.588361
0
LINE
8
Visible
10
16214.080276
20
6614.588361
11
16208.914181
21
6606.149823
0
LINE
8
Visible
10
16208.914181
20
6606.149823
11
16203.884311
21
6597.635248
0
LINE
8
Visible
10
16203.884311
20
6597.635248
11
16198.991400
21
6589.046376
0
LINE
8
Visible
10
16198.991400
20
6589.046376
11
16194.236183
21
6580.384948
0
LINE
8
Visible
10
16194.236183
20
6580.384948
11
16189.619397
21
6571.652703
0
LINE
8
Visible
10
16189.619397
20
6571.652703
11
16185.141778
21
6562.851383
0
LINE
8
Visible
10
16185.141778
20
6562.851383
11
16180.804059
21
6553.982726
0
LINE
8
Visible
10
16180.804059
20
6553.982726
11
16176.606978
21
6545.048475
0
LINE
8
Visible
10
16176.606978
20
6545.048475
11
16172.551269
21
6536.050368
0
LINE
8
Visible
10
16172.551269
20
6536.050368
11
16168.637668
21
6526.990146
0
LINE
8
Visible
10
16168.637668
20
6526.990146
11
16164.866911
21
6517.869549
0
LINE
8
Visible
10
16164.866911
20
6517.869549
11
16161.239733
21
6508.690318
0
LINE
8
Visible
10
16161.239733
20
6508.690318
11
16157.756870
21
6499.454193
0
LINE
8
Visible
10
16157.756870
20
6499.454193
11
16154.419058
21
6490.162913
0
LINE
8
Visible
10
16154.419058
20
6490.162913
11
16151.227031
21
6480.818220
0
LINE
8
Visible
10
16151.227031
20
6480.818220
11
16148.181525
21
6471.421854
0
LINE
8
Visible
10
16148.181525
20
6471.421854
11
16145.283276
21
6461.975554
0
LINE
8
Visible
10
16145.283276
20
6461.975554
11
16142.533020
21
6452.481062
0
LINE
8
Visible
10
16142.533020
20
6452.481062
11
16139.931492
21
6442.940116
0
LINE
8
Visible
10
16139.931492
20
6442.940116
11
16137.479427
21
6433.354459
0
LINE
8
Visible
10
16137.479427
20
6433.354459
11
16135.177561
21
6423.725829
0
LINE
8
Visible
10
16135.177561
20
6423.725829
11
16133.026630
21
6414.055967
0
LINE
8
Visible
10
16133.026630
20
6414.055967
11
16131.027369
21
6404.346613
0
LINE
8
Visible
10
16131.027369
20
6404.346613
11
16129.180513
21
6394.599508
0
LINE
8
Visible
10
16129.180513
20
6394.599508
11
16127.486799
21
6384.816391
0
LINE
8
Visible
10
16127.486799
20
6384.816391
11
16125.946962
21
6374.999004
0
LINE
8
Visible
10
16125.946962
20
6374.999004
11
16124.561737
21
6365.149086
0
LINE
8
Visible
10
16124.561737
20
6365.149086
11
16123.331859
21
6355.268377
0
LINE
8
Visible
10
16123.331859
20
6355.268377
11
16122.258065
21
6345.358619
0
LINE
8
Visible
10
16122.258065
20
6345.358619
11
16121.341090
21
6335.421550
0
LINE
8
Visible
10
16121.341090
20
6335.421550
11
16120.581670
21
6325.458912
0
LINE
8
Visible
10
16120.581670
20
6325.458912
11
16119.980539
21
6315.472444
0
LINE
8
Visible
10
16119.980539
20
6315.472444
11
16119.538434
21
6305.463887
0
LINE
8
Visible
10
16119.538434
20
6305.463887
11
16119.256090
21
6295.434981
0
LINE
8
Visible
10
16119.256090
20
6295.434981
11
16119.134242
21
6285.387466
0
LINE
8
Visible
10
16119.134242
20
6285.387466
11
16119.173627
21
6275.323083
0
LINE
8
Visible
10
16119.173627
20
6275.323083
11
16119.374979
21
6265.243571
0
LINE
8
Visible
10
16119.374979
20
6265.243571
11
16119.739035
21
6255.150672
0
LINE
8
Visible
10
16119.739035
20
6255.150672
11
16120.266529
21
6245.046125
0
LINE
8
Visible
10
16120.266529
20
6245.046125
11
16120.958198
21
6234.931670
0
LINE
8
Visible
10
16120.958198
20
6234.931670
11
16121.814776
21
6224.809049
0
LINE
8
Visible
10
16121.814776
20
6224.809049
11
16122.837000
21
6214.680000
0
LINE
8
Visible
10
13776.900000
20
5640.630000
11
14004.484000
21
5461.983000
0
LINE
8
Visible
10
14046.900000
20
5980.110000
11
13776.926000
21
5640.625000
0
LINE
8
Visible
10
13717.700000
20
6388.090000
11
14046.912000
21
5980.110000
0
LINE
8
Visible
10
14046.200000
20
6806.550000
11
13717.700000
21
6388.090000
0
LINE
8
Visible
10
13776.400000
20
7140.870000
11
14046.148000
21
6806.550000
0
LINE
8
Visible
10
14004.500000
20
7319.090000
11
13776.436000
21
7140.867000
0
LINE
8
Visible
10
14228.700000
20
7032.210000
11
14004.531000
21
7319.089000
0
LINE
8
Visible
10
14559.800000
20
7453.990000
11
14228.669000
21
7032.209000
0
LINE
8
Visible
10
14900.100000
20
7032.210000
11
14559.768000
21
7453.991000
0
LINE
8
Visible
10
15125.300000
20
7319.090000
11
14900.087000
21
7032.211000
0
LINE
8
Visible
10
15352.400000
20
7140.870000
11
15125.381000
21
7319.093000
0
LINE
8
Visible
10
15073.500000
20
6800.820000
11
15352.335000
21
7140.869000
0
LINE
8
Visible
10
15406.500000
20
6388.090000
11
15073.506000
21
6800.811000
0
LINE
8
Visible
10
15085.700000
20
5979.410000
11
15406.500000
21
6388.090000
0
LINE
8
Visible
10
15352.400000
20
5640.770000
11
15085.728000
21
5979.408000
0
LINE
8
Visible
10
15125.300000
20
5461.980000
11
15352.319000
21
5640.768000
0
LINE
8
Visible
10
14899.900000
20
5748.270000
11
15125.367000
21
5461.984000
0
LINE
8
Visible
10
14559.800000
20
5338.620000
11
14899.878000
21
5748.265000
0
LINE
8
Visible
10
14229.300000
20
5748.270000
11
14559.838000
21
5338.625000
0
LINE
8
Visible
10
14004.500000
20
5461.980000
11
14229.262000
21
5748.266000
0
LINE
8
Visible
10
12797.600000
20
5779.940000
11
12786.529245
21
5782.658655
0
LINE
8
Visible
10
12786.529245
20
5782.658655
11
12775.439206
21
5785.207021
0
LINE
8
Visible
10
12775.439206
20
5785.207021
11
12764.331658
21
5787.585501
0
LINE
8
Visible
10
12764.331658
20
5787.585501
11
12753.208377
21
5789.794497
0
LINE
8
Visible
10
12753.208377
20
5789.794497
11
12742.071138
21
5791.834411
0
LINE
8
Visible
10
12742.071138
20
5791.834411
11
12730.921717
21
5793.705645
0
LINE
8
Visible
10
12730.921717
20
5793.705645
11
12719.761888
21
5795.408602
0
LINE
8
Visible
10
12719.761888
20
5795.408602
11
12708.593426
21
5796.943683
0
LINE
8
Visible
10
12708.593426
20
5796.943683
11
12697.418108
21
5798.311291
0
LINE
8
Visible
10
12697.418108
20
5798.311291
11
12686.237709
21
5799.511828
0
LINE
8
Visible
10
12686.237709
20
5799.511828
11
12675.054004
21
5800.545696
0
LINE
8
Visible
10
12675.054004
20
5800.545696
11
12663.868767
21
5801.413297
0
LINE
8
Visible
10
12663.868767
20
5801.413297
11
12652.683775
21
5802.115034
0
LINE
8
Visible
10
12652.683775
20
5802.115034
11
12641.500804
21
5802.651308
0
LINE
8
Visible
10
12641.500804
20
5802.651308
11
12630.321627
21
5803.022521
0
LINE
8
Visible
10
12630.321627
20
5803.022521
11
12619.148020
21
5803.229077
0
LINE
8
Visible
10
12619.148020
20
5803.229077
11
12607.981760
21
5803.271376
0
LINE
8
Visible
10
12607.981760
20
5803.271376
11
12596.824620
21
5803.149821
0
LINE
8
Visible
10
12596.824620
20
5803.149821
11
12585.678377
21
5802.864815
0
LINE
8
Visible
10
12585.678377
20
5802.864815
11
12574.544806
21
5802.416759
0
LINE
8
Visible
10
12574.544806
20
5802.416759
11
12563.425682
21
5801.806056
0
LINE
8
Visible
10
12563.425682
20
5801.806056
11
12552.322780
21
5801.033108
0
LINE
8
Visible
10
12552.322780
20
5801.033108
11
12541.237876
21
5800.098316
0
LINE
8
Visible
10
12541.237876
20
5800.098316
11
12530.172744
21
5799.002084
0
LINE
8
Visible
10
12530.172744
20
5799.002084
11
12519.129161
21
5797.744813
0
LINE
8
Visible
10
12519.129161
20
5797.744813
11
12508.108902
21
5796.326905
0
LINE
8
Visible
10
12508.108902
20
5796.326905
11
12497.113742
21
5794.748763
0
LINE
8
Visible
10
12497.113742
20
5794.748763
11
12486.145456
21
5793.010788
0
LINE
8
Visible
10
12486.145456
20
5793.010788
11
12475.205819
21
5791.113384
0
LINE
8
Visible
10
12475.205819
20
5791.113384
11
12464.296608
21
5789.056951
0
LINE
8
Visible
10
12464.296608
20
5789.056951
11
12453.419597
21
5786.841893
0
LINE
8
Visible
10
12453.419597
20
5786.841893
11
12442.576561
21
5784.468610
0
LINE
8
Visible
10
12442.576561
20
5784.468610
11
12431.769276
21
5781.937507
0
LINE
8
Visible
10
12431.769276
20
5781.937507
11
12420.999517
21
5779.248984
0
LINE
8
Visible
10
12420.999517
20
5779.248984
11
12410.269060
21
5776.403444
0
LINE
8
Visible
10
12410.269060
20
5776.403444
11
12399.579679
21
5773.401289
0
LINE
8
Visible
10
12399.579679
20
5773.401289
11
12388.933151
21
5770.242920
0
LINE
8
Visible
10
12388.933151
20
5770.242920
11
12378.331250
21
5766.928742
0
LINE
8
Visible
10
12378.331250
20
5766.928742
11
12367.775752
21
5763.459154
0
LINE
8
Visible
10
12367.775752
20
5763.459154
11
12357.268432
21
5759.834561
0
LINE
8
Visible
10
12357.268432
20
5759.834561
11
12346.811065
21
5756.055363
0
LINE
8
Visible
10
12346.811065
20
5756.055363
11
12336.405428
21
5752.121963
0
LINE
8
Visible
10
12336.405428
20
5752.121963
11
12326.053294
21
5748.034763
0
LINE
8
Visible
10
12326.053294
20
5748.034763
11
12315.756439
21
5743.794165
0
LINE
8
Visible
10
12315.756439
20
5743.794165
11
12305.516639
21
5739.400571
0
LINE
8
Visible
10
12305.516639
20
5739.400571
11
12295.335669
21
5734.854385
0
LINE
8
Visible
10
12295.335669
20
5734.854385
11
12285.215305
21
5730.156006
0
LINE
8
Visible
10
12285.215305
20
5730.156006
11
12275.157321
21
5725.305839
0
LINE
8
Visible
10
12275.157321
20
5725.305839
11
12265.163493
21
5720.304285
0
LINE
8
Visible
10
12265.163493
20
5720.304285
11
12255.235596
21
5715.151746
0
LINE
8
Visible
10
12255.235596
20
5715.151746
11
12245.375406
21
5709.848624
0
LINE
8
Visible
10
12245.375406
20
5709.848624
11
12235.584697
21
5704.395322
0
LINE
8
Visible
10
12235.584697
20
5704.395322
11
12225.865246
21
5698.792241
0
LINE
8
Visible
10
12225.865246
20
5698.792241
11
12216.218828
21
5693.039784
0
LINE
8
Visible
10
12216.218828
20
5693.039784
11
12206.647217
21
5687.138353
0
LINE
8
Visible
10
12206.647217
20
5687.138353
11
12197.152189
21
5681.088351
0
LINE
8
Visible
10
12197.152189
20
5681.088351
11
12187.735520
21
5674.890178
0
LINE
8
Visible
10
12187.735520
20
5674.890178
11
12178.398985
21
5668.544238
0
LINE
8
Visible
10
12178.398985
20
5668.544238
11
12169.144359
21
5662.050933
0
LINE
8
Visible
10
12169.144359
20
5662.050933
11
12159.973417
21
5655.410664
0
LINE
8
Visible
10
12159.973417
20
5655.410664
11
12150.887935
21
5648.623834
0
LINE
8
Visible
10
12150.887935
20
5648.623834
11
12141.889688
21
5641.690846
0
LINE
8
Visible
10
12141.889688
20
5641.690846
11
12132.980451
21
5634.612100
0
LINE
8
Visible
10
12132.980451
20
5634.612100
11
12124.162000
21
5627.388000
0
LINE
8
Visible
10
12124.100000
20
5627.390000
11
12115.463827
21
5634.569407
0
LINE
8
Visible
10
12115.463827
20
5634.569407
11
12106.736612
21
5641.605013
0
LINE
8
Visible
10
12106.736612
20
5641.605013
11
12097.920128
21
5648.496409
0
LINE
8
Visible
10
12097.920128
20
5648.496409
11
12089.016151
21
5655.243186
0
LINE
8
Visible
10
12089.016151
20
5655.243186
11
12080.026454
21
5661.844936
0
LINE
8
Visible
10
12080.026454
20
5661.844936
11
12070.952812
21
5668.301250
0
LINE
8
Visible
10
12070.952812
20
5668.301250
11
12061.797000
21
5674.611719
0
LINE
8
Visible
10
12061.797000
20
5674.611719
11
12052.560790
21
5680.775936
0
LINE
8
Visible
10
12052.560790
20
5680.775936
11
12043.245959
21
5686.793490
0
LINE
8
Visible
10
12043.245959
20
5686.793490
11
12033.854279
21
5692.663973
0
LINE
8
Visible
10
12033.854279
20
5692.663973
11
12024.387526
21
5698.386978
0
LINE
8
Visible
10
12024.387526
20
5698.386978
11
12014.847474
21
5703.962094
0
LINE
8
Visible
10
12014.847474
20
5703.962094
11
12005.235896
21
5709.388914
0
LINE
8
Visible
10
12005.235896
20
5709.388914
11
11995.554568
21
5714.667029
0
LINE
8
Visible
10
11995.554568
20
5714.667029
11
11985.805263
21
5719.796029
0
LINE
8
Visible
10
11985.805263
20
5719.796029
11
11975.989756
21
5724.775507
0
LINE
8
Visible
10
11975.989756
20
5724.775507
11
11966.109821
21
5729.605054
0
LINE
8
Visible
10
11966.109821
20
5729.605054
11
11956.167233
21
5734.284261
0
LINE
8
Visible
10
11956.167233
20
5734.284261
11
11946.163765
21
5738.812719
0
LINE
8
Visible
10
11946.163765
20
5738.812719
11
11936.101193
21
5743.190020
0
LINE
8
Visible
10
11936.101193
20
5743.190020
11
11925.981290
21
5747.415755
0
LINE
8
Visible
10
11925.981290
20
5747.415755
11
11915.805830
21
5751.489515
0
LINE
8
Visible
10
11915.805830
20
5751.489515
11
11905.576589
21
5755.410893
0
LINE
8
Visible
10
11905.576589
20
5755.410893
11
11895.295340
21
5759.179478
0
LINE
8
Visible
10
11895.295340
20
5759.179478
11
11884.963857
21
5762.794862
0
LINE
8
Visible
10
11884.963857
20
5762.794862
11
11874.583915
21
5766.256638
0
LINE
8
Visible
10
11874.583915
20
5766.256638
11
11864.157288
21
5769.564395
0
LINE
8
Visible
10
11864.157288
20
5769.564395
11
11853.685751
21
5772.717726
0
LINE
8
Visible
10
11853.685751
20
5772.717726
11
11843.171078
21
5775.716221
0
LINE
8
Visible
10
11843.171078
20
5775.716221
11
11832.615042
21
5778.559473
0
LINE
8
Visible
10
11832.615042
20
5778.559473
11
11822.019419
21
5781.247072
0
LINE
8
Visible
10
11822.019419
20
5781.247072
11
11811.385983
21
5783.778610
0
LINE
8
Visible
10
11811.385983
20
5783.778610
11
11800.716508
21
5786.153677
0
LINE
8
Visible
10
11800.716508
20
5786.153677
11
11790.012768
21
5788.371866
0
LINE
8
Visible
10
11790.012768
20
5788.371866
11
11779.276537
21
5790.432768
0
LINE
8
Visible
10
11779.276537
20
5790.432768
11
11768.509590
21
5792.335974
0
LINE
8
Visible
10
11768.509590
20
5792.335974
11
11757.713702
21
5794.081076
0
LINE
8
Visible
10
11757.713702
20
5794.081076
11
11746.890646
21
5795.667664
0
LINE
8
Visible
10
11746.890646
20
5795.667664
11
11736.042197
21
5797.095330
0
LINE
8
Visible
10
11736.042197
20
5797.095330
11
11725.170129
21
5798.363665
0
LINE
8
Visible
10
11725.170129
20
5798.363665
11
11714.276216
21
5799.472261
0
LINE
8
Visible
10
11714.276216
20
5799.472261
11
11703.362233
21
5800.420710
0
LINE
8
Visible
10
11703.362233
20
5800.420710
11
11692.429954
21
5801.208601
0
LINE
8
Visible
10
11692.429954
20
5801.208601
11
11681.481153
21
5801.835528
0
LINE
8
Visible
10
11681.481153
20
5801.835528
11
11670.517605
21
5802.301080
0
LINE
8
Visible
10
11670.517605
20
5802.301080
11
11659.541083
21
5802.604850
0
LINE
8
Visible
10
11659.541083
20
5802.604850
11
11648.553363
21
5802.746428
0
LINE
8
Visible
10
11648.553363
20
5802.746428
11
11637.556219
21
5802.725407
0
LINE
8
Visible
10
11637.556219
20
5802.725407
11
11626.551424
21
5802.541377
0
LINE
8
Visible
10
11626.551424
20
5802.541377
11
11615.540753
21
5802.193930
0
LINE
8
Visible
10
11615.540753
20
5802.193930
11
11604.525980
21
5801.682657
0
LINE
8
Visible
10
11604.525980
20
5801.682657
11
11593.508881
21
5801.007149
0
LINE
8
Visible
10
11593.508881
20
5801.007149
11
11582.491228
21
5800.166998
0
LINE
8
Visible
10
11582.491228
20
5800.166998
11
11571.474797
21
5799.161795
0
LINE
8
Visible
10
11571.474797
20
5799.161795
11
11560.461361
21
5797.991131
0
LINE
8
Visible
10
11560.461361
20
5797.991131
11
11549.452695
21
5796.654598
0
LINE
8
Visible
10
11549.452695
20
5796.654598
11
11538.450573
21
5795.151787
0
LINE
8
Visible
10
11538.450573
20
5795.151787
11
11527.456770
21
5793.482289
0
LINE
8
Visible
10
11527.456770
20
5793.482289
11
11516.473060
21
5791.645697
0
LINE
8
Visible
10
11516.473060
20
5791.645697
11
11505.501216
21
5789.641600
0
LINE
8
Visible
10
11505.501216
20
5789.641600
11
11494.543014
21
5787.469590
0
LINE
8
Visible
10
11494.543014
20
5787.469590
11
11483.600228
21
5785.129260
0
LINE
8
Visible
10
11483.600228
20
5785.129260
11
11472.674632
21
5782.620199
0
LINE
8
Visible
10
11472.674632
20
5782.620199
11
11461.768000
21
5779.942000
0
LINE
8
Visible
10
11461.800000
20
5779.930000
11
11512.938600
21
6293.856000
0
LINE
8
Visible
10
11512.900000
20
6293.870000
11
11517.802513
21
6288.991895
0
LINE
8
Visible
10
11517.802513
20
6288.991895
11
11522.796247
21
6284.258081
0
LINE
8
Visible
10
11522.796247
20
6284.258081
11
11527.878463
21
6279.668677
0
LINE
8
Visible
10
11527.878463
20
6279.668677
11
11533.046424
21
6275.223799
0
LINE
8
Visible
10
11533.046424
20
6275.223799
11
11538.297390
21
6270.923565
0
LINE
8
Visible
10
11538.297390
20
6270.923565
11
11543.628624
21
6266.768091
0
LINE
8
Visible
10
11543.628624
20
6266.768091
11
11549.037388
21
6262.757496
0
LINE
8
Visible
10
11549.037388
20
6262.757496
11
11554.520942
21
6258.891895
0
LINE
8
Visible
10
11554.520942
20
6258.891895
11
11560.076549
21
6255.171407
0
LINE
8
Visible
10
11560.076549
20
6255.171407
11
11565.701470
21
6251.596149
0
LINE
8
Visible
10
11565.701470
20
6251.596149
11
11571.392968
21
6248.166238
0
LINE
8
Visible
10
11571.392968
20
6248.166238
11
11577.148303
21
6244.881791
0
LINE
8
Visible
10
11577.148303
20
6244.881791
11
11582.964737
21
6241.742925
0
LINE
8
Visible
10
11582.964737
20
6241.742925
11
11588.839533
21
6238.749758
0
LINE
8
Visible
10
11588.839533
20
6238.749758
11
11594.769951
21
6235.902407
0
LINE
8
Visible
10
11594.769951
20
6235.902407
11
11600.753254
21
6233.200989
0
LINE
8
Visible
10
11600.753254
20
6233.200989
11
11606.786703
21
6230.645622
0
LINE
8
Visible
10
11606.786703
20
6230.645622
11
11612.867560
21
6228.236422
0
LINE
8
Visible
10
11612.867560
20
6228.236422
11
11618.993086
21
6225.973506
0
LINE
8
Visible
10
11618.993086
20
6225.973506
11
11625.160543
21
6223.856993
0
LINE
8
Visible
10
11625.160543
20
6223.856993
11
11631.367194
21
6221.887000
0
LINE
8
Visible
10
11631.367194
20
6221.887000
11
11637.610299
21
6220.063642
0
LINE
8
Visible
10
11637.610299
20
6220.063642
11
11643.887120
21
6218.387039
0
LINE
8
Visible
10
11643.887120
20
6218.387039
11
11650.194920
21
6216.857306
0
LINE
8
Visible
10
11650.194920
20
6216.857306
11
11662.892499
21
6214.238924
0
LINE
8
Visible
10
11662.892499
20
6214.238924
11
11675.681130
21
6212.209432
0
LINE
8
Visible
10
11675.681130
20
6212.209432
11
11688.538907
21
6210.769768
0
LINE
8
Visible
10
11688.538907
20
6210.769768
11
11701.443924
21
6209.920872
0
LINE
8
Visible
10
11701.443924
20
6209.920872
11
11714.374272
21
6209.663680
0
LINE
8
Visible
10
11714.374272
20
6209.663680
11
11727.308047
21
6209.999130
0
LINE
8
Visible
10
11727.308047
20
6209.999130
11
11740.223342
21
6210.928160
0
LINE
8
Visible
10
11740.223342
20
6210.928160
11
11753.098249
21
6212.451709
0
LINE
8
Visible
10
11753.098249
20
6212.451709
11
11759.513712
21
6213.436721
0
LINE
8
Visible
10
11759.513712
20
6213.436721
11
11765.910864
21
6214.570714
0
LINE
8
Visible
10
11765.910864
20
6214.570714
11
11772.286965
21
6215.853805
0
LINE
8
Visible
10
11772.286965
20
6215.853805
11
11778.639278
21
6217.286113
0
LINE
8
Visible
10
11778.639278
20
6217.286113
11
11784.965065
21
6218.867753
0
LINE
8
Visible
10
11784.965065
20
6218.867753
11
11791.261586
21
6220.598843
0
LINE
8
Visible
10
11791.261586
20
6220.598843
11
11797.526105
21
6222.479501
0
LINE
8
Visible
10
11797.526105
20
6222.479501
11
11803.755881
21
6224.509843
0
LINE
8
Visible
10
11803.755881
20
6224.509843
11
11809.948178
21
6226.689988
0
LINE
8
Visible
10
11809.948178
20
6226.689988
11
11816.100257
21
6229.020051
0
LINE
8
Visible
10
11816.100257
20
6229.020051
11
11822.209380
21
6231.500151
0
LINE
8
Visible
10
11822.209380
20
6231.500151
11
11828.272807
21
6234.130404
0
LINE
8
Visible
10
11828.272807
20
6234.130404
11
11834.287802
21
6236.910929
0
LINE
8
Visible
10
11834.287802
20
6236.910929
11
11840.251625
21
6239.841841
0
LINE
8
Visible
10
11840.251625
20
6239.841841
11
11846.161538
21
6242.923259
0
LINE
8
Visible
10
11846.161538
20
6242.923259
11
11852.014804
21
6246.155299
0
LINE
8
Visible
10
11852.014804
20
6246.155299
11
11857.808683
21
6249.538079
0
LINE
8
Visible
10
11857.808683
20
6249.538079
11
11863.540437
21
6253.071716
0
LINE
8
Visible
10
11863.540437
20
6253.071716
11
11869.207328
21
6256.756327
0
LINE
8
Visible
10
11869.207328
20
6256.756327
11
11874.806619
21
6260.592030
0
LINE
8
Visible
10
11874.806619
20
6260.592030
11
11880.335569
21
6264.578941
0
LINE
8
Visible
10
11880.335569
20
6264.578941
11
11885.791442
21
6268.717178
0
LINE
8
Visible
10
11885.791442
20
6268.717178
11
11891.171498
21
6273.006859
0
LINE
8
Visible
10
11891.171498
20
6273.006859
11
11896.473000
21
6277.448100
0
LINE
8
Visible
10
11896.500000
20
6277.450000
11
11901.636360
21
6293.560720
0
LINE
8
Visible
10
11901.636360
20
6293.560720
11
11906.511958
21
6309.735430
0
LINE
8
Visible
10
11906.511958
20
6309.735430
11
11911.126595
21
6325.970990
0
LINE
8
Visible
10
11911.126595
20
6325.970990
11
11915.480070
21
6342.264260
0
LINE
8
Visible
10
11915.480070
20
6342.264260
11
11919.572180
21
6358.612098
0
LINE
8
Visible
10
11919.572180
20
6358.612098
11
11923.402726
21
6375.011364
0
LINE
8
Visible
10
11923.402726
20
6375.011364
11
11926.971505
21
6391.458918
0
LINE
8
Visible
10
11926.971505
20
6391.458918
11
11930.278318
21
6407.951619
0
LINE
8
Visible
10
11930.278318
20
6407.951619
11
11933.322964
21
6424.486326
0
LINE
8
Visible
10
11933.322964
20
6424.486326
11
11936.105240
21
6441.059898
0
LINE
8
Visible
10
11936.105240
20
6441.059898
11
11938.624947
21
6457.669196
0
LINE
8
Visible
10
11938.624947
20
6457.669196
11
11940.881883
21
6474.311079
0
LINE
8
Visible
10
11940.881883
20
6474.311079
11
11942.875847
21
6490.982406
0
LINE
8
Visible
10
11942.875847
20
6490.982406
11
11944.606638
21
6507.680036
0
LINE
8
Visible
10
11944.606638
20
6507.680036
11
11946.074056
21
6524.400829
0
LINE
8
Visible
10
11946.074056
20
6524.400829
11
11947.277898
21
6541.141644
0
LINE
8
Visible
10
11947.277898
20
6541.141644
11
11948.217965
21
6557.899341
0
LINE
8
Visible
10
11948.217965
20
6557.899341
11
11948.894056
21
6574.670779
0
LINE
8
Visible
10
11948.894056
20
6574.670779
11
11949.305968
21
6591.452817
0
LINE
8
Visible
10
11949.305968
20
6591.452817
11
11949.453502
21
6608.242316
0
LINE
8
Visible
10
11949.453502
20
6608.242316
11
11949.336456
21
6625.036133
0
LINE
8
Visible
10
11949.336456
20
6625.036133
11
11948.954629
21
6641.831130
0
LINE
8
Visible
10
11948.954629
20
6641.831130
11
11948.307821
21
6658.624165
0
LINE
8
Visible
10
11948.307821
20
6658.624165
11
11947.395829
21
6675.412097
0
LINE
8
Visible
10
11947.395829
20
6675.412097
11
11946.218454
21
6692.191787
0
LINE
8
Visible
10
11946.218454
20
6692.191787
11
11944.775494
21
6708.960092
0
LINE
8
Visible
10
11944.775494
20
6708.960092
11
11943.066749
21
6725.713874
0
LINE
8
Visible
10
11943.066749
20
6725.713874
11
11941.092017
21
6742.449991
0
LINE
8
Visible
10
11941.092017
20
6742.449991
11
11938.851097
21
6759.165303
0
LINE
8
Visible
10
11938.851097
20
6759.165303
11
11936.343788
21
6775.856668
0
LINE
8
Visible
10
11936.343788
20
6775.856668
11
11933.569889
21
6792.520948
0
LINE
8
Visible
10
11933.569889
20
6792.520948
11
11930.529200
21
6809.155000
0
LINE
8
Visible
10
11930.500000
20
6809.160000
11
11919.201938
21
6809.506009
0
LINE
8
Visible
10
11919.201938
20
6809.506009
11
11907.918198
21
6809.497179
0
LINE
8
Visible
10
11907.918198
20
6809.497179
11
11896.656876
21
6809.135185
0
LINE
8
Visible
10
11896.656876
20
6809.135185
11
11885.426068
21
6808.421702
0
LINE
8
Visible
10
11885.426068
20
6808.421702
11
11874.233867
21
6807.358404
0
LINE
8
Visible
10
11874.233867
20
6807.358404
11
11863.088370
21
6805.946968
0
LINE
8
Visible
10
11863.088370
20
6805.946968
11
11851.997671
21
6804.189067
0
LINE
8
Visible
10
11851.997671
20
6804.189067
11
11840.969866
21
6802.086376
0
LINE
8
Visible
10
11840.969866
20
6802.086376
11
11830.013049
21
6799.640570
0
LINE
8
Visible
10
11830.013049
20
6799.640570
11
11819.135316
21
6796.853324
0
LINE
8
Visible
10
11819.135316
20
6796.853324
11
11808.344762
21
6793.726314
0
LINE
8
Visible
10
11808.344762
20
6793.726314
11
11797.649481
21
6790.261212
0
LINE
8
Visible
10
11797.649481
20
6790.261212
11
11787.057570
21
6786.459695
0
LINE
8
Visible
10
11787.057570
20
6786.459695
11
11776.577122
21
6782.323438
0
LINE
8
Visible
10
11776.577122
20
6782.323438
11
11766.216234
21
6777.854114
0
LINE
8
Visible
10
11766.216234
20
6777.854114
11
11755.983000
21
6773.053400
0
LINE
8
Visible
10
11756.000000
20
6773.050000
11
11759.159202
21
6788.220815
0
LINE
8
Visible
10
11759.159202
20
6788.220815
11
11762.114585
21
6803.422120
0
LINE
8
Visible
10
11762.114585
20
6803.422120
11
11764.866148
21
6818.651881
0
LINE
8
Visible
10
11764.866148
20
6818.651881
11
11767.413891
21
6833.908067
0
LINE
8
Visible
10
11767.413891
20
6833.908067
11
11769.757815
21
6849.188644
0
LINE
8
Visible
10
11769.757815
20
6849.188644
11
11771.897920
21
6864.491580
0
LINE
8
Visible
10
11771.897920
20
6864.491580
11
11773.834205
21
6879.814842
0
LINE
8
Visible
10
11773.834205
20
6879.814842
11
11775.566671
21
6895.156398
0
LINE
8
Visible
10
11775.566671
20
6895.156398
11
11777.095317
21
6910.514215
0
LINE
8
Visible
10
11777.095317
20
6910.514215
11
11778.420144
21
6925.886260
0
LINE
8
Visible
10
11778.420144
20
6925.886260
11
11779.541151
21
6941.270501
0
LINE
8
Visible
10
11779.541151
20
6941.270501
11
11780.458338
21
6956.664905
0
LINE
8
Visible
10
11780.458338
20
6956.664905
11
11781.171707
21
6972.067439
0
LINE
8
Visible
10
11781.171707
20
6972.067439
11
11781.681255
21
6987.476072
0
LINE
8
Visible
10
11781.681255
20
6987.476072
11
11781.986985
21
7002.888770
0
LINE
8
Visible
10
11781.986985
20
7002.888770
11
11782.088894
21
7018.303500
0
LINE
8
Visible
10
11782.088894
20
7018.303500
11
11781.986985
21
7033.718230
0
LINE
8
Visible
10
11781.986985
20
7033.718230
11
11781.681255
21
7049.130928
0
LINE
8
Visible
10
11781.681255
20
7049.130928
11
11781.171707
21
7064.539561
0
LINE
8
Visible
10
11781.171707
20
7064.539561
11
11780.458338
21
7079.942095
0
LINE
8
Visible
10
11780.458338
20
7079.942095
11
11779.541151
21
7095.336499
0
LINE
8
Visible
10
11779.541151
20
7095.336499
11
11778.420144
21
7110.720740
0
LINE
8
Visible
10
11778.420144
20
7110.720740
11
11777.095317
21
7126.092785
0
LINE
8
Visible
10
11777.095317
20
7126.092785
11
11775.566671
21
7141.450602
0
LINE
8
Visible
10
11775.566671
20
7141.450602
11
11773.834205
21
7156.792158
0
LINE
8
Visible
10
11773.834205
20
7156.792158
11
11771.897920
21
7172.115420
0
LINE
8
Visible
10
11771.897920
20
7172.115420
11
11769.757815
21
7187.418356
0
LINE
8
Visible
10
11769.757815
20
7187.418356
11
11767.413891
21
7202.698933
0
LINE
8
Visible
10
11767.413891
20
7202.698933
11
11764.866148
21
7217.955119
0
LINE
8
Visible
10
11764.866148
20
7217.955119
11
11762.114585
21
7233.184880
0
LINE
8
Visible
10
11762.114585
20
7233.184880
11
11759.159202
21
7248.386185
0
LINE
8
Visible
10
11759.159202
20
7248.386185
11
11756.000000
21
7263.557000
0
LINE
8
Visible
10
11756.000000
20
7263.560000
11
11778.783844
21
7259.229360
0
LINE
8
Visible
10
11778.783844
20
7259.229360
11
11801.605901
21
7255.178117
0
LINE
8
Visible
10
11801.605901
20
7255.178117
11
11824.463625
21
7251.406269
0
LINE
8
Visible
10
11824.463625
20
7251.406269
11
11847.354467
21
7247.913818
0
LINE
8
Visible
10
11847.354467
20
7247.913818
11
11870.275880
21
7244.700763
0
LINE
8
Visible
10
11870.275880
20
7244.700763
11
11893.225317
21
7241.767104
0
LINE
8
Visible
10
11893.225317
20
7241.767104
11
11916.200229
21
7239.112841
0
LINE
8
Visible
10
11916.200229
20
7239.112841
11
11939.198070
21
7236.737974
0
LINE
8
Visible
10
11939.198070
20
7236.737974
11
11962.216291
21
7234.642503
0
LINE
8
Visible
10
11962.216291
20
7234.642503
11
11985.252345
21
7232.826428
0
LINE
8
Visible
10
11985.252345
20
7232.826428
11
12008.303685
21
7231.289750
0
LINE
8
Visible
10
12008.303685
20
7231.289750
11
12031.367762
21
7230.032467
0
LINE
8
Visible
10
12031.367762
20
7230.032467
11
12054.442030
21
7229.054581
0
LINE
8
Visible
10
12054.442030
20
7229.054581
11
12077.523941
21
7228.356091
0
LINE
8
Visible
10
12077.523941
20
7228.356091
11
12100.610947
21
7227.936996
0
LINE
8
Visible
10
12100.610947
20
7227.936996
11
12123.700500
21
7227.797298
0
LINE
8
Visible
10
12123.700500
20
7227.797298
11
12146.790053
21
7227.936996
0
LINE
8
Visible
10
12146.790053
20
7227.936996
11
12169.877059
21
7228.356091
0
LINE
8
Visible
10
12169.877059
20
7228.356091
11
12192.958970
21
7229.054581
0
LINE
8
Visible
10
12192.958970
20
7229.054581
11
12216.033238
21
7230.032467
0
LINE
8
Visible
10
12216.033238
20
7230.032467
11
12239.097315
21
7231.289750
0
LINE
8
Visible
10
12239.097315
20
7231.289750
11
12262.148655
21
7232.826428
0
LINE
8
Visible
10
12262.148655
20
7232.826428
11
12285.184709
21
7234.642503
0
LINE
8
Visible
10
12285.184709
20
7234.642503
11
12308.202930
21
7236.737974
0
LINE
8
Visible
10
12308.202930
20
7236.737974
11
12331.200771
21
7239.112841
0
LINE
8
Visible
10
12331.200771
20
7239.112841
11
12354.175683
21
7241.767104
0
LINE
8
Visible
10
12354.175683
20
7241.767104
11
12377.125120
21
7244.700763
0
LINE
8
Visible
10
12377.125120
20
7244.700763
11
12400.046533
21
7247.913818
0
LINE
8
Visible
10
12400.046533
20
7247.913818
11
12422.937375
21
7251.406269
0
LINE
8
Visible
10
12422.937375
20
7251.406269
11
12445.795099
21
7255.178117
0
LINE
8
Visible
10
12445.795099
20
7255.178117
11
12468.617156
21
7259.229360
0
LINE
8
Visible
10
12468.617156
20
7259.229360
11
12491.401000
21
7263.560000
0
LINE
8
Visible
10
12491.400000
20
7263.560000
11
12487.221216
21
7248.507272
0
LINE
8
Visible
10
12487.221216
20
7248.507272
11
12483.312030
21
7233.401199
0
LINE
8
Visible
10
12483.312030
20
7233.401199
11
12479.672444
21
7218.245338
0
LINE
8
Visible
10
12479.672444
20
7218.245338
11
12476.302457
21
7203.043244
0
LINE
8
Visible
10
12476.302457
20
7203.043244
11
12473.202068
21
7187.798474
0
LINE
8
Visible
10
12473.202068
20
7187.798474
11
12470.371279
21
7172.514584
0
LINE
8
Visible
10
12470.371279
20
7172.514584
11
12467.810089
21
7157.195131
0
LINE
8
Visible
10
12467.810089
20
7157.195131
11
12465.518497
21
7141.843672
0
LINE
8
Visible
10
12465.518497
20
7141.843672
11
12463.496505
21
7126.463761
0
LINE
8
Visible
10
12463.496505
20
7126.463761
11
12461.744112
21
7111.058956
0
LINE
8
Visible
10
12461.744112
20
7111.058956
11
12460.261317
21
7095.632813
0
LINE
8
Visible
10
12460.261317
20
7095.632813
11
12459.048122
21
7080.188888
0
LINE
8
Visible
10
12459.048122
20
7080.188888
11
12458.104525
21
7064.730738
0
LINE
8
Visible
10
12458.104525
20
7064.730738
11
12457.430528
21
7049.261920
0
LINE
8
Visible
10
12457.430528
20
7049.261920
11
12457.026129
21
7033.785988
0
LINE
8
Visible
10
12457.026129
20
7033.785988
11
12456.891330
21
7018.306500
0
LINE
8
Visible
10
12456.891330
20
7018.306500
11
12457.026129
21
7002.827012
0
LINE
8
Visible
10
12457.026129
20
7002.827012
11
12457.430528
21
6987.351080
0
LINE
8
Visible
10
12457.430528
20
6987.351080
11
12458.104525
21
6971.882262
0
LINE
8
Visible
10
12458.104525
20
6971.882262
11
12459.048122
21
6956.424112
0
LINE
8
Visible
10
12459.048122
20
6956.424112
11
12460.261317
21
6940.980187
0
LINE
8
Visible
10
12460.261317
20
6940.980187
11
12461.744112
21
6925.554044
0
LINE
8
Visible
10
12461.744112
20
6925.554044
11
12463.496505
21
6910.149239
0
LINE
8
Visible
10
12463.496505
20
6910.149239
11
12465.518497
21
6894.769328
0
LINE
8
Visible
10
12465.518497
20
6894.769328
11
12467.810089
21
6879.417869
0
LINE
8
Visible
10
12467.810089
20
6879.417869
11
12470.371279
21
6864.098416
0
LINE
8
Visible
10
12470.371279
20
6864.098416
11
12473.202068
21
6848.814526
0
LINE
8
Visible
10
12473.202068
20
6848.814526
11
12476.302457
21
6833.569756
0
LINE
8
Visible
10
12476.302457
20
6833.569756
11
12479.672444
21
6818.367662
0
LINE
8
Visible
10
12479.672444
20
6818.367662
11
12483.312030
21
6803.211801
0
LINE
8
Visible
10
12483.312030
20
6803.211801
11
12487.221216
21
6788.105728
0
LINE
8
Visible
10
12487.221216
20
6788.105728
11
12491.400000
21
6773.053000
0
LINE
8
Visible
10
12491.400000
20
6773.050000
11
12482.039870
21
6777.357032
0
LINE
8
Visible
10
12482.039870
20
6777.357032
11
12472.576536
21
6781.396799
0
LINE
8
Visible
10
12472.576536
20
6781.396799
11
12463.015769
21
6785.167992
0
LINE
8
Visible
10
12463.015769
20
6785.167992
11
12453.363339
21
6788.669298
0
LINE
8
Visible
10
12453.363339
20
6788.669298
11
12443.625017
21
6791.899408
0
LINE
8
Visible
10
12443.625017
20
6791.899408
11
12433.806574
21
6794.857008
0
LINE
8
Visible
10
12433.806574
20
6794.857008
11
12423.913779
21
6797.540789
0
LINE
8
Visible
10
12423.913779
20
6797.540789
11
12413.952405
21
6799.949439
0
LINE
8
Visible
10
12413.952405
20
6799.949439
11
12403.928221
21
6802.081648
0
LINE
8
Visible
10
12403.928221
20
6802.081648
11
12393.846998
21
6803.936103
0
LINE
8
Visible
10
12393.846998
20
6803.936103
11
12383.714507
21
6805.511495
0
LINE
8
Visible
10
12383.714507
20
6805.511495
11
12373.536518
21
6806.806511
0
LINE
8
Visible
10
12373.536518
20
6806.806511
11
12363.318802
21
6807.819840
0
LINE
8
Visible
10
12363.318802
20
6807.819840
11
12353.067130
21
6808.550173
0
LINE
8
Visible
10
12353.067130
20
6808.550173
11
12342.787273
21
6808.996196
0
LINE
8
Visible
10
12342.787273
20
6808.996196
11
12332.485000
21
6809.156600
0
LINE
8
Visible
10
12332.500000
20
6809.160000
11
12329.007996
21
6792.592926
0
LINE
8
Visible
10
12329.007996
20
6792.592926
11
12325.798868
21
6775.987293
0
LINE
8
Visible
10
12325.798868
20
6775.987293
11
12322.872431
21
6759.346643
0
LINE
8
Visible
10
12322.872431
20
6759.346643
11
12320.228501
21
6742.674517
0
LINE
8
Visible
10
12320.228501
20
6742.674517
11
12317.866895
21
6725.974457
0
LINE
8
Visible
10
12317.866895
20
6725.974457
11
12315.787427
21
6709.250005
0
LINE
8
Visible
10
12315.787427
20
6709.250005
11
12313.989914
21
6692.504702
0
LINE
8
Visible
10
12313.989914
20
6692.504702
11
12312.474172
21
6675.742089
0
LINE
8
Visible
10
12312.474172
20
6675.742089
11
12311.240016
21
6658.965710
0
LINE
8
Visible
10
12311.240016
20
6658.965710
11
12310.287263
21
6642.179104
0
LINE
8
Visible
10
12310.287263
20
6642.179104
11
12309.615727
21
6625.385815
0
LINE
8
Visible
10
12309.615727
20
6625.385815
11
12309.225226
21
6608.589383
0
LINE
8
Visible
10
12309.225226
20
6608.589383
11
12309.115574
21
6591.793350
0
LINE
8
Visible
10
12309.115574
20
6591.793350
11
12309.286587
21
6575.001259
0
LINE
8
Visible
10
12309.286587
20
6575.001259
11
12309.738083
21
6558.216650
0
LINE
8
Visible
10
12309.738083
20
6558.216650
11
12310.469875
21
6541.443065
0
LINE
8
Visible
10
12310.469875
20
6541.443065
11
12311.481781
21
6524.684046
0
LINE
8
Visible
10
12311.481781
20
6524.684046
11
12312.773615
21
6507.943134
0
LINE
8
Visible
10
12312.773615
20
6507.943134
11
12314.345194
21
6491.223872
0
LINE
8
Visible
10
12314.345194
20
6491.223872
11
12316.196334
21
6474.529801
0
LINE
8
Visible
10
12316.196334
20
6474.529801
11
12318.326850
21
6457.864462
0
LINE
8
Visible
10
12318.326850
20
6457.864462
11
12320.736558
21
6441.231397
0
LINE
8
Visible
10
12320.736558
20
6441.231397
11
12323.425275
21
6424.634149
0
LINE
8
Visible
10
12323.425275
20
6424.634149
11
12326.392815
21
6408.076258
0
LINE
8
Visible
10
12326.392815
20
6408.076258
11
12329.638996
21
6391.561266
0
LINE
8
Visible
10
12329.638996
20
6391.561266
11
12333.163631
21
6375.092715
0
LINE
8
Visible
10
12333.163631
20
6375.092715
11
12336.966539
21
6358.674146
0
LINE
8
Visible
10
12336.966539
20
6358.674146
11
12341.047533
21
6342.309102
0
LINE
8
Visible
10
12341.047533
20
6342.309102
11
12345.406431
21
6326.001123
0
LINE
8
Visible
10
12345.406431
20
6326.001123
11
12350.043047
21
6309.753753
0
LINE
8
Visible
10
12350.043047
20
6309.753753
11
12354.957198
21
6293.570531
0
LINE
8
Visible
10
12354.957198
20
6293.570531
11
12360.148700
21
6277.455000
0
LINE
8
Visible
10
12360.100000
20
6277.450000
11
12365.405379
21
6272.950673
0
LINE
8
Visible
10
12365.405379
20
6272.950673
11
12370.791058
21
6268.604793
0
LINE
8
Visible
10
12370.791058
20
6268.604793
11
12376.254240
21
6264.412241
0
LINE
8
Visible
10
12376.254240
20
6264.412241
11
12381.792129
21
6260.372898
0
LINE
8
Visible
10
12381.792129
20
6260.372898
11
12387.401927
21
6256.486644
0
LINE
8
Visible
10
12387.401927
20
6256.486644
11
12393.080840
21
6252.753359
0
LINE
8
Visible
10
12393.080840
20
6252.753359
11
12398.826070
21
6249.172926
0
LINE
8
Visible
10
12398.826070
20
6249.172926
11
12404.634822
21
6245.745224
0
LINE
8
Visible
10
12404.634822
20
6245.745224
11
12410.504297
21
6242.470133
0
LINE
8
Visible
10
12410.504297
20
6242.470133
11
12416.431702
21
6239.347536
0
LINE
8
Visible
10
12416.431702
20
6239.347536
11
12422.414238
21
6236.377312
0
LINE
8
Visible
10
12422.414238
20
6236.377312
11
12428.449109
21
6233.559342
0
LINE
8
Visible
10
12428.449109
20
6233.559342
11
12434.533520
21
6230.893507
0
LINE
8
Visible
10
12434.533520
20
6230.893507
11
12440.664674
21
6228.379687
0
LINE
8
Visible
10
12440.664674
20
6228.379687
11
12446.839773
21
6226.017764
0
LINE
8
Visible
10
12446.839773
20
6226.017764
11
12453.056023
21
6223.807618
0
LINE
8
Visible
10
12453.056023
20
6223.807618
11
12459.310626
21
6221.749129
0
LINE
8
Visible
10
12459.310626
20
6221.749129
11
12465.600787
21
6219.842178
0
LINE
8
Visible
10
12465.600787
20
6219.842178
11
12471.923708
21
6218.086647
0
LINE
8
Visible
10
12471.923708
20
6218.086647
11
12478.276593
21
6216.482415
0
LINE
8
Visible
10
12478.276593
20
6216.482415
11
12484.656646
21
6215.029364
0
LINE
8
Visible
10
12484.656646
20
6215.029364
11
12491.061071
21
6213.727374
0
LINE
8
Visible
10
12491.061071
20
6213.727374
11
12497.487072
21
6212.576325
0
LINE
8
Visible
10
12497.487072
20
6212.576325
11
12503.931851
21
6211.576099
0
LINE
8
Visible
10
12503.931851
20
6211.576099
11
12510.392612
21
6210.726576
0
LINE
8
Visible
10
12510.392612
20
6210.726576
11
12516.866559
21
6210.027637
0
LINE
8
Visible
10
12516.866559
20
6210.027637
11
12523.350896
21
6209.479163
0
LINE
8
Visible
10
12523.350896
20
6209.479163
11
12529.842826
21
6209.081034
0
LINE
8
Visible
10
12529.842826
20
6209.081034
11
12536.339553
21
6208.833131
0
LINE
8
Visible
10
12536.339553
20
6208.833131
11
12542.838280
21
6208.735334
0
LINE
8
Visible
10
12542.838280
20
6208.735334
11
12555.830551
21
6208.989584
0
LINE
8
Visible
10
12555.830551
20
6208.989584
11
12568.797266
21
6209.842829
0
LINE
8
Visible
10
12568.797266
20
6209.842829
11
12575.264049
21
6210.493777
0
LINE
8
Visible
10
12575.264049
20
6210.493777
11
12581.716055
21
6211.294115
0
LINE
8
Visible
10
12581.716055
20
6211.294115
11
12588.150486
21
6212.243725
0
LINE
8
Visible
10
12588.150486
20
6212.243725
11
12594.564546
21
6213.342487
0
LINE
8
Visible
10
12594.564546
20
6213.342487
11
12600.955439
21
6214.590282
0
LINE
8
Visible
10
12600.955439
20
6214.590282
11
12607.320369
21
6215.986990
0
LINE
8
Visible
10
12607.320369
20
6215.986990
11
12613.656539
21
6217.532493
0
LINE
8
Visible
10
12613.656539
20
6217.532493
11
12619.961153
21
6219.226671
0
LINE
8
Visible
10
12619.961153
20
6219.226671
11
12626.231413
21
6221.069405
0
LINE
8
Visible
10
12626.231413
20
6221.069405
11
12632.464525
21
6223.060575
0
LINE
8
Visible
10
12632.464525
20
6223.060575
11
12638.657691
21
6225.200063
0
LINE
8
Visible
10
12638.657691
20
6225.200063
11
12644.808115
21
6227.487748
0
LINE
8
Visible
10
12644.808115
20
6227.487748
11
12650.913002
21
6229.923511
0
LINE
8
Visible
10
12650.913002
20
6229.923511
11
12656.969553
21
6232.507234
0
LINE
8
Visible
10
12656.969553
20
6232.507234
11
12662.974973
21
6235.238797
0
LINE
8
Visible
10
12662.974973
20
6235.238797
11
12668.926466
21
6238.118080
0
LINE
8
Visible
10
12668.926466
20
6238.118080
11
12674.821235
21
6241.144965
0
LINE
8
Visible
10
12674.821235
20
6241.144965
11
12680.656483
21
6244.319331
0
LINE
8
Visible
10
12680.656483
20
6244.319331
11
12686.429415
21
6247.641061
0
LINE
8
Visible
10
12686.429415
20
6247.641061
11
12692.137234
21
6251.110033
0
LINE
8
Visible
10
12692.137234
20
6251.110033
11
12697.777144
21
6254.726130
0
LINE
8
Visible
10
12697.777144
20
6254.726130
11
12703.346348
21
6258.489232
0
LINE
8
Visible
10
12703.346348
20
6258.489232
11
12708.842049
21
6262.399219
0
LINE
8
Visible
10
12708.842049
20
6262.399219
11
12714.261452
21
6266.455972
0
LINE
8
Visible
10
12714.261452
20
6266.455972
11
12719.601760
21
6270.659372
0
LINE
8
Visible
10
12719.601760
20
6270.659372
11
12724.860176
21
6275.009300
0
LINE
8
Visible
10
12724.860176
20
6275.009300
11
12730.033905
21
6279.505636
0
LINE
8
Visible
10
12730.033905
20
6279.505636
11
12735.120149
21
6284.148260
0
LINE
8
Visible
10
12735.120149
20
6284.148260
11
12740.116113
21
6288.937055
0
LINE
8
Visible
10
12740.116113
20
6288.937055
11
12745.019000
21
6293.871900
0
LINE
8
Visible
10
12797.600000
20
5779.930000
11
12745.106700
21
6293.856000
0
LINE
8
Visible
10
32039.500000
20
6426.640000
11
32039.386711
21
6440.235261
0
LINE
8
Visible
10
32039.386711
20
6440.235261
11
32039.047827
21
6453.795896
0
LINE
8
Visible
10
32039.047827
20
6453.795896
11
32038.484684
21
6467.319593
0
LINE
8
Visible
10
32038.484684
20
6467.319593
11
32037.698619
21
6480.804038
0
LINE
8
Visible
10
32037.698619
20
6480.804038
11
32036.690965
21
6494.246917
0
LINE
8
Visible
10
32036.690965
20
6494.246917
11
32035.463060
21
6507.645916
0
LINE
8
Visible
10
32035.463060
20
6507.645916
11
32034.016239
21
6520.998724
0
LINE
8
Visible
10
32034.016239
20
6520.998724
11
32032.351837
21
6534.303025
0
LINE
8
Visible
10
32032.351837
20
6534.303025
11
32030.471190
21
6547.556507
0
LINE
8
Visible
10
32030.471190
20
6547.556507
11
32028.375634
21
6560.756856
0
LINE
8
Visible
10
32028.375634
20
6560.756856
11
32026.066505
21
6573.901759
0
LINE
8
Visible
10
32026.066505
20
6573.901759
11
32023.545137
21
6586.988902
0
LINE
8
Visible
10
32023.545137
20
6586.988902
11
32020.812867
21
6600.015972
0
LINE
8
Visible
10
32020.812867
20
6600.015972
11
32017.871030
21
6612.980655
0
LINE
8
Visible
10
32017.871030
20
6612.980655
11
32014.720963
21
6625.880638
0
LINE
8
Visible
10
32014.720963
20
6625.880638
11
32011.364000
21
6638.713608
0
LINE
8
Visible
10
32011.364000
20
6638.713608
11
32007.801477
21
6651.477250
0
LINE
8
Visible
10
32007.801477
20
6651.477250
11
32004.034730
21
6664.169252
0
LINE
8
Visible
10
32004.034730
20
6664.169252
11
32000.065095
21
6676.787300
0
LINE
8
Visible
10
32000.065095
20
6676.787300
11
31995.893906
21
6689.329081
0
LINE
8
Visible
10
31995.893906
20
6689.329081
11
31991.522501
21
6701.792281
0
LINE
8
Visible
10
31991.522501
20
6701.792281
11
31986.952214
21
6714.174587
0
LINE
8
Visible
10
31986.952214
20
6714.174587
11
31982.184382
21
6726.473685
0
LINE
8
Visible
10
31982.184382
20
6726.473685
11
31977.220339
21
6738.687261
0
LINE
8
Visible
10
31977.220339
20
6738.687261
11
31972.061422
21
6750.813004
0
LINE
8
Visible
10
31972.061422
20
6750.813004
11
31966.708965
21
6762.848598
0
LINE
8
Visible
10
31966.708965
20
6762.848598
11
31961.164306
21
6774.791730
0
LINE
8
Visible
10
31961.164306
20
6774.791730
11
31955.428779
21
6786.640088
0
LINE
8
Visible
10
31955.428779
20
6786.640088
11
31949.503720
21
6798.391357
0
LINE
8
Visible
10
31949.503720
20
6798.391357
11
31943.390464
21
6810.043225
0
LINE
8
Visible
10
31943.390464
20
6810.043225
11
31937.090348
21
6821.593377
0
LINE
8
Visible
10
31937.090348
20
6821.593377
11
31930.604707
21
6833.039500
0
LINE
8
Visible
10
31930.604707
20
6833.039500
11
31923.934877
21
6844.379281
0
LINE
8
Visible
10
31923.934877
20
6844.379281
11
31917.082193
21
6855.610407
0
LINE
8
Visible
10
31917.082193
20
6855.610407
11
31910.047990
21
6866.730563
0
LINE
8
Visible
10
31910.047990
20
6866.730563
11
31902.833606
21
6877.737437
0
LINE
8
Visible
10
31902.833606
20
6877.737437
11
31895.440374
21
6888.628715
0
LINE
8
Visible
10
31895.440374
20
6888.628715
11
31887.869632
21
6899.402083
0
LINE
8
Visible
10
31887.869632
20
6899.402083
11
31880.122714
21
6910.055228
0
LINE
8
Visible
10
31880.122714
20
6910.055228
11
31872.200956
21
6920.585838
0
LINE
8
Visible
10
31872.200956
20
6920.585838
11
31864.105694
21
6930.991597
0
LINE
8
Visible
10
31864.105694
20
6930.991597
11
31855.838263
21
6941.270193
0
LINE
8
Visible
10
31855.838263
20
6941.270193
11
31847.399999
21
6951.419312
0
LINE
8
Visible
10
31847.399999
20
6951.419312
11
31838.792239
21
6961.436642
0
LINE
8
Visible
10
31838.792239
20
6961.436642
11
31830.016316
21
6971.319867
0
LINE
8
Visible
10
31830.016316
20
6971.319867
11
31821.073568
21
6981.066676
0
LINE
8
Visible
10
31821.073568
20
6981.066676
11
31811.965329
21
6990.674754
0
LINE
8
Visible
10
31811.965329
20
6990.674754
11
31802.692936
21
7000.141788
0
LINE
8
Visible
10
31802.692936
20
7000.141788
11
31793.257724
21
7009.465465
0
LINE
8
Visible
10
31793.257724
20
7009.465465
11
31783.661028
21
7018.643470
0
LINE
8
Visible
10
31783.661028
20
7018.643470
11
31773.904185
21
7027.673492
0
LINE
8
Visible
10
31773.904185
20
7027.673492
11
31763.988530
21
7036.553216
0
LINE
8
Visible
10
31763.988530
20
7036.553216
11
31753.915398
21
7045.280329
0
LINE
8
Visible
10
31753.915398
20
7045.280329
11
31743.686125
21
7053.852517
0
LINE
8
Visible
10
31743.686125
20
7053.852517
11
31733.302048
21
7062.267466
0
LINE
8
Visible
10
31733.302048
20
7062.267466
11
31722.764500
21
7070.522865
0
LINE
8
Visible
10
31722.764500
20
7070.522865
11
31712.074819
21
7078.616398
0
LINE
8
Visible
10
31712.074819
20
7078.616398
11
31701.234340
21
7086.545753
0
LINE
8
Visible
10
31701.234340
20
7086.545753
11
31690.244399
21
7094.308616
0
LINE
8
Visible
10
31690.244399
20
7094.308616
11
31679.106330
21
7101.902674
0
LINE
8
Visible
10
31679.106330
20
7101.902674
11
31667.821470
21
7109.325613
0
LINE
8
Visible
10
31667.821470
20
7109.325613
11
31656.391155
21
7116.575119
0
LINE
8
Visible
10
31656.391155
20
7116.575119
11
31644.816720
21
7123.648880
0
LINE
8
Visible
10
31644.816720
20
7123.648880
11
31633.099500
21
7130.544582
0
LINE
8
Visible
10
31633.099500
20
7130.544582
11
31621.269037
21
7137.244141
0
LINE
8
Visible
10
31621.269037
20
7137.244141
11
31609.355763
21
7143.731016
0
LINE
8
Visible
10
31609.355763
20
7143.731016
11
31597.362348
21
7150.005206
0
LINE
8
Visible
10
31597.362348
20
7150.005206
11
31585.291465
21
7156.066711
0
LINE
8
Visible
10
31585.291465
20
7156.066711
11
31573.145784
21
7161.915533
0
LINE
8
Visible
10
31573.145784
20
7161.915533
11
31560.927977
21
7167.551669
0
LINE
8
Visible
10
31560.927977
20
7167.551669
11
31548.640714
21
7172.975122
0
LINE
8
Visible
10
31548.640714
20
7172.975122
11
31536.286669
21
7178.185890
0
LINE
8
Visible
10
31536.286669
20
7178.185890
11
31523.868511
21
7183.183974
0
LINE
8
Visible
10
31523.868511
20
7183.183974
11
31511.388912
21
7187.969373
0
LINE
8
Visible
10
31511.388912
20
7187.969373
11
31498.850544
21
7192.542088
0
LINE
8
Visible
10
31498.850544
20
7192.542088
11
31486.256078
21
7196.902118
0
LINE
8
Visible
10
31486.256078
20
7196.902118
11
31473.608184
21
7201.049464
0
LINE
8
Visible
10
31473.608184
20
7201.049464
11
31460.909536
21
7204.984126
0
LINE
8
Visible
10
31460.909536
20
7204.984126
11
31448.162803
21
7208.706103
0
LINE
8
Visible
10
31448.162803
20
7208.706103
11
31435.370657
21
7212.215396
0
LINE
8
Visible
10
31435.370657
20
7212.215396
11
31422.535770
21
7215.512004
0
LINE
8
Visible
10
31422.535770
20
7215.512004
11
31409.660813
21
7218.595928
0
LINE
8
Visible
10
31409.660813
20
7218.595928
11
31396.748457
21
7221.467167
0
LINE
8
Visible
10
31396.748457
20
7221.467167
11
31383.801373
21
7224.125722
0
LINE
8
Visible
10
31383.801373
20
7224.125722
11
31370.822234
21
7226.571593
0
LINE
8
Visible
10
31370.822234
20
7226.571593
11
31357.813709
21
7228.804780
0
LINE
8
Visible
10
31357.813709
20
7228.804780
11
31344.778472
21
7230.825281
0
LINE
8
Visible
10
31344.778472
20
7230.825281
11
31331.719192
21
7232.633099
0
LINE
8
Visible
10
31331.719192
20
7232.633099
11
31318.638541
21
7234.228232
0
LINE
8
Visible
10
31318.638541
20
7234.228232
11
31305.539192
21
7235.610681
0
LINE
8
Visible
10
31305.539192
20
7235.610681
11
31292.423814
21
7236.780445
0
LINE
8
Visible
10
31292.423814
20
7236.780445
11
31279.295079
21
7237.737525
0
LINE
8
Visible
10
31279.295079
20
7237.737525
11
31266.155659
21
7238.481920
0
LINE
8
Visible
10
31266.155659
20
7238.481920
11
31253.008225
21
7239.013631
0
LINE
8
Visible
10
31253.008225
20
7239.013631
11
31239.855448
21
7239.332658
0
LINE
8
Visible
10
31239.855448
20
7239.332658
11
31226.700000
21
7239.439000
0
LINE
8
Visible
10
31226.700000
20
7239.439000
11
31213.544552
21
7239.332658
0
LINE
8
Visible
10
31213.544552
20
7239.332658
11
31200.391775
21
7239.013631
0
LINE
8
Visible
10
31200.391775
20
7239.013631
11
31187.244341
21
7238.481920
0
LINE
8
Visible
10
31187.244341
20
7238.481920
11
31174.104921
21
7237.737525
0
LINE
8
Visible
10
31174.104921
20
7237.737525
11
31160.976186
21
7236.780445
0
LINE
8
Visible
10
31160.976186
20
7236.780445
11
31147.860808
21
7235.610681
0
LINE
8
Visible
10
31147.860808
20
7235.610681
11
31134.761459
21
7234.228232
0
LINE
8
Visible
10
31134.761459
20
7234.228232
11
31121.680808
21
7232.633099
0
LINE
8
Visible
10
31121.680808
20
7232.633099
11
31108.621528
21
7230.825281
0
LINE
8
Visible
10
31108.621528
20
7230.825281
11
31095.586291
21
7228.804780
0
LINE
8
Visible
10
31095.586291
20
7228.804780
11
31082.577766
21
7226.571593
0
LINE
8
Visible
10
31082.577766
20
7226.571593
11
31069.598627
21
7224.125722
0
LINE
8
Visible
10
31069.598627
20
7224.125722
11
31056.651543
21
7221.467167
0
LINE
8
Visible
10
31056.651543
20
7221.467167
11
31043.739187
21
7218.595928
0
LINE
8
Visible
10
31043.739187
20
7218.595928
11
31030.864230
21
7215.512004
0
LINE
8
Visible
10
31030.864230
20
7215.512004
11
31018.029343
21
7212.215396
0
LINE
8
Visible
10
31018.029343
20
7212.215396
11
31005.237197
21
7208.706103
0
LINE
8
Visible
10
31005.237197
20
7208.706103
11
30992.490464
21
7204.984126
0
LINE
8
Visible
10
30992.490464
20
7204.984126
11
30979.791816
21
7201.049464
0
LINE
8
Visible
10
30979.791816
20
7201.049464
11
30967.143922
21
7196.902118
0
LINE
8
Visible
10
30967.143922
20
7196.902118
11
30954.549456
21
7192.542088
0
LINE
8
Visible
10
30954.549456
20
7192.542088
11
30942.011088
21
7187.969373
0
LINE
8
Visible
10
30942.011088
20
7187.969373
11
30929.531489
21
7183.183974
0
LINE
8
Visible
10
30929.531489
20
7183.183974
11
30917.113331
21
7178.185890
0
LINE
8
Visible
10
30917.113331
20
7178.185890
11
30904.759286
21
7172.975122
0
LINE
8
Visible
10
30904.759286
20
7172.975122
11
30892.472023
21
7167.551669
0
LINE
8
Visible
10
30892.472023
20
7167.551669
11
30880.254216
21
7161.915533
0
LINE
8
Visible
10
30880.254216
20
7161.915533
11
30868.108535
21
7156.066711
0
LINE
8
Visible
10
30868.108535
20
7156.066711
11
30856.037652
21
7150.005206
0
LINE
8
Visible
10
30856.037652
20
7150.005206
11
30844.044237
21
7143.731016
0
LINE
8
Visible
10
30844.044237
20
7143.731016
11
30832.130963
21
7137.244141
0
LINE
8
Visible
10
30832.130963
20
7137.244141
11
30820.300500
21
7130.544582
0
LINE
8
Visible
10
30820.300500
20
7130.544582
11
30808.583280
21
7123.648880
0
LINE
8
Visible
10
30808.583280
20
7123.648880
11
30797.008845
21
7116.575119
0
LINE
8
Visible
10
30797.008845
20
7116.575119
11
30785.578530
21
7109.325613
0
LINE
8
Visible
10
30785.578530
20
7109.325613
11
30774.293670
21
7101.902674
0
LINE
8
Visible
10
30774.293670
20
7101.902674
11
30763.155602
21
7094.308616
0
LINE
8
Visible
10
30763.155602
20
7094.308616
11
30752.165661
21
7086.545753
0
LINE
8
Visible
10
30752.165661
20
7086.545753
11
30741.325182
21
7078.616398
0
LINE
8
Visible
10
30741.325182
20
7078.616398
11
30730.635502
21
7070.522865
0
LINE
8
Visible
10
30730.635502
20
7070.522865
11
30720.097955
21
7062.267466
0
LINE
8
Visible
10
30720.097955
20
7062.267466
11
30709.713879
21
7053.852517
0
LINE
8
Visible
10
30709.713879
20
7053.852517
11
30699.484607
21
7045.280329
0
LINE
8
Visible
10
30699.484607
20
7045.280329
11
30689.411477
21
7036.553216
0
LINE
8
Visible
10
30689.411477
20
7036.553216
11
30679.495823
21
7027.673492
0
LINE
8
Visible
10
30679.495823
20
7027.673492
11
30669.738982
21
7018.643470
0
LINE
8
Visible
10
30669.738982
20
7018.643470
11
30660.142289
21
7009.465465
0
LINE
8
Visible
10
30660.142289
20
7009.465465
11
30650.707079
21
7000.141788
0
LINE
8
Visible
10
30650.707079
20
7000.141788
11
30641.434689
21
6990.674754
0
LINE
8
Visible
10
30641.434689
20
6990.674754
11
30632.326454
21
6981.066676
0
LINE
8
Visible
10
30632.326454
20
6981.066676
11
30623.383710
21
6971.319867
0
LINE
8
Visible
10
30623.383710
20
6971.319867
11
30614.607792
21
6961.436642
0
LINE
8
Visible
10
30614.607792
20
6961.436642
11
30606.000036
21
6951.419312
0
LINE
8
Visible
10
30606.000036
20
6951.419312
11
30597.561778
21
6941.270193
0
LINE
8
Visible
10
30597.561778
20
6941.270193
11
30589.294353
21
6930.991597
0
LINE
8
Visible
10
30589.294353
20
6930.991597
11
30581.199097
21
6920.585838
0
LINE
8
Visible
10
30581.199097
20
6920.585838
11
30573.277346
21
6910.055228
0
LINE
8
Visible
10
30573.277346
20
6910.055228
11
30565.530435
21
6899.402083
0
LINE
8
Visible
10
30565.530435
20
6899.402083
11
30557.959701
21
6888.628715
0
LINE
8
Visible
10
30557.959701
20
6888.628715
11
30550.566478
21
6877.737437
0
LINE
8
Visible
10
30550.566478
20
6877.737437
11
30543.352103
21
6866.730563
0
LINE
8
Visible
10
30543.352103
20
6866.730563
11
30536.317910
21
6855.610407
0
LINE
8
Visible
10
30536.317910
20
6855.610407
11
30529.465237
21
6844.379281
0
LINE
8
Visible
10
30529.465237
20
6844.379281
11
30522.795418
21
6833.039500
0
LINE
8
Visible
10
30522.795418
20
6833.039500
11
30516.309789
21
6821.593377
0
LINE
8
Visible
10
30516.309789
20
6821.593377
11
30510.009686
21
6810.043225
0
LINE
8
Visible
10
30510.009686
20
6810.043225
11
30503.896444
21
6798.391357
0
LINE
8
Visible
10
30503.896444
20
6798.391357
11
30497.971399
21
6786.640088
0
LINE
8
Visible
10
30497.971399
20
6786.640088
11
30492.235887
21
6774.791730
0
LINE
8
Visible
10
30492.235887
20
6774.791730
11
30486.691244
21
6762.848598
0
LINE
8
Visible
10
30486.691244
20
6762.848598
11
30481.338805
21
6750.813004
0
LINE
8
Visible
10
30481.338805
20
6750.813004
11
30476.179905
21
6738.687261
0
LINE
8
Visible
10
30476.179905
20
6738.687261
11
30471.215881
21
6726.473685
0
LINE
8
Visible
10
30471.215881
20
6726.473685
11
30466.448068
21
6714.174587
0
LINE
8
Visible
10
30466.448068
20
6714.174587
11
30461.877802
21
6701.792281
0
LINE
8
Visible
10
30461.877802
20
6701.792281
11
30457.506419
21
6689.329081
0
LINE
8
Visible
10
30457.506419
20
6689.329081
11
30453.335253
21
6676.787300
0
LINE
8
Visible
10
30453.335253
20
6676.787300
11
30449.365641
21
6664.169252
0
LINE
8
Visible
10
30449.365641
20
6664.169252
11
30445.598919
21
6651.477250
0
LINE
8
Visible
10
30445.598919
20
6651.477250
11
30442.036422
21
6638.713608
0
LINE
8
Visible
10
30442.036422
20
6638.713608
11
30438.679486
21
6625.880638
0
LINE
8
Visible
10
30438.679486
20
6625.880638
11
30435.529447
21
6612.980655
0
LINE
8
Visible
10
30435.529447
20
6612.980655
11
30432.587639
21
6600.015972
0
LINE
8
Visible
10
30432.587639
20
6600.015972
11
30429.855399
21
6586.988902
0
LINE
8
Visible
10
30429.855399
20
6586.988902
11
30427.334063
21
6573.901759
0
LINE
8
Visible
10
30427.334063
20
6573.901759
11
30425.024966
21
6560.756856
0
LINE
8
Visible
10
30425.024966
20
6560.756856
11
30422.929444
21
6547.556507
0
LINE
8
Visible
10
30422.929444
20
6547.556507
11
30421.048833
21
6534.303025
0
LINE
8
Visible
10
30421.048833
20
6534.303025
11
30419.384467
21
6520.998724
0
LINE
8
Visible
10
30419.384467
20
6520.998724
11
30417.937684
21
6507.645916
0
LINE
8
Visible
10
30417.937684
20
6507.645916
11
30416.709818
21
6494.246917
0
LINE
8
Visible
10
30416.709818
20
6494.246917
11
30415.702205
21
6480.804038
0
LINE
8
Visible
10
30415.702205
20
6480.804038
11
30414.916182
21
6467.319593
0
LINE
8
Visible
10
30414.916182
20
6467.319593
11
30414.353082
21
6453.795896
0
LINE
8
Visible
10
30414.353082
20
6453.795896
11
30414.014243
21
6440.235261
0
LINE
8
Visible
10
30414.014243
20
6440.235261
11
30413.901000
21
6426.640000
0
LINE
8
Visible
10
30413.901000
20
6426.640000
11
30414.014266
21
6413.044739
0
LINE
8
Visible
10
30414.014266
20
6413.044739
11
30414.353128
21
6399.484104
0
LINE
8
Visible
10
30414.353128
20
6399.484104
11
30414.916249
21
6385.960407
0
LINE
8
Visible
10
30414.916249
20
6385.960407
11
30415.702293
21
6372.475962
0
LINE
8
Visible
10
30415.702293
20
6372.475962
11
30416.709926
21
6359.033083
0
LINE
8
Visible
10
30416.709926
20
6359.033083
11
30417.937812
21
6345.634084
0
LINE
8
Visible
10
30417.937812
20
6345.634084
11
30419.384614
21
6332.281276
0
LINE
8
Visible
10
30419.384614
20
6332.281276
11
30421.048998
21
6318.976975
0
LINE
8
Visible
10
30421.048998
20
6318.976975
11
30422.929627
21
6305.723493
0
LINE
8
Visible
10
30422.929627
20
6305.723493
11
30425.025166
21
6292.523144
0
LINE
8
Visible
10
30425.025166
20
6292.523144
11
30427.334279
21
6279.378241
0
LINE
8
Visible
10
30427.334279
20
6279.378241
11
30429.855631
21
6266.291098
0
LINE
8
Visible
10
30429.855631
20
6266.291098
11
30432.587886
21
6253.264028
0
LINE
8
Visible
10
30432.587886
20
6253.264028
11
30435.529708
21
6240.299345
0
LINE
8
Visible
10
30435.529708
20
6240.299345
11
30438.679762
21
6227.399362
0
LINE
8
Visible
10
30438.679762
20
6227.399362
11
30442.036711
21
6214.566392
0
LINE
8
Visible
10
30442.036711
20
6214.566392
11
30445.599221
21
6201.802750
0
LINE
8
Visible
10
30445.599221
20
6201.802750
11
30449.365956
21
6189.110748
0
LINE
8
Visible
10
30449.365956
20
6189.110748
11
30453.335579
21
6176.492700
0
LINE
8
Visible
10
30453.335579
20
6176.492700
11
30457.506756
21
6163.950919
0
LINE
8
Visible
10
30457.506756
20
6163.950919
11
30461.878150
21
6151.487719
0
LINE
8
Visible
10
30461.878150
20
6151.487719
11
30466.448427
21
6139.105413
0
LINE
8
Visible
10
30466.448427
20
6139.105413
11
30471.216250
21
6126.806315
0
LINE
8
Visible
10
30471.216250
20
6126.806315
11
30476.180283
21
6114.592739
0
LINE
8
Visible
10
30476.180283
20
6114.592739
11
30481.339191
21
6102.466996
0
LINE
8
Visible
10
30481.339191
20
6102.466996
11
30486.691639
21
6090.431402
0
LINE
8
Visible
10
30486.691639
20
6090.431402
11
30492.236291
21
6078.488270
0
LINE
8
Visible
10
30492.236291
20
6078.488270
11
30497.971810
21
6066.639912
0
LINE
8
Visible
10
30497.971810
20
6066.639912
11
30503.896862
21
6054.888643
0
LINE
8
Visible
10
30503.896862
20
6054.888643
11
30510.010111
21
6043.236775
0
LINE
8
Visible
10
30510.010111
20
6043.236775
11
30516.310220
21
6031.686623
0
LINE
8
Visible
10
30516.310220
20
6031.686623
11
30522.795855
21
6020.240500
0
LINE
8
Visible
10
30522.795855
20
6020.240500
11
30529.465680
21
6008.900719
0
LINE
8
Visible
10
30529.465680
20
6008.900719
11
30536.318359
21
5997.669593
0
LINE
8
Visible
10
30536.318359
20
5997.669593
11
30543.352556
21
5986.549437
0
LINE
8
Visible
10
30543.352556
20
5986.549437
11
30550.566936
21
5975.542563
0
LINE
8
Visible
10
30550.566936
20
5975.542563
11
30557.960163
21
5964.651285
0
LINE
8
Visible
10
30557.960163
20
5964.651285
11
30565.530902
21
5953.877917
0
LINE
8
Visible
10
30565.530902
20
5953.877917
11
30573.277816
21
5943.224772
0
LINE
8
Visible
10
30573.277816
20
5943.224772
11
30581.199571
21
5932.694162
0
LINE
8
Visible
10
30581.199571
20
5932.694162
11
30589.294830
21
5922.288403
0
LINE
8
Visible
10
30589.294830
20
5922.288403
11
30597.562257
21
5912.009807
0
LINE
8
Visible
10
30597.562257
20
5912.009807
11
30606.000518
21
5901.860688
0
LINE
8
Visible
10
30606.000518
20
5901.860688
11
30614.608277
21
5891.843358
0
LINE
8
Visible
10
30614.608277
20
5891.843358
11
30623.384197
21
5881.960133
0
LINE
8
Visible
10
30623.384197
20
5881.960133
11
30632.326943
21
5872.213324
0
LINE
8
Visible
10
30632.326943
20
5872.213324
11
30641.435180
21
5862.605246
0
LINE
8
Visible
10
30641.435180
20
5862.605246
11
30650.707572
21
5853.138212
0
LINE
8
Visible
10
30650.707572
20
5853.138212
11
30660.142783
21
5843.814535
0
LINE
8
Visible
10
30660.142783
20
5843.814535
11
30669.739477
21
5834.636530
0
LINE
8
Visible
10
30669.739477
20
5834.636530
11
30679.496319
21
5825.606508
0
LINE
8
Visible
10
30679.496319
20
5825.606508
11
30689.411974
21
5816.726784
0
LINE
8
Visible
10
30689.411974
20
5816.726784
11
30699.485105
21
5807.999671
0
LINE
8
Visible
10
30699.485105
20
5807.999671
11
30709.714377
21
5799.427483
0
LINE
8
Visible
10
30709.714377
20
5799.427483
11
30720.098454
21
5791.012534
0
LINE
8
Visible
10
30720.098454
20
5791.012534
11
30730.636001
21
5782.757135
0
LINE
8
Visible
10
30730.636001
20
5782.757135
11
30741.325681
21
5774.663602
0
LINE
8
Visible
10
30741.325681
20
5774.663602
11
30752.166160
21
5766.734247
0
LINE
8
Visible
10
30752.166160
20
5766.734247
11
30763.156102
21
5758.971384
0
LINE
8
Visible
10
30763.156102
20
5758.971384
11
30774.294170
21
5751.377326
0
LINE
8
Visible
10
30774.294170
20
5751.377326
11
30785.579030
21
5743.954387
0
LINE
8
Visible
10
30785.579030
20
5743.954387
11
30797.009345
21
5736.704881
0
LINE
8
Visible
10
30797.009345
20
5736.704881
11
30808.583780
21
5729.631120
0
LINE
8
Visible
10
30808.583780
20
5729.631120
11
30820.301000
21
5722.735418
0
LINE
8
Visible
10
30820.301000
20
5722.735418
11
30832.131463
21
5716.035859
0
LINE
8
Visible
10
30832.131463
20
5716.035859
11
30844.044737
21
5709.548984
0
LINE
8
Visible
10
30844.044737
20
5709.548984
11
30856.038152
21
5703.274794
0
LINE
8
Visible
10
30856.038152
20
5703.274794
11
30868.109035
21
5697.213289
0
LINE
8
Visible
10
30868.109035
20
5697.213289
11
30880.254716
21
5691.364467
0
LINE
8
Visible
10
30880.254716
20
5691.364467
11
30892.472523
21
5685.728331
0
LINE
8
Visible
10
30892.472523
20
5685.728331
11
30904.759786
21
5680.304878
0
LINE
8
Visible
10
30904.759786
20
5680.304878
11
30917.113831
21
5675.094110
0
LINE
8
Visible
10
30917.113831
20
5675.094110
11
30929.531989
21
5670.096026
0
LINE
8
Visible
10
30929.531989
20
5670.096026
11
30942.011588
21
5665.310627
0
LINE
8
Visible
10
30942.011588
20
5665.310627
11
30954.549956
21
5660.737912
0
LINE
8
Visible
10
30954.549956
20
5660.737912
11
30967.144422
21
5656.377882
0
LINE
8
Visible
10
30967.144422
20
5656.377882
11
30979.792316
21
5652.230536
0
LINE
8
Visible
10
30979.792316
20
5652.230536
11
30992.490964
21
5648.295874
0
LINE
8
Visible
10
30992.490964
20
5648.295874
11
31005.237697
21
5644.573897
0
LINE
8
Visible
10
31005.237697
20
5644.573897
11
31018.029843
21
5641.064604
0
LINE
8
Visible
10
31018.029843
20
5641.064604
11
31030.864730
21
5637.767996
0
LINE
8
Visible
10
31030.864730
20
5637.767996
11
31043.739687
21
5634.684072
0
LINE
8
Visible
10
31043.739687
20
5634.684072
11
31056.652043
21
5631.812833
0
LINE
8
Visible
10
31056.652043
20
5631.812833
11
31069.599127
21
5629.154278
0
LINE
8
Visible
10
31069.599127
20
5629.154278
11
31082.578266
21
5626.708407
0
LINE
8
Visible
10
31082.578266
20
5626.708407
11
31095.586791
21
5624.475220
0
LINE
8
Visible
10
31095.586791
20
5624.475220
11
31108.622028
21
5622.454719
0
LINE
8
Visible
10
31108.622028
20
5622.454719
11
31121.681308
21
5620.646901
0
LINE
8
Visible
10
31121.681308
20
5620.646901
11
31134.761959
21
5619.051768
0
LINE
8
Visible
10
31134.761959
20
5619.051768
11
31147.861308
21
5617.669319
0
LINE
8
Visible
10
31147.861308
20
5617.669319
11
31160.976686
21
5616.499555
0
LINE
8
Visible
10
31160.976686
20
5616.499555
11
31174.105421
21
5615.542475
0
LINE
8
Visible
10
31174.105421
20
5615.542475
11
31187.244841
21
5614.798080
0
LINE
8
Visible
10
31187.244841
20
5614.798080
11
31200.392275
21
5614.266369
0
LINE
8
Visible
10
31200.392275
20
5614.266369
11
31213.545052
21
5613.947342
0
LINE
8
Visible
10
31213.545052
20
5613.947342
11
31226.700500
21
5613.841000
0
LINE
8
Visible
10
31226.700500
20
5613.841000
11
31239.855948
21
5613.947342
0
LINE
8
Visible
10
31239.855948
20
5613.947342
11
31253.008725
21
5614.266369
0
LINE
8
Visible
10
31253.008725
20
5614.266369
11
31266.156159
21
5614.798080
0
LINE
8
Visible
10
31266.156159
20
5614.798080
11
31279.295579
21
5615.542475
0
LINE
8
Visible
10
31279.295579
20
5615.542475
11
31292.424314
21
5616.499555
0
LINE
8
Visible
10
31292.424314
20
5616.499555
11
31305.539692
21
5617.669319
0
LINE
8
Visible
10
31305.539692
20
5617.669319
11
31318.639041
21
5619.051768
0
LINE
8
Visible
10
31318.639041
20
5619.051768
11
31331.719692
21
5620.646901
0
LINE
8
Visible
10
31331.719692
20
5620.646901
11
31344.778972
21
5622.454719
0
LINE
8
Visible
10
31344.778972
20
5622.454719
11
31357.814209
21
5624.475220
0
LINE
8
Visible
10
31357.814209
20
5624.475220
11
31370.822734
21
5626.708407
0
LINE
8
Visible
10
31370.822734
20
5626.708407
11
31383.801873
21
5629.154278
0
LINE
8
Visible
10
31383.801873
20
5629.154278
11
31396.748957
21
5631.812833
0
LINE
8
Visible
10
31396.748957
20
5631.812833
11
31409.661313
21
5634.684072
0
LINE
8
Visible
10
31409.661313
20
5634.684072
11
31422.536270
21
5637.767996
0
LINE
8
Visible
10
31422.536270
20
5637.767996
11
31435.371157
21
5641.064604
0
LINE
8
Visible
10
31435.371157
20
5641.064604
11
31448.163303
21
5644.573897
0
LINE
8
Visible
10
31448.163303
20
5644.573897
11
31460.910036
21
5648.295874
0
LINE
8
Visible
10
31460.910036
20
5648.295874
11
31473.608684
21
5652.230536
0
LINE
8
Visible
10
31473.608684
20
5652.230536
11
31486.256578
21
5656.377882
0
LINE
8
Visible
10
31486.256578
20
5656.377882
11
31498.851044
21
5660.737912
0
LINE
8
Visible
10
31498.851044
20
5660.737912
11
31511.389412
21
5665.310627
0
LINE
8
Visible
10
31511.389412
20
5665.310627
11
31523.869011
21
5670.096026
0
LINE
8
Visible
10
31523.869011
20
5670.096026
11
31536.287169
21
5675.094110
0
LINE
8
Visible
10
31536.287169
20
5675.094110
11
31548.641214
21
5680.304878
0
LINE
8
Visible
10
31548.641214
20
5680.304878
11
31560.928477
21
5685.728331
0
LINE
8
Visible
10
31560.928477
20
5685.728331
11
31573.146284
21
5691.364467
0
LINE
8
Visible
10
31573.146284
20
5691.364467
11
31585.291965
21
5697.213289
0
LINE
8
Visible
10
31585.291965
20
5697.213289
11
31597.362848
21
5703.274794
0
LINE
8
Visible
10
31597.362848
20
5703.274794
11
31609.356263
21
5709.548984
0
LINE
8
Visible
10
31609.356263
20
5709.548984
11
31621.269537
21
5716.035859
0
LINE
8
Visible
10
31621.269537
20
5716.035859
11
31633.100000
21
5722.735418
0
LINE
8
Visible
10
31633.100000
20
5722.735418
11
31644.817220
21
5729.631120
0
LINE
8
Visible
10
31644.817220
20
5729.631120
11
31656.391655
21
5736.704881
0
LINE
8
Visible
10
31656.391655
20
5736.704881
11
31667.821970
21
5743.954387
0
LINE
8
Visible
10
31667.821970
20
5743.954387
11
31679.106830
21
5751.377326
0
LINE
8
Visible
10
31679.106830
20
5751.377326
11
31690.244898
21
5758.971384
0
LINE
8
Visible
10
31690.244898
20
5758.971384
11
31701.234839
21
5766.734247
0
LINE
8
Visible
10
31701.234839
20
5766.734247
11
31712.075318
21
5774.663602
0
LINE
8
Visible
10
31712.075318
20
5774.663602
11
31722.764998
21
5782.757135
0
LINE
8
Visible
10
31722.764998
20
5782.757135
11
31733.302545
21
5791.012534
0
LINE
8
Visible
10
31733.302545
20
5791.012534
11
31743.686621
21
5799.427483
0
LINE
8
Visible
10
31743.686621
20
5799.427483
11
31753.915893
21
5807.999671
0
LINE
8
Visible
10
31753.915893
20
5807.999671
11
31763.989023
21
5816.726784
0
LINE
8
Visible
10
31763.989023
20
5816.726784
11
31773.904677
21
5825.606508
0
LINE
8
Visible
10
31773.904677
20
5825.606508
11
31783.661518
21
5834.636530
0
LINE
8
Visible
10
31783.661518
20
5834.636530
11
31793.258211
21
5843.814535
0
LINE
8
Visible
10
31793.258211
20
5843.814535
11
31802.693421
21
5853.138212
0
LINE
8
Visible
10
31802.693421
20
5853.138212
11
31811.965811
21
5862.605246
0
LINE
8
Visible
10
31811.965811
20
5862.605246
11
31821.074046
21
5872.213324
0
LINE
8
Visible
10
31821.074046
20
5872.213324
11
31830.016790
21
5881.960133
0
LINE
8
Visible
10
31830.016790
20
5881.960133
11
31838.792708
21
5891.843358
0
LINE
8
Visible
10
31838.792708
20
5891.843358
11
31847.400464
21
5901.860688
0
LINE
8
Visible
10
31847.400464
20
5901.860688
11
31855.838722
21
5912.009807
0
LINE
8
Visible
10
31855.838722
20
5912.009807
11
31864.106147
21
5922.288403
0
LINE
8
Visible
10
31864.106147
20
5922.288403
11
31872.201403
21
5932.694162
0
LINE
8
Visible
10
31872.201403
20
5932.694162
11
31880.123154
21
5943.224772
0
LINE
8
Visible
10
31880.123154
20
5943.224772
11
31887.870065
21
5953.877917
0
LINE
8
Visible
10
31887.870065
20
5953.877917
11
31895.440799
21
5964.651285
0
LINE
8
Visible
10
31895.440799
20
5964.651285
11
31902.834022
21
5975.542563
0
LINE
8
Visible
10
31902.834022
20
5975.542563
11
31910.048397
21
5986.549437
0
LINE
8
Visible
10
31910.048397
20
5986.549437
11
31917.082590
21
5997.669593
0
LINE
8
Visible
10
31917.082590
20
5997.669593
11
31923.935263
21
6008.900719
0
LINE
8
Visible
10
31923.935263
20
6008.900719
11
31930.605082
21
6020.240500
0
LINE
8
Visible
10
31930.605082
20
6020.240500
11
31937.090711
21
6031.686623
0
LINE
8
Visible
10
31937.090711
20
6031.686623
11
31943.390814
21
6043.236775
0
LINE
8
Visible
10
31943.390814
20
6043.236775
11
31949.504056
21
6054.888643
0
LINE
8
Visible
10
31949.504056
20
6054.888643
11
31955.429101
21
6066.639912
0
LINE
8
Visible
10
31955.429101
20
6066.639912
11
31961.164613
21
6078.488270
0
LINE
8
Visible
10
31961.164613
20
6078.488270
11
31966.709256
21
6090.431402
0
LINE
8
Visible
10
31966.709256
20
6090.431402
11
31972.061695
21
6102.466996
0
LINE
8
Visible
10
31972.061695
20
6102.466996
11
31977.220595
21
6114.592739
0
LINE
8
Visible
10
31977.220595
20
6114.592739
11
31982.184619
21
6126.806315
0
LINE
8
Visible
10
31982.184619
20
6126.806315
11
31986.952432
21
6139.105413
0
LINE
8
Visible
10
31986.952432
20
6139.105413
11
31991.522698
21
6151.487719
0
LINE
8
Visible
10
31991.522698
20
6151.487719
11
31995.894081
21
6163.950919
0
LINE
8
Visible
10
31995.894081
20
6163.950919
11
32000.065247
21
6176.492700
0
LINE
8
Visible
10
32000.065247
20
6176.492700
11
32004.034859
21
6189.110748
0
LINE
8
Visible
10
32004.034859
20
6189.110748
11
32007.801581
21
6201.802750
0
LINE
8
Visible
10
32007.801581
20
6201.802750
11
32011.364078
21
6214.566392
0
LINE
8
Visible
10
32011.364078
20
6214.566392
11
32014.721014
21
6227.399362
0
LINE
8
Visible
10
32014.721014
20
6227.399362
11
32017.871053
21
6240.299345
0
LINE
8
Visible
10
32017.871053
20
6240.299345
11
32020.812861
21
6253.264028
0
LINE
8
Visible
10
32020.812861
20
6253.264028
11
32023.545101
21
6266.291098
0
LINE
8
Visible
10
32023.545101
20
6266.291098
11
32026.066437
21
6279.378241
0
LINE
8
Visible
10
32026.066437
20
6279.378241
11
32028.375534
21
6292.523144
0
LINE
8
Visible
10
32028.375534
20
6292.523144
11
32030.471056
21
6305.723493
0
LINE
8
Visible
10
32030.471056
20
6305.723493
11
32032.351667
21
6318.976975
0
LINE
8
Visible
10
32032.351667
20
6318.976975
11
32034.016033
21
6332.281276
0
LINE
8
Visible
10
32034.016033
20
6332.281276
11
32035.462816
21
6345.634084
0
LINE
8
Visible
10
32035.462816
20
6345.634084
11
32036.690682
21
6359.033083
0
LINE
8
Visible
10
32036.690682
20
6359.033083
11
32037.698295
21
6372.475962
0
LINE
8
Visible
10
32037.698295
20
6372.475962
11
32038.484318
21
6385.960407
0
LINE
8
Visible
10
32038.484318
20
6385.960407
11
32039.047418
21
6399.484104
0
LINE
8
Visible
10
32039.047418
20
6399.484104
11
32039.386257
21
6413.044739
0
LINE
8
Visible
10
32039.386257
20
6413.044739
11
32039.499500
21
6426.640000
0
LINE
8
Visible
10
32039.499500
20
6426.640000
11
32039.500000
21
6426.640000
0
LINE
8
Visible
10
33191.000000
20
7103.980000
11
33191.000000
21
5749.310000
0
LINE
8
Visible
10
33326.400000
20
7239.430000
11
33319.682580
21
7239.263512
0
LINE
8
Visible
10
33319.682580
20
7239.263512
11
33313.010751
21
7238.767115
0
LINE
8
Visible
10
33313.010751
20
7238.767115
11
33306.395619
21
7237.945407
0
LINE
8
Visible
10
33306.395619
20
7237.945407
11
33299.848287
21
7236.802988
0
LINE
8
Visible
10
33299.848287
20
7236.802988
11
33293.379857
21
7235.344458
0
LINE
8
Visible
10
33293.379857
20
7235.344458
11
33287.001435
21
7233.574415
0
LINE
8
Visible
10
33287.001435
20
7233.574415
11
33280.724122
21
7231.497459
0
LINE
8
Visible
10
33280.724122
20
7231.497459
11
33274.559023
21
7229.118189
0
LINE
8
Visible
10
33274.559023
20
7229.118189
11
33268.517242
21
7226.441204
0
LINE
8
Visible
10
33268.517242
20
7226.441204
11
33262.609882
21
7223.471103
0
LINE
8
Visible
10
33262.609882
20
7223.471103
11
33256.848047
21
7220.212487
0
LINE
8
Visible
10
33256.848047
20
7220.212487
11
33251.242840
21
7216.669953
0
LINE
8
Visible
10
33251.242840
20
7216.669953
11
33245.805365
21
7212.848102
0
LINE
8
Visible
10
33245.805365
20
7212.848102
11
33240.546725
21
7208.751532
0
LINE
8
Visible
10
33240.546725
20
7208.751532
11
33235.478024
21
7204.384843
0
LINE
8
Visible
10
33235.478024
20
7204.384843
11
33230.610366
21
7199.752634
0
LINE
8
Visible
10
33230.610366
20
7199.752634
11
33225.978157
21
7194.884976
0
LINE
8
Visible
10
33225.978157
20
7194.884976
11
33221.611468
21
7189.816275
0
LINE
8
Visible
10
33221.611468
20
7189.816275
11
33217.514898
21
7184.557635
0
LINE
8
Visible
10
33217.514898
20
7184.557635
11
33213.693047
21
7179.120160
0
LINE
8
Visible
10
33213.693047
20
7179.120160
11
33210.150513
21
7173.514953
0
LINE
8
Visible
10
33210.150513
20
7173.514953
11
33206.891897
21
7167.753118
0
LINE
8
Visible
10
33206.891897
20
7167.753118
11
33203.921796
21
7161.845758
0
LINE
8
Visible
10
33203.921796
20
7161.845758
11
33201.244811
21
7155.803977
0
LINE
8
Visible
10
33201.244811
20
7155.803977
11
33198.865541
21
7149.638878
0
LINE
8
Visible
10
33198.865541
20
7149.638878
11
33196.788585
21
7143.361565
0
LINE
8
Visible
10
33196.788585
20
7143.361565
11
33195.018542
21
7136.983143
0
LINE
8
Visible
10
33195.018542
20
7136.983143
11
33193.560012
21
7130.514713
0
LINE
8
Visible
10
33193.560012
20
7130.514713
11
33192.417593
21
7123.967381
0
LINE
8
Visible
10
33192.417593
20
7123.967381
11
33191.595885
21
7117.352249
0
LINE
8
Visible
10
33191.595885
20
7117.352249
11
33191.099488
21
7110.680420
0
LINE
8
Visible
10
33191.099488
20
7110.680420
11
33190.933000
21
7103.963000
0
LINE
8
Visible
10
33326.500000
20
7239.450000
11
34003.800000
21
7239.450000
0
LINE
8
Visible
10
34139.200000
20
7103.970000
11
34139.023731
21
7110.941114
0
LINE
8
Visible
10
34139.023731
20
7110.941114
11
34138.500599
21
7117.820714
0
LINE
8
Visible
10
34138.500599
20
7117.820714
11
34137.639116
21
7124.600288
0
LINE
8
Visible
10
34137.639116
20
7124.600288
11
34136.447792
21
7131.271326
0
LINE
8
Visible
10
34136.447792
20
7131.271326
11
34134.935140
21
7137.825314
0
LINE
8
Visible
10
34134.935140
20
7137.825314
11
34133.109672
21
7144.253742
0
LINE
8
Visible
10
34133.109672
20
7144.253742
11
34130.979898
21
7150.548098
0
LINE
8
Visible
10
34130.979898
20
7150.548098
11
34128.554332
21
7156.699870
0
LINE
8
Visible
10
34128.554332
20
7156.699870
11
34125.841483
21
7162.700547
0
LINE
8
Visible
10
34125.841483
20
7162.700547
11
34122.849865
21
7168.541616
0
LINE
8
Visible
10
34122.849865
20
7168.541616
11
34119.587988
21
7174.214567
0
LINE
8
Visible
10
34119.587988
20
7174.214567
11
34116.064364
21
7179.710888
0
LINE
8
Visible
10
34116.064364
20
7179.710888
11
34112.287505
21
7185.022067
0
LINE
8
Visible
10
34112.287505
20
7185.022067
11
34108.265923
21
7190.139592
0
LINE
8
Visible
10
34108.265923
20
7190.139592
11
34104.008129
21
7195.054951
0
LINE
8
Visible
10
34104.008129
20
7195.054951
11
34099.522634
21
7199.759634
0
LINE
8
Visible
10
34099.522634
20
7199.759634
11
34094.817951
21
7204.245129
0
LINE
8
Visible
10
34094.817951
20
7204.245129
11
34089.902592
21
7208.502923
0
LINE
8
Visible
10
34089.902592
20
7208.502923
11
34084.785067
21
7212.524505
0
LINE
8
Visible
10
34084.785067
20
7212.524505
11
34079.473888
21
7216.301364
0
LINE
8
Visible
10
34079.473888
20
7216.301364
11
34073.977567
21
7219.824988
0
LINE
8
Visible
10
34073.977567
20
7219.824988
11
34068.304616
21
7223.086865
0
LINE
8
Visible
10
34068.304616
20
7223.086865
11
34062.463547
21
7226.078483
0
LINE
8
Visible
10
34062.463547
20
7226.078483
11
34056.462870
21
7228.791332
0
LINE
8
Visible
10
34056.462870
20
7228.791332
11
34050.311098
21
7231.216898
0
LINE
8
Visible
10
34050.311098
20
7231.216898
11
34044.016742
21
7233.346672
0
LINE
8
Visible
10
34044.016742
20
7233.346672
11
34037.588314
21
7235.172140
0
LINE
8
Visible
10
34037.588314
20
7235.172140
11
34031.034326
21
7236.684792
0
LINE
8
Visible
10
34031.034326
20
7236.684792
11
34024.363288
21
7237.876116
0
LINE
8
Visible
10
34024.363288
20
7237.876116
11
34017.583714
21
7238.737599
0
LINE
8
Visible
10
34017.583714
20
7238.737599
11
34010.704114
21
7239.260731
0
LINE
8
Visible
10
34010.704114
20
7239.260731
11
34003.733000
21
7239.437000
0
LINE
8
Visible
10
34139.300000
20
7103.980000
11
34139.300000
21
5749.310000
0
LINE
8
Visible
10
34003.700000
20
5613.840000
11
34010.671114
21
5614.016269
0
LINE
8
Visible
10
34010.671114
20
5614.016269
11
34017.550714
21
5614.539401
0
LINE
8
Visible
10
34017.550714
20
5614.539401
11
34024.330288
21
5615.400884
0
LINE
8
Visible
10
34024.330288
20
5615.400884
11
34031.001326
21
5616.592208
0
LINE
8
Visible
10
34031.001326
20
5616.592208
11
34037.555314
21
5618.104860
0
LINE
8
Visible
10
34037.555314
20
5618.104860
11
34043.983742
21
5619.930328
0
LINE
8
Visible
10
34043.983742
20
5619.930328
11
34050.278098
21
5622.060102
0
LINE
8
Visible
10
34050.278098
20
5622.060102
11
34056.429870
21
5624.485668
0
LINE
8
Visible
10
34056.429870
20
5624.485668
11
34062.430547
21
5627.198517
0
LINE
8
Visible
10
34062.430547
20
5627.198517
11
34068.271616
21
5630.190135
0
LINE
8
Visible
10
34068.271616
20
5630.190135
11
34073.944567
21
5633.452012
0
LINE
8
Visible
10
34073.944567
20
5633.452012
11
34079.440888
21
5636.975636
0
LINE
8
Visible
10
34079.440888
20
5636.975636
11
34084.752067
21
5640.752495
0
LINE
8
Visible
10
34084.752067
20
5640.752495
11
34089.869592
21
5644.774077
0
LINE
8
Visible
10
34089.869592
20
5644.774077
11
34094.784951
21
5649.031871
0
LINE
8
Visible
10
34094.784951
20
5649.031871
11
34099.489634
21
5653.517366
0
LINE
8
Visible
10
34099.489634
20
5653.517366
11
34103.975129
21
5658.222049
0
LINE
8
Visible
10
34103.975129
20
5658.222049
11
34108.232923
21
5663.137408
0
LINE
8
Visible
10
34108.232923
20
5663.137408
11
34112.254505
21
5668.254933
0
LINE
8
Visible
10
34112.254505
20
5668.254933
11
34116.031364
21
5673.566112
0
LINE
8
Visible
10
34116.031364
20
5673.566112
11
34119.554988
21
5679.062433
0
LINE
8
Visible
10
34119.554988
20
5679.062433
11
34122.816865
21
5684.735384
0
LINE
8
Visible
10
34122.816865
20
5684.735384
11
34125.808483
21
5690.576453
0
LINE
8
Visible
10
34125.808483
20
5690.576453
11
34128.521332
21
5696.577130
0
LINE
8
Visible
10
34128.521332
20
5696.577130
11
34130.946898
21
5702.728902
0
LINE
8
Visible
10
34130.946898
20
5702.728902
11
34133.076672
21
5709.023258
0
LINE
8
Visible
10
34133.076672
20
5709.023258
11
34134.902140
21
5715.451686
0
LINE
8
Visible
10
34134.902140
20
5715.451686
11
34136.414792
21
5722.005674
0
LINE
8
Visible
10
34136.414792
20
5722.005674
11
34137.606116
21
5728.676712
0
LINE
8
Visible
10
34137.606116
20
5728.676712
11
34138.467599
21
5735.456286
0
LINE
8
Visible
10
34138.467599
20
5735.456286
11
34138.990731
21
5742.335886
0
LINE
8
Visible
10
34138.990731
20
5742.335886
11
34139.167000
21
5749.307000
0
LINE
8
Visible
10
33326.500000
20
5613.850000
11
34003.800000
21
5613.850000
0
LINE
8
Visible
10
33190.900000
20
5749.300000
11
33191.076269
21
5742.328886
0
LINE
8
Visible
10
33191.076269
20
5742.328886
11
33191.599401
21
5735.449286
0
LINE
8
Visible
10
33191.599401
20
5735.449286
11
33192.460884
21
5728.669712
0
LINE
8
Visible
10
33192.460884
20
5728.669712
11
33193.652208
21
5721.998674
0
LINE
8
Visible
10
33193.652208
20
5721.998674
11
33195.164860
21
5715.444686
0
LINE
8
Visible
10
33195.164860
20
5715.444686
11
33196.990328
21
5709.016258
0
LINE
8
Visible
10
33196.990328
20
5709.016258
11
33199.120102
21
5702.721902
0
LINE
8
Visible
10
33199.120102
20
5702.721902
11
33201.545668
21
5696.570130
0
LINE
8
Visible
10
33201.545668
20
5696.570130
11
33204.258517
21
5690.569453
0
LINE
8
Visible
10
33204.258517
20
5690.569453
11
33207.250135
21
5684.728384
0
LINE
8
Visible
10
33207.250135
20
5684.728384
11
33210.512012
21
5679.055433
0
LINE
8
Visible
10
33210.512012
20
5679.055433
11
33214.035636
21
5673.559112
0
LINE
8
Visible
10
33214.035636
20
5673.559112
11
33217.812495
21
5668.247933
0
LINE
8
Visible
10
33217.812495
20
5668.247933
11
33221.834077
21
5663.130408
0
LINE
8
Visible
10
33221.834077
20
5663.130408
11
33226.091871
21
5658.215049
0
LINE
8
Visible
10
33226.091871
20
5658.215049
11
33230.577366
21
5653.510366
0
LINE
8
Visible
10
33230.577366
20
5653.510366
11
33235.282049
21
5649.024871
0
LINE
8
Visible
10
33235.282049
20
5649.024871
11
33240.197408
21
5644.767077
0
LINE
8
Visible
10
33240.197408
20
5644.767077
11
33245.314933
21
5640.745495
0
LINE
8
Visible
10
33245.314933
20
5640.745495
11
33250.626112
21
5636.968636
0
LINE
8
Visible
10
33250.626112
20
5636.968636
11
33256.122433
21
5633.445012
0
LINE
8
Visible
10
33256.122433
20
5633.445012
11
33261.795384
21
5630.183135
0
LINE
8
Visible
10
33261.795384
20
5630.183135
11
33267.636453
21
5627.191517
0
LINE
8
Visible
10
33267.636453
20
5627.191517
11
33273.637130
21
5624.478668
0
LINE
8
Visible
10
33273.637130
20
5624.478668
11
33279.788902
21
5622.053102
0
LINE
8
Visible
10
33279.788902
20
5622.053102
11
33286.083258
21
5619.923328
0
LINE
8
Visible
10
33286.083258
20
5619.923328
11
33292.511686
21
5618.097860
0
LINE
8
Visible
10
33292.511686
20
5618.097860
11
33299.065674
21
5616.585208
0
LINE
8
Visible
10
33299.065674
20
5616.585208
11
33305.736712
21
5615.393884
0
LINE
8
Visible
10
33305.736712
20
5615.393884
11
33312.516286
21
5614.532401
0
LINE
8
Visible
10
33312.516286
20
5614.532401
11
33319.395886
21
5614.009269
0
LINE
8
Visible
10
33319.395886
20
5614.009269
11
33326.367000
21
5613.833000
0
LINE
8
Visible
10
38406.500000
20
8052.250000
11
38406.500000
21
5071.980000
0
LINE
8
Visible
10
38406.500000
20
8052.250000
11
28923.800000
21
8052.250000
0
LINE
8
Visible
10
28923.800000
20
8052.250000
11
28923.800000
21
5071.980000
0
LINE
8
Visible
10
38406.500000
20
5071.980000
11
28923.800000
21
5071.980000
0
LINE
8
Visible
10
36304.800000
20
5613.850000
11
36073.660000
21
6014.831000
0
LINE
8
Visible
10
36073.600000
20
6014.830000
11
35849.516000
21
5613.849000
0
LINE
8
Visible
10
35142.600000
20
6836.600000
11
35849.566000
21
5613.840000
0
LINE
8
Visible
10
35600.300000
20
6836.600000
11
35142.600000
21
6836.600000
0
LINE
8
Visible
10
35372.300000
20
7232.160000
11
35600.335000
21
6836.598000
0
LINE
8
Visible
10
36783.400000
20
7232.160000
11
35372.300000
21
7232.160000
0
LINE
8
Visible
10
36562.400000
20
6836.600000
11
36783.380000
21
7232.162000
0
LINE
8
Visible
10
37010.900000
20
6836.600000
11
36562.400000
21
6836.600000
0
LINE
8
Visible
10
36304.800000
20
5613.850000
11
37010.919000
21
6836.610000
 0 
ENDSEC
 0 
EOF