  0
SECTION
  2
HEADER
  9
$ACADVER
  1
AC1009
  9
$DWGCODEPAGE
  3
ansi_1252
  9
$INSBASE
 10
0.0
 20
0.0
 30
0.0
  9
$EXTMIN
 10
1.000000000000000E+20
 20
1.000000000000000E+20
 30
1.000000000000000E+20
  9
$EXTMAX
 10
-1.000000000000000E+20
 20
-1.000000000000000E+20
 30
-1.000000000000000E+20
  9
$LIMMIN
 10
0.0
 20
0.0
  9
$LIMMAX
 10
12.0
 20
9.0
  9
$ORTHOMODE
 70
     0
  9
$REGENMODE
 70
     1
  9
$FILLMODE
 70
     1
  9
$QTEXTMODE
 70
     0
  9
$MIRRTEXT
 70
     1
  9
$DRAGMODE
 70
     2
  9
$LTSCALE
 40
1.0
  9
$OSMODE
 70
    37
  9
$ATTMODE
 70
     1
  9
$TEXTSIZE
 40
0.2
  9
$TRACEWID
 40
0.05
  9
$TEXTSTYLE
  7
STANDARD
  9
$CLAYER
  8
0
  9
$CELTYPE
  6
BYLAYER
  9
$CECOLOR
 62
   256
  9
$DIMSCALE
 40
1.0
  9
$DIMASZ
 40
0.18
  9
$DIMEXO
 40
0.0625
  9
$DIMDLI
 40
0.38
  9
$DIMRND
 40
0.0
  9
$DIMDLE
 40
0.0
  9
$DIMEXE
 40
0.18
  9
$DIMTP
 40
0.0
  9
$DIMTM
 40
0.0
  9
$DIMTXT
 40
0.18
  9
$DIMCEN
 40
0.09
  9
$DIMTSZ
 40
0.0
  9
$DIMTOL
 70
     0
  9
$DIMLIM
 70
     0
  9
$DIMTIH
 70
     1
  9
$DIMTOH
 70
     1
  9
$DIMSE1
 70
     0
  9
$DIMSE2
 70
     0
  9
$DIMTAD
 70
     0
  9
$DIMZIN
 70
     0
  9
$DIMBLK
  1

  9
$DIMASO
 70
     1
  9
$DIMSHO
 70
     1
  9
$DIMPOST
  1

  9
$DIMAPOST
  1

  9
$DIMALT
 70
     0
  9
$DIMALTD
 70
     2
  9
$DIMALTF
 40
0.0393700787401575
  9
$DIMLFAC
 40
1.0
  9
$DIMTOFL
 70
     0
  9
$DIMTVP
 40
0.0
  9
$DIMTIX
 70
     0
  9
$DIMSOXD
 70
     0
  9
$DIMSAH
 70
     0
  9
$DIMBLK1
  1

  9
$DIMBLK2
  1

  9
$DIMSTYLE
  2
STANDARD
  9
$DIMCLRD
 70
     0
  9
$DIMCLRE
 70
     0
  9
$DIMCLRT
 70
     0
  9
$DIMTFAC
 40
1.0
  9
$DIMGAP
 40
0.09
  9
$LUNITS
 70
     2
  9
$LUPREC
 70
     4
  9
$SKETCHINC
 40
0.1
  9
$FILLETRAD
 40
0.5
  9
$AUNITS
 70
     0
  9
$AUPREC
 70
     0
  9
$MENU
  1
.
  9
$ELEVATION
 40
0.0
  9
$PELEVATION
 40
0.0
  9
$THICKNESS
 40
0.0
  9
$LIMCHECK
 70
     0
  9
$CHAMFERA
 40
0.0
  9
$CHAMFERB
 40
0.0
  9
$SKPOLY
 70
     0
  9
$TDCREATE
 40
2459996.296496933
  9
$TDUPDATE
 40
2459996.296496945
  9
$TDINDWG
 40
0.0000000116
  9
$TDUSRTIMER
 40
0.0000000116
  9
$USRTIMER
 70
     1
  9
$ANGBASE
 50
0.0
  9
$ANGDIR
 70
     0
  9
$PDMODE
 70
     0
  9
$PDSIZE
 40
0.0
  9
$PLINEWID
 40
0.0
  9
$COORDS
 70
     1
  9
$SPLFRAME
 70
     0
  9
$SPLINETYPE
 70
     6
  9
$SPLINESEGS
 70
     8
  9
$ATTDIA
 70
     0
  9
$ATTREQ
 70
     1
  9
$HANDLING
 70
     1
  9
$HANDSEED
  5
1000014B
  9
$SURFTAB1
 70
     6
  9
$SURFTAB2
 70
     6
  9
$SURFTYPE
 70
     6
  9
$SURFU
 70
     6
  9
$SURFV
 70
     6
  9
$UCSNAME
  2

  9
$UCSORG
 10
0.0
 20
0.0
 30
0.0
  9
$UCSXDIR
 10
1.0
 20
0.0
 30
0.0
  9
$UCSYDIR
 10
0.0
 20
1.0
 30
0.0
  9
$PUCSNAME
  2

  9
$PUCSORG
 10
0.0
 20
0.0
 30
0.0
  9
$PUCSXDIR
 10
1.0
 20
0.0
 30
0.0
  9
$PUCSYDIR
 10
0.0
 20
1.0
 30
0.0
  9
$USERI1
 70
     0
  9
$USERI2
 70
     0
  9
$USERI3
 70
     0
  9
$USERI4
 70
     0
  9
$USERI5
 70
     0
  9
$USERR1
 40
0.0
  9
$USERR2
 40
0.0
  9
$USERR3
 40
0.0
  9
$USERR4
 40
0.0
  9
$USERR5
 40
0.0
  9
$WORLDVIEW
 70
     1
  9
$SHADEDGE
 70
     3
  9
$SHADEDIF
 70
    70
  9
$TILEMODE
 70
     1
  9
$MAXACTVP
 70
    64
  9
$PLIMCHECK
 70
     0
  9
$PEXTMIN
 10
1.000000000000000E+20
 20
1.000000000000000E+20
 30
1.000000000000000E+20
  9
$PEXTMAX
 10
-1.000000000000000E+20
 20
-1.000000000000000E+20
 30
-1.000000000000000E+20
  9
$PLIMMIN
 10
0.0
 20
0.0
  9
$PLIMMAX
 10
12.0
 20
9.0
  9
$UNITMODE
 70
     0
  9
$VISRETAIN
 70
     1
  9
$PLINEGEN
 70
     0
  9
$PSLTSCALE
 70
     1
  0
ENDSEC
  0
SECTION
  2
TABLES
  0
TABLE
  2
VPORT
 70
     1
  0
VPORT
  2
*ACTIVE
 70
     0
 10
0.0
 20
0.0
 11
1.0
 21
1.0
 12
10.42990654205607
 22
4.5
 13
0.0
 23
0.0
 14
0.5
 24
0.5
 15
0.5
 25
0.5
 16
0.0
 26
0.0
 36
1.0
 17
0.0
 27
0.0
 37
0.0
 40
9.0
 41
1.972972972850329
 42
50.0
 43
0.0
 44
0.0
 50
0.0
 51
0.0
 71
     0
 72
   100
 73
     1
 74
     3
 75
     0
 76
     0
 77
     0
 78
     0
  0
ENDTAB
  0
TABLE
  2
LTYPE
 70
     7
  0
LTYPE
  2
CONTINUOUS
 70
     0
  3
Solid line
 72
    65
 73
     0
 40
0.0
  0
LTYPE
  2
ONS_PHANTOM
 70
     0
  3
Onshape Phantom line ______ __ __ ______
 72
    65
 73
     6
 40
0.4999999999999999
 49
0.25
 49
-0.05
 49
0.05
 49
-0.05
 49
0.05
 49
-0.05
  0
LTYPE
  2
CENTER
 70
     0
  3
Center line ____ _ ____ _ ____ _
 72
    65
 73
     4
 40
0.7199999999999999
 49
0.45
 49
-0.09
 49
0.09
 49
-0.09
  0
LTYPE
  2
DASHED
 70
     0
  3
Dashed line __ __ __ __ __
 72
    65
 73
     2
 40
0.75
 49
0.5
 49
-0.25
  0
LTYPE
  2
ONS_DASHDOT
 70
     0
  3
Onshape Dashed with Dot _ . ____ . ____
 72
    65
 73
     4
 40
0.71
 49
0.5
 49
-0.1
 49
0.01
 49
-0.1
  0
LTYPE
  2
ONS_DOTTED
 70
     0
  3
Onshape Dotted line . . . . . . .
 72
    65
 73
     2
 40
0.11
 49
0.01
 49
-0.1
  0
LTYPE
  2
HIDDEN
 70
     0
  3
Hidden line ____ ____ ____ ____ 
 72
    65
 73
     2
 40
0.15
 49
0.1
 49
-0.05
  0
ENDTAB
  0
TABLE
  2
LAYER
 70
    39
  0
LAYER
  2
0
 70
     0
 62
     7
  6
CONTINUOUS
  0
LAYER
  2
SECTION_CUTTING_LINE
 70
     0
 62
     7
  6
ONS_PHANTOM
  0
LAYER
  2
DETAIL_VIEW_BORDER
 70
     0
 62
     7
  6
CONTINUOUS
  0
LAYER
  2
DETAIL_VIEW_PARENT_BORDER
 70
     0
 62
     7
  6
ONS_PHANTOM
  0
LAYER
  2
TEXT
 70
     0
 62
     7
  6
CONTINUOUS
  0
LAYER
  2
SKETCHED_GEOMETRY
 70
     0
 62
    -7
  6
CONTINUOUS
  0
LAYER
  2
VIRTUAL_SHARPS
 70
     0
 62
    -7
  6
CONTINUOUS
  0
LAYER
  2
CENTERLINES
 70
     0
 62
    -7
  6
CENTER
  0
LAYER
  2
CENTERMARKS
 70
     0
 62
    -7
  6
CONTINUOUS
  0
LAYER
  2
TABLES
 70
     0
 62
     7
  6
CONTINUOUS
  0
LAYER
  2
IMAGES
 70
     0
 62
    -7
  6
CONTINUOUS
  0
LAYER
  2
ANNOTATION_LINES
 70
     0
 62
    -7
  6
CONTINUOUS
  0
LAYER
  2
ANNOTATION_TEXT
 70
     0
 62
    -7
  6
CONTINUOUS
  0
LAYER
  2
SIDE_THREAD_SYMBOLS
 70
     0
 62
     7
  6
HIDDEN
  0
LAYER
  2
SIDE_THREAD_SYMBOLS_HIDDEN
 70
     0
 62
    -7
  6
HIDDEN
  0
LAYER
  2
SURFACE_THREAD_SYMBOLS
 70
     0
 62
     7
  6
HIDDEN
  0
LAYER
  2
SURFACE_THREAD_SYMBOLS_ON_
 70
     0
 62
     7
  6
HIDDEN
  0
LAYER
  2
SURFACE_THREAD_SYMBOLS_HID
 70
     0
 62
    -7
  6
HIDDEN
  0
LAYER
  2
BLIND_THREAD_SYMBOLS
 70
     0
 62
     7
  6
CONTINUOUS
  0
LAYER
  2
BLIND_THREAD_SYMBOLS_HIDDE
 70
     0
 62
    -7
  6
HIDDEN
  0
LAYER
  2
EXPLODE_LINES
 70
     0
 62
     7
  6
ONS_PHANTOM
  0
LAYER
  2
HIDDEN_EXPLODE_LINES
 70
     0
 62
    -7
  6
ONS_PHANTOM
  0
LAYER
  2
BREAK_LINES
 70
     0
 62
    -7
  6
CONTINUOUS
  0
LAYER
  2
SHEETMETAL_BEND_LINES_UP
 70
     0
 62
     7
  6
CENTER
  0
LAYER
  2
SHEETMETAL_BEND_LINES_DOWN
 70
     0
 62
     7
  6
CENTER
  0
LAYER
  2
SHEETMETAL_BEND_TANGENT_LI
 70
     0
 62
     7
  6
CONTINUOUS
  0
LAYER
  2
SHEETMETAL_CUT_LINES
 70
     0
 62
     7
  6
CONTINUOUS
  0
LAYER
  2
REGION_ASSOC_POINTS
 70
     0
 62
    -7
  6
CONTINUOUS
  0
LAYER
  2
HIDDEN
 70
     0
 62
    -7
  6
HIDDEN
  0
LAYER
  2
VISIBLE
 70
     0
 62
     7
  6
CONTINUOUS
  0
LAYER
  2
MODELSKETCH_VISIBLE
 70
     0
 62
     7
  6
CONTINUOUS
  0
LAYER
  2
MODELSKETCH_POINT
 70
     0
 62
     7
  6
CONTINUOUS
  0
LAYER
  2
MODELSKETCH_CONSTRUCTION
 70
     0
 62
    -7
  6
CENTER
  0
LAYER
  2
HIDDEN_BASE_VIEW
 70
     0
 62
     7
  6
CONTINUOUS
  0
LAYER
  2
TANGENT_LINES
 70
     0
 62
    -7
  6
CONTINUOUS
  0
LAYER
  2
TANGENT_HIDDEN
 70
     0
 62
    -7
  6
HIDDEN
  0
LAYER
  2
INVISIBLE_LINES
 70
     0
 62
    -7
  6
CONTINUOUS
  0
LAYER
  2
VIEW_HATCHES
 70
     0
 62
    -7
  6
CONTINUOUS
  0
LAYER
  2
SECTION_JOG_LINES
 70
     0
 62
    -7
  6
CONTINUOUS
  0
ENDTAB
  0
TABLE
  2
STYLE
 70
     2
  0
STYLE
  2
STANDARD
 70
     0
 40
0.0
 41
1.0
 50
0.0
 71
     0
 42
0.2
  3
txt
  4

  0
STYLE
  2
TTFSTYLE
 70
     0
 40
0.0
 41
1.0
 50
0.0
 71
     0
 42
0.2
  3
Verdana.ttf
  4

  0
ENDTAB
  0
TABLE
  2
VIEW
 70
     0
  0
ENDTAB
  0
TABLE
  2
UCS
 70
     0
  0
ENDTAB
  0
TABLE
  2
APPID
 70
     1
  0
APPID
  2
ACAD
 70
     0
  0
ENDTAB
  0
TABLE
  2
DIMSTYLE
 70
     1
  0
DIMSTYLE
  2
STANDARD
 70
     0
  3

  4

  5

  6

  7

 40
1.0
 41
0.18
 42
0.0625
 43
0.38
 44
0.18
 45
0.0
 46
0.0
 47
0.0
 48
0.0
140
0.18
141
0.09
142
0.0
143
25.4
144
1.0
145
0.0
146
1.0
147
0.09
 71
     0
 72
     0
 73
     1
 74
     1
 75
     0
 76
     0
 77
     0
 78
     0
170
     0
171
     2
172
     0
173
     0
174
     0
175
     0
176
     0
177
     0
178
     0
  0
ENDTAB
  0
ENDSEC
  0
SECTION
  2
BLOCKS
  0
BLOCK
  8
0
  2
$MODEL_SPACE
 70
     0
 10
0.0
 20
0.0
 30
0.0
  3
$MODEL_SPACE
  1

  0
ENDBLK
  5
21
  8
0
  0
BLOCK
 67
     1
  8
0
  2
$PAPER_SPACE
 70
     0
 10
0.0
 20
0.0
 30
0.0
  3
$PAPER_SPACE
  1

  0
ENDBLK
  5
1D
 67
     1
  8
0
  0
ENDSEC
  0
SECTION
  2
ENTITIES
  0
LINE
  5
10000050
  8
VISIBLE
 10
31.32725515678525
 20
52.53999999999999
 30
0.0
 11
28.94000015571714
 21
46.84344611406325
 31
0.0
  0
LINE
  5
10000053
  8
VISIBLE
 10
31.32725515678525
 20
52.53999999999999
 30
0.0
 11
33.74000015571715
 21
46.84344611406325
 31
0.0
  0
LINE
  5
10000056
  8
VISIBLE
 10
33.74000015571715
 20
46.84344611406325
 30
0.0
 11
32.24000015571714
 21
46.84344611406325
 31
0.0
  0
LINE
  5
10000059
  8
VISIBLE
 10
32.24000015571713
 20
32.53999999999999
 30
0.0
 11
32.24000015571714
 21
46.84344611406325
 31
0.0
  0
LINE
  5
1000005C
  8
VISIBLE
 10
30.44000015571714
 20
32.53999999999999
 30
0.0
 11
32.24000015571713
 21
32.53999999999999
 31
0.0
  0
LINE
  5
1000005F
  8
VISIBLE
 10
30.44000015571714
 20
46.84344611406326
 30
0.0
 11
30.44000015571714
 21
32.53999999999999
 31
0.0
  0
LINE
  5
10000062
  8
VISIBLE
 10
28.94000015571714
 20
46.84344611406325
 30
0.0
 11
30.44000015571714
 21
46.84344611406326
 31
0.0
  0
LINE
  5
10000065
  8
VISIBLE
 10
46.64
 20
38.23655388593674
 30
0.0
 11
45.14
 21
38.23655388593674
 31
0.0
  0
LINE
  5
10000068
  8
VISIBLE
 10
44.25274499893189
 20
32.53999999999999
 30
0.0
 11
46.64
 21
38.23655388593674
 31
0.0
  0
LINE
  5
1000006B
  8
VISIBLE
 10
44.25274499893189
 20
32.53999999999999
 30
0.0
 11
41.84
 21
38.23655388593674
 31
0.0
  0
LINE
  5
1000006E
  8
VISIBLE
 10
41.84
 20
38.23655388593674
 30
0.0
 11
43.34
 21
38.23655388593674
 31
0.0
  0
LINE
  5
10000071
  8
VISIBLE
 10
43.34
 20
52.54
 30
0.0
 11
43.34
 21
38.23655388593674
 31
0.0
  0
LINE
  5
10000074
  8
VISIBLE
 10
45.14
 20
52.53999999999999
 30
0.0
 11
43.34
 21
52.54
 31
0.0
  0
LINE
  5
10000077
  8
VISIBLE
 10
45.14
 20
38.23655388593674
 30
0.0
 11
45.14
 21
52.53999999999999
 31
0.0
  0
LINE
  5
1000007A
  8
VISIBLE
 10
17.54
 20
27.54
 30
0.0
 11
17.54
 21
13.23655388593673
 31
0.0
  0
LINE
  5
1000007D
  8
VISIBLE
 10
19.34
 20
27.53999999999999
 30
0.0
 11
17.54
 21
27.54
 31
0.0
  0
LINE
  5
10000080
  8
VISIBLE
 10
19.34
 20
13.23655388593673
 30
0.0
 11
19.34
 21
27.53999999999999
 31
0.0
  0
LINE
  5
10000083
  8
VISIBLE
 10
20.84
 20
13.23655388593673
 30
0.0
 11
19.34
 21
13.23655388593673
 31
0.0
  0
LINE
  5
10000086
  8
VISIBLE
 10
18.45274499893189
 20
7.539999999999991
 30
0.0
 11
20.84
 21
13.23655388593673
 31
0.0
  0
LINE
  5
10000089
  8
VISIBLE
 10
18.45274499893189
 20
7.539999999999991
 30
0.0
 11
16.03999999999999
 21
13.23655388593673
 31
0.0
  0
LINE
  5
1000008C
  8
VISIBLE
 10
16.03999999999999
 20
13.23655388593673
 30
0.0
 11
17.54
 21
13.23655388593673
 31
0.0
  0
LINE
  5
1000008F
  8
VISIBLE
 10
72.54
 20
8.039999999999985
 30
0.0
 11
72.54
 21
77.04
 31
0.0
  0
ARC
  5
10000092
  8
VISIBLE
 10
67.04
 20
77.04
 30
0.0
 40
5.499999999999988
 50
0.0
 51
89.99999999999984
  0
LINE
  5
10000097
  8
VISIBLE
 10
8.039999999999996
 20
82.53999999999999
 30
0.0
 11
67.04000000000002
 21
82.53999999999999
 31
0.0
  0
ARC
  5
1000009A
  8
VISIBLE
 10
8.040000000000006
 20
77.03999999999998
 30
0.0
 40
5.500000000000005
 50
90.0000000000001
 51
179.9999999999997
  0
LINE
  5
1000009F
  8
VISIBLE
 10
2.54
 20
8.039999999999992
 30
0.0
 11
2.54
 21
77.04
 31
0.0
  0
ARC
  5
100000A2
  8
VISIBLE
 10
8.04000000000001
 20
8.039999999999978
 30
0.0
 40
5.499999999999996
 50
179.9999999999998
 51
269.9999999999999
  0
LINE
  5
100000A7
  8
VISIBLE
 10
8.04
 20
2.539999999999993
 30
0.0
 11
67.04000000000002
 21
2.539999999999993
 31
0.0
  0
ARC
  5
100000AA
  8
VISIBLE
 10
67.04000000000002
 20
8.039999999999985
 30
0.0
 40
5.499999999999991
 50
270.0
 51
0.0
  0
LINE
  5
100000AF
  8
VISIBLE
 10
57.12725556731224
 20
77.64
 30
0.0
 11
54.74000056624413
 21
71.94344611406325
 31
0.0
  0
LINE
  5
100000B2
  8
VISIBLE
 10
57.12725556731224
 20
77.64
 30
0.0
 11
59.54000056624414
 21
71.94344611406325
 31
0.0
  0
LINE
  5
100000B5
  8
VISIBLE
 10
59.54000056624414
 20
71.94344611406325
 30
0.0
 11
58.04000056624413
 21
71.94344611406325
 31
0.0
  0
LINE
  5
100000B8
  8
VISIBLE
 10
58.04000056624413
 20
57.63999999999999
 30
0.0
 11
58.04000056624413
 21
71.94344611406325
 31
0.0
  0
LINE
  5
100000BB
  8
VISIBLE
 10
56.24000056624413
 20
57.63999999999999
 30
0.0
 11
58.04000056624413
 21
57.63999999999999
 31
0.0
  0
LINE
  5
100000BE
  8
VISIBLE
 10
56.24000056624413
 20
71.94344611406325
 30
0.0
 11
56.24000056624413
 21
57.63999999999999
 31
0.0
  0
LINE
  5
100000C1
  8
VISIBLE
 10
54.74000056624413
 20
71.94344611406325
 30
0.0
 11
56.24000056624413
 21
71.94344611406325
 31
0.0
  0
LINE
  5
100000C4
  8
VISIBLE
 10
57.12725556731224
 20
27.54
 30
0.0
 11
54.74000056624413
 21
21.84344611406326
 31
0.0
  0
LINE
  5
100000C7
  8
VISIBLE
 10
57.12725556731224
 20
27.54
 30
0.0
 11
59.54000056624413
 21
21.84344611406325
 31
0.0
  0
LINE
  5
100000CA
  8
VISIBLE
 10
59.54000056624413
 20
21.84344611406325
 30
0.0
 11
58.04000056624413
 21
21.84344611406326
 31
0.0
  0
LINE
  5
100000CD
  8
VISIBLE
 10
58.04000056624413
 20
7.539999999999984
 30
0.0
 11
58.04000056624413
 21
21.84344611406326
 31
0.0
  0
LINE
  5
100000D0
  8
VISIBLE
 10
56.24000056624413
 20
7.539999999999998
 30
0.0
 11
58.04000056624413
 21
7.539999999999984
 31
0.0
  0
LINE
  5
100000D3
  8
VISIBLE
 10
56.24000056624413
 20
21.84344611406327
 30
0.0
 11
56.24000056624413
 21
7.539999999999998
 31
0.0
  0
LINE
  5
100000D6
  8
VISIBLE
 10
54.74000056624413
 20
21.84344611406326
 30
0.0
 11
56.24000056624413
 21
21.84344611406327
 31
0.0
  0
LINE
  5
100000D9
  8
VISIBLE
 10
44.25274499893189
 20
7.539999999999991
 30
0.0
 11
46.64
 21
13.23655388593673
 31
0.0
  0
LINE
  5
100000DC
  8
VISIBLE
 10
44.25274499893189
 20
7.539999999999991
 30
0.0
 11
41.84
 21
13.23655388593673
 31
0.0
  0
LINE
  5
100000DF
  8
VISIBLE
 10
41.84
 20
13.23655388593673
 30
0.0
 11
43.34
 21
13.23655388593673
 31
0.0
  0
LINE
  5
100000E2
  8
VISIBLE
 10
43.34
 20
27.54
 30
0.0
 11
43.34
 21
13.23655388593673
 31
0.0
  0
LINE
  5
100000E5
  8
VISIBLE
 10
45.14
 20
27.53999999999999
 30
0.0
 11
43.34
 21
27.54
 31
0.0
  0
LINE
  5
100000E8
  8
VISIBLE
 10
45.14
 20
13.23655388593673
 30
0.0
 11
45.14
 21
27.53999999999999
 31
0.0
  0
LINE
  5
100000EB
  8
VISIBLE
 10
46.64
 20
13.23655388593673
 30
0.0
 11
45.14
 21
13.23655388593673
 31
0.0
  0
LINE
  5
100000EE
  8
VISIBLE
 10
31.32725500106811
 20
27.53999985098839
 30
0.0
 11
28.94
 21
21.84344596505165
 31
0.0
  0
LINE
  5
100000F1
  8
VISIBLE
 10
31.32725500106811
 20
27.53999985098839
 30
0.0
 11
33.74000000000001
 21
21.84344596505165
 31
0.0
  0
LINE
  5
100000F4
  8
VISIBLE
 10
33.74000000000001
 20
21.84344596505165
 30
0.0
 11
32.23999999999999
 21
21.84344596505165
 31
0.0
  0
LINE
  5
100000F7
  8
VISIBLE
 10
32.23999999999999
 20
7.539999850988383
 30
0.0
 11
32.23999999999999
 21
21.84344596505165
 31
0.0
  0
LINE
  5
100000FA
  8
VISIBLE
 10
30.44
 20
7.539999850988383
 30
0.0
 11
32.23999999999999
 21
7.539999850988383
 31
0.0
  0
LINE
  5
100000FD
  8
VISIBLE
 10
30.44
 20
21.84344596505165
 30
0.0
 11
30.44
 21
7.539999850988383
 31
0.0
  0
LINE
  5
10000100
  8
VISIBLE
 10
28.94
 20
21.84344596505165
 30
0.0
 11
30.44
 21
21.84344596505165
 31
0.0
  0
LINE
  5
10000103
  8
VISIBLE
 10
44.25274499893189
 20
57.63999999999999
 30
0.0
 11
46.64
 21
63.33655388593673
 31
0.0
  0
LINE
  5
10000106
  8
VISIBLE
 10
44.25274499893189
 20
57.63999999999999
 30
0.0
 11
41.84
 21
63.33655388593673
 31
0.0
  0
LINE
  5
10000109
  8
VISIBLE
 10
41.84
 20
63.33655388593673
 30
0.0
 11
43.34
 21
63.33655388593673
 31
0.0
  0
LINE
  5
1000010C
  8
VISIBLE
 10
43.34
 20
77.64
 30
0.0
 11
43.34
 21
63.33655388593673
 31
0.0
  0
LINE
  5
1000010F
  8
VISIBLE
 10
45.14
 20
77.63999999999999
 30
0.0
 11
43.34
 21
77.64
 31
0.0
  0
LINE
  5
10000112
  8
VISIBLE
 10
45.14
 20
63.33655388593673
 30
0.0
 11
45.14
 21
77.63999999999999
 31
0.0
  0
LINE
  5
10000115
  8
VISIBLE
 10
46.64
 20
63.33655388593673
 30
0.0
 11
45.14
 21
63.33655388593673
 31
0.0
  0
LINE
  5
10000118
  8
VISIBLE
 10
31.35274499893189
 20
57.63999999999999
 30
0.0
 11
33.74
 21
63.33655388593673
 31
0.0
  0
LINE
  5
1000011B
  8
VISIBLE
 10
31.35274499893189
 20
57.63999999999999
 30
0.0
 11
28.93999999999999
 21
63.33655388593673
 31
0.0
  0
LINE
  5
1000011E
  8
VISIBLE
 10
28.93999999999999
 20
63.33655388593673
 30
0.0
 11
30.44
 21
63.33655388593673
 31
0.0
  0
LINE
  5
10000121
  8
VISIBLE
 10
30.44
 20
77.64
 30
0.0
 11
30.44
 21
63.33655388593673
 31
0.0
  0
LINE
  5
10000124
  8
VISIBLE
 10
32.23999999999999
 20
77.63999999999999
 30
0.0
 11
30.44
 21
77.64
 31
0.0
  0
LINE
  5
10000127
  8
VISIBLE
 10
32.23999999999999
 20
63.33655388593673
 30
0.0
 11
32.23999999999999
 21
77.63999999999999
 31
0.0
  0
LINE
  5
1000012A
  8
VISIBLE
 10
33.74
 20
63.33655388593673
 30
0.0
 11
32.23999999999999
 21
63.33655388593673
 31
0.0
  0
LINE
  5
1000012D
  8
VISIBLE
 10
19.33999925196171
 20
57.63999999999999
 30
0.0
 11
19.33999925196171
 21
71.94344611406325
 31
0.0
  0
LINE
  5
10000130
  8
VISIBLE
 10
17.53999925196171
 20
57.63999999999999
 30
0.0
 11
19.33999925196171
 21
57.63999999999999
 31
0.0
  0
LINE
  5
10000133
  8
VISIBLE
 10
17.53999925196171
 20
71.94344611406325
 30
0.0
 11
17.53999925196171
 21
57.63999999999999
 31
0.0
  0
LINE
  5
10000136
  8
VISIBLE
 10
16.03999925196171
 20
71.94344611406325
 30
0.0
 11
17.53999925196171
 21
71.94344611406325
 31
0.0
  0
LINE
  5
10000139
  8
VISIBLE
 10
18.42725425302982
 20
77.64
 30
0.0
 11
16.03999925196171
 21
71.94344611406325
 31
0.0
  0
LINE
  5
1000013C
  8
VISIBLE
 10
18.42725425302982
 20
77.64
 30
0.0
 11
20.83999925196172
 21
71.94344611406325
 31
0.0
  0
LINE
  5
1000013F
  8
VISIBLE
 10
20.83999925196172
 20
71.94344611406325
 30
0.0
 11
19.33999925196171
 21
71.94344611406325
 31
0.0
  0
ENDSEC
  0
EOF
